<svg xmlns="http://www.w3.org/2000/svg" xmlns:xlink="http://www.w3.org/1999/xlink" version="1.1" class="marks" width="695" height="444" viewBox="0 0 695 444"><rect width="695" height="444" fill="white"/><g fill="none" stroke-miterlimit="10" transform="translate(40,11)"><g class="mark-group role-frame root" role="graphics-object" aria-roledescription="group mark container"><g transform="translate(0,0)"><path class="background" aria-hidden="true" d="M0.5,0.5h650v350h-650Z" stroke="#ddd"/><g><g class="mark-group role-axis" aria-hidden="true"><g transform="translate(0.5,350.5)"><path class="background" aria-hidden="true" d="M0,0h0v0h0Z" pointer-events="none"/><g><g class="mark-rule role-axis-grid" pointer-events="none"><line transform="translate(0,-350)" x2="0" y2="350" stroke="#ddd" stroke-width="1" opacity="1"/><line transform="translate(33,-350)" x2="0" y2="350" stroke="#ddd" stroke-width="1" opacity="1"/><line transform="translate(66,-350)" x2="0" y2="350" stroke="#ddd" stroke-width="1" opacity="1"/><line transform="translate(98,-350)" x2="0" y2="350" stroke="#ddd" stroke-width="1" opacity="1"/><line transform="translate(131,-350)" x2="0" y2="350" stroke="#ddd" stroke-width="1" opacity="1"/><line transform="translate(164,-350)" x2="0" y2="350" stroke="#ddd" stroke-width="1" opacity="1"/><line transform="translate(197,-350)" x2="0" y2="350" stroke="#ddd" stroke-width="1" opacity="1"/><line transform="translate(230,-350)" x2="0" y2="350" stroke="#ddd" stroke-width="1" opacity="1"/><line transform="translate(263,-350)" x2="0" y2="350" stroke="#ddd" stroke-width="1" opacity="1"/><line transform="translate(295,-350)" x2="0" y2="350" stroke="#ddd" stroke-width="1" opacity="1"/><line transform="translate(328,-350)" x2="0" y2="350" stroke="#ddd" stroke-width="1" opacity="1"/><line transform="translate(361,-350)" x2="0" y2="350" stroke="#ddd" stroke-width="1" opacity="1"/><line transform="translate(394,-350)" x2="0" y2="350" stroke="#ddd" stroke-width="1" opacity="1"/><line transform="translate(427,-350)" x2="0" y2="350" stroke="#ddd" stroke-width="1" opacity="1"/><line transform="translate(460,-350)" x2="0" y2="350" stroke="#ddd" stroke-width="1" opacity="1"/><line transform="translate(492,-350)" x2="0" y2="350" stroke="#ddd" stroke-width="1" opacity="1"/><line transform="translate(525,-350)" x2="0" y2="350" stroke="#ddd" stroke-width="1" opacity="1"/><line transform="translate(558,-350)" x2="0" y2="350" stroke="#ddd" stroke-width="1" opacity="1"/><line transform="translate(591,-350)" x2="0" y2="350" stroke="#ddd" stroke-width="1" opacity="1"/><line transform="translate(624,-350)" x2="0" y2="350" stroke="#ddd" stroke-width="1" opacity="1"/></g></g><path class="foreground" aria-hidden="true" d="" pointer-events="none" display="none"/></g></g><g class="mark-group role-axis" aria-hidden="true"><g transform="translate(0.5,0.5)"><path class="background" aria-hidden="true" d="M0,0h0v0h0Z" pointer-events="none"/><g><g class="mark-rule role-axis-grid" pointer-events="none"><line transform="translate(0,350)" x2="650" y2="0" stroke="#ddd" stroke-width="1" opacity="1"/><line transform="translate(0,306)" x2="650" y2="0" stroke="#ddd" stroke-width="1" opacity="1"/><line transform="translate(0,263)" x2="650" y2="0" stroke="#ddd" stroke-width="1" opacity="1"/><line transform="translate(0,219)" x2="650" y2="0" stroke="#ddd" stroke-width="1" opacity="1"/><line transform="translate(0,175)" x2="650" y2="0" stroke="#ddd" stroke-width="1" opacity="1"/><line transform="translate(0,131)" x2="650" y2="0" stroke="#ddd" stroke-width="1" opacity="1"/><line transform="translate(0,88)" x2="650" y2="0" stroke="#ddd" stroke-width="1" opacity="1"/><line transform="translate(0,44)" x2="650" y2="0" stroke="#ddd" stroke-width="1" opacity="1"/><line transform="translate(0,0)" x2="650" y2="0" stroke="#ddd" stroke-width="1" opacity="1"/></g></g><path class="foreground" aria-hidden="true" d="" pointer-events="none" display="none"/></g></g><g class="mark-group role-axis" role="graphics-symbol" aria-roledescription="axis" aria-label="X-axis titled 'Jaar' for a time scale with values from Thursday, 01 January 1925, 12:00:00 AM to Monday, 01 January 2024, 12:00:00 AM"><g transform="translate(0.5,350.5)"><path class="background" aria-hidden="true" d="M0,0h0v0h0Z" pointer-events="none"/><g><g class="mark-rule role-axis-tick" pointer-events="none"><line transform="translate(0,0)" x2="0" y2="5" stroke="#888" stroke-width="1" opacity="1"/><line transform="translate(33,0)" x2="0" y2="5" stroke="#888" stroke-width="1" opacity="1"/><line transform="translate(66,0)" x2="0" y2="5" stroke="#888" stroke-width="1" opacity="1"/><line transform="translate(98,0)" x2="0" y2="5" stroke="#888" stroke-width="1" opacity="1"/><line transform="translate(131,0)" x2="0" y2="5" stroke="#888" stroke-width="1" opacity="1"/><line transform="translate(164,0)" x2="0" y2="5" stroke="#888" stroke-width="1" opacity="1"/><line transform="translate(197,0)" x2="0" y2="5" stroke="#888" stroke-width="1" opacity="1"/><line transform="translate(230,0)" x2="0" y2="5" stroke="#888" stroke-width="1" opacity="1"/><line transform="translate(263,0)" x2="0" y2="5" stroke="#888" stroke-width="1" opacity="1"/><line transform="translate(295,0)" x2="0" y2="5" stroke="#888" stroke-width="1" opacity="1"/><line transform="translate(328,0)" x2="0" y2="5" stroke="#888" stroke-width="1" opacity="1"/><line transform="translate(361,0)" x2="0" y2="5" stroke="#888" stroke-width="1" opacity="1"/><line transform="translate(394,0)" x2="0" y2="5" stroke="#888" stroke-width="1" opacity="1"/><line transform="translate(427,0)" x2="0" y2="5" stroke="#888" stroke-width="1" opacity="1"/><line transform="translate(460,0)" x2="0" y2="5" stroke="#888" stroke-width="1" opacity="1"/><line transform="translate(492,0)" x2="0" y2="5" stroke="#888" stroke-width="1" opacity="1"/><line transform="translate(525,0)" x2="0" y2="5" stroke="#888" stroke-width="1" opacity="1"/><line transform="translate(558,0)" x2="0" y2="5" stroke="#888" stroke-width="1" opacity="1"/><line transform="translate(591,0)" x2="0" y2="5" stroke="#888" stroke-width="1" opacity="1"/><line transform="translate(624,0)" x2="0" y2="5" stroke="#888" stroke-width="1" opacity="1"/></g><g class="mark-text role-axis-label" pointer-events="none"><text text-anchor="start" transform="translate(0,16)" font-family="sans-serif" font-size="11px" fill="#000" opacity="1">1925</text><text text-anchor="middle" transform="translate(32.82450752752603,16)" font-family="sans-serif" font-size="11px" fill="#000" opacity="0">1930</text><text text-anchor="middle" transform="translate(65.64901505505206,16)" font-family="sans-serif" font-size="11px" fill="#000" opacity="1">1935</text><text text-anchor="middle" transform="translate(98.47352258257808,16)" font-family="sans-serif" font-size="11px" fill="#000" opacity="0">1940</text><text text-anchor="middle" transform="translate(131.31525728409858,16)" font-family="sans-serif" font-size="11px" fill="#000" opacity="1">1945</text><text text-anchor="middle" transform="translate(164.1397648116246,16)" font-family="sans-serif" font-size="11px" fill="#000" opacity="0">1950</text><text text-anchor="middle" transform="translate(196.96427233915063,16)" font-family="sans-serif" font-size="11px" fill="#000" opacity="1">1955</text><text text-anchor="middle" transform="translate(229.78877986667666,16)" font-family="sans-serif" font-size="11px" fill="#000" opacity="0">1960</text><text text-anchor="middle" transform="translate(262.63126357576215,16)" font-family="sans-serif" font-size="11px" fill="#000" opacity="1">1965</text><text text-anchor="middle" transform="translate(295.45577110328816,16)" font-family="sans-serif" font-size="11px" fill="#000" opacity="0">1970</text><text text-anchor="middle" transform="translate(328.28027863081417,16)" font-family="sans-serif" font-size="11px" fill="#000" opacity="1">1975</text><text text-anchor="middle" transform="translate(361.10478615834023,16)" font-family="sans-serif" font-size="11px" fill="#000" opacity="0">1980</text><text text-anchor="middle" transform="translate(393.94726986742563,16)" font-family="sans-serif" font-size="11px" fill="#000" opacity="1">1985</text><text text-anchor="middle" transform="translate(426.7717773949517,16)" font-family="sans-serif" font-size="11px" fill="#000" opacity="0">1990</text><text text-anchor="middle" transform="translate(459.5962849224777,16)" font-family="sans-serif" font-size="11px" fill="#000" opacity="1">1995</text><text text-anchor="middle" transform="translate(492.4207924500037,16)" font-family="sans-serif" font-size="11px" fill="#000" opacity="0">2000</text><text text-anchor="middle" transform="translate(525.2632761590892,16)" font-family="sans-serif" font-size="11px" fill="#000" opacity="1">2005</text><text text-anchor="middle" transform="translate(558.0877836866152,16)" font-family="sans-serif" font-size="11px" fill="#000" opacity="0">2010</text><text text-anchor="middle" transform="translate(590.9122912141413,16)" font-family="sans-serif" font-size="11px" fill="#000" opacity="1">2015</text><text text-anchor="middle" transform="translate(623.7367987416673,16)" font-family="sans-serif" font-size="11px" fill="#000" opacity="0">2020</text></g><g class="mark-rule role-axis-domain" pointer-events="none"><line transform="translate(0,0)" x2="650" y2="0" stroke="#888" stroke-width="1" opacity="1"/></g><g class="mark-text role-axis-title" pointer-events="none"><text text-anchor="middle" transform="translate(325,31)" font-family="sans-serif" font-size="11px" font-weight="bold" fill="#000" opacity="1">Jaar</text></g></g><path class="foreground" aria-hidden="true" d="" pointer-events="none" display="none"/></g></g><g class="mark-group role-axis" role="graphics-symbol" aria-roledescription="axis" aria-label="Y-axis titled 'Aantal Publicaties' for a linear scale with values from 0 to 80"><g transform="translate(0.5,0.5)"><path class="background" aria-hidden="true" d="M0,0h0v0h0Z" pointer-events="none"/><g><g class="mark-rule role-axis-tick" pointer-events="none"><line transform="translate(0,350)" x2="-5" y2="0" stroke="#888" stroke-width="1" opacity="1"/><line transform="translate(0,306)" x2="-5" y2="0" stroke="#888" stroke-width="1" opacity="1"/><line transform="translate(0,263)" x2="-5" y2="0" stroke="#888" stroke-width="1" opacity="1"/><line transform="translate(0,219)" x2="-5" y2="0" stroke="#888" stroke-width="1" opacity="1"/><line transform="translate(0,175)" x2="-5" y2="0" stroke="#888" stroke-width="1" opacity="1"/><line transform="translate(0,131)" x2="-5" y2="0" stroke="#888" stroke-width="1" opacity="1"/><line transform="translate(0,88)" x2="-5" y2="0" stroke="#888" stroke-width="1" opacity="1"/><line transform="translate(0,44)" x2="-5" y2="0" stroke="#888" stroke-width="1" opacity="1"/><line transform="translate(0,0)" x2="-5" y2="0" stroke="#888" stroke-width="1" opacity="1"/></g><g class="mark-text role-axis-label" pointer-events="none"><text text-anchor="end" transform="translate(-7,353)" font-family="sans-serif" font-size="11px" fill="#000" opacity="1">0</text><text text-anchor="end" transform="translate(-7,309.25)" font-family="sans-serif" font-size="11px" fill="#000" opacity="1">10</text><text text-anchor="end" transform="translate(-7,265.5)" font-family="sans-serif" font-size="11px" fill="#000" opacity="1">20</text><text text-anchor="end" transform="translate(-7,221.75)" font-family="sans-serif" font-size="11px" fill="#000" opacity="1">30</text><text text-anchor="end" transform="translate(-7,178)" font-family="sans-serif" font-size="11px" fill="#000" opacity="1">40</text><text text-anchor="end" transform="translate(-7,134.25)" font-family="sans-serif" font-size="11px" fill="#000" opacity="1">50</text><text text-anchor="end" transform="translate(-7,90.5)" font-family="sans-serif" font-size="11px" fill="#000" opacity="1">60</text><text text-anchor="end" transform="translate(-7,46.75)" font-family="sans-serif" font-size="11px" fill="#000" opacity="1">70</text><text text-anchor="end" transform="translate(-7,3)" font-family="sans-serif" font-size="11px" fill="#000" opacity="1">80</text></g><g class="mark-rule role-axis-domain" pointer-events="none"><line transform="translate(0,350)" x2="0" y2="-350" stroke="#888" stroke-width="1" opacity="1"/></g><g class="mark-text role-axis-title" pointer-events="none"><text text-anchor="middle" transform="translate(-23.2353515625,175) rotate(-90) translate(0,-2)" font-family="sans-serif" font-size="11px" font-weight="bold" fill="#000" opacity="1">Aantal Publicaties</text></g></g><path class="foreground" aria-hidden="true" d="" pointer-events="none" display="none"/></g></g><g class="mark-group role-scope pathgroup" role="graphics-object" aria-roledescription="group mark container"><g transform="translate(0,0)"><path class="background" aria-hidden="true" d="M0,0h650v350h-650Z"/><g><g class="mark-area role-mark marks" role="graphics-symbol" aria-roledescription="area mark container"><path d="M0,140L6.561,140L6.561,175L13.123,175L13.123,109.375L19.684,109.375L19.684,135.625L26.263,135.625L26.263,153.125L32.825,153.125L32.825,153.125L39.386,153.125L39.386,148.75L45.947,148.75L45.947,161.875L52.526,161.875L52.526,210L59.088,210L59.088,175L65.649,175L65.649,175L72.21,175L72.21,148.75L78.79,148.75L78.79,161.875L85.351,161.875L85.351,157.5L91.912,157.5L91.912,175L98.474,175L98.474,179.375L105.051,179.375L105.051,196.875L111.613,196.875L111.613,122.5L118.175,122.5L118.175,236.25L124.736,236.25L124.736,245L131.315,245L131.315,306.25L137.877,306.25L137.877,196.875L144.438,196.875L144.438,179.375L150.999,179.375L150.999,192.5L157.578,192.5L157.578,196.875L164.14,196.875L164.14,175L170.701,175L170.701,170.625L177.262,170.625L177.262,161.875L183.842,161.875L183.842,183.75L190.403,183.75L190.403,148.75L196.964,148.75L196.964,188.125L203.526,188.125L203.526,205.625L210.105,205.625L210.105,179.375L216.666,179.375L216.666,65.625L223.227,65.625L223.227,83.125L229.789,83.125L229.789,35L236.368,35L236.368,70L242.929,70L242.929,56.875L249.491,56.875L249.491,61.25L256.052,61.25L256.052,78.75L262.631,78.75L262.631,83.125L269.193,83.125L269.193,96.25L275.754,96.25L275.754,100.625L282.315,100.625L282.315,96.25L288.894,96.25L288.894,153.125L295.456,153.125L295.456,192.5L302.017,192.5L302.017,183.75L308.578,183.75L308.578,201.25L315.158,201.25L315.158,196.875L321.719,196.875L321.719,179.375L328.28,179.375L328.28,170.625L334.842,170.625L334.842,157.5L341.421,157.5L341.421,196.875L347.982,196.875L347.982,183.75L354.543,183.75L354.543,179.375L361.105,179.375L361.105,157.5L367.684,157.5L367.684,175L374.245,175L374.245,183.75L380.807,183.75L380.807,188.125L387.368,188.125L387.368,179.375L393.947,179.375L393.947,179.375L400.509,179.375L400.509,188.125L407.07,188.125L407.07,205.625L413.631,205.625L413.631,179.375L420.21,179.375L420.21,179.375L426.772,179.375L426.772,179.375L433.333,179.375L433.333,175L439.894,175L439.894,192.5L446.474,192.5L446.474,183.75L453.035,183.75L453.035,166.25L459.596,166.25L459.596,166.25L466.158,166.25L466.158,179.375L472.737,179.375L472.737,175L479.298,175L479.298,192.5L485.859,192.5L485.859,179.375L492.421,179.375L492.421,188.125L499,188.125L499,179.375L505.561,179.375L505.561,266.875L512.123,266.875L512.123,223.125L518.684,223.125L518.684,236.25L525.263,236.25L525.263,236.25L531.825,236.25L531.825,214.375L538.386,214.375L538.386,223.125L544.947,223.125L544.947,188.125L551.526,188.125L551.526,201.25L558.088,201.25L558.088,218.75L564.649,218.75L564.649,236.25L571.21,236.25L571.21,188.125L577.79,188.125L577.79,210L584.351,210L584.351,223.125L590.912,223.125L590.912,249.375L597.474,249.375L597.474,249.375L604.053,249.375L604.053,214.375L610.614,214.375L610.614,253.75L617.175,253.75L617.175,249.375L623.737,249.375L623.737,240.625L630.316,240.625L630.316,218.75L636.877,218.75L636.877,131.25L643.439,131.25L643.439,188.125L650,188.125L650,210L650,301.875L650,306.25L643.439,306.25L643.439,293.125L636.877,293.125L636.877,266.875L630.316,266.875L630.316,293.125L623.737,293.125L623.737,280L617.175,280L617.175,284.375L610.614,284.375L610.614,266.875L604.053,266.875L604.053,271.25L597.474,271.25L597.474,271.25L590.912,271.25L590.912,262.5L584.351,262.5L584.351,227.5L577.79,227.5L577.79,231.875L571.21,231.875L571.21,271.25L564.649,271.25L564.649,253.75L558.088,253.75L558.088,249.375L551.526,249.375L551.526,218.75L544.947,218.75L544.947,240.625L538.386,240.625L538.386,231.875L531.825,231.875L531.825,245L525.263,245L525.263,253.75L518.684,253.75L518.684,231.875L512.123,231.875L512.123,271.25L505.561,271.25L505.561,231.875L499,231.875L499,240.625L492.421,240.625L492.421,231.875L485.859,231.875L485.859,223.125L479.298,223.125L479.298,218.75L472.737,218.75L472.737,223.125L466.158,223.125L466.158,201.25L459.596,201.25L459.596,214.375L453.035,214.375L453.035,205.625L446.474,205.625L446.474,240.625L439.894,240.625L439.894,223.125L433.333,223.125L433.333,227.5L426.772,227.5L426.772,223.125L420.21,223.125L420.21,214.375L413.631,214.375L413.631,240.625L407.07,240.625L407.07,231.875L400.509,231.875L400.509,223.125L393.947,223.125L393.947,223.125L387.368,223.125L387.368,236.25L380.807,236.25L380.807,236.25L374.245,236.25L374.245,231.875L367.684,231.875L367.684,223.125L361.105,223.125L361.105,223.125L354.543,223.125L354.543,245L347.982,245L347.982,236.25L341.421,236.25L341.421,218.75L334.842,218.75L334.842,249.375L328.28,249.375L328.28,271.25L321.719,271.25L321.719,262.5L315.158,262.5L315.158,258.125L308.578,258.125L308.578,249.375L302.017,249.375L302.017,249.375L295.456,249.375L295.456,201.25L288.894,201.25L288.894,188.125L282.315,188.125L282.315,218.75L275.754,218.75L275.754,188.125L269.193,188.125L269.193,188.125L262.631,188.125L262.631,192.5L256.052,192.5L256.052,148.75L249.491,148.75L249.491,153.125L242.929,153.125L242.929,166.25L236.368,166.25L236.368,157.5L229.789,157.5L229.789,161.875L223.227,161.875L223.227,135.625L216.666,135.625L216.666,240.625L210.105,240.625L210.105,236.25L203.526,236.25L203.526,231.875L196.964,231.875L196.964,210L190.403,210L190.403,245L183.842,245L183.842,245L177.262,245L177.262,236.25L170.701,236.25L170.701,231.875L164.14,231.875L164.14,236.25L157.578,236.25L157.578,223.125L150.999,223.125L150.999,218.75L144.438,218.75L144.438,231.875L137.877,231.875L137.877,328.125L131.315,328.125L131.315,258.125L124.736,258.125L124.736,262.5L118.175,262.5L118.175,153.125L111.613,153.125L111.613,236.25L105.051,236.25L105.051,223.125L98.474,223.125L98.474,223.125L91.912,223.125L91.912,214.375L85.351,214.375L85.351,223.125L78.79,223.125L78.79,192.5L72.21,192.5L72.21,214.375L65.649,214.375L65.649,214.375L59.088,214.375L59.088,253.75L52.526,253.75L52.526,214.375L45.947,214.375L45.947,223.125L39.386,223.125L39.386,210L32.825,210L32.825,227.5L26.263,227.5L26.263,223.125L19.684,223.125L19.684,201.25L13.123,201.25L13.123,240.625L6.561,240.625L6.561,218.75L0,218.75Z" fill="rgb(156, 200, 226)"/></g></g><path class="foreground" aria-hidden="true" d="" display="none"/></g><g transform="translate(0,0)"><path class="background" aria-hidden="true" d="M0,0h650v350h-650Z"/><g><g class="mark-area role-mark marks" role="graphics-symbol" aria-roledescription="area mark container"><path d="M0,218.75L6.561,218.75L6.561,240.625L13.123,240.625L13.123,201.25L19.684,201.25L19.684,223.125L26.263,223.125L26.263,227.5L32.825,227.5L32.825,210L39.386,210L39.386,223.125L45.947,223.125L45.947,214.375L52.526,214.375L52.526,253.75L59.088,253.75L59.088,214.375L65.649,214.375L65.649,214.375L72.21,214.375L72.21,192.5L78.79,192.5L78.79,223.125L85.351,223.125L85.351,214.375L91.912,214.375L91.912,223.125L98.474,223.125L98.474,223.125L105.051,223.125L105.051,236.25L111.613,236.25L111.613,153.125L118.175,153.125L118.175,262.5L124.736,262.5L124.736,258.125L131.315,258.125L131.315,328.125L137.877,328.125L137.877,231.875L144.438,231.875L144.438,218.75L150.999,218.75L150.999,223.125L157.578,223.125L157.578,236.25L164.14,236.25L164.14,231.875L170.701,231.875L170.701,236.25L177.262,236.25L177.262,245L183.842,245L183.842,245L190.403,245L190.403,210L196.964,210L196.964,231.875L203.526,231.875L203.526,236.25L210.105,236.25L210.105,240.625L216.666,240.625L216.666,135.625L223.227,135.625L223.227,161.875L229.789,161.875L229.789,157.5L236.368,157.5L236.368,166.25L242.929,166.25L242.929,153.125L249.491,153.125L249.491,148.75L256.052,148.75L256.052,192.5L262.631,192.5L262.631,188.125L269.193,188.125L269.193,188.125L275.754,188.125L275.754,218.75L282.315,218.75L282.315,188.125L288.894,188.125L288.894,201.25L295.456,201.25L295.456,249.375L302.017,249.375L302.017,249.375L308.578,249.375L308.578,258.125L315.158,258.125L315.158,262.5L321.719,262.5L321.719,271.25L328.28,271.25L328.28,249.375L334.842,249.375L334.842,218.75L341.421,218.75L341.421,236.25L347.982,236.25L347.982,245L354.543,245L354.543,223.125L361.105,223.125L361.105,223.125L367.684,223.125L367.684,231.875L374.245,231.875L374.245,236.25L380.807,236.25L380.807,236.25L387.368,236.25L387.368,223.125L393.947,223.125L393.947,223.125L400.509,223.125L400.509,231.875L407.07,231.875L407.07,240.625L413.631,240.625L413.631,214.375L420.21,214.375L420.21,223.125L426.772,223.125L426.772,227.5L433.333,227.5L433.333,223.125L439.894,223.125L439.894,240.625L446.474,240.625L446.474,205.625L453.035,205.625L453.035,214.375L459.596,214.375L459.596,201.25L466.158,201.25L466.158,223.125L472.737,223.125L472.737,218.75L479.298,218.75L479.298,223.125L485.859,223.125L485.859,231.875L492.421,231.875L492.421,240.625L499,240.625L499,231.875L505.561,231.875L505.561,271.25L512.123,271.25L512.123,231.875L518.684,231.875L518.684,253.75L525.263,253.75L525.263,245L531.825,245L531.825,231.875L538.386,231.875L538.386,240.625L544.947,240.625L544.947,218.75L551.526,218.75L551.526,249.375L558.088,249.375L558.088,253.75L564.649,253.75L564.649,271.25L571.21,271.25L571.21,231.875L577.79,231.875L577.79,227.5L584.351,227.5L584.351,262.5L590.912,262.5L590.912,271.25L597.474,271.25L597.474,271.25L604.053,271.25L604.053,266.875L610.614,266.875L610.614,284.375L617.175,284.375L617.175,280L623.737,280L623.737,293.125L630.316,293.125L630.316,266.875L636.877,266.875L636.877,293.125L643.439,293.125L643.439,306.25L650,306.25L650,301.875L650,350L650,350L643.439,350L643.439,350L636.877,350L636.877,350L630.316,350L630.316,350L623.737,350L623.737,345.625L617.175,345.625L617.175,336.875L610.614,336.875L610.614,341.25L604.053,341.25L604.053,336.875L597.474,336.875L597.474,336.875L590.912,336.875L590.912,336.875L584.351,336.875L584.351,310.625L577.79,310.625L577.79,297.5L571.21,297.5L571.21,341.25L564.649,341.25L564.649,323.75L558.088,323.75L558.088,319.375L551.526,319.375L551.526,306.25L544.947,306.25L544.947,332.5L538.386,332.5L538.386,332.5L531.825,332.5L531.825,332.5L525.263,332.5L525.263,336.875L518.684,336.875L518.684,332.5L512.123,332.5L512.123,336.875L505.561,336.875L505.561,332.5L499,332.5L499,332.5L492.421,332.5L492.421,323.75L485.859,323.75L485.859,332.5L479.298,332.5L479.298,332.5L472.737,332.5L472.737,332.5L466.158,332.5L466.158,332.5L459.596,332.5L459.596,332.5L453.035,332.5L453.035,332.5L446.474,332.5L446.474,332.5L439.894,332.5L439.894,332.5L433.333,332.5L433.333,332.5L426.772,332.5L426.772,332.5L420.21,332.5L420.21,332.5L413.631,332.5L413.631,332.5L407.07,332.5L407.07,332.5L400.509,332.5L400.509,332.5L393.947,332.5L393.947,332.5L387.368,332.5L387.368,332.5L380.807,332.5L380.807,332.5L374.245,332.5L374.245,332.5L367.684,332.5L367.684,328.125L361.105,328.125L361.105,328.125L354.543,328.125L354.543,332.5L347.982,332.5L347.982,332.5L341.421,332.5L341.421,332.5L334.842,332.5L334.842,332.5L328.28,332.5L328.28,332.5L321.719,332.5L321.719,336.875L315.158,336.875L315.158,336.875L308.578,336.875L308.578,336.875L302.017,336.875L302.017,328.125L295.456,328.125L295.456,315L288.894,315L288.894,319.375L282.315,319.375L282.315,306.25L275.754,306.25L275.754,310.625L269.193,310.625L269.193,310.625L262.631,310.625L262.631,315L256.052,315L256.052,315L249.491,315L249.491,310.625L242.929,310.625L242.929,310.625L236.368,310.625L236.368,306.25L229.789,306.25L229.789,306.25L223.227,306.25L223.227,293.125L216.666,293.125L216.666,328.125L210.105,328.125L210.105,328.125L203.526,328.125L203.526,323.75L196.964,323.75L196.964,323.75L190.403,323.75L190.403,323.75L183.842,323.75L183.842,323.75L177.262,323.75L177.262,323.75L170.701,323.75L170.701,323.75L164.14,323.75L164.14,323.75L157.578,323.75L157.578,328.125L150.999,328.125L150.999,328.125L144.438,328.125L144.438,336.875L137.877,336.875L137.877,350L131.315,350L131.315,332.5L124.736,332.5L124.736,341.25L118.175,341.25L118.175,332.5L111.613,332.5L111.613,323.75L105.051,323.75L105.051,323.75L98.474,323.75L98.474,328.125L91.912,328.125L91.912,328.125L85.351,328.125L85.351,328.125L78.79,328.125L78.79,323.75L72.21,323.75L72.21,323.75L65.649,323.75L65.649,323.75L59.088,323.75L59.088,332.5L52.526,332.5L52.526,323.75L45.947,323.75L45.947,323.75L39.386,323.75L39.386,328.125L32.825,328.125L32.825,323.75L26.263,323.75L26.263,323.75L19.684,323.75L19.684,323.75L13.123,323.75L13.123,332.5L6.561,332.5L6.561,332.5L0,332.5Z" fill="rgb(91, 163, 207)"/></g></g><path class="foreground" aria-hidden="true" d="" display="none"/></g><g transform="translate(0,0)"><path class="background" aria-hidden="true" d="M0,0h650v350h-650Z"/><g><g class="mark-area role-mark marks" role="graphics-symbol" aria-roledescription="area mark container"><path d="M0,332.5L6.561,332.5L6.561,332.5L13.123,332.5L13.123,323.75L19.684,323.75L19.684,323.75L26.263,323.75L26.263,323.75L32.825,323.75L32.825,328.125L39.386,328.125L39.386,323.75L45.947,323.75L45.947,323.75L52.526,323.75L52.526,332.5L59.088,332.5L59.088,323.75L65.649,323.75L65.649,323.75L72.21,323.75L72.21,323.75L78.79,323.75L78.79,328.125L85.351,328.125L85.351,328.125L91.912,328.125L91.912,328.125L98.474,328.125L98.474,323.75L105.051,323.75L105.051,323.75L111.613,323.75L111.613,332.5L118.175,332.5L118.175,341.25L124.736,341.25L124.736,332.5L131.315,332.5L131.315,350L137.877,350L137.877,336.875L144.438,336.875L144.438,328.125L150.999,328.125L150.999,328.125L157.578,328.125L157.578,323.75L164.14,323.75L164.14,323.75L170.701,323.75L170.701,323.75L177.262,323.75L177.262,323.75L183.842,323.75L183.842,323.75L190.403,323.75L190.403,323.75L196.964,323.75L196.964,323.75L203.526,323.75L203.526,328.125L210.105,328.125L210.105,328.125L216.666,328.125L216.666,293.125L223.227,293.125L223.227,306.25L229.789,306.25L229.789,306.25L236.368,306.25L236.368,310.625L242.929,310.625L242.929,310.625L249.491,310.625L249.491,315L256.052,315L256.052,315L262.631,315L262.631,310.625L269.193,310.625L269.193,310.625L275.754,310.625L275.754,306.25L282.315,306.25L282.315,319.375L288.894,319.375L288.894,315L295.456,315L295.456,328.125L302.017,328.125L302.017,336.875L308.578,336.875L308.578,336.875L315.158,336.875L315.158,336.875L321.719,336.875L321.719,332.5L328.28,332.5L328.28,332.5L334.842,332.5L334.842,332.5L341.421,332.5L341.421,332.5L347.982,332.5L347.982,332.5L354.543,332.5L354.543,328.125L361.105,328.125L361.105,328.125L367.684,328.125L367.684,332.5L374.245,332.5L374.245,332.5L380.807,332.5L380.807,332.5L387.368,332.5L387.368,332.5L393.947,332.5L393.947,332.5L400.509,332.5L400.509,332.5L407.07,332.5L407.07,332.5L413.631,332.5L413.631,332.5L420.21,332.5L420.21,332.5L426.772,332.5L426.772,332.5L433.333,332.5L433.333,332.5L439.894,332.5L439.894,332.5L446.474,332.5L446.474,332.5L453.035,332.5L453.035,332.5L459.596,332.5L459.596,332.5L466.158,332.5L466.158,332.5L472.737,332.5L472.737,332.5L479.298,332.5L479.298,332.5L485.859,332.5L485.859,323.75L492.421,323.75L492.421,332.5L499,332.5L499,332.5L505.561,332.5L505.561,336.875L512.123,336.875L512.123,332.5L518.684,332.5L518.684,336.875L525.263,336.875L525.263,332.5L531.825,332.5L531.825,332.5L538.386,332.5L538.386,332.5L544.947,332.5L544.947,306.25L551.526,306.25L551.526,319.375L558.088,319.375L558.088,323.75L564.649,323.75L564.649,341.25L571.21,341.25L571.21,297.5L577.79,297.5L577.79,310.625L584.351,310.625L584.351,336.875L590.912,336.875L590.912,336.875L597.474,336.875L597.474,336.875L604.053,336.875L604.053,341.25L610.614,341.25L610.614,336.875L617.175,336.875L617.175,345.625L623.737,345.625L623.737,350L630.316,350L630.316,350L636.877,350L636.877,350L643.439,350L643.439,350L650,350L650,350L650,350L650,350L643.439,350L643.439,350L636.877,350L636.877,350L630.316,350L630.316,350L623.737,350L623.737,350L617.175,350L617.175,350L610.614,350L610.614,350L604.053,350L604.053,350L597.474,350L597.474,350L590.912,350L590.912,350L584.351,350L584.351,350L577.79,350L577.79,350L571.21,350L571.21,350L564.649,350L564.649,350L558.088,350L558.088,350L551.526,350L551.526,350L544.947,350L544.947,350L538.386,350L538.386,350L531.825,350L531.825,350L525.263,350L525.263,350L518.684,350L518.684,350L512.123,350L512.123,350L505.561,350L505.561,350L499,350L499,350L492.421,350L492.421,350L485.859,350L485.859,350L479.298,350L479.298,350L472.737,350L472.737,350L466.158,350L466.158,350L459.596,350L459.596,350L453.035,350L453.035,350L446.474,350L446.474,350L439.894,350L439.894,350L433.333,350L433.333,350L426.772,350L426.772,350L420.21,350L420.21,350L413.631,350L413.631,350L407.07,350L407.07,350L400.509,350L400.509,350L393.947,350L393.947,350L387.368,350L387.368,350L380.807,350L380.807,350L374.245,350L374.245,350L367.684,350L367.684,350L361.105,350L361.105,350L354.543,350L354.543,350L347.982,350L347.982,350L341.421,350L341.421,350L334.842,350L334.842,350L328.28,350L328.28,350L321.719,350L321.719,350L315.158,350L315.158,350L308.578,350L308.578,350L302.017,350L302.017,350L295.456,350L295.456,350L288.894,350L288.894,350L282.315,350L282.315,350L275.754,350L275.754,350L269.193,350L269.193,350L262.631,350L262.631,350L256.052,350L256.052,350L249.491,350L249.491,350L242.929,350L242.929,350L236.368,350L236.368,350L229.789,350L229.789,350L223.227,350L223.227,350L216.666,350L216.666,350L210.105,350L210.105,350L203.526,350L203.526,350L196.964,350L196.964,350L190.403,350L190.403,350L183.842,350L183.842,350L177.262,350L177.262,350L170.701,350L170.701,350L164.14,350L164.14,350L157.578,350L157.578,350L150.999,350L150.999,350L144.438,350L144.438,350L137.877,350L137.877,350L131.315,350L131.315,350L124.736,350L124.736,350L118.175,350L118.175,350L111.613,350L111.613,350L105.051,350L105.051,350L98.474,350L98.474,350L91.912,350L91.912,350L85.351,350L85.351,350L78.79,350L78.79,350L72.21,350L72.21,350L65.649,350L65.649,350L59.088,350L59.088,350L52.526,350L52.526,350L45.947,350L45.947,350L39.386,350L39.386,350L32.825,350L32.825,350L26.263,350L26.263,350L19.684,350L19.684,350L13.123,350L13.123,350L6.561,350L6.561,350L0,350Z" fill="rgb(41, 120, 184)"/></g></g><path class="foreground" aria-hidden="true" d="" display="none"/></g></g><g class="mark-group role-legend" role="graphics-symbol" aria-roledescription="legend" aria-label="Symbol legend titled 'Type Publicaties' for fill color with 3 values: algemeen, artikel, boekbespreking"><g transform="translate(0,401)"><path class="background" aria-hidden="true" d="M0,0h225v27h-225Z" pointer-events="none"/><g><g class="mark-group role-legend-entry"><g transform="translate(0,16)"><path class="background" aria-hidden="true" d="M0,0h0v0h0Z" pointer-events="none"/><g><g class="mark-group role-scope" role="graphics-object" aria-roledescription="group mark container"><g transform="translate(0,0)"><path class="background" aria-hidden="true" d="M0,0h64.31298828125v11h-64.31298828125Z" pointer-events="none" opacity="1"/><g><g class="mark-symbol role-legend-symbol" pointer-events="none"><path transform="translate(6,6)" d="M5,0A5,5,0,1,1,-5,0A5,5,0,1,1,5,0" fill="rgb(156, 200, 226)" stroke-width="1.5" opacity="1"/></g><g class="mark-text role-legend-label" pointer-events="none"><text text-anchor="start" transform="translate(16,9)" font-family="sans-serif" font-size="11px" fill="#000" opacity="1">algemeen</text></g></g><path class="foreground" aria-hidden="true" d="" pointer-events="none" display="none"/></g><g transform="translate(75,0)"><path class="background" aria-hidden="true" d="M0,0h45.34228515625v11h-45.34228515625Z" pointer-events="none" opacity="1"/><g><g class="mark-symbol role-legend-symbol" pointer-events="none"><path transform="translate(6,6)" d="M5,0A5,5,0,1,1,-5,0A5,5,0,1,1,5,0" fill="rgb(91, 163, 207)" stroke-width="1.5" opacity="1"/></g><g class="mark-text role-legend-label" pointer-events="none"><text text-anchor="start" transform="translate(16,9)" font-family="sans-serif" font-size="11px" fill="#000" opacity="1">artikel</text></g></g><path class="foreground" aria-hidden="true" d="" pointer-events="none" display="none"/></g><g transform="translate(131,0)"><path class="background" aria-hidden="true" d="M0,0h93.666015625v11h-93.666015625Z" pointer-events="none" opacity="1"/><g><g class="mark-symbol role-legend-symbol" pointer-events="none"><path transform="translate(6,6)" d="M5,0A5,5,0,1,1,-5,0A5,5,0,1,1,5,0" fill="rgb(41, 120, 184)" stroke-width="1.5" opacity="1"/></g><g class="mark-text role-legend-label" pointer-events="none"><text text-anchor="start" transform="translate(16,9)" font-family="sans-serif" font-size="11px" fill="#000" opacity="1">boekbespreking</text></g></g><path class="foreground" aria-hidden="true" d="" pointer-events="none" display="none"/></g></g></g><path class="foreground" aria-hidden="true" d="" pointer-events="none" display="none"/></g></g><g class="mark-text role-legend-title" pointer-events="none"><text text-anchor="start" transform="translate(0,9)" font-family="sans-serif" font-size="11px" font-weight="bold" fill="#000" opacity="1">Type Publicaties</text></g></g><path class="foreground" aria-hidden="true" d="" pointer-events="none" display="none"/></g></g></g><path class="foreground" aria-hidden="true" d="" display="none"/></g></g></g></svg>