<svg xmlns="http://www.w3.org/2000/svg" xmlns:xlink="http://www.w3.org/1999/xlink" version="1.1" class="marks" width="711" height="444" viewBox="0 0 711 444"><rect width="711" height="444" fill="white"/><g fill="none" stroke-miterlimit="10" transform="translate(56,11)"><g class="mark-group role-frame root" role="graphics-object" aria-roledescription="group mark container"><g transform="translate(0,0)"><path class="background" aria-hidden="true" d="M0.5,0.5h650v350h-650Z" stroke="#ddd"/><g><g class="mark-group role-axis" aria-hidden="true"><g transform="translate(0.5,350.5)"><path class="background" aria-hidden="true" d="M0,0h0v0h0Z" pointer-events="none"/><g><g class="mark-rule role-axis-grid" pointer-events="none"><line transform="translate(5,-350)" x2="0" y2="350" stroke="#ddd" stroke-width="1" opacity="1"/><line transform="translate(37,-350)" x2="0" y2="350" stroke="#ddd" stroke-width="1" opacity="1"/><line transform="translate(70,-350)" x2="0" y2="350" stroke="#ddd" stroke-width="1" opacity="1"/><line transform="translate(102,-350)" x2="0" y2="350" stroke="#ddd" stroke-width="1" opacity="1"/><line transform="translate(134,-350)" x2="0" y2="350" stroke="#ddd" stroke-width="1" opacity="1"/><line transform="translate(167,-350)" x2="0" y2="350" stroke="#ddd" stroke-width="1" opacity="1"/><line transform="translate(199,-350)" x2="0" y2="350" stroke="#ddd" stroke-width="1" opacity="1"/><line transform="translate(231,-350)" x2="0" y2="350" stroke="#ddd" stroke-width="1" opacity="1"/><line transform="translate(264,-350)" x2="0" y2="350" stroke="#ddd" stroke-width="1" opacity="1"/><line transform="translate(296,-350)" x2="0" y2="350" stroke="#ddd" stroke-width="1" opacity="1"/><line transform="translate(328,-350)" x2="0" y2="350" stroke="#ddd" stroke-width="1" opacity="1"/><line transform="translate(361,-350)" x2="0" y2="350" stroke="#ddd" stroke-width="1" opacity="1"/><line transform="translate(393,-350)" x2="0" y2="350" stroke="#ddd" stroke-width="1" opacity="1"/><line transform="translate(425,-350)" x2="0" y2="350" stroke="#ddd" stroke-width="1" opacity="1"/><line transform="translate(458,-350)" x2="0" y2="350" stroke="#ddd" stroke-width="1" opacity="1"/><line transform="translate(490,-350)" x2="0" y2="350" stroke="#ddd" stroke-width="1" opacity="1"/><line transform="translate(522,-350)" x2="0" y2="350" stroke="#ddd" stroke-width="1" opacity="1"/><line transform="translate(555,-350)" x2="0" y2="350" stroke="#ddd" stroke-width="1" opacity="1"/><line transform="translate(587,-350)" x2="0" y2="350" stroke="#ddd" stroke-width="1" opacity="1"/><line transform="translate(619,-350)" x2="0" y2="350" stroke="#ddd" stroke-width="1" opacity="1"/></g></g><path class="foreground" aria-hidden="true" d="" pointer-events="none" display="none"/></g></g><g class="mark-group role-axis" aria-hidden="true"><g transform="translate(0.5,0.5)"><path class="background" aria-hidden="true" d="M0,0h0v0h0Z" pointer-events="none"/><g><g class="mark-rule role-axis-grid" pointer-events="none"><line transform="translate(0,350)" x2="650" y2="0" stroke="#ddd" stroke-width="1" opacity="1"/><line transform="translate(0,315)" x2="650" y2="0" stroke="#ddd" stroke-width="1" opacity="1"/><line transform="translate(0,280)" x2="650" y2="0" stroke="#ddd" stroke-width="1" opacity="1"/><line transform="translate(0,245)" x2="650" y2="0" stroke="#ddd" stroke-width="1" opacity="1"/><line transform="translate(0,210)" x2="650" y2="0" stroke="#ddd" stroke-width="1" opacity="1"/><line transform="translate(0,175)" x2="650" y2="0" stroke="#ddd" stroke-width="1" opacity="1"/><line transform="translate(0,140)" x2="650" y2="0" stroke="#ddd" stroke-width="1" opacity="1"/><line transform="translate(0,105)" x2="650" y2="0" stroke="#ddd" stroke-width="1" opacity="1"/><line transform="translate(0,70)" x2="650" y2="0" stroke="#ddd" stroke-width="1" opacity="1"/><line transform="translate(0,35)" x2="650" y2="0" stroke="#ddd" stroke-width="1" opacity="1"/><line transform="translate(0,0)" x2="650" y2="0" stroke="#ddd" stroke-width="1" opacity="1"/></g></g><path class="foreground" aria-hidden="true" d="" pointer-events="none" display="none"/></g></g><g class="mark-group role-axis" role="graphics-symbol" aria-roledescription="axis" aria-label="X-axis titled 'Jaar' for a time scale with values from Monday, 24 March 1924, 12:11:43 PM to Wednesday, 09 October 2024, 12:48:16 PM"><g transform="translate(0.5,350.5)"><path class="background" aria-hidden="true" d="M0,0h0v0h0Z" pointer-events="none"/><g><g class="mark-rule role-axis-tick" pointer-events="none"><line transform="translate(5,0)" x2="0" y2="5" stroke="#888" stroke-width="1" opacity="1"/><line transform="translate(37,0)" x2="0" y2="5" stroke="#888" stroke-width="1" opacity="1"/><line transform="translate(70,0)" x2="0" y2="5" stroke="#888" stroke-width="1" opacity="1"/><line transform="translate(102,0)" x2="0" y2="5" stroke="#888" stroke-width="1" opacity="1"/><line transform="translate(134,0)" x2="0" y2="5" stroke="#888" stroke-width="1" opacity="1"/><line transform="translate(167,0)" x2="0" y2="5" stroke="#888" stroke-width="1" opacity="1"/><line transform="translate(199,0)" x2="0" y2="5" stroke="#888" stroke-width="1" opacity="1"/><line transform="translate(231,0)" x2="0" y2="5" stroke="#888" stroke-width="1" opacity="1"/><line transform="translate(264,0)" x2="0" y2="5" stroke="#888" stroke-width="1" opacity="1"/><line transform="translate(296,0)" x2="0" y2="5" stroke="#888" stroke-width="1" opacity="1"/><line transform="translate(328,0)" x2="0" y2="5" stroke="#888" stroke-width="1" opacity="1"/><line transform="translate(361,0)" x2="0" y2="5" stroke="#888" stroke-width="1" opacity="1"/><line transform="translate(393,0)" x2="0" y2="5" stroke="#888" stroke-width="1" opacity="1"/><line transform="translate(425,0)" x2="0" y2="5" stroke="#888" stroke-width="1" opacity="1"/><line transform="translate(458,0)" x2="0" y2="5" stroke="#888" stroke-width="1" opacity="1"/><line transform="translate(490,0)" x2="0" y2="5" stroke="#888" stroke-width="1" opacity="1"/><line transform="translate(522,0)" x2="0" y2="5" stroke="#888" stroke-width="1" opacity="1"/><line transform="translate(555,0)" x2="0" y2="5" stroke="#888" stroke-width="1" opacity="1"/><line transform="translate(587,0)" x2="0" y2="5" stroke="#888" stroke-width="1" opacity="1"/><line transform="translate(619,0)" x2="0" y2="5" stroke="#888" stroke-width="1" opacity="1"/></g><g class="mark-text role-axis-label" pointer-events="none"><text text-anchor="middle" transform="translate(5,16)" font-family="sans-serif" font-size="11px" fill="#000" opacity="1">1925</text><text text-anchor="middle" transform="translate(37.319515104025626,16)" font-family="sans-serif" font-size="11px" fill="#000" opacity="1">1930</text><text text-anchor="middle" transform="translate(69.63903020805125,16)" font-family="sans-serif" font-size="11px" fill="#000" opacity="1">1935</text><text text-anchor="middle" transform="translate(101.95854531207688,16)" font-family="sans-serif" font-size="11px" fill="#000" opacity="1">1940</text><text text-anchor="middle" transform="translate(134.29502255665088,16)" font-family="sans-serif" font-size="11px" fill="#000" opacity="1">1945</text><text text-anchor="middle" transform="translate(166.61453766067655,16)" font-family="sans-serif" font-size="11px" fill="#000" opacity="1">1950</text><text text-anchor="middle" transform="translate(198.93405276470216,16)" font-family="sans-serif" font-size="11px" fill="#000" opacity="1">1955</text><text text-anchor="middle" transform="translate(231.2535678687278,16)" font-family="sans-serif" font-size="11px" fill="#000" opacity="1">1960</text><text text-anchor="middle" transform="translate(263.59078259767347,16)" font-family="sans-serif" font-size="11px" fill="#000" opacity="1">1965</text><text text-anchor="middle" transform="translate(295.9102977016991,16)" font-family="sans-serif" font-size="11px" fill="#000" opacity="1">1970</text><text text-anchor="middle" transform="translate(328.22981280572475,16)" font-family="sans-serif" font-size="11px" fill="#000" opacity="1">1975</text><text text-anchor="middle" transform="translate(360.54932790975033,16)" font-family="sans-serif" font-size="11px" fill="#000" opacity="1">1980</text><text text-anchor="middle" transform="translate(392.886542638696,16)" font-family="sans-serif" font-size="11px" fill="#000" opacity="1">1985</text><text text-anchor="middle" transform="translate(425.20605774272167,16)" font-family="sans-serif" font-size="11px" fill="#000" opacity="1">1990</text><text text-anchor="middle" transform="translate(457.52557284674725,16)" font-family="sans-serif" font-size="11px" fill="#000" opacity="1">1995</text><text text-anchor="middle" transform="translate(489.84508795077295,16)" font-family="sans-serif" font-size="11px" fill="#000" opacity="1">2000</text><text text-anchor="middle" transform="translate(522.1823026797186,16)" font-family="sans-serif" font-size="11px" fill="#000" opacity="1">2005</text><text text-anchor="middle" transform="translate(554.5018177837442,16)" font-family="sans-serif" font-size="11px" fill="#000" opacity="1">2010</text><text text-anchor="middle" transform="translate(586.8213328877699,16)" font-family="sans-serif" font-size="11px" fill="#000" opacity="1">2015</text><text text-anchor="middle" transform="translate(619.1408479917955,16)" font-family="sans-serif" font-size="11px" fill="#000" opacity="1">2020</text></g><g class="mark-rule role-axis-domain" pointer-events="none"><line transform="translate(0,0)" x2="650" y2="0" stroke="#888" stroke-width="1" opacity="1"/></g><g class="mark-text role-axis-title" pointer-events="none"><text text-anchor="middle" transform="translate(325,31)" font-family="sans-serif" font-size="11px" font-weight="bold" fill="#000" opacity="1">Jaar</text></g></g><path class="foreground" aria-hidden="true" d="" pointer-events="none" display="none"/></g></g><g class="mark-group role-axis" role="graphics-symbol" aria-roledescription="axis" aria-label="Y-axis titled 'Aantal Publicaties' for a linear scale with values from 0% to 100%"><g transform="translate(0.5,0.5)"><path class="background" aria-hidden="true" d="M0,0h0v0h0Z" pointer-events="none"/><g><g class="mark-rule role-axis-tick" pointer-events="none"><line transform="translate(0,350)" x2="-5" y2="0" stroke="#888" stroke-width="1" opacity="1"/><line transform="translate(0,315)" x2="-5" y2="0" stroke="#888" stroke-width="1" opacity="1"/><line transform="translate(0,280)" x2="-5" y2="0" stroke="#888" stroke-width="1" opacity="1"/><line transform="translate(0,245)" x2="-5" y2="0" stroke="#888" stroke-width="1" opacity="1"/><line transform="translate(0,210)" x2="-5" y2="0" stroke="#888" stroke-width="1" opacity="1"/><line transform="translate(0,175)" x2="-5" y2="0" stroke="#888" stroke-width="1" opacity="1"/><line transform="translate(0,140)" x2="-5" y2="0" stroke="#888" stroke-width="1" opacity="1"/><line transform="translate(0,105)" x2="-5" y2="0" stroke="#888" stroke-width="1" opacity="1"/><line transform="translate(0,70)" x2="-5" y2="0" stroke="#888" stroke-width="1" opacity="1"/><line transform="translate(0,35)" x2="-5" y2="0" stroke="#888" stroke-width="1" opacity="1"/><line transform="translate(0,0)" x2="-5" y2="0" stroke="#888" stroke-width="1" opacity="1"/></g><g class="mark-text role-axis-label" pointer-events="none"><text text-anchor="end" transform="translate(-7,353)" font-family="sans-serif" font-size="11px" fill="#000" opacity="1">0%</text><text text-anchor="end" transform="translate(-7,318)" font-family="sans-serif" font-size="11px" fill="#000" opacity="1">10%</text><text text-anchor="end" transform="translate(-7,283)" font-family="sans-serif" font-size="11px" fill="#000" opacity="1">20%</text><text text-anchor="end" transform="translate(-7,247.99999999999997)" font-family="sans-serif" font-size="11px" fill="#000" opacity="1">30%</text><text text-anchor="end" transform="translate(-7,213)" font-family="sans-serif" font-size="11px" fill="#000" opacity="1">40%</text><text text-anchor="end" transform="translate(-7,178)" font-family="sans-serif" font-size="11px" fill="#000" opacity="1">50%</text><text text-anchor="end" transform="translate(-7,143)" font-family="sans-serif" font-size="11px" fill="#000" opacity="1">60%</text><text text-anchor="end" transform="translate(-7,108.00000000000001)" font-family="sans-serif" font-size="11px" fill="#000" opacity="1">70%</text><text text-anchor="end" transform="translate(-7,72.99999999999999)" font-family="sans-serif" font-size="11px" fill="#000" opacity="1">80%</text><text text-anchor="end" transform="translate(-7,37.99999999999999)" font-family="sans-serif" font-size="11px" fill="#000" opacity="1">90%</text><text text-anchor="end" transform="translate(-7,3)" font-family="sans-serif" font-size="11px" fill="#000" opacity="1">100%</text></g><g class="mark-rule role-axis-domain" pointer-events="none"><line transform="translate(0,350)" x2="0" y2="-350" stroke="#888" stroke-width="1" opacity="1"/></g><g class="mark-text role-axis-title" pointer-events="none"><text text-anchor="middle" transform="translate(-39.1337890625,175) rotate(-90) translate(0,-2)" font-family="sans-serif" font-size="11px" font-weight="bold" fill="#000" opacity="1">Aantal Publicaties</text></g></g><path class="foreground" aria-hidden="true" d="" pointer-events="none" display="none"/></g></g><g class="mark-rect role-mark marks" role="graphics-symbol" aria-roledescription="rect mark container"><path d="M1.5499999999999998,0h6.9v323.0769230769231h-6.9Z" fill="#4c78a8"/><path d="M1.5499999999999998,323.0769230769231h6.9v26.923076923076906h-6.9Z" fill="#f58518"/><path d="M8.010363095821116,0h6.9v350h-6.9Z" fill="#4c78a8"/><path d="M14.470726191642228,0h6.9v325.8620689655172h-6.9Z" fill="#4c78a8"/><path d="M14.470726191642228,325.8620689655172h6.9v24.13793103448279h-6.9Z" fill="#f58518"/><path d="M20.931089287463344,0h6.9v334.7826086956522h-6.9Z" fill="#4c78a8"/><path d="M20.931089287463344,334.7826086956522h6.9v15.217391304347814h-6.9Z" fill="#f58518"/><path d="M27.409152008204515,0h6.9v350h-6.9Z" fill="#4c78a8"/><path d="M33.86951510402562,0h6.9v350h-6.9Z" fill="#4c78a8"/><path d="M40.32987819984674,0h6.9v334.7826086956522h-6.9Z" fill="#4c78a8"/><path d="M40.32987819984674,334.7826086956522h6.9v15.217391304347814h-6.9Z" fill="#f58518"/><path d="M46.790241295667855,0h6.9v350h-6.9Z" fill="#4c78a8"/><path d="M53.268304016409026,0h6.9v311.1111111111111h-6.9Z" fill="#4c78a8"/><path d="M53.268304016409026,311.1111111111111h6.9v38.888888888888914h-6.9Z" fill="#f58518"/><path d="M59.72866711223014,0h6.9v322h-6.9Z" fill="#4c78a8"/><path d="M59.72866711223014,322h6.9v28h-6.9Z" fill="#f58518"/><path d="M66.18903020805125,0h6.9v350h-6.9Z" fill="#4c78a8"/><path d="M72.64939330387237,0h6.9v337.93103448275866h-6.9Z" fill="#4c78a8"/><path d="M72.64939330387237,337.93103448275866h6.9v12.068965517241338h-6.9Z" fill="#f58518"/><path d="M79.12745602461354,0h6.9v350h-6.9Z" fill="#4c78a8"/><path d="M85.58781912043466,0h6.9v336h-6.9Z" fill="#4c78a8"/><path d="M85.58781912043466,336h6.9v14h-6.9Z" fill="#f58518"/><path d="M92.04818221625577,0h6.9v306.25h-6.9Z" fill="#4c78a8"/><path d="M92.04818221625577,306.25h6.9v43.75h-6.9Z" fill="#f58518"/><path d="M98.50854531207688,0h6.9v289.1304347826087h-6.9Z" fill="#4c78a8"/><path d="M98.50854531207688,289.1304347826087h6.9v60.86956521739131h-6.9Z" fill="#f58518"/><path d="M104.98513306407472,0h6.9v350h-6.9Z" fill="#4c78a8"/><path d="M111.44549615989582,0h6.9v332.9268292682927h-6.9Z" fill="#4c78a8"/><path d="M111.44549615989582,332.9268292682927h6.9v17.073170731707307h-6.9Z" fill="#f58518"/><path d="M117.9065967400886,0h6.9v330.55555555555554h-6.9Z" fill="#4c78a8"/><path d="M117.9065967400886,330.55555555555554h6.9v19.444444444444457h-6.9Z" fill="#f58518"/><path d="M124.36695983590971,0h6.9v329.4117647058824h-6.9Z" fill="#4c78a8"/><path d="M124.36695983590971,329.4117647058824h6.9v20.588235294117624h-6.9Z" fill="#f58518"/><path d="M130.8450225566509,0h6.9v350h-6.9Z" fill="#4c78a8"/><path d="M137.305385652472,0h6.9v350h-6.9Z" fill="#4c78a8"/><path d="M143.76574874829313,0h6.9v350h-6.9Z" fill="#4c78a8"/><path d="M150.22611184411426,0h6.9v350h-6.9Z" fill="#4c78a8"/><path d="M156.7041745648554,0h6.9v332.5h-6.9Z" fill="#4c78a8"/><path d="M156.7041745648554,332.5h6.9v17.5h-6.9Z" fill="#54a24b"/><path d="M163.16453766067656,0h6.9v333.3333333333333h-6.9Z" fill="#4c78a8"/><path d="M163.16453766067656,333.3333333333333h6.9v16.666666666666686h-6.9Z" fill="#f58518"/><path d="M169.62490075649765,0h6.9v332.5h-6.9Z" fill="#4c78a8"/><path d="M169.62490075649765,332.5h6.9v17.5h-6.9Z" fill="#f58518"/><path d="M176.08526385231877,0h6.9v330.55555555555554h-6.9Z" fill="#4c78a8"/><path d="M176.08526385231877,330.55555555555554h6.9v19.444444444444457h-6.9Z" fill="#f58518"/><path d="M182.56332657305995,0h6.9v350h-6.9Z" fill="#4c78a8"/><path d="M189.02368966888108,0h6.9v323.0769230769231h-6.9Z" fill="#4c78a8"/><path d="M189.02368966888108,323.0769230769231h6.9v26.923076923076906h-6.9Z" fill="#f58518"/><path d="M195.48405276470217,0h6.9v300h-6.9Z" fill="#4c78a8"/><path d="M195.48405276470217,300h6.9v50h-6.9Z" fill="#f58518"/><path d="M201.9444158605233,0h6.9v350h-6.9Z" fill="#4c78a8"/><path d="M208.42247858126447,0h6.9v332.5h-6.9Z" fill="#4c78a8"/><path d="M208.42247858126447,332.5h6.9v17.5h-6.9Z" fill="#f58518"/><path d="M214.88284167708557,0h6.9v350h-6.9Z" fill="#4c78a8"/><path d="M221.3432047729067,0h6.9v312.5h-6.9Z" fill="#4c78a8"/><path d="M221.3432047729067,312.5h6.9v37.5h-6.9Z" fill="#f58518"/><path d="M227.8035678687278,0h6.9v326.6666666666667h-6.9Z" fill="#4c78a8"/><path d="M227.8035678687278,326.6666666666667h6.9v23.333333333333314h-6.9Z" fill="#f58518"/><path d="M234.281630589469,0h6.9v350h-6.9Z" fill="#4c78a8"/><path d="M240.74199368529008,0h6.9v350h-6.9Z" fill="#4c78a8"/><path d="M247.2023567811112,0h6.9v328.125h-6.9Z" fill="#4c78a8"/><path d="M247.2023567811112,328.125h6.9v21.875h-6.9Z" fill="#f58518"/><path d="M253.66271987693233,0h6.9v336h-6.9Z" fill="#4c78a8"/><path d="M253.66271987693233,336h6.9v14h-6.9Z" fill="#f58518"/><path d="M260.1407825976735,0h6.9v350h-6.9Z" fill="#4c78a8"/><path d="M266.60114569349463,0h6.9v301.7241379310345h-6.9Z" fill="#4c78a8"/><path d="M266.60114569349463,301.7241379310345h6.9v36.206896551724185h-6.9Z" fill="#f58518"/><path d="M266.60114569349463,337.93103448275866h6.9v12.068965517241338h-6.9Z" fill="#54a24b"/><path d="M273.0615087893157,0h6.9v297.5h-6.9Z" fill="#4c78a8"/><path d="M273.0615087893157,297.5h6.9v35h-6.9Z" fill="#f58518"/><path d="M273.0615087893157,332.5h6.9v17.5h-6.9Z" fill="#54a24b"/><path d="M279.5218718851368,0h6.9v280h-6.9Z" fill="#4c78a8"/><path d="M279.5218718851368,280h6.9v58.333333333333314h-6.9Z" fill="#f58518"/><path d="M279.5218718851368,338.3333333333333h6.9v11.666666666666686h-6.9Z" fill="#e45756"/><path d="M285.999934605878,0h6.9v269.2307692307692h-6.9Z" fill="#4c78a8"/><path d="M285.999934605878,269.2307692307692h6.9v40.38461538461536h-6.9Z" fill="#f58518"/><path d="M285.999934605878,309.6153846153846h6.9v26.923076923076962h-6.9Z" fill="#e45756"/><path d="M285.999934605878,336.53846153846155h6.9v13.461538461538453h-6.9Z" fill="#54a24b"/><path d="M292.4602977016991,0h6.9v311.1111111111111h-6.9Z" fill="#4c78a8"/><path d="M292.4602977016991,311.1111111111111h6.9v38.888888888888914h-6.9Z" fill="#e45756"/><path d="M298.9206607975202,0h6.9v300h-6.9Z" fill="#4c78a8"/><path d="M298.9206607975202,300h6.9v50h-6.9Z" fill="#f58518"/><path d="M305.38102389334136,0h6.9v272.22222222222223h-6.9Z" fill="#4c78a8"/><path d="M305.38102389334136,272.22222222222223h6.9v58.333333333333314h-6.9Z" fill="#f58518"/><path d="M305.38102389334136,330.55555555555554h6.9v19.444444444444457h-6.9Z" fill="#e45756"/><path d="M311.8590866140825,0h6.9v329.4117647058824h-6.9Z" fill="#4c78a8"/><path d="M311.8590866140825,329.4117647058824h6.9v20.588235294117624h-6.9Z" fill="#72b7b2"/><path d="M318.3194497099036,0h6.9v250h-6.9Z" fill="#4c78a8"/><path d="M318.3194497099036,250h6.9v75h-6.9Z" fill="#f58518"/><path d="M318.3194497099036,325h6.9v25h-6.9Z" fill="#e45756"/><path d="M324.77981280572476,0h6.9v330.55555555555554h-6.9Z" fill="#4c78a8"/><path d="M324.77981280572476,330.55555555555554h6.9v19.444444444444457h-6.9Z" fill="#f58518"/><path d="M331.24017590154585,0h6.9v308h-6.9Z" fill="#4c78a8"/><path d="M331.24017590154585,308h6.9v28h-6.9Z" fill="#f58518"/><path d="M331.24017590154585,336h6.9v14h-6.9Z" fill="#e45756"/><path d="M337.718238622287,0h6.9v286.3636363636363h-6.9Z" fill="#4c78a8"/><path d="M337.718238622287,286.3636363636363h6.9v47.727272727272805h-6.9Z" fill="#f58518"/><path d="M337.718238622287,334.0909090909091h6.9v15.909090909090878h-6.9Z" fill="#72b7b2"/><path d="M344.1786017181081,0h6.9v262.5h-6.9Z" fill="#4c78a8"/><path d="M344.1786017181081,262.5h6.9v70h-6.9Z" fill="#f58518"/><path d="M344.1786017181081,332.5h6.9v17.5h-6.9Z" fill="#72b7b2"/><path d="M350.63896481392925,0h6.9v237.99999999999997h-6.9Z" fill="#4c78a8"/><path d="M350.63896481392925,237.99999999999997h6.9v56.00000000000003h-6.9Z" fill="#f58518"/><path d="M350.63896481392925,294h6.9v42h-6.9Z" fill="#e45756"/><path d="M350.63896481392925,336h6.9v14h-6.9Z" fill="#54a24b"/><path d="M357.09932790975034,0h6.9v266h-6.9Z" fill="#4c78a8"/><path d="M357.09932790975034,266h6.9v56h-6.9Z" fill="#f58518"/><path d="M357.09932790975034,322h6.9v28h-6.9Z" fill="#e45756"/><path d="M363.57739063049155,0h6.9v197.82608695652175h-6.9Z" fill="#4c78a8"/><path d="M363.57739063049155,197.82608695652175h6.9v106.52173913043475h-6.9Z" fill="#f58518"/><path d="M363.57739063049155,304.3478260869565h6.9v15.21739130434787h-6.9Z" fill="#e45756"/><path d="M363.57739063049155,319.5652173913044h6.9v30.434782608695627h-6.9Z" fill="#72b7b2"/><path d="M370.03775372631264,0h6.9v222.72727272727272h-6.9Z" fill="#4c78a8"/><path d="M370.03775372631264,222.72727272727272h6.9v95.45454545454547h-6.9Z" fill="#f58518"/><path d="M370.03775372631264,318.1818181818182h6.9v31.818181818181813h-6.9Z" fill="#e45756"/><path d="M376.4981168221338,0h6.9v243.47826086956522h-6.9Z" fill="#4c78a8"/><path d="M376.4981168221338,243.47826086956522h6.9v76.08695652173915h-6.9Z" fill="#f58518"/><path d="M376.4981168221338,319.5652173913044h6.9v30.434782608695627h-6.9Z" fill="#e45756"/><path d="M382.9584799179549,0h6.9v196.00000000000003h-6.9Z" fill="#4c78a8"/><path d="M382.9584799179549,196.00000000000003h6.9v139.99999999999997h-6.9Z" fill="#f58518"/><path d="M382.9584799179549,336h6.9v14h-6.9Z" fill="#e45756"/><path d="M389.43654263869604,0h6.9v196.00000000000003h-6.9Z" fill="#4c78a8"/><path d="M389.43654263869604,196.00000000000003h6.9v125.99999999999997h-6.9Z" fill="#f58518"/><path d="M389.43654263869604,322h6.9v28h-6.9Z" fill="#e45756"/><path d="M395.89690573451713,0h6.9v213.0434782608696h-6.9Z" fill="#4c78a8"/><path d="M395.89690573451713,213.0434782608696h6.9v60.86956521739128h-6.9Z" fill="#f58518"/><path d="M395.89690573451713,273.9130434782609h6.9v60.86956521739131h-6.9Z" fill="#e45756"/><path d="M395.89690573451713,334.7826086956522h6.9v15.217391304347814h-6.9Z" fill="#72b7b2"/><path d="M402.3572688303382,0h6.9v210h-6.9Z" fill="#4c78a8"/><path d="M402.3572688303382,210h6.9v52.5h-6.9Z" fill="#f58518"/><path d="M402.3572688303382,262.5h6.9v70h-6.9Z" fill="#e45756"/><path d="M402.3572688303382,332.5h6.9v17.5h-6.9Z" fill="#54a24b"/><path d="M408.8176319261594,0h6.9v181.48148148148152h-6.9Z" fill="#4c78a8"/><path d="M408.8176319261594,181.48148148148152h6.9v90.7407407407407h-6.9Z" fill="#f58518"/><path d="M408.8176319261594,272.22222222222223h6.9v64.81481481481484h-6.9Z" fill="#e45756"/><path d="M408.8176319261594,337.03703703703707h6.9v12.962962962962933h-6.9Z" fill="#72b7b2"/><path d="M415.2956946469006,0h6.9v196.00000000000003h-6.9Z" fill="#4c78a8"/><path d="M415.2956946469006,196.00000000000003h6.9v97.99999999999997h-6.9Z" fill="#f58518"/><path d="M415.2956946469006,294h6.9v42h-6.9Z" fill="#e45756"/><path d="M415.2956946469006,336h6.9v14h-6.9Z" fill="#72b7b2"/><path d="M421.7560577427217,0h6.9v197.82608695652175h-6.9Z" fill="#4c78a8"/><path d="M421.7560577427217,197.82608695652175h6.9v60.869565217391255h-6.9Z" fill="#f58518"/><path d="M421.7560577427217,258.695652173913h6.9v45.6521739130435h-6.9Z" fill="#e45756"/><path d="M421.7560577427217,304.3478260869565h6.9v45.6521739130435h-6.9Z" fill="#72b7b2"/><path d="M428.21642083854283,0h6.9v196.00000000000003h-6.9Z" fill="#4c78a8"/><path d="M428.21642083854283,196.00000000000003h6.9v83.99999999999997h-6.9Z" fill="#f58518"/><path d="M428.21642083854283,280h6.9v70h-6.9Z" fill="#e45756"/><path d="M434.6767839343639,0h6.9v233.33333333333337h-6.9Z" fill="#4c78a8"/><path d="M434.6767839343639,233.33333333333337h6.9v83.33333333333331h-6.9Z" fill="#f58518"/><path d="M434.6767839343639,316.6666666666667h6.9v16.66666666666663h-6.9Z" fill="#e45756"/><path d="M434.6767839343639,333.3333333333333h6.9v16.666666666666686h-6.9Z" fill="#72b7b2"/><path d="M441.1548466551051,0h6.9v210h-6.9Z" fill="#4c78a8"/><path d="M441.1548466551051,210h6.9v42h-6.9Z" fill="#f58518"/><path d="M441.1548466551051,252h6.9v84h-6.9Z" fill="#e45756"/><path d="M441.1548466551051,336h6.9v14h-6.9Z" fill="#72b7b2"/><path d="M447.61520975092617,0h6.9v161.53846153846155h-6.9Z" fill="#4c78a8"/><path d="M447.61520975092617,161.53846153846155h6.9v107.69230769230768h-6.9Z" fill="#f58518"/><path d="M447.61520975092617,269.2307692307692h6.9v80.76923076923077h-6.9Z" fill="#e45756"/><path d="M454.07557284674726,0h6.9v175h-6.9Z" fill="#4c78a8"/><path d="M454.07557284674726,175h6.9v107.69230769230768h-6.9Z" fill="#f58518"/><path d="M454.07557284674726,282.6923076923077h6.9v53.84615384615387h-6.9Z" fill="#e45756"/><path d="M454.07557284674726,336.53846153846155h6.9v13.461538461538453h-6.9Z" fill="#72b7b2"/><path d="M460.5359359425684,0h6.9v116.66666666666669h-6.9Z" fill="#4c78a8"/><path d="M460.5359359425684,116.66666666666669h6.9v183.33333333333331h-6.9Z" fill="#f58518"/><path d="M460.5359359425684,300h6.9v50h-6.9Z" fill="#e45756"/><path d="M467.0139986633096,0h6.9v136.9565217391304h-6.9Z" fill="#4c78a8"/><path d="M467.0139986633096,136.9565217391304h6.9v76.08695652173918h-6.9Z" fill="#f58518"/><path d="M467.0139986633096,213.0434782608696h6.9v91.30434782608691h-6.9Z" fill="#e45756"/><path d="M467.0139986633096,304.3478260869565h6.9v30.434782608695684h-6.9Z" fill="#72b7b2"/><path d="M467.0139986633096,334.7826086956522h6.9v15.217391304347814h-6.9Z" fill="#54a24b"/><path d="M473.4743617591307,0h6.9v238.63636363636365h-6.9Z" fill="#4c78a8"/><path d="M473.4743617591307,238.63636363636365h6.9v95.45454545454547h-6.9Z" fill="#f58518"/><path d="M473.4743617591307,334.0909090909091h6.9v15.909090909090878h-6.9Z" fill="#72b7b2"/><path d="M479.9347248549518,0h6.9v167.3913043478261h-6.9Z" fill="#4c78a8"/><path d="M479.9347248549518,167.3913043478261h6.9v121.7391304347826h-6.9Z" fill="#f58518"/><path d="M479.9347248549518,289.1304347826087h6.9v60.86956521739131h-6.9Z" fill="#e45756"/><path d="M486.39508795077296,0h6.9v166.66666666666666h-6.9Z" fill="#4c78a8"/><path d="M486.39508795077296,166.66666666666666h6.9v116.66666666666666h-6.9Z" fill="#f58518"/><path d="M486.39508795077296,283.3333333333333h6.9v66.66666666666669h-6.9Z" fill="#e45756"/><path d="M492.87315067151405,0h6.9v182.6086956521739h-6.9Z" fill="#4c78a8"/><path d="M492.87315067151405,182.6086956521739h6.9v106.52173913043478h-6.9Z" fill="#f58518"/><path d="M492.87315067151405,289.1304347826087h6.9v45.6521739130435h-6.9Z" fill="#e45756"/><path d="M492.87315067151405,334.7826086956522h6.9v15.217391304347814h-6.9Z" fill="#72b7b2"/><path d="M499.3335137673352,0h6.9v226.4705882352941h-6.9Z" fill="#4c78a8"/><path d="M499.3335137673352,226.4705882352941h6.9v82.35294117647061h-6.9Z" fill="#f58518"/><path d="M499.3335137673352,308.8235294117647h6.9v41.176470588235304h-6.9Z" fill="#e45756"/><path d="M505.7938768631563,0h6.9v190.9090909090909h-6.9Z" fill="#4c78a8"/><path d="M505.7938768631563,190.9090909090909h6.9v127.27272727272728h-6.9Z" fill="#f58518"/><path d="M505.7938768631563,318.1818181818182h6.9v31.818181818181813h-6.9Z" fill="#e45756"/><path d="M512.2542399589773,0h6.9v159.0909090909091h-6.9Z" fill="#4c78a8"/><path d="M512.2542399589773,159.0909090909091h6.9v175.00000000000003h-6.9Z" fill="#f58518"/><path d="M512.2542399589773,334.0909090909091h6.9v15.909090909090878h-6.9Z" fill="#e45756"/><path d="M518.7323026797186,0h6.9v122.49999999999999h-6.9Z" fill="#4c78a8"/><path d="M518.7323026797186,122.49999999999999h6.9v105.00000000000001h-6.9Z" fill="#f58518"/><path d="M518.7323026797186,227.5h6.9v105h-6.9Z" fill="#e45756"/><path d="M518.7323026797186,332.5h6.9v17.5h-6.9Z" fill="#72b7b2"/><path d="M525.1926657755397,0h6.9v157.49999999999997h-6.9Z" fill="#4c78a8"/><path d="M525.1926657755397,157.49999999999997h6.9v70.00000000000003h-6.9Z" fill="#f58518"/><path d="M525.1926657755397,227.5h6.9v87.5h-6.9Z" fill="#e45756"/><path d="M525.1926657755397,315h6.9v35h-6.9Z" fill="#72b7b2"/><path d="M531.6530288713608,0h6.9v175h-6.9Z" fill="#4c78a8"/><path d="M531.6530288713608,175h6.9v87.5h-6.9Z" fill="#f58518"/><path d="M531.6530288713608,262.5h6.9v52.5h-6.9Z" fill="#e45756"/><path d="M531.6530288713608,315h6.9v35h-6.9Z" fill="#72b7b2"/><path d="M538.1133919671819,0h6.9v150h-6.9Z" fill="#4c78a8"/><path d="M538.1133919671819,150h6.9v83.33333333333337h-6.9Z" fill="#f58518"/><path d="M538.1133919671819,233.33333333333337h6.9v99.99999999999994h-6.9Z" fill="#e45756"/><path d="M538.1133919671819,333.3333333333333h6.9v16.666666666666686h-6.9Z" fill="#72b7b2"/><path d="M544.591454687923,0h6.9v186.66666666666666h-6.9Z" fill="#4c78a8"/><path d="M544.591454687923,186.66666666666666h6.9v35h-6.9Z" fill="#f58518"/><path d="M544.591454687923,221.66666666666666h6.9v116.66666666666666h-6.9Z" fill="#e45756"/><path d="M544.591454687923,338.3333333333333h6.9v11.666666666666686h-6.9Z" fill="#72b7b2"/><path d="M551.0518177837441,0h6.9v175h-6.9Z" fill="#4c78a8"/><path d="M551.0518177837441,175h6.9v40.38461538461539h-6.9Z" fill="#f58518"/><path d="M551.0518177837441,215.3846153846154h6.9v121.15384615384616h-6.9Z" fill="#e45756"/><path d="M551.0518177837441,336.53846153846155h6.9v13.461538461538453h-6.9Z" fill="#72b7b2"/><path d="M557.5121808795653,0h6.9v133.33333333333331h-6.9Z" fill="#4c78a8"/><path d="M557.5121808795653,133.33333333333331h6.9v50.00000000000003h-6.9Z" fill="#f58518"/><path d="M557.5121808795653,183.33333333333334h6.9v116.66666666666666h-6.9Z" fill="#e45756"/><path d="M557.5121808795653,300h6.9v33.333333333333314h-6.9Z" fill="#72b7b2"/><path d="M557.5121808795653,333.3333333333333h6.9v16.666666666666686h-6.9Z" fill="#54a24b"/><path d="M563.9725439753864,0h6.9v243.93939393939397h-6.9Z" fill="#4c78a8"/><path d="M563.9725439753864,243.93939393939397h6.9v42.42424242424235h-6.9Z" fill="#f58518"/><path d="M563.9725439753864,286.3636363636363h6.9v42.42424242424249h-6.9Z" fill="#e45756"/><path d="M563.9725439753864,328.7878787878788h6.9v10.606060606060566h-6.9Z" fill="#72b7b2"/><path d="M563.9725439753864,339.3939393939394h6.9v10.606060606060623h-6.9Z" fill="#54a24b"/><path d="M570.4506066961276,0h6.9v180.64516129032256h-6.9Z" fill="#4c78a8"/><path d="M570.4506066961276,180.64516129032256h6.9v79.03225806451616h-6.9Z" fill="#f58518"/><path d="M570.4506066961276,259.6774193548387h6.9v45.16129032258061h-6.9Z" fill="#e45756"/><path d="M570.4506066961276,304.83870967741933h6.9v33.870967741935544h-6.9Z" fill="#72b7b2"/><path d="M570.4506066961276,338.7096774193549h6.9v11.290322580645125h-6.9Z" fill="#54a24b"/><path d="M576.9109697919487,0h6.9v140h-6.9Z" fill="#4c78a8"/><path d="M576.9109697919487,140h6.9v28h-6.9Z" fill="#f58518"/><path d="M576.9109697919487,168h6.9v112h-6.9Z" fill="#e45756"/><path d="M576.9109697919487,280h6.9v56h-6.9Z" fill="#72b7b2"/><path d="M576.9109697919487,336h6.9v14h-6.9Z" fill="#54a24b"/><path d="M583.3713328877699,0h6.9v105.00000000000001h-6.9Z" fill="#4c78a8"/><path d="M583.3713328877699,105.00000000000001h6.9v157.5h-6.9Z" fill="#f58518"/><path d="M583.3713328877699,262.5h6.9v35h-6.9Z" fill="#e45756"/><path d="M583.3713328877699,297.5h6.9v17.5h-6.9Z" fill="#72b7b2"/><path d="M583.3713328877699,315h6.9v35h-6.9Z" fill="#54a24b"/><path d="M589.831695983591,0h6.9v166.66666666666666h-6.9Z" fill="#4c78a8"/><path d="M589.831695983591,166.66666666666666h6.9v150.00000000000003h-6.9Z" fill="#f58518"/><path d="M589.831695983591,316.6666666666667h6.9v33.333333333333314h-6.9Z" fill="#e45756"/><path d="M596.3097587043321,0h6.9v120.68965517241381h-6.9Z" fill="#4c78a8"/><path d="M596.3097587043321,120.68965517241381h6.9v108.62068965517238h-6.9Z" fill="#f58518"/><path d="M596.3097587043321,229.3103448275862h6.9v60.34482758620689h-6.9Z" fill="#e45756"/><path d="M596.3097587043321,289.6551724137931h6.9v48.27586206896558h-6.9Z" fill="#72b7b2"/><path d="M596.3097587043321,337.93103448275866h6.9v12.068965517241338h-6.9Z" fill="#54a24b"/><path d="M602.7701218001532,0h6.9v185.2941176470588h-6.9Z" fill="#4c78a8"/><path d="M602.7701218001532,185.2941176470588h6.9v61.76470588235293h-6.9Z" fill="#f58518"/><path d="M602.7701218001532,247.05882352941174h6.9v82.35294117647064h-6.9Z" fill="#e45756"/><path d="M602.7701218001532,329.4117647058824h6.9v20.588235294117624h-6.9Z" fill="#72b7b2"/><path d="M609.2304848959743,0h6.9v155.55555555555554h-6.9Z" fill="#4c78a8"/><path d="M609.2304848959743,155.55555555555554h6.9v77.77777777777783h-6.9Z" fill="#f58518"/><path d="M609.2304848959743,233.33333333333337h6.9v77.77777777777771h-6.9Z" fill="#e45756"/><path d="M609.2304848959743,311.1111111111111h6.9v38.888888888888914h-6.9Z" fill="#72b7b2"/><path d="M615.6908479917954,0h6.9v102.08333333333331h-6.9Z" fill="#4c78a8"/><path d="M615.6908479917954,102.08333333333331h6.9v131.25000000000006h-6.9Z" fill="#f58518"/><path d="M615.6908479917954,233.33333333333337h6.9v58.333333333333314h-6.9Z" fill="#e45756"/><path d="M615.6908479917954,291.6666666666667h6.9v29.16666666666663h-6.9Z" fill="#72b7b2"/><path d="M615.6908479917954,320.8333333333333h6.9v29.166666666666686h-6.9Z" fill="#54a24b"/><path d="M622.1689107125367,0h6.9v46.66666666666666h-6.9Z" fill="#4c78a8"/><path d="M622.1689107125367,46.66666666666666h6.9v140h-6.9Z" fill="#f58518"/><path d="M622.1689107125367,186.66666666666666h6.9v93.33333333333334h-6.9Z" fill="#e45756"/><path d="M622.1689107125367,280h6.9v46.666666666666686h-6.9Z" fill="#72b7b2"/><path d="M622.1689107125367,326.6666666666667h6.9v11.666666666666629h-6.9Z" fill="#54a24b"/><path d="M622.1689107125367,338.3333333333333h6.9v11.666666666666686h-6.9Z" fill="#eeca3b"/><path d="M628.6292738083578,0h6.9v214.28571428571428h-6.9Z" fill="#4c78a8"/><path d="M628.6292738083578,214.28571428571428h6.9v57.14285714285717h-6.9Z" fill="#f58518"/><path d="M628.6292738083578,271.42857142857144h6.9v50h-6.9Z" fill="#e45756"/><path d="M628.6292738083578,321.42857142857144h6.9v7.142857142857167h-6.9Z" fill="#72b7b2"/><path d="M628.6292738083578,328.5714285714286h6.9v7.14285714285711h-6.9Z" fill="#54a24b"/><path d="M628.6292738083578,335.7142857142857h6.9v14.285714285714278h-6.9Z" fill="#eeca3b"/><path d="M635.0896369041789,0h6.9v223.6111111111111h-6.9Z" fill="#4c78a8"/><path d="M635.0896369041789,223.6111111111111h6.9v77.77777777777783h-6.9Z" fill="#f58518"/><path d="M635.0896369041789,301.3888888888889h6.9v19.4444444444444h-6.9Z" fill="#e45756"/><path d="M635.0896369041789,320.8333333333333h6.9v29.166666666666686h-6.9Z" fill="#72b7b2"/><path d="M641.55,0h6.9v214.51612903225808h-6.9Z" fill="#4c78a8"/><path d="M641.55,214.51612903225808h6.9v90.32258064516125h-6.9Z" fill="#f58518"/><path d="M641.55,304.83870967741933h6.9v33.870967741935544h-6.9Z" fill="#e45756"/><path d="M641.55,338.7096774193549h6.9v11.290322580645125h-6.9Z" fill="#eeca3b"/></g><g class="mark-group role-legend" role="graphics-symbol" aria-roledescription="legend" aria-label="Symbol legend titled 'Aantal Auteurs' for fill color with 6 values: 1, 2, 3, 4, 5, 6"><g transform="translate(0,401)"><path class="background" aria-hidden="true" d="M0,0h188v27h-188Z" pointer-events="none"/><g><g class="mark-group role-legend-entry"><g transform="translate(0,16)"><path class="background" aria-hidden="true" d="M0,0h0v0h0Z" pointer-events="none"/><g><g class="mark-group role-scope" role="graphics-object" aria-roledescription="group mark container"><g transform="translate(0,0)"><path class="background" aria-hidden="true" d="M0,0h22.11767578125v11h-22.11767578125Z" pointer-events="none" opacity="1"/><g><g class="mark-symbol role-legend-symbol" pointer-events="none"><path transform="translate(6,6)" d="M-5,-5h10v10h-10Z" fill="#4c78a8" stroke-width="1.5" opacity="1"/></g><g class="mark-text role-legend-label" pointer-events="none"><text text-anchor="start" transform="translate(16,9)" font-family="sans-serif" font-size="11px" fill="#000" opacity="1">1</text></g></g><path class="foreground" aria-hidden="true" d="" pointer-events="none" display="none"/></g><g transform="translate(33,0)"><path class="background" aria-hidden="true" d="M0,0h22.11767578125v11h-22.11767578125Z" pointer-events="none" opacity="1"/><g><g class="mark-symbol role-legend-symbol" pointer-events="none"><path transform="translate(6,6)" d="M-5,-5h10v10h-10Z" fill="#f58518" stroke-width="1.5" opacity="1"/></g><g class="mark-text role-legend-label" pointer-events="none"><text text-anchor="start" transform="translate(16,9)" font-family="sans-serif" font-size="11px" fill="#000" opacity="1">2</text></g></g><path class="foreground" aria-hidden="true" d="" pointer-events="none" display="none"/></g><g transform="translate(66,0)"><path class="background" aria-hidden="true" d="M0,0h22.11767578125v11h-22.11767578125Z" pointer-events="none" opacity="1"/><g><g class="mark-symbol role-legend-symbol" pointer-events="none"><path transform="translate(6,6)" d="M-5,-5h10v10h-10Z" fill="#e45756" stroke-width="1.5" opacity="1"/></g><g class="mark-text role-legend-label" pointer-events="none"><text text-anchor="start" transform="translate(16,9)" font-family="sans-serif" font-size="11px" fill="#000" opacity="1">3</text></g></g><path class="foreground" aria-hidden="true" d="" pointer-events="none" display="none"/></g><g transform="translate(99,0)"><path class="background" aria-hidden="true" d="M0,0h22.11767578125v11h-22.11767578125Z" pointer-events="none" opacity="1"/><g><g class="mark-symbol role-legend-symbol" pointer-events="none"><path transform="translate(6,6)" d="M-5,-5h10v10h-10Z" fill="#72b7b2" stroke-width="1.5" opacity="1"/></g><g class="mark-text role-legend-label" pointer-events="none"><text text-anchor="start" transform="translate(16,9)" font-family="sans-serif" font-size="11px" fill="#000" opacity="1">4</text></g></g><path class="foreground" aria-hidden="true" d="" pointer-events="none" display="none"/></g><g transform="translate(132,0)"><path class="background" aria-hidden="true" d="M0,0h22.11767578125v11h-22.11767578125Z" pointer-events="none" opacity="1"/><g><g class="mark-symbol role-legend-symbol" pointer-events="none"><path transform="translate(6,6)" d="M-5,-5h10v10h-10Z" fill="#54a24b" stroke-width="1.5" opacity="1"/></g><g class="mark-text role-legend-label" pointer-events="none"><text text-anchor="start" transform="translate(16,9)" font-family="sans-serif" font-size="11px" fill="#000" opacity="1">5</text></g></g><path class="foreground" aria-hidden="true" d="" pointer-events="none" display="none"/></g><g transform="translate(165,0)"><path class="background" aria-hidden="true" d="M0,0h22.11767578125v11h-22.11767578125Z" pointer-events="none" opacity="1"/><g><g class="mark-symbol role-legend-symbol" pointer-events="none"><path transform="translate(6,6)" d="M-5,-5h10v10h-10Z" fill="#eeca3b" stroke-width="1.5" opacity="1"/></g><g class="mark-text role-legend-label" pointer-events="none"><text text-anchor="start" transform="translate(16,9)" font-family="sans-serif" font-size="11px" fill="#000" opacity="1">6</text></g></g><path class="foreground" aria-hidden="true" d="" pointer-events="none" display="none"/></g></g></g><path class="foreground" aria-hidden="true" d="" pointer-events="none" display="none"/></g></g><g class="mark-text role-legend-title" pointer-events="none"><text text-anchor="start" transform="translate(0,9)" font-family="sans-serif" font-size="11px" font-weight="bold" fill="#000" opacity="1">Aantal Auteurs</text></g></g><path class="foreground" aria-hidden="true" d="" pointer-events="none" display="none"/></g></g></g><path class="foreground" aria-hidden="true" d="" display="none"/></g></g></g></svg>