<svg xmlns="http://www.w3.org/2000/svg" xmlns:xlink="http://www.w3.org/1999/xlink" version="1.1" class="marks" width="647" height="407" viewBox="0 0 647 407"><rect width="647" height="407" fill="white"/><g fill="none" stroke-miterlimit="10" transform="translate(40,11)"><g class="mark-group role-frame root" role="graphics-object" aria-roledescription="group mark container"><g transform="translate(0,0)"><path class="background" aria-hidden="true" d="M0.5,0.5h600v300h-600Z" stroke="#ddd"/><g><g class="mark-group role-axis" aria-hidden="true"><g transform="translate(0.5,300.5)"><path class="background" aria-hidden="true" d="M0,0h0v0h0Z" pointer-events="none"/><g><g class="mark-rule role-axis-grid" pointer-events="none"><line transform="translate(30,-300)" x2="0" y2="300" stroke="#ddd" stroke-width="1" opacity="1"/><line transform="translate(61,-300)" x2="0" y2="300" stroke="#ddd" stroke-width="1" opacity="1"/><line transform="translate(91,-300)" x2="0" y2="300" stroke="#ddd" stroke-width="1" opacity="1"/><line transform="translate(121,-300)" x2="0" y2="300" stroke="#ddd" stroke-width="1" opacity="1"/><line transform="translate(152,-300)" x2="0" y2="300" stroke="#ddd" stroke-width="1" opacity="1"/><line transform="translate(182,-300)" x2="0" y2="300" stroke="#ddd" stroke-width="1" opacity="1"/><line transform="translate(212,-300)" x2="0" y2="300" stroke="#ddd" stroke-width="1" opacity="1"/><line transform="translate(242,-300)" x2="0" y2="300" stroke="#ddd" stroke-width="1" opacity="1"/><line transform="translate(273,-300)" x2="0" y2="300" stroke="#ddd" stroke-width="1" opacity="1"/><line transform="translate(303,-300)" x2="0" y2="300" stroke="#ddd" stroke-width="1" opacity="1"/><line transform="translate(333,-300)" x2="0" y2="300" stroke="#ddd" stroke-width="1" opacity="1"/><line transform="translate(364,-300)" x2="0" y2="300" stroke="#ddd" stroke-width="1" opacity="1"/><line transform="translate(394,-300)" x2="0" y2="300" stroke="#ddd" stroke-width="1" opacity="1"/><line transform="translate(424,-300)" x2="0" y2="300" stroke="#ddd" stroke-width="1" opacity="1"/><line transform="translate(455,-300)" x2="0" y2="300" stroke="#ddd" stroke-width="1" opacity="1"/><line transform="translate(485,-300)" x2="0" y2="300" stroke="#ddd" stroke-width="1" opacity="1"/><line transform="translate(515,-300)" x2="0" y2="300" stroke="#ddd" stroke-width="1" opacity="1"/><line transform="translate(545,-300)" x2="0" y2="300" stroke="#ddd" stroke-width="1" opacity="1"/><line transform="translate(576,-300)" x2="0" y2="300" stroke="#ddd" stroke-width="1" opacity="1"/></g></g><path class="foreground" aria-hidden="true" d="" pointer-events="none" display="none"/></g></g><g class="mark-group role-axis" aria-hidden="true"><g transform="translate(0.5,0.5)"><path class="background" aria-hidden="true" d="M0,0h0v0h0Z" pointer-events="none"/><g><g class="mark-rule role-axis-grid" pointer-events="none"><line transform="translate(0,300)" x2="600" y2="0" stroke="#ddd" stroke-width="1" opacity="1"/><line transform="translate(0,263)" x2="600" y2="0" stroke="#ddd" stroke-width="1" opacity="1"/><line transform="translate(0,225)" x2="600" y2="0" stroke="#ddd" stroke-width="1" opacity="1"/><line transform="translate(0,188)" x2="600" y2="0" stroke="#ddd" stroke-width="1" opacity="1"/><line transform="translate(0,150)" x2="600" y2="0" stroke="#ddd" stroke-width="1" opacity="1"/><line transform="translate(0,113)" x2="600" y2="0" stroke="#ddd" stroke-width="1" opacity="1"/><line transform="translate(0,75)" x2="600" y2="0" stroke="#ddd" stroke-width="1" opacity="1"/><line transform="translate(0,38)" x2="600" y2="0" stroke="#ddd" stroke-width="1" opacity="1"/><line transform="translate(0,0)" x2="600" y2="0" stroke="#ddd" stroke-width="1" opacity="1"/></g></g><path class="foreground" aria-hidden="true" d="" pointer-events="none" display="none"/></g></g><g class="mark-group role-axis" role="graphics-symbol" aria-roledescription="axis" aria-label="X-axis titled 'Jaar' for a time scale with values from Thursday, 01 January 1925, 1:00:00 AM to Monday, 01 January 2024, 1:00:00 AM"><g transform="translate(0.5,300.5)"><path class="background" aria-hidden="true" d="M0,0h0v0h0Z" pointer-events="none"/><g><g class="mark-rule role-axis-tick" pointer-events="none"><line transform="translate(30,0)" x2="0" y2="5" stroke="#888" stroke-width="1" opacity="1"/><line transform="translate(61,0)" x2="0" y2="5" stroke="#888" stroke-width="1" opacity="1"/><line transform="translate(91,0)" x2="0" y2="5" stroke="#888" stroke-width="1" opacity="1"/><line transform="translate(121,0)" x2="0" y2="5" stroke="#888" stroke-width="1" opacity="1"/><line transform="translate(152,0)" x2="0" y2="5" stroke="#888" stroke-width="1" opacity="1"/><line transform="translate(182,0)" x2="0" y2="5" stroke="#888" stroke-width="1" opacity="1"/><line transform="translate(212,0)" x2="0" y2="5" stroke="#888" stroke-width="1" opacity="1"/><line transform="translate(242,0)" x2="0" y2="5" stroke="#888" stroke-width="1" opacity="1"/><line transform="translate(273,0)" x2="0" y2="5" stroke="#888" stroke-width="1" opacity="1"/><line transform="translate(303,0)" x2="0" y2="5" stroke="#888" stroke-width="1" opacity="1"/><line transform="translate(333,0)" x2="0" y2="5" stroke="#888" stroke-width="1" opacity="1"/><line transform="translate(364,0)" x2="0" y2="5" stroke="#888" stroke-width="1" opacity="1"/><line transform="translate(394,0)" x2="0" y2="5" stroke="#888" stroke-width="1" opacity="1"/><line transform="translate(424,0)" x2="0" y2="5" stroke="#888" stroke-width="1" opacity="1"/><line transform="translate(455,0)" x2="0" y2="5" stroke="#888" stroke-width="1" opacity="1"/><line transform="translate(485,0)" x2="0" y2="5" stroke="#888" stroke-width="1" opacity="1"/><line transform="translate(515,0)" x2="0" y2="5" stroke="#888" stroke-width="1" opacity="1"/><line transform="translate(545,0)" x2="0" y2="5" stroke="#888" stroke-width="1" opacity="1"/><line transform="translate(576,0)" x2="0" y2="5" stroke="#888" stroke-width="1" opacity="1"/></g><g class="mark-text role-axis-label" pointer-events="none"><text text-anchor="middle" transform="translate(30.29881910451063,16)" font-family="sans-serif" font-size="11px" fill="#000" opacity="1">1930</text><text text-anchor="middle" transform="translate(60.598329599823,16)" font-family="sans-serif" font-size="11px" fill="#000" opacity="1">1935</text><text text-anchor="middle" transform="translate(90.89784009513536,16)" font-family="sans-serif" font-size="11px" fill="#000" opacity="1">1940</text><text text-anchor="middle" transform="translate(121.21394396968942,16)" font-family="sans-serif" font-size="11px" fill="#000" opacity="1">1945</text><text text-anchor="middle" transform="translate(151.5134544650018,16)" font-family="sans-serif" font-size="11px" fill="#000" opacity="1">1950</text><text text-anchor="middle" transform="translate(181.81296496031416,16)" font-family="sans-serif" font-size="11px" fill="#000" opacity="1">1955</text><text text-anchor="middle" transform="translate(212.11247545562654,16)" font-family="sans-serif" font-size="11px" fill="#000" opacity="1">1960</text><text text-anchor="middle" transform="translate(242.42857933018058,16)" font-family="sans-serif" font-size="11px" fill="#000" opacity="1">1965</text><text text-anchor="middle" transform="translate(272.728089825493,16)" font-family="sans-serif" font-size="11px" fill="#000" opacity="1">1970</text><text text-anchor="middle" transform="translate(303.02760032080533,16)" font-family="sans-serif" font-size="11px" fill="#000" opacity="1">1975</text><text text-anchor="middle" transform="translate(333.32711081611774,16)" font-family="sans-serif" font-size="11px" fill="#000" opacity="1">1980</text><text text-anchor="middle" transform="translate(363.64321469067175,16)" font-family="sans-serif" font-size="11px" fill="#000" opacity="1">1985</text><text text-anchor="middle" transform="translate(393.9427251859841,16)" font-family="sans-serif" font-size="11px" fill="#000" opacity="1">1990</text><text text-anchor="middle" transform="translate(424.24223568129645,16)" font-family="sans-serif" font-size="11px" fill="#000" opacity="1">1995</text><text text-anchor="middle" transform="translate(454.54174617660885,16)" font-family="sans-serif" font-size="11px" fill="#000" opacity="1">2000</text><text text-anchor="middle" transform="translate(484.8578500511629,16)" font-family="sans-serif" font-size="11px" fill="#000" opacity="1">2005</text><text text-anchor="middle" transform="translate(515.1573605464753,16)" font-family="sans-serif" font-size="11px" fill="#000" opacity="1">2010</text><text text-anchor="middle" transform="translate(545.4568710417877,16)" font-family="sans-serif" font-size="11px" fill="#000" opacity="1">2015</text><text text-anchor="middle" transform="translate(575.7563815371,16)" font-family="sans-serif" font-size="11px" fill="#000" opacity="1">2020</text></g><g class="mark-rule role-axis-domain" pointer-events="none"><line transform="translate(0,0)" x2="600" y2="0" stroke="#888" stroke-width="1" opacity="1"/></g><g class="mark-text role-axis-title" pointer-events="none"><text text-anchor="middle" transform="translate(300,31)" font-family="sans-serif" font-size="11px" font-weight="bold" fill="#000" opacity="1">Jaar</text></g></g><path class="foreground" aria-hidden="true" d="" pointer-events="none" display="none"/></g></g><g class="mark-group role-axis" role="graphics-symbol" aria-roledescription="axis" aria-label="Y-axis titled 'Aantal Publicaties' for a linear scale with values from 0 to 40"><g transform="translate(0.5,0.5)"><path class="background" aria-hidden="true" d="M0,0h0v0h0Z" pointer-events="none"/><g><g class="mark-rule role-axis-tick" pointer-events="none"><line transform="translate(0,300)" x2="-5" y2="0" stroke="#888" stroke-width="1" opacity="1"/><line transform="translate(0,263)" x2="-5" y2="0" stroke="#888" stroke-width="1" opacity="1"/><line transform="translate(0,225)" x2="-5" y2="0" stroke="#888" stroke-width="1" opacity="1"/><line transform="translate(0,188)" x2="-5" y2="0" stroke="#888" stroke-width="1" opacity="1"/><line transform="translate(0,150)" x2="-5" y2="0" stroke="#888" stroke-width="1" opacity="1"/><line transform="translate(0,113)" x2="-5" y2="0" stroke="#888" stroke-width="1" opacity="1"/><line transform="translate(0,75)" x2="-5" y2="0" stroke="#888" stroke-width="1" opacity="1"/><line transform="translate(0,38)" x2="-5" y2="0" stroke="#888" stroke-width="1" opacity="1"/><line transform="translate(0,0)" x2="-5" y2="0" stroke="#888" stroke-width="1" opacity="1"/></g><g class="mark-text role-axis-label" pointer-events="none"><text text-anchor="end" transform="translate(-7,303)" font-family="sans-serif" font-size="11px" fill="#000" opacity="1">0</text><text text-anchor="end" transform="translate(-7,265.5)" font-family="sans-serif" font-size="11px" fill="#000" opacity="1">5</text><text text-anchor="end" transform="translate(-7,228)" font-family="sans-serif" font-size="11px" fill="#000" opacity="1">10</text><text text-anchor="end" transform="translate(-7,190.5)" font-family="sans-serif" font-size="11px" fill="#000" opacity="1">15</text><text text-anchor="end" transform="translate(-7,153)" font-family="sans-serif" font-size="11px" fill="#000" opacity="1">20</text><text text-anchor="end" transform="translate(-7,115.5)" font-family="sans-serif" font-size="11px" fill="#000" opacity="1">25</text><text text-anchor="end" transform="translate(-7,78)" font-family="sans-serif" font-size="11px" fill="#000" opacity="1">30</text><text text-anchor="end" transform="translate(-7,40.5)" font-family="sans-serif" font-size="11px" fill="#000" opacity="1">35</text><text text-anchor="end" transform="translate(-7,3)" font-family="sans-serif" font-size="11px" fill="#000" opacity="1">40</text></g><g class="mark-rule role-axis-domain" pointer-events="none"><line transform="translate(0,300)" x2="0" y2="-300" stroke="#888" stroke-width="1" opacity="1"/></g><g class="mark-text role-axis-title" pointer-events="none"><text text-anchor="middle" transform="translate(-23.2353515625,150) rotate(-90) translate(0,-2)" font-family="sans-serif" font-size="11px" font-weight="bold" fill="#000" opacity="1">Aantal Publicaties</text></g></g><path class="foreground" aria-hidden="true" d="" pointer-events="none" display="none"/></g></g><g class="mark-group role-scope pathgroup" role="graphics-object" aria-roledescription="group mark container"><g transform="translate(0,0)"><path class="background" aria-hidden="true" d="M0,0h600v300h-600Z"/><g><g class="mark-line role-mark marks" role="graphics-object" aria-roledescription="line mark container"><path aria-label="Jaar: Jan 01, 1979; Aantal Publicaties: 1; Auteurs: J. Dronkers" role="graphics-symbol" aria-roledescription="line mark" d="M327.271,292.5L333.328,292.5L333.328,270L339.401,270L339.401,255L345.458,255L345.458,232.5L351.514,232.5L351.514,225L363.644,225L363.644,217.5L369.7,217.5L369.7,195L381.814,195L381.814,172.5L387.887,172.5L387.887,165L393.943,165L393.943,157.5L400,157.5L400,150L406.057,150L406.057,142.5L412.13,142.5L412.13,135L418.186,135L418.186,127.5L424.243,127.5L424.243,112.5L430.3,112.5L430.3,105L436.373,105L436.373,97.5L448.486,97.5L448.486,82.5L454.542,82.5L454.542,75L466.672,75L466.672,67.5L472.729,67.5L472.729,52.5L478.785,52.5L478.785,45L509.101,45L509.101,37.5L545.458,37.5L545.458,30" stroke="rgb(162, 162, 162)" stroke-width="2"/></g></g><path class="foreground" aria-hidden="true" d="" display="none"/></g><g transform="translate(0,0)"><path class="background" aria-hidden="true" d="M0,0h600v300h-600Z"/><g><g class="mark-line role-mark marks" role="graphics-object" aria-roledescription="line mark container"><path aria-label="Jaar: Jan 01, 1988; Aantal Publicaties: 1; Auteurs: I. Maas" role="graphics-symbol" aria-roledescription="line mark" d="M381.814,292.5L393.943,292.5L393.943,285L424.243,285L424.243,277.5L466.672,277.5L466.672,270L478.785,270L478.785,262.5L484.859,262.5L484.859,255L490.915,255L490.915,247.5L503.028,247.5L503.028,240L509.101,240L509.101,217.5L521.215,217.5L521.215,210L533.344,210L533.344,202.5L539.401,202.5L539.401,187.5L545.458,187.5L545.458,165L551.514,165L551.514,150L557.587,150L557.587,142.5L563.644,142.5L563.644,135L569.7,135L569.7,127.5L575.757,127.5L575.757,105L581.83,105L581.83,90L587.887,90L587.887,75L593.943,75L593.943,60L600,60L600,52.5" stroke="rgb(187, 187, 187)" stroke-width="2"/></g></g><path class="foreground" aria-hidden="true" d="" display="none"/></g><g transform="translate(0,0)"><path class="background" aria-hidden="true" d="M0,0h600v300h-600Z"/><g><g class="mark-line role-mark marks" role="graphics-object" aria-roledescription="line mark container"><path aria-label="Jaar: Jan 01, 1974; Aantal Publicaties: 1; Auteurs: W. C. Ultee" role="graphics-symbol" aria-roledescription="line mark" d="M296.972,292.5L327.271,292.5L327.271,277.5L333.328,277.5L333.328,270L351.514,270L351.514,255L363.644,255L363.644,247.5L369.7,247.5L369.7,232.5L375.757,232.5L375.757,225L387.887,225L387.887,217.5L412.13,217.5L412.13,202.5L418.186,202.5L418.186,195L424.243,195L424.243,187.5L430.3,187.5L430.3,172.5L436.373,172.5L436.373,165L454.542,165L454.542,150L460.616,150L460.616,142.5L478.785,142.5L478.785,135L484.859,135L484.859,120L490.915,120L490.915,112.5L503.028,112.5L503.028,90L509.101,90L509.101,82.5L521.215,82.5L521.215,75L533.344,75L533.344,67.5L551.514,67.5L551.514,60L587.887,60L587.887,52.5" stroke="rgb(59, 59, 59)" stroke-width="2"/></g></g><path class="foreground" aria-hidden="true" d="" display="none"/></g><g transform="translate(0,0)"><path class="background" aria-hidden="true" d="M0,0h600v300h-600Z"/><g><g class="mark-line role-mark marks" role="graphics-object" aria-roledescription="line mark container"><path aria-label="Jaar: Jan 01, 1976; Aantal Publicaties: 1; Auteurs: W. Arts" role="graphics-symbol" aria-roledescription="line mark" d="M309.085,292.5L327.271,292.5L327.271,277.5L333.328,277.5L333.328,270L339.401,270L339.401,262.5L357.571,262.5L357.571,255L369.7,255L369.7,247.5L375.757,247.5L375.757,240L381.814,240L381.814,232.5L387.887,232.5L387.887,217.5L400,217.5L400,195L412.13,195L412.13,187.5L418.186,187.5L418.186,172.5L424.243,172.5L424.243,165L430.3,165L430.3,157.5L442.429,157.5L442.429,142.5L448.486,142.5L448.486,127.5L454.542,127.5L454.542,112.5L460.616,112.5L460.616,105L466.672,105L466.672,97.5L496.972,97.5L496.972,90L539.401,90L539.401,82.5L587.887,82.5L587.887,75" stroke="rgb(88, 88, 88)" stroke-width="2"/></g></g><path class="foreground" aria-hidden="true" d="" display="none"/></g><g transform="translate(0,0)"><path class="background" aria-hidden="true" d="M0,0h600v300h-600Z"/><g><g class="mark-line role-mark marks" role="graphics-object" aria-roledescription="line mark container"><path aria-label="Jaar: Jan 01, 1987; Aantal Publicaties: 1; Auteurs: P. A. Dykstra" role="graphics-symbol" aria-roledescription="line mark" d="M375.757,292.5L406.057,292.5L406.057,285L418.186,285L418.186,277.5L430.3,277.5L430.3,270L436.373,270L436.373,262.5L442.429,262.5L442.429,255L448.486,255L448.486,247.5L454.542,247.5L454.542,232.5L460.616,232.5L460.616,225L472.729,225L472.729,217.5L478.785,217.5L478.785,210L484.859,210L484.859,202.5L490.915,202.5L490.915,195L496.972,195L496.972,180L509.101,180L509.101,165L515.158,165L515.158,150L521.215,150L521.215,142.5L527.271,142.5L527.271,127.5L545.458,127.5L545.458,120L551.514,120L551.514,112.5L569.7,112.5L569.7,105L587.887,105L587.887,97.5L600,97.5L600,90" stroke="rgb(112, 112, 112)" stroke-width="2"/></g></g><path class="foreground" aria-hidden="true" d="" display="none"/></g><g transform="translate(0,0)"><path class="background" aria-hidden="true" d="M0,0h600v300h-600Z"/><g><g class="mark-line role-mark marks" role="graphics-object" aria-roledescription="line mark container"><path aria-label="Jaar: Jan 01, 1925; Aantal Publicaties: 3; Auteurs: J. P. Kleiweg de Zwaan" role="graphics-symbol" aria-roledescription="line mark" d="M0,277.5L18.17,277.5L18.17,262.5L30.3,262.5L30.3,240L36.356,240L36.356,232.5L48.486,232.5L48.486,217.5L103.028,217.5L103.028,195L109.085,195L109.085,187.5L115.141,187.5L115.141,172.5L151.514,172.5L151.514,157.5L181.814,157.5L181.814,142.5L187.87,142.5L187.87,127.5L193.943,127.5L193.943,105" stroke="rgb(136, 136, 136)" stroke-width="2"/></g></g><path class="foreground" aria-hidden="true" d="" display="none"/></g><g transform="translate(0,0)"><path class="background" aria-hidden="true" d="M0,0h600v300h-600Z"/><g><g class="mark-line role-mark marks" role="graphics-object" aria-roledescription="line mark container"><path aria-label="Jaar: Jan 01, 1989; Aantal Publicaties: 1; Auteurs: G. Kraaykamp" role="graphics-symbol" aria-roledescription="line mark" d="M387.887,292.5L400,292.5L400,285L424.243,285L424.243,277.5L436.373,277.5L436.373,270L448.486,270L448.486,262.5L454.542,262.5L454.542,255L484.859,255L484.859,247.5L490.915,247.5L490.915,240L503.028,240L503.028,232.5L509.101,232.5L509.101,225L515.158,225L515.158,217.5L521.215,217.5L521.215,202.5L527.271,202.5L527.271,195L533.344,195L533.344,187.5L539.401,187.5L539.401,172.5L557.587,172.5L557.587,165L575.757,165L575.757,157.5L581.83,157.5L581.83,150L587.887,150L587.887,142.5" stroke="rgb(208, 208, 208)" stroke-width="2"/></g></g><path class="foreground" aria-hidden="true" d="" display="none"/></g></g><g class="mark-group role-legend" role="graphics-symbol" aria-roledescription="legend" aria-label="Symbol legend titled 'Auteurs' for stroke color with 7 values: G. Kraaykamp, I. Maas, J. Dronkers, J. P. Kleiweg de Zwaan, P. A. Dykstra, W. Arts, W. C. Ultee"><g transform="translate(0,351)"><path class="background" aria-hidden="true" d="M0,0h485v40h-485Z" pointer-events="none"/><g><g class="mark-group role-legend-entry"><g transform="translate(0,16)"><path class="background" aria-hidden="true" d="M0,0h0v0h0Z" pointer-events="none"/><g><g class="mark-group role-scope" role="graphics-object" aria-roledescription="group mark container"><g transform="translate(0,0)"><path class="background" aria-hidden="true" d="M0,0h86.30224609375v11h-86.30224609375Z" pointer-events="none" opacity="1"/><g><g class="mark-symbol role-legend-symbol" pointer-events="none"><path transform="translate(6,6)" d="M-5,0L5,0" stroke="rgb(208, 208, 208)" stroke-width="1.5" opacity="1"/></g><g class="mark-text role-legend-label" pointer-events="none"><text text-anchor="start" transform="translate(16,9)" font-family="sans-serif" font-size="11px" fill="#000" opacity="1">G. Kraaykamp</text></g></g><path class="foreground" aria-hidden="true" d="" pointer-events="none" display="none"/></g><g transform="translate(98,0)"><path class="background" aria-hidden="true" d="M0,0h71.623046875v11h-71.623046875Z" pointer-events="none" opacity="1"/><g><g class="mark-symbol role-legend-symbol" pointer-events="none"><path transform="translate(6,6)" d="M-5,0L5,0" stroke="rgb(187, 187, 187)" stroke-width="1.5" opacity="1"/></g><g class="mark-text role-legend-label" pointer-events="none"><text text-anchor="start" transform="translate(16,9)" font-family="sans-serif" font-size="11px" fill="#000" opacity="1">I. Maas</text></g></g><path class="foreground" aria-hidden="true" d="" pointer-events="none" display="none"/></g><g transform="translate(181,0)"><path class="background" aria-hidden="true" d="M0,0h72.2353515625v11h-72.2353515625Z" pointer-events="none" opacity="1"/><g><g class="mark-symbol role-legend-symbol" pointer-events="none"><path transform="translate(6,6)" d="M-5,0L5,0" stroke="rgb(162, 162, 162)" stroke-width="1.5" opacity="1"/></g><g class="mark-text role-legend-label" pointer-events="none"><text text-anchor="start" transform="translate(16,9)" font-family="sans-serif" font-size="11px" fill="#000" opacity="1">J. Dronkers</text></g></g><path class="foreground" aria-hidden="true" d="" pointer-events="none" display="none"/></g><g transform="translate(265,0)"><path class="background" aria-hidden="true" d="M0,0h129.52880859375v11h-129.52880859375Z" pointer-events="none" opacity="1"/><g><g class="mark-symbol role-legend-symbol" pointer-events="none"><path transform="translate(6,6)" d="M-5,0L5,0" stroke="rgb(136, 136, 136)" stroke-width="1.5" opacity="1"/></g><g class="mark-text role-legend-label" pointer-events="none"><text text-anchor="start" transform="translate(16,9)" font-family="sans-serif" font-size="11px" fill="#000" opacity="1">J. P. Kleiweg de Zwaan</text></g></g><path class="foreground" aria-hidden="true" d="" pointer-events="none" display="none"/></g><g transform="translate(406,0)"><path class="background" aria-hidden="true" d="M0,0h78.154296875v11h-78.154296875Z" pointer-events="none" opacity="1"/><g><g class="mark-symbol role-legend-symbol" pointer-events="none"><path transform="translate(6,6)" d="M-5,0L5,0" stroke="rgb(112, 112, 112)" stroke-width="1.5" opacity="1"/></g><g class="mark-text role-legend-label" pointer-events="none"><text text-anchor="start" transform="translate(16,9)" font-family="sans-serif" font-size="11px" fill="#000" opacity="1">P. A. Dykstra</text></g></g><path class="foreground" aria-hidden="true" d="" pointer-events="none" display="none"/></g><g transform="translate(0,13)"><path class="background" aria-hidden="true" d="M0,0h86.30224609375v11h-86.30224609375Z" pointer-events="none" opacity="1"/><g><g class="mark-symbol role-legend-symbol" pointer-events="none"><path transform="translate(6,6)" d="M-5,0L5,0" stroke="rgb(88, 88, 88)" stroke-width="1.5" opacity="1"/></g><g class="mark-text role-legend-label" pointer-events="none"><text text-anchor="start" transform="translate(16,9)" font-family="sans-serif" font-size="11px" fill="#000" opacity="1">W. Arts</text></g></g><path class="foreground" aria-hidden="true" d="" pointer-events="none" display="none"/></g><g transform="translate(98,13)"><path class="background" aria-hidden="true" d="M0,0h71.623046875v11h-71.623046875Z" pointer-events="none" opacity="1"/><g><g class="mark-symbol role-legend-symbol" pointer-events="none"><path transform="translate(6,6)" d="M-5,0L5,0" stroke="rgb(59, 59, 59)" stroke-width="1.5" opacity="1"/></g><g class="mark-text role-legend-label" pointer-events="none"><text text-anchor="start" transform="translate(16,9)" font-family="sans-serif" font-size="11px" fill="#000" opacity="1">W. C. Ultee</text></g></g><path class="foreground" aria-hidden="true" d="" pointer-events="none" display="none"/></g></g></g><path class="foreground" aria-hidden="true" d="" pointer-events="none" display="none"/></g></g><g class="mark-text role-legend-title" pointer-events="none"><text text-anchor="start" transform="translate(0,9)" font-family="sans-serif" font-size="11px" font-weight="bold" fill="#000" opacity="1">Auteurs</text></g></g><path class="foreground" aria-hidden="true" d="" pointer-events="none" display="none"/></g></g></g><path class="foreground" aria-hidden="true" d="" display="none"/></g></g></g></svg>