<svg xmlns="http://www.w3.org/2000/svg" xmlns:xlink="http://www.w3.org/1999/xlink" version="1.1" class="marks" width="697" height="399" viewBox="0 0 697 399"><rect width="697" height="399" fill="white"/><g fill="none" stroke-miterlimit="10" transform="translate(40,11)"><g class="mark-group role-frame root" role="graphics-object" aria-roledescription="group mark container"><g transform="translate(0,0)"><path class="background" aria-hidden="true" d="M0.5,0.5h650v350h-650Z" stroke="#ddd"/><g><g class="mark-group role-axis" aria-hidden="true"><g transform="translate(0.5,350.5)"><path class="background" aria-hidden="true" d="M0,0h0v0h0Z" pointer-events="none"/><g><g class="mark-rule role-axis-grid" pointer-events="none"><line transform="translate(0,-350)" x2="0" y2="350" stroke="#ddd" stroke-width="1" opacity="1"/><line transform="translate(33,-350)" x2="0" y2="350" stroke="#ddd" stroke-width="1" opacity="1"/><line transform="translate(66,-350)" x2="0" y2="350" stroke="#ddd" stroke-width="1" opacity="1"/><line transform="translate(99,-350)" x2="0" y2="350" stroke="#ddd" stroke-width="1" opacity="1"/><line transform="translate(133,-350)" x2="0" y2="350" stroke="#ddd" stroke-width="1" opacity="1"/><line transform="translate(166,-350)" x2="0" y2="350" stroke="#ddd" stroke-width="1" opacity="1"/><line transform="translate(199,-350)" x2="0" y2="350" stroke="#ddd" stroke-width="1" opacity="1"/><line transform="translate(232,-350)" x2="0" y2="350" stroke="#ddd" stroke-width="1" opacity="1"/><line transform="translate(265,-350)" x2="0" y2="350" stroke="#ddd" stroke-width="1" opacity="1"/><line transform="translate(298,-350)" x2="0" y2="350" stroke="#ddd" stroke-width="1" opacity="1"/><line transform="translate(332,-350)" x2="0" y2="350" stroke="#ddd" stroke-width="1" opacity="1"/><line transform="translate(365,-350)" x2="0" y2="350" stroke="#ddd" stroke-width="1" opacity="1"/><line transform="translate(398,-350)" x2="0" y2="350" stroke="#ddd" stroke-width="1" opacity="1"/><line transform="translate(431,-350)" x2="0" y2="350" stroke="#ddd" stroke-width="1" opacity="1"/><line transform="translate(464,-350)" x2="0" y2="350" stroke="#ddd" stroke-width="1" opacity="1"/><line transform="translate(497,-350)" x2="0" y2="350" stroke="#ddd" stroke-width="1" opacity="1"/><line transform="translate(531,-350)" x2="0" y2="350" stroke="#ddd" stroke-width="1" opacity="1"/><line transform="translate(564,-350)" x2="0" y2="350" stroke="#ddd" stroke-width="1" opacity="1"/><line transform="translate(597,-350)" x2="0" y2="350" stroke="#ddd" stroke-width="1" opacity="1"/><line transform="translate(630,-350)" x2="0" y2="350" stroke="#ddd" stroke-width="1" opacity="1"/></g></g><path class="foreground" aria-hidden="true" d="" pointer-events="none" display="none"/></g></g><g class="mark-group role-axis" aria-hidden="true"><g transform="translate(0.5,0.5)"><path class="background" aria-hidden="true" d="M0,0h0v0h0Z" pointer-events="none"/><g><g class="mark-rule role-axis-grid" pointer-events="none"><line transform="translate(0,350)" x2="650" y2="0" stroke="#ddd" stroke-width="1" opacity="1"/><line transform="translate(0,292)" x2="650" y2="0" stroke="#ddd" stroke-width="1" opacity="1"/><line transform="translate(0,233)" x2="650" y2="0" stroke="#ddd" stroke-width="1" opacity="1"/><line transform="translate(0,175)" x2="650" y2="0" stroke="#ddd" stroke-width="1" opacity="1"/><line transform="translate(0,117)" x2="650" y2="0" stroke="#ddd" stroke-width="1" opacity="1"/><line transform="translate(0,58)" x2="650" y2="0" stroke="#ddd" stroke-width="1" opacity="1"/><line transform="translate(0,0)" x2="650" y2="0" stroke="#ddd" stroke-width="1" opacity="1"/></g></g><path class="foreground" aria-hidden="true" d="" pointer-events="none" display="none"/></g></g><g class="mark-group role-axis" role="graphics-symbol" aria-roledescription="axis" aria-label="X-axis titled 'Jaar' for a time scale with values from Thursday, 01 January 1925, 12:00:00 AM to Sunday, 01 January 2023, 12:00:00 AM"><g transform="translate(0.5,350.5)"><path class="background" aria-hidden="true" d="M0,0h0v0h0Z" pointer-events="none"/><g><g class="mark-rule role-axis-tick" pointer-events="none"><line transform="translate(0,0)" x2="0" y2="5" stroke="#888" stroke-width="1" opacity="1"/><line transform="translate(33,0)" x2="0" y2="5" stroke="#888" stroke-width="1" opacity="1"/><line transform="translate(66,0)" x2="0" y2="5" stroke="#888" stroke-width="1" opacity="1"/><line transform="translate(99,0)" x2="0" y2="5" stroke="#888" stroke-width="1" opacity="1"/><line transform="translate(133,0)" x2="0" y2="5" stroke="#888" stroke-width="1" opacity="1"/><line transform="translate(166,0)" x2="0" y2="5" stroke="#888" stroke-width="1" opacity="1"/><line transform="translate(199,0)" x2="0" y2="5" stroke="#888" stroke-width="1" opacity="1"/><line transform="translate(232,0)" x2="0" y2="5" stroke="#888" stroke-width="1" opacity="1"/><line transform="translate(265,0)" x2="0" y2="5" stroke="#888" stroke-width="1" opacity="1"/><line transform="translate(298,0)" x2="0" y2="5" stroke="#888" stroke-width="1" opacity="1"/><line transform="translate(332,0)" x2="0" y2="5" stroke="#888" stroke-width="1" opacity="1"/><line transform="translate(365,0)" x2="0" y2="5" stroke="#888" stroke-width="1" opacity="1"/><line transform="translate(398,0)" x2="0" y2="5" stroke="#888" stroke-width="1" opacity="1"/><line transform="translate(431,0)" x2="0" y2="5" stroke="#888" stroke-width="1" opacity="1"/><line transform="translate(464,0)" x2="0" y2="5" stroke="#888" stroke-width="1" opacity="1"/><line transform="translate(497,0)" x2="0" y2="5" stroke="#888" stroke-width="1" opacity="1"/><line transform="translate(531,0)" x2="0" y2="5" stroke="#888" stroke-width="1" opacity="1"/><line transform="translate(564,0)" x2="0" y2="5" stroke="#888" stroke-width="1" opacity="1"/><line transform="translate(597,0)" x2="0" y2="5" stroke="#888" stroke-width="1" opacity="1"/><line transform="translate(630,0)" x2="0" y2="5" stroke="#888" stroke-width="1" opacity="1"/></g><g class="mark-text role-axis-label" pointer-events="none"><text text-anchor="start" transform="translate(0,16)" font-family="sans-serif" font-size="11px" fill="#000" opacity="1">1925</text><text text-anchor="middle" transform="translate(33.15922729045288,16)" font-family="sans-serif" font-size="11px" fill="#000" opacity="0">1930</text><text text-anchor="middle" transform="translate(66.31845458090577,16)" font-family="sans-serif" font-size="11px" fill="#000" opacity="1">1935</text><text text-anchor="middle" transform="translate(99.47768187135864,16)" font-family="sans-serif" font-size="11px" fill="#000" opacity="0">1940</text><text text-anchor="middle" transform="translate(132.6543120056341,16)" font-family="sans-serif" font-size="11px" fill="#000" opacity="1">1945</text><text text-anchor="middle" transform="translate(165.813539296087,16)" font-family="sans-serif" font-size="11px" fill="#000" opacity="0">1950</text><text text-anchor="middle" transform="translate(198.97276658653988,16)" font-family="sans-serif" font-size="11px" fill="#000" opacity="1">1955</text><text text-anchor="middle" transform="translate(232.13199387699274,16)" font-family="sans-serif" font-size="11px" fill="#000" opacity="0">1960</text><text text-anchor="middle" transform="translate(265.3093806566518,16)" font-family="sans-serif" font-size="11px" fill="#000" opacity="1">1965</text><text text-anchor="middle" transform="translate(298.46860794710466,16)" font-family="sans-serif" font-size="11px" fill="#000" opacity="0">1970</text><text text-anchor="middle" transform="translate(331.6278352375576,16)" font-family="sans-serif" font-size="11px" fill="#000" opacity="1">1975</text><text text-anchor="middle" transform="translate(364.78706252801044,16)" font-family="sans-serif" font-size="11px" fill="#000" opacity="0">1980</text><text text-anchor="middle" transform="translate(397.9644493076695,16)" font-family="sans-serif" font-size="11px" fill="#000" opacity="1">1985</text><text text-anchor="middle" transform="translate(431.12367659812236,16)" font-family="sans-serif" font-size="11px" fill="#000" opacity="0">1990</text><text text-anchor="middle" transform="translate(464.2829038885752,16)" font-family="sans-serif" font-size="11px" fill="#000" opacity="1">1995</text><text text-anchor="middle" transform="translate(497.4421311790281,16)" font-family="sans-serif" font-size="11px" fill="#000" opacity="0">2000</text><text text-anchor="middle" transform="translate(530.6195179586872,16)" font-family="sans-serif" font-size="11px" fill="#000" opacity="1">2005</text><text text-anchor="middle" transform="translate(563.77874524914,16)" font-family="sans-serif" font-size="11px" fill="#000" opacity="0">2010</text><text text-anchor="middle" transform="translate(596.9379725395929,16)" font-family="sans-serif" font-size="11px" fill="#000" opacity="1">2015</text><text text-anchor="middle" transform="translate(630.0971998300458,16)" font-family="sans-serif" font-size="11px" fill="#000" opacity="0">2020</text></g><g class="mark-rule role-axis-domain" pointer-events="none"><line transform="translate(0,0)" x2="650" y2="0" stroke="#888" stroke-width="1" opacity="1"/></g><g class="mark-text role-axis-title" pointer-events="none"><text text-anchor="middle" transform="translate(325,31)" font-family="sans-serif" font-size="11px" font-weight="bold" fill="#000" opacity="1">Jaar</text></g></g><path class="foreground" aria-hidden="true" d="" pointer-events="none" display="none"/></g></g><g class="mark-group role-axis" role="graphics-symbol" aria-roledescription="axis" aria-label="Y-axis titled 'Aantal Pagina's' for a linear scale with values from 0 to 30"><g transform="translate(0.5,0.5)"><path class="background" aria-hidden="true" d="M0,0h0v0h0Z" pointer-events="none"/><g><g class="mark-rule role-axis-tick" pointer-events="none"><line transform="translate(0,350)" x2="-5" y2="0" stroke="#888" stroke-width="1" opacity="1"/><line transform="translate(0,292)" x2="-5" y2="0" stroke="#888" stroke-width="1" opacity="1"/><line transform="translate(0,233)" x2="-5" y2="0" stroke="#888" stroke-width="1" opacity="1"/><line transform="translate(0,175)" x2="-5" y2="0" stroke="#888" stroke-width="1" opacity="1"/><line transform="translate(0,117)" x2="-5" y2="0" stroke="#888" stroke-width="1" opacity="1"/><line transform="translate(0,58)" x2="-5" y2="0" stroke="#888" stroke-width="1" opacity="1"/><line transform="translate(0,0)" x2="-5" y2="0" stroke="#888" stroke-width="1" opacity="1"/></g><g class="mark-text role-axis-label" pointer-events="none"><text text-anchor="end" transform="translate(-7,353)" font-family="sans-serif" font-size="11px" fill="#000" opacity="1">0</text><text text-anchor="end" transform="translate(-7,294.6666666666667)" font-family="sans-serif" font-size="11px" fill="#000" opacity="1">5</text><text text-anchor="end" transform="translate(-7,236.33333333333337)" font-family="sans-serif" font-size="11px" fill="#000" opacity="1">10</text><text text-anchor="end" transform="translate(-7,178)" font-family="sans-serif" font-size="11px" fill="#000" opacity="1">15</text><text text-anchor="end" transform="translate(-7,119.66666666666669)" font-family="sans-serif" font-size="11px" fill="#000" opacity="1">20</text><text text-anchor="end" transform="translate(-7,61.33333333333332)" font-family="sans-serif" font-size="11px" fill="#000" opacity="1">25</text><text text-anchor="end" transform="translate(-7,3)" font-family="sans-serif" font-size="11px" fill="#000" opacity="1">30</text></g><g class="mark-rule role-axis-domain" pointer-events="none"><line transform="translate(0,350)" x2="0" y2="-350" stroke="#888" stroke-width="1" opacity="1"/></g><g class="mark-text role-axis-title" pointer-events="none"><text text-anchor="middle" transform="translate(-23.2353515625,175) rotate(-90) translate(0,-2)" font-family="sans-serif" font-size="11px" font-weight="bold" fill="#000" opacity="1">Aantal Pagina's</text></g></g><path class="foreground" aria-hidden="true" d="" pointer-events="none" display="none"/></g></g><g class="mark-area role-mark layer_0_marks" role="graphics-object" aria-roledescription="area mark container"><path aria-label="Jaar: Jan 01, 1925; ll: 13.5751398977; ul: 15.4348655075" role="graphics-symbol" aria-roledescription="area mark" d="M0,191.623L1.105,191.458C2.209,191.292,4.419,190.961,6.628,190.651C8.838,190.342,11.047,190.054,13.256,189.763C15.466,189.472,17.675,189.178,19.888,188.89C22.1,188.603,24.316,188.322,26.528,188.099C28.74,187.876,30.95,187.71,33.159,187.535C35.369,187.361,37.578,187.178,39.787,186.897C41.997,186.616,44.206,186.237,46.419,186.029C48.631,185.82,50.847,185.783,53.059,185.663C55.271,185.542,57.481,185.339,59.69,185.197C61.9,185.056,64.109,184.978,66.318,184.902C68.528,184.826,70.737,184.753,72.95,184.6C75.162,184.446,77.378,184.213,79.59,184.116C81.802,184.019,84.012,184.06,86.221,184.086C88.431,184.113,90.64,184.125,92.849,184.136C95.059,184.146,97.268,184.155,99.48,184.171C101.693,184.187,103.908,184.21,106.12,184.306C108.332,184.402,110.541,184.57,112.751,184.769C114.96,184.968,117.17,185.198,119.38,185.451C121.589,185.703,123.799,185.978,126.011,186.252C128.223,186.526,130.439,186.799,132.651,187.129C134.864,187.46,137.073,187.847,139.283,188.278C141.492,188.709,143.701,189.185,145.911,189.691C148.12,190.198,150.33,190.736,152.542,191.233C154.754,191.73,156.97,192.187,159.182,192.596C161.395,193.004,163.604,193.365,165.814,193.795C168.023,194.226,170.232,194.726,172.442,195.235C174.651,195.743,176.861,196.26,179.073,196.883C181.285,197.506,183.501,198.235,185.713,198.822C187.926,199.409,190.135,199.853,192.345,200.306C194.554,200.759,196.763,201.222,198.973,201.643C201.182,202.064,203.392,202.444,205.604,202.76C207.816,203.075,210.032,203.326,212.244,203.61C214.457,203.893,216.666,204.21,218.876,204.438C221.085,204.667,223.294,204.808,225.504,204.869C227.713,204.93,229.923,204.911,232.135,204.899C234.347,204.886,236.563,204.879,238.775,204.785C240.988,204.692,243.197,204.513,245.407,204.267C247.616,204.021,249.825,203.708,252.035,203.414C254.244,203.119,256.454,202.844,258.666,202.416C260.878,201.989,263.094,201.409,265.306,200.747C267.519,200.086,269.728,199.343,271.938,198.567C274.147,197.791,276.356,196.983,278.566,196.107C280.775,195.231,282.985,194.287,285.197,193.371C287.409,192.455,289.625,191.567,291.837,190.628C294.05,189.69,296.259,188.7,298.469,187.786C300.678,186.872,302.887,186.034,305.097,185.132C307.306,184.229,309.516,183.262,311.728,182.335C313.94,181.407,316.156,180.518,318.368,179.651C320.581,178.783,322.79,177.937,325,177.087C327.209,176.236,329.418,175.38,331.628,174.567C333.837,173.754,336.047,172.984,338.259,172.134C340.472,171.284,342.687,170.354,344.899,169.556C347.112,168.759,349.321,168.093,351.531,167.443C353.74,166.794,355.949,166.159,358.159,165.466C360.368,164.773,362.578,164.022,364.79,163.344C367.003,162.665,369.218,162.06,371.43,161.477C373.643,160.894,375.852,160.334,378.062,159.791C380.271,159.248,382.48,158.722,384.69,158.314C386.899,157.907,389.109,157.619,391.321,157.213C393.534,156.807,395.749,156.283,397.961,155.852C400.174,155.422,402.383,155.085,404.593,154.727C406.802,154.368,409.011,153.99,411.221,153.558C413.43,153.126,415.64,152.641,417.852,152.151C420.065,151.66,422.28,151.164,424.492,150.708C426.705,150.253,428.914,149.837,431.124,149.341C433.333,148.844,435.542,148.267,437.752,147.738C439.961,147.209,442.171,146.728,444.383,146.126C446.596,145.525,448.811,144.804,451.023,144.063C453.236,143.322,455.445,142.562,457.655,141.758C459.864,140.954,462.073,140.106,464.283,139.209C466.492,138.313,468.702,137.368,470.914,136.382C473.127,135.395,475.342,134.367,477.554,133.309C479.767,132.251,481.976,131.163,484.186,130.054C486.395,128.944,488.605,127.812,490.814,126.723C493.023,125.634,495.233,124.587,497.445,123.444C499.658,122.302,501.873,121.063,504.085,119.751C506.298,118.439,508.507,117.053,510.717,115.619C512.926,114.186,515.136,112.705,517.345,111.277C519.554,109.848,521.764,108.473,523.976,107.064C526.189,105.656,528.404,104.214,530.616,102.824C532.829,101.434,535.038,100.095,537.248,98.783C539.457,97.472,541.667,96.188,543.876,94.844C546.085,93.499,548.295,92.094,550.507,90.72C552.72,89.347,554.935,88.006,557.148,86.663C559.36,85.319,561.569,83.972,563.779,82.607C565.988,81.242,568.198,79.857,570.407,78.525C572.616,77.193,574.826,75.912,577.038,74.654C579.251,73.396,581.466,72.16,583.679,70.787C585.891,69.414,588.1,67.905,590.31,66.504C592.519,65.103,594.729,63.811,596.938,62.541C599.147,61.271,601.357,60.024,603.569,58.738C605.782,57.452,607.997,56.127,610.21,54.805C612.422,53.483,614.631,52.164,616.841,50.819C619.05,49.474,621.26,48.104,623.469,46.801C625.678,45.497,627.888,44.26,630.1,42.971C632.313,41.683,634.528,40.342,636.741,39.016C638.953,37.69,641.162,36.379,643.372,35.045C645.581,33.711,647.791,32.354,648.895,31.676L650,30.997L650,10.729L648.895,11.586C647.791,12.444,645.581,14.159,643.372,15.824C641.162,17.49,638.953,19.106,636.741,20.728C634.528,22.349,632.313,23.975,630.1,25.544C627.888,27.113,625.678,28.625,623.469,30.209C621.26,31.792,619.05,33.446,616.841,35.063C614.631,36.68,612.422,38.26,610.21,39.834C607.997,41.409,605.782,42.979,603.569,44.512C601.357,46.045,599.147,47.54,596.938,49.049C594.729,50.558,592.519,52.08,590.31,53.708C588.1,55.336,585.891,57.069,583.679,58.663C581.466,60.257,579.251,61.712,577.038,63.173C574.826,64.634,572.616,66.101,570.407,67.62C568.198,69.139,565.988,70.71,563.779,72.238C561.569,73.767,559.36,75.251,557.148,76.728C554.935,78.204,552.72,79.671,550.507,81.14C548.295,82.609,546.085,84.08,543.876,85.492C541.667,86.903,539.457,88.256,537.248,89.607C535.038,90.958,532.829,92.308,530.616,93.689C528.404,95.07,526.189,96.482,523.976,97.842C521.764,99.202,519.554,100.51,517.345,101.862C515.136,103.214,512.926,104.611,510.717,105.985C508.507,107.358,506.298,108.71,504.085,109.991C501.873,111.273,499.658,112.485,497.445,113.581C495.233,114.676,493.023,115.656,490.814,116.684C488.605,117.712,486.395,118.788,484.186,119.836C481.976,120.883,479.767,121.901,477.554,122.888C475.342,123.876,473.127,124.832,470.914,125.741C468.702,126.65,466.492,127.511,464.283,128.345C462.073,129.179,459.864,129.985,457.655,130.73C455.445,131.474,453.236,132.157,451.023,132.822C448.811,133.487,446.596,134.135,444.383,134.649C442.171,135.162,439.961,135.543,437.752,135.979C435.542,136.415,433.333,136.905,431.124,137.303C428.914,137.7,426.705,138.004,424.492,138.342C422.28,138.679,420.065,139.049,417.852,139.416C415.64,139.783,413.43,140.147,411.221,140.461C409.011,140.775,406.802,141.039,404.593,141.284C402.383,141.53,400.174,141.756,397.961,142.065C395.749,142.374,393.534,142.765,391.321,143.052C389.109,143.339,386.899,143.522,384.69,143.844C382.48,144.166,380.271,144.626,378.062,145.106C375.852,145.585,373.643,146.083,371.43,146.613C369.218,147.142,367.003,147.704,364.79,148.352C362.578,149.001,360.368,149.737,358.159,150.404C355.949,151.071,353.74,151.67,351.531,152.303C349.321,152.936,347.112,153.604,344.899,154.417C342.687,155.23,340.472,156.187,338.259,157.09C336.047,157.993,333.837,158.841,331.628,159.729C329.418,160.618,327.209,161.546,325,162.47C322.79,163.394,320.581,164.314,318.368,165.258C316.156,166.203,313.94,167.172,311.728,168.205C309.516,169.237,307.306,170.333,305.097,171.367C302.887,172.402,300.678,173.374,298.469,174.424C296.259,175.475,294.05,176.604,291.837,177.675C289.625,178.746,287.409,179.76,285.197,180.798C282.985,181.837,280.775,182.9,278.566,183.881C276.356,184.861,274.147,185.759,271.938,186.604C269.728,187.449,267.519,188.24,265.306,188.91C263.094,189.581,260.878,190.131,258.666,190.542C256.454,190.953,254.244,191.225,252.035,191.555C249.825,191.884,247.616,192.27,245.407,192.55C243.197,192.83,240.988,193.004,238.775,193.073C236.563,193.143,234.347,193.108,232.135,193.089C229.923,193.069,227.713,193.065,225.504,192.972C223.294,192.879,221.085,192.698,218.876,192.41C216.666,192.123,214.457,191.73,212.244,191.396C210.032,191.062,207.816,190.787,205.604,190.406C203.392,190.024,201.182,189.536,198.973,189.035C196.763,188.534,194.554,188.02,192.345,187.508C190.135,186.996,187.926,186.486,185.713,185.837C183.501,185.188,181.285,184.402,179.073,183.721C176.861,183.041,174.651,182.468,172.442,181.913C170.232,181.359,168.023,180.824,165.814,180.353C163.604,179.882,161.395,179.475,159.182,179.029C156.97,178.582,154.754,178.096,152.542,177.58C150.33,177.064,148.12,176.518,145.911,176.007C143.701,175.496,141.492,175.019,139.283,174.611C137.073,174.203,134.864,173.864,132.651,173.568C130.439,173.271,128.223,173.017,126.011,172.774C123.799,172.531,121.589,172.299,119.38,172.118C117.17,171.937,114.96,171.808,112.751,171.716C110.541,171.624,108.332,171.569,106.12,171.588C103.908,171.607,101.693,171.7,99.48,171.771C97.268,171.842,95.059,171.89,92.849,171.918C90.64,171.946,88.431,171.954,86.221,171.911C84.012,171.868,81.802,171.775,79.59,171.808C77.378,171.84,75.162,171.998,72.95,172.057C70.737,172.117,68.528,172.079,66.318,172.021C64.109,171.962,61.9,171.882,59.69,171.842C57.481,171.802,55.271,171.801,53.059,171.698C50.847,171.595,48.631,171.389,46.419,171.325C44.206,171.262,41.997,171.339,39.787,171.318C37.578,171.297,35.369,171.177,33.159,171.048C30.95,170.919,28.74,170.779,26.528,170.679C24.316,170.579,22.1,170.518,19.888,170.46C17.675,170.403,15.466,170.349,13.256,170.286C11.047,170.223,8.838,170.151,6.628,170.09C4.419,170.028,2.209,169.977,1.105,169.952L0,169.927Z" fill="#4c78a8" opacity="0.6"/></g><g class="mark-line role-mark layer_1_marks" role="graphics-object" aria-roledescription="line mark container"><path aria-label="Jaar: Jan 01, 1925; Aantal Pagina's: 14.5099950056" role="graphics-symbol" aria-roledescription="line mark" d="M0,180.717L1.105,180.668C2.209,180.619,4.419,180.521,6.628,180.425C8.838,180.329,11.047,180.236,13.256,180.145C15.466,180.053,17.675,179.964,19.888,179.877C22.1,179.79,24.316,179.705,26.528,179.622C28.74,179.539,30.95,179.458,33.159,179.379C35.369,179.3,37.578,179.223,39.787,179.149C41.997,179.074,44.206,179.002,46.419,178.932C48.631,178.863,50.847,178.796,53.059,178.733C55.271,178.67,57.481,178.611,59.69,178.555C61.9,178.5,64.109,178.448,66.318,178.402C68.528,178.355,70.737,178.313,72.95,178.277C75.162,178.24,77.378,178.209,79.59,178.184C81.802,178.158,84.012,178.138,86.221,178.125C88.431,178.111,90.64,178.103,92.849,178.101C95.059,178.098,97.268,178.102,99.48,178.113C101.693,178.123,103.908,178.14,106.12,178.164C108.332,178.189,110.541,178.222,112.751,178.288C114.96,178.353,117.17,178.452,119.38,178.627C121.589,178.801,123.799,179.052,126.011,179.339C128.223,179.626,130.439,179.949,132.651,180.3C134.864,180.651,137.073,181.03,139.283,181.432C141.492,181.835,143.701,182.261,145.911,182.704C148.12,183.147,150.33,183.606,152.542,184.086C154.754,184.566,156.97,185.066,159.182,185.578C161.395,186.091,163.604,186.615,165.814,187.139C168.023,187.664,170.232,188.187,172.442,188.733C174.651,189.278,176.861,189.845,179.073,190.417C181.285,190.989,183.501,191.565,185.713,192.125C187.926,192.684,190.135,193.228,192.345,193.744C194.554,194.26,196.763,194.749,198.973,195.2C201.182,195.651,203.392,196.064,205.604,196.447C207.816,196.83,210.032,197.182,212.244,197.5C214.457,197.817,216.666,198.1,218.876,198.327C221.085,198.554,223.294,198.726,225.504,198.84C227.713,198.954,229.923,199.01,232.135,199.009C234.347,199.009,236.563,198.952,238.775,198.836C240.988,198.72,243.197,198.546,245.407,198.331C247.616,198.116,249.825,197.859,252.035,197.556C254.244,197.253,256.454,196.903,258.666,196.433C260.878,195.963,263.094,195.373,265.306,194.708C267.519,194.044,269.728,193.304,271.938,192.511C274.147,191.718,276.356,190.871,278.566,189.981C280.775,189.091,282.985,188.159,285.197,187.199C287.409,186.24,289.625,185.253,291.837,184.258C294.05,183.264,296.259,182.261,298.469,181.255C300.678,180.248,302.887,179.237,305.097,178.236C307.306,177.234,309.516,176.242,311.728,175.272C313.94,174.303,316.156,173.357,318.368,172.429C320.581,171.501,322.79,170.591,325,169.692C327.209,168.793,329.418,167.904,331.628,167.026C333.837,166.148,336.047,165.28,338.259,164.439C340.472,163.598,342.687,162.784,344.899,162.006C347.112,161.229,349.321,160.487,351.531,159.774C353.74,159.06,355.949,158.374,358.159,157.725C360.368,157.076,362.578,156.464,364.79,155.883C367.003,155.302,369.218,154.753,371.43,154.233C373.643,153.713,375.852,153.222,378.062,152.769C380.271,152.316,382.48,151.901,384.69,151.492C386.899,151.083,389.109,150.68,391.321,150.292C393.534,149.903,395.749,149.53,397.961,149.166C400.174,148.802,402.383,148.448,404.593,148.096C406.802,147.745,409.011,147.396,411.221,147.046C413.43,146.695,415.64,146.342,417.852,145.97C420.065,145.598,422.28,145.207,424.492,144.791C426.705,144.376,428.914,143.935,431.124,143.468C433.333,143.001,435.542,142.507,437.752,141.975C439.961,141.443,442.171,140.873,444.383,140.267C446.596,139.661,448.811,139.02,451.023,138.341C453.236,137.662,455.445,136.945,457.655,136.193C459.864,135.441,462.073,134.654,464.283,133.823C466.492,132.993,468.702,132.119,470.914,131.19C473.127,130.262,475.342,129.278,477.554,128.257C479.767,127.237,481.976,126.18,484.186,125.101C486.395,124.022,488.605,122.921,490.814,121.808C493.023,120.695,495.233,119.57,497.445,118.393C499.658,117.215,501.873,115.985,504.085,114.697C506.298,113.408,508.507,112.061,510.717,110.697C512.926,109.333,515.136,107.952,517.345,106.573C519.554,105.193,521.764,103.817,523.976,102.441C526.189,101.065,528.404,99.689,530.616,98.313C532.829,96.936,535.038,95.558,537.248,94.177C539.457,92.797,541.667,91.414,543.876,90.027C546.085,88.641,548.295,87.251,550.507,85.857C552.72,84.463,554.935,83.065,557.148,81.663C559.36,80.261,561.569,78.855,563.779,77.445C565.988,76.034,568.198,74.62,570.407,73.201C572.616,71.783,574.826,70.36,577.038,68.934C579.251,67.508,581.466,66.079,583.679,64.646C585.891,63.213,588.1,61.777,590.31,60.338C592.519,58.899,594.729,57.458,596.938,56.014C599.147,54.57,601.357,53.123,603.569,51.675C605.782,50.227,607.997,48.777,610.21,47.325C612.422,45.874,614.631,44.42,616.841,42.966C619.05,41.512,621.26,40.056,623.469,38.6C625.678,37.144,627.888,35.687,630.1,34.23C632.313,32.772,634.528,31.314,636.741,29.856C638.953,28.398,641.162,26.94,643.372,25.496C645.581,24.051,647.791,22.62,648.895,21.905L650,21.189" stroke="#4c78a8" stroke-width="2"/></g></g><path class="foreground" aria-hidden="true" d="" display="none"/></g></g></g></svg>