<svg xmlns="http://www.w3.org/2000/svg" xmlns:xlink="http://www.w3.org/1999/xlink" version="1.1" class="marks" width="647" height="349" viewBox="0 0 647 349"><rect width="647" height="349" fill="white"/><g fill="none" stroke-miterlimit="10" transform="translate(40,11)"><g class="mark-group role-frame root" role="graphics-object" aria-roledescription="group mark container"><g transform="translate(0,0)"><path class="background" aria-hidden="true" d="M0.5,0.5h600v300h-600Z" stroke="#ddd"/><g><g class="mark-group role-axis" aria-hidden="true"><g transform="translate(0.5,300.5)"><path class="background" aria-hidden="true" d="M0,0h0v0h0Z" pointer-events="none"/><g><g class="mark-rule role-axis-grid" pointer-events="none"><line transform="translate(0,-300)" x2="0" y2="300" stroke="#ddd" stroke-width="1" opacity="1"/><line transform="translate(31,-300)" x2="0" y2="300" stroke="#ddd" stroke-width="1" opacity="1"/><line transform="translate(61,-300)" x2="0" y2="300" stroke="#ddd" stroke-width="1" opacity="1"/><line transform="translate(92,-300)" x2="0" y2="300" stroke="#ddd" stroke-width="1" opacity="1"/><line transform="translate(122,-300)" x2="0" y2="300" stroke="#ddd" stroke-width="1" opacity="1"/><line transform="translate(153,-300)" x2="0" y2="300" stroke="#ddd" stroke-width="1" opacity="1"/><line transform="translate(184,-300)" x2="0" y2="300" stroke="#ddd" stroke-width="1" opacity="1"/><line transform="translate(214,-300)" x2="0" y2="300" stroke="#ddd" stroke-width="1" opacity="1"/><line transform="translate(245,-300)" x2="0" y2="300" stroke="#ddd" stroke-width="1" opacity="1"/><line transform="translate(276,-300)" x2="0" y2="300" stroke="#ddd" stroke-width="1" opacity="1"/><line transform="translate(306,-300)" x2="0" y2="300" stroke="#ddd" stroke-width="1" opacity="1"/><line transform="translate(337,-300)" x2="0" y2="300" stroke="#ddd" stroke-width="1" opacity="1"/><line transform="translate(367,-300)" x2="0" y2="300" stroke="#ddd" stroke-width="1" opacity="1"/><line transform="translate(398,-300)" x2="0" y2="300" stroke="#ddd" stroke-width="1" opacity="1"/><line transform="translate(429,-300)" x2="0" y2="300" stroke="#ddd" stroke-width="1" opacity="1"/><line transform="translate(459,-300)" x2="0" y2="300" stroke="#ddd" stroke-width="1" opacity="1"/><line transform="translate(490,-300)" x2="0" y2="300" stroke="#ddd" stroke-width="1" opacity="1"/><line transform="translate(520,-300)" x2="0" y2="300" stroke="#ddd" stroke-width="1" opacity="1"/><line transform="translate(551,-300)" x2="0" y2="300" stroke="#ddd" stroke-width="1" opacity="1"/><line transform="translate(582,-300)" x2="0" y2="300" stroke="#ddd" stroke-width="1" opacity="1"/></g></g><path class="foreground" aria-hidden="true" d="" pointer-events="none" display="none"/></g></g><g class="mark-group role-axis" aria-hidden="true"><g transform="translate(0.5,0.5)"><path class="background" aria-hidden="true" d="M0,0h0v0h0Z" pointer-events="none"/><g><g class="mark-rule role-axis-grid" pointer-events="none"><line transform="translate(0,300)" x2="600" y2="0" stroke="#ddd" stroke-width="1" opacity="1"/><line transform="translate(0,250)" x2="600" y2="0" stroke="#ddd" stroke-width="1" opacity="1"/><line transform="translate(0,200)" x2="600" y2="0" stroke="#ddd" stroke-width="1" opacity="1"/><line transform="translate(0,150)" x2="600" y2="0" stroke="#ddd" stroke-width="1" opacity="1"/><line transform="translate(0,100)" x2="600" y2="0" stroke="#ddd" stroke-width="1" opacity="1"/><line transform="translate(0,50)" x2="600" y2="0" stroke="#ddd" stroke-width="1" opacity="1"/><line transform="translate(0,0)" x2="600" y2="0" stroke="#ddd" stroke-width="1" opacity="1"/></g></g><path class="foreground" aria-hidden="true" d="" pointer-events="none" display="none"/></g></g><g class="mark-group role-axis" role="graphics-symbol" aria-roledescription="axis" aria-label="X-axis titled 'Jaar' for a time scale with values from Thursday, 01 January 1925, 12:00:00 AM to Sunday, 01 January 2023, 1:00:00 AM"><g transform="translate(0.5,300.5)"><path class="background" aria-hidden="true" d="M0,0h0v0h0Z" pointer-events="none"/><g><g class="mark-rule role-axis-tick" pointer-events="none"><line transform="translate(0,0)" x2="0" y2="5" stroke="#888" stroke-width="1" opacity="1"/><line transform="translate(31,0)" x2="0" y2="5" stroke="#888" stroke-width="1" opacity="1"/><line transform="translate(61,0)" x2="0" y2="5" stroke="#888" stroke-width="1" opacity="1"/><line transform="translate(92,0)" x2="0" y2="5" stroke="#888" stroke-width="1" opacity="1"/><line transform="translate(122,0)" x2="0" y2="5" stroke="#888" stroke-width="1" opacity="1"/><line transform="translate(153,0)" x2="0" y2="5" stroke="#888" stroke-width="1" opacity="1"/><line transform="translate(184,0)" x2="0" y2="5" stroke="#888" stroke-width="1" opacity="1"/><line transform="translate(214,0)" x2="0" y2="5" stroke="#888" stroke-width="1" opacity="1"/><line transform="translate(245,0)" x2="0" y2="5" stroke="#888" stroke-width="1" opacity="1"/><line transform="translate(276,0)" x2="0" y2="5" stroke="#888" stroke-width="1" opacity="1"/><line transform="translate(306,0)" x2="0" y2="5" stroke="#888" stroke-width="1" opacity="1"/><line transform="translate(337,0)" x2="0" y2="5" stroke="#888" stroke-width="1" opacity="1"/><line transform="translate(367,0)" x2="0" y2="5" stroke="#888" stroke-width="1" opacity="1"/><line transform="translate(398,0)" x2="0" y2="5" stroke="#888" stroke-width="1" opacity="1"/><line transform="translate(429,0)" x2="0" y2="5" stroke="#888" stroke-width="1" opacity="1"/><line transform="translate(459,0)" x2="0" y2="5" stroke="#888" stroke-width="1" opacity="1"/><line transform="translate(490,0)" x2="0" y2="5" stroke="#888" stroke-width="1" opacity="1"/><line transform="translate(520,0)" x2="0" y2="5" stroke="#888" stroke-width="1" opacity="1"/><line transform="translate(551,0)" x2="0" y2="5" stroke="#888" stroke-width="1" opacity="1"/><line transform="translate(582,0)" x2="0" y2="5" stroke="#888" stroke-width="1" opacity="1"/></g><g class="mark-text role-axis-label" pointer-events="none"><text text-anchor="start" transform="translate(0,16)" font-family="sans-serif" font-size="11px" fill="#000" opacity="1">1925</text><text text-anchor="middle" transform="translate(30.60848186846958,16)" font-family="sans-serif" font-size="11px" fill="#000" opacity="0">1930</text><text text-anchor="middle" transform="translate(61.21696373693916,16)" font-family="sans-serif" font-size="11px" fill="#000" opacity="1">1935</text><text text-anchor="middle" transform="translate(91.82544560540873,16)" font-family="sans-serif" font-size="11px" fill="#000" opacity="0">1940</text><text text-anchor="middle" transform="translate(122.44999161870705,16)" font-family="sans-serif" font-size="11px" fill="#000" opacity="1">1945</text><text text-anchor="middle" transform="translate(153.05847348717663,16)" font-family="sans-serif" font-size="11px" fill="#000" opacity="0">1950</text><text text-anchor="middle" transform="translate(183.6669553556462,16)" font-family="sans-serif" font-size="11px" fill="#000" opacity="1">1955</text><text text-anchor="middle" transform="translate(214.27543722411576,16)" font-family="sans-serif" font-size="11px" fill="#000" opacity="0">1960</text><text text-anchor="middle" transform="translate(244.90068167849358,16)" font-family="sans-serif" font-size="11px" fill="#000" opacity="1">1965</text><text text-anchor="middle" transform="translate(275.5091635469632,16)" font-family="sans-serif" font-size="11px" fill="#000" opacity="0">1970</text><text text-anchor="middle" transform="translate(306.1176454154327,16)" font-family="sans-serif" font-size="11px" fill="#000" opacity="1">1975</text><text text-anchor="middle" transform="translate(336.7261272839023,16)" font-family="sans-serif" font-size="11px" fill="#000" opacity="0">1980</text><text text-anchor="middle" transform="translate(367.35137173828014,16)" font-family="sans-serif" font-size="11px" fill="#000" opacity="1">1985</text><text text-anchor="middle" transform="translate(397.95985360674973,16)" font-family="sans-serif" font-size="11px" fill="#000" opacity="0">1990</text><text text-anchor="middle" transform="translate(428.56833547521927,16)" font-family="sans-serif" font-size="11px" fill="#000" opacity="1">1995</text><text text-anchor="middle" transform="translate(459.17681734368887,16)" font-family="sans-serif" font-size="11px" fill="#000" opacity="0">2000</text><text text-anchor="middle" transform="translate(489.8020617980667,16)" font-family="sans-serif" font-size="11px" fill="#000" opacity="1">2005</text><text text-anchor="middle" transform="translate(520.4105436665363,16)" font-family="sans-serif" font-size="11px" fill="#000" opacity="0">2010</text><text text-anchor="middle" transform="translate(551.0190255350059,16)" font-family="sans-serif" font-size="11px" fill="#000" opacity="1">2015</text><text text-anchor="middle" transform="translate(581.6275074034754,16)" font-family="sans-serif" font-size="11px" fill="#000" opacity="0">2020</text></g><g class="mark-rule role-axis-domain" pointer-events="none"><line transform="translate(0,0)" x2="600" y2="0" stroke="#888" stroke-width="1" opacity="1"/></g><g class="mark-text role-axis-title" pointer-events="none"><text text-anchor="middle" transform="translate(300,31)" font-family="sans-serif" font-size="11px" font-weight="bold" fill="#000" opacity="1">Jaar</text></g></g><path class="foreground" aria-hidden="true" d="" pointer-events="none" display="none"/></g></g><g class="mark-group role-axis" role="graphics-symbol" aria-roledescription="axis" aria-label="Y-axis titled 'Aantal Pagina's' for a linear scale with values from 0 to 30"><g transform="translate(0.5,0.5)"><path class="background" aria-hidden="true" d="M0,0h0v0h0Z" pointer-events="none"/><g><g class="mark-rule role-axis-tick" pointer-events="none"><line transform="translate(0,300)" x2="-5" y2="0" stroke="#888" stroke-width="1" opacity="1"/><line transform="translate(0,250)" x2="-5" y2="0" stroke="#888" stroke-width="1" opacity="1"/><line transform="translate(0,200)" x2="-5" y2="0" stroke="#888" stroke-width="1" opacity="1"/><line transform="translate(0,150)" x2="-5" y2="0" stroke="#888" stroke-width="1" opacity="1"/><line transform="translate(0,100)" x2="-5" y2="0" stroke="#888" stroke-width="1" opacity="1"/><line transform="translate(0,50)" x2="-5" y2="0" stroke="#888" stroke-width="1" opacity="1"/><line transform="translate(0,0)" x2="-5" y2="0" stroke="#888" stroke-width="1" opacity="1"/></g><g class="mark-text role-axis-label" pointer-events="none"><text text-anchor="end" transform="translate(-7,303)" font-family="sans-serif" font-size="11px" fill="#000" opacity="1">0</text><text text-anchor="end" transform="translate(-7,253)" font-family="sans-serif" font-size="11px" fill="#000" opacity="1">5</text><text text-anchor="end" transform="translate(-7,203.00000000000003)" font-family="sans-serif" font-size="11px" fill="#000" opacity="1">10</text><text text-anchor="end" transform="translate(-7,153)" font-family="sans-serif" font-size="11px" fill="#000" opacity="1">15</text><text text-anchor="end" transform="translate(-7,103.00000000000001)" font-family="sans-serif" font-size="11px" fill="#000" opacity="1">20</text><text text-anchor="end" transform="translate(-7,52.999999999999986)" font-family="sans-serif" font-size="11px" fill="#000" opacity="1">25</text><text text-anchor="end" transform="translate(-7,3)" font-family="sans-serif" font-size="11px" fill="#000" opacity="1">30</text></g><g class="mark-rule role-axis-domain" pointer-events="none"><line transform="translate(0,300)" x2="0" y2="-300" stroke="#888" stroke-width="1" opacity="1"/></g><g class="mark-text role-axis-title" pointer-events="none"><text text-anchor="middle" transform="translate(-23.2353515625,150) rotate(-90) translate(0,-2)" font-family="sans-serif" font-size="11px" font-weight="bold" fill="#000" opacity="1">Aantal Pagina's</text></g></g><path class="foreground" aria-hidden="true" d="" pointer-events="none" display="none"/></g></g><g class="mark-area role-mark layer_0_marks" role="graphics-object" aria-roledescription="area mark container"><path aria-label="Jaar: Jan 01, 1925; ll: 10.401833752; ul: 14.286815057" role="graphics-symbol" aria-roledescription="area mark" d="M0,195.982L6.118,187.894L12.237,178.694L18.355,173.156L24.49,168.272L30.608,165.818L36.727,167.018L42.845,168.763L48.98,171.199L55.099,174.212L61.217,174.181L67.335,170.379L73.47,166.211L79.589,161.077L85.707,159.153L91.825,158.698L97.961,160.2L104.079,162.513L110.197,163.132L116.316,163.508L122.451,164.536L128.569,166.239L134.687,167.008L140.806,168.096L146.941,168.261L153.059,168.28L159.178,169.639L165.296,172.285L171.431,175.863L177.549,179.524L183.668,186.207L189.786,194.517L195.921,199.885L202.039,206.496L208.158,210.999L214.276,211.698L220.411,210.793L226.53,207.28L232.648,204.196L238.766,199.171L244.901,193.464L251.02,188.285L257.138,182.562L263.256,177.515L269.392,173.48L275.51,168.725L281.628,160.689L287.747,154.687L293.882,151.893L300,151.291L306.118,150.139L312.237,151.144L318.372,151.816L324.49,151.418L330.608,146.643L336.727,142.9L342.862,138.65L348.98,136.54L355.099,135.188L361.217,135.712L367.352,136.798L373.47,138.041L379.589,137.305L385.707,136.923L391.842,136.959L397.961,137.177L404.079,138.749L410.197,141.875L416.332,144.56L422.451,146.954L428.569,148.159L434.687,145.765L440.822,141.596L446.941,137.172L453.059,131.505L459.178,124.137L465.313,117.028L471.431,111.558L477.549,107.115L483.668,102.917L489.803,97.492L495.921,91.465L502.039,86.034L508.158,80.982L514.293,75.269L520.411,69.661L526.53,63.818L532.648,59.116L538.783,56.124L544.901,53.457L551.02,52.076L557.138,50.094L563.273,48.081L569.392,46.313L575.51,44.435L581.628,43.561L587.763,42.83L593.882,42.756L600,42.675L600,6.98L593.882,11.75L587.763,16.373L581.628,21.066L575.51,25.078L569.392,29.234L563.273,32.146L557.138,34.518L551.02,37.147L544.901,39.237L538.783,42.502L532.648,45.65L526.53,50.047L520.411,55.604L514.293,60.807L508.158,65.932L502.039,70.457L495.921,75.893L489.803,81.688L483.668,86.493L477.549,90.612L471.431,94.985L465.313,100.087L459.178,106.971L453.059,114.132L446.941,119.769L440.822,123.948L434.687,126.894L428.569,128.251L422.451,126.938L416.332,124.124L410.197,120.835L404.079,118.148L397.961,117.204L391.842,117.583L385.707,118.25L379.589,118.832L373.47,118.549L367.352,115.313L361.217,111.74L355.099,108.89L348.98,107.024L342.862,105.405L336.727,106.677L330.608,109.368L324.49,113.23L318.372,113.871L312.237,115.366L306.118,117.196L300,121.114L293.882,124.325L287.747,129.856L281.628,137.871L275.51,148.174L269.392,155.039L263.256,160.154L257.138,165.39L251.02,171.068L244.901,176.755L238.766,183.4L232.648,188.32L226.53,190.856L220.411,193.785L214.276,194.222L208.158,192.679L202.039,188.036L195.921,181.696L189.786,175.686L183.668,165.525L177.549,156.465L171.431,151.571L165.296,146.809L159.178,142.354L153.059,142.171L146.941,144.561L140.806,145.368L134.687,144.143L128.569,143.603L122.451,141.294L116.316,138.866L110.197,136.746L104.079,135.613L97.961,135.768L91.825,135.913L85.707,137.821L79.589,140.986L73.47,147.184L67.335,151.708L61.217,155.756L55.099,155.717L48.98,152.293L42.845,148.75L36.727,146.019L30.608,144.773L24.49,147.672L18.355,152.327L12.237,154.664L6.118,157.266L0,157.132Z" fill="#4c78a8" opacity="0.6"/></g><g class="mark-line role-mark layer_1_marks" role="graphics-object" aria-roledescription="line mark container"><path aria-label="Jaar: Jan 01, 1925; Aantal Pagina's: 12.2593611787" role="graphics-symbol" aria-roledescription="line mark" d="M0,177.406L6.118,172.448L12.237,167.563L18.355,162.899L24.49,158.135L30.608,155.68L36.727,156.727L42.845,158.787L48.98,161.442L55.099,164.744L61.217,164.65L67.335,161.118L73.47,156.238L79.589,151.019L85.707,148.038L91.825,147.844L97.961,148.214L104.079,149.168L110.197,149.839L116.316,151.193L122.451,153.306L128.569,154.696L134.687,156.043L140.806,156.573L146.941,156.296L153.059,155.57L159.178,156.287L165.296,159.368L171.431,163.498L177.549,168.568L183.668,176.332L189.786,184.716L195.921,190.557L202.039,196.981L208.158,202.078L214.276,203.103L220.411,202.099L226.53,199.274L232.648,196.151L238.766,191.31L244.901,184.802L251.02,179.407L257.138,174.096L263.256,169.025L269.392,164.522L275.51,158.255L281.628,149.537L287.747,142.244L293.882,138.392L300,136.063L306.118,134.174L312.237,133.218L318.372,133.294L324.49,132.101L330.608,128.842L336.727,124.595L342.862,121.914L348.98,121.632L355.099,122.417L361.217,123.975L367.352,126.231L373.47,127.934L379.589,128.27L385.707,127.703L391.842,126.969L397.961,127.142L404.079,128.376L410.197,130.912L416.332,134.206L422.451,136.931L428.569,137.74L434.687,136.114L440.822,132.608L446.941,128.474L453.059,122.682L459.178,115.601L465.313,108.7L471.431,103.186L477.549,98.808L483.668,94.568L489.803,89.294L495.921,83.598L502.039,78.26L508.158,73.334L514.293,68.193L520.411,62.496L526.53,56.847L532.648,52.413L538.783,49.175L544.901,46.681L551.02,44.382L557.138,42.226L563.273,39.994L569.392,37.48L575.51,34.883L581.628,32.309L587.763,29.779L593.882,27.243L600,24.716" stroke="#4c78a8" stroke-width="2"/></g></g><path class="foreground" aria-hidden="true" d="" display="none"/></g></g></g></svg>