<svg xmlns="http://www.w3.org/2000/svg" xmlns:xlink="http://www.w3.org/1999/xlink" version="1.1" class="marks" width="697" height="399" viewBox="0 0 697 399"><rect width="697" height="399" fill="white"/><g fill="none" stroke-miterlimit="10" transform="translate(40,11)"><g class="mark-group role-frame root" role="graphics-object" aria-roledescription="group mark container"><g transform="translate(0,0)"><path class="background" aria-hidden="true" d="M0.5,0.5h650v350h-650Z" stroke="#ddd"/><g><g class="mark-group role-axis" aria-hidden="true"><g transform="translate(0.5,350.5)"><path class="background" aria-hidden="true" d="M0,0h0v0h0Z" pointer-events="none"/><g><g class="mark-rule role-axis-grid" pointer-events="none"><line transform="translate(0,-350)" x2="0" y2="350" stroke="#ddd" stroke-width="1" opacity="1"/><line transform="translate(33,-350)" x2="0" y2="350" stroke="#ddd" stroke-width="1" opacity="1"/><line transform="translate(66,-350)" x2="0" y2="350" stroke="#ddd" stroke-width="1" opacity="1"/><line transform="translate(99,-350)" x2="0" y2="350" stroke="#ddd" stroke-width="1" opacity="1"/><line transform="translate(133,-350)" x2="0" y2="350" stroke="#ddd" stroke-width="1" opacity="1"/><line transform="translate(166,-350)" x2="0" y2="350" stroke="#ddd" stroke-width="1" opacity="1"/><line transform="translate(199,-350)" x2="0" y2="350" stroke="#ddd" stroke-width="1" opacity="1"/><line transform="translate(232,-350)" x2="0" y2="350" stroke="#ddd" stroke-width="1" opacity="1"/><line transform="translate(265,-350)" x2="0" y2="350" stroke="#ddd" stroke-width="1" opacity="1"/><line transform="translate(298,-350)" x2="0" y2="350" stroke="#ddd" stroke-width="1" opacity="1"/><line transform="translate(332,-350)" x2="0" y2="350" stroke="#ddd" stroke-width="1" opacity="1"/><line transform="translate(365,-350)" x2="0" y2="350" stroke="#ddd" stroke-width="1" opacity="1"/><line transform="translate(398,-350)" x2="0" y2="350" stroke="#ddd" stroke-width="1" opacity="1"/><line transform="translate(431,-350)" x2="0" y2="350" stroke="#ddd" stroke-width="1" opacity="1"/><line transform="translate(464,-350)" x2="0" y2="350" stroke="#ddd" stroke-width="1" opacity="1"/><line transform="translate(497,-350)" x2="0" y2="350" stroke="#ddd" stroke-width="1" opacity="1"/><line transform="translate(531,-350)" x2="0" y2="350" stroke="#ddd" stroke-width="1" opacity="1"/><line transform="translate(564,-350)" x2="0" y2="350" stroke="#ddd" stroke-width="1" opacity="1"/><line transform="translate(597,-350)" x2="0" y2="350" stroke="#ddd" stroke-width="1" opacity="1"/><line transform="translate(630,-350)" x2="0" y2="350" stroke="#ddd" stroke-width="1" opacity="1"/></g></g><path class="foreground" aria-hidden="true" d="" pointer-events="none" display="none"/></g></g><g class="mark-group role-axis" aria-hidden="true"><g transform="translate(0.5,0.5)"><path class="background" aria-hidden="true" d="M0,0h0v0h0Z" pointer-events="none"/><g><g class="mark-rule role-axis-grid" pointer-events="none"><line transform="translate(0,350)" x2="650" y2="0" stroke="#ddd" stroke-width="1" opacity="1"/><line transform="translate(0,292)" x2="650" y2="0" stroke="#ddd" stroke-width="1" opacity="1"/><line transform="translate(0,233)" x2="650" y2="0" stroke="#ddd" stroke-width="1" opacity="1"/><line transform="translate(0,175)" x2="650" y2="0" stroke="#ddd" stroke-width="1" opacity="1"/><line transform="translate(0,117)" x2="650" y2="0" stroke="#ddd" stroke-width="1" opacity="1"/><line transform="translate(0,58)" x2="650" y2="0" stroke="#ddd" stroke-width="1" opacity="1"/><line transform="translate(0,0)" x2="650" y2="0" stroke="#ddd" stroke-width="1" opacity="1"/></g></g><path class="foreground" aria-hidden="true" d="" pointer-events="none" display="none"/></g></g><g class="mark-group role-axis" role="graphics-symbol" aria-roledescription="axis" aria-label="X-axis titled 'Jaar' for a time scale with values from Thursday, 01 January 1925, 12:00:00 AM to Sunday, 01 January 2023, 1:00:00 AM"><g transform="translate(0.5,350.5)"><path class="background" aria-hidden="true" d="M0,0h0v0h0Z" pointer-events="none"/><g><g class="mark-rule role-axis-tick" pointer-events="none"><line transform="translate(0,0)" x2="0" y2="5" stroke="#888" stroke-width="1" opacity="1"/><line transform="translate(33,0)" x2="0" y2="5" stroke="#888" stroke-width="1" opacity="1"/><line transform="translate(66,0)" x2="0" y2="5" stroke="#888" stroke-width="1" opacity="1"/><line transform="translate(99,0)" x2="0" y2="5" stroke="#888" stroke-width="1" opacity="1"/><line transform="translate(133,0)" x2="0" y2="5" stroke="#888" stroke-width="1" opacity="1"/><line transform="translate(166,0)" x2="0" y2="5" stroke="#888" stroke-width="1" opacity="1"/><line transform="translate(199,0)" x2="0" y2="5" stroke="#888" stroke-width="1" opacity="1"/><line transform="translate(232,0)" x2="0" y2="5" stroke="#888" stroke-width="1" opacity="1"/><line transform="translate(265,0)" x2="0" y2="5" stroke="#888" stroke-width="1" opacity="1"/><line transform="translate(298,0)" x2="0" y2="5" stroke="#888" stroke-width="1" opacity="1"/><line transform="translate(332,0)" x2="0" y2="5" stroke="#888" stroke-width="1" opacity="1"/><line transform="translate(365,0)" x2="0" y2="5" stroke="#888" stroke-width="1" opacity="1"/><line transform="translate(398,0)" x2="0" y2="5" stroke="#888" stroke-width="1" opacity="1"/><line transform="translate(431,0)" x2="0" y2="5" stroke="#888" stroke-width="1" opacity="1"/><line transform="translate(464,0)" x2="0" y2="5" stroke="#888" stroke-width="1" opacity="1"/><line transform="translate(497,0)" x2="0" y2="5" stroke="#888" stroke-width="1" opacity="1"/><line transform="translate(531,0)" x2="0" y2="5" stroke="#888" stroke-width="1" opacity="1"/><line transform="translate(564,0)" x2="0" y2="5" stroke="#888" stroke-width="1" opacity="1"/><line transform="translate(597,0)" x2="0" y2="5" stroke="#888" stroke-width="1" opacity="1"/><line transform="translate(630,0)" x2="0" y2="5" stroke="#888" stroke-width="1" opacity="1"/></g><g class="mark-text role-axis-label" pointer-events="none"><text text-anchor="start" transform="translate(0,16)" font-family="sans-serif" font-size="11px" fill="#000" opacity="1">1925</text><text text-anchor="middle" transform="translate(33.15918869084204,16)" font-family="sans-serif" font-size="11px" fill="#000" opacity="0">1930</text><text text-anchor="middle" transform="translate(66.31837738168409,16)" font-family="sans-serif" font-size="11px" fill="#000" opacity="1">1935</text><text text-anchor="middle" transform="translate(99.47756607252613,16)" font-family="sans-serif" font-size="11px" fill="#000" opacity="0">1940</text><text text-anchor="middle" transform="translate(132.65415758693263,16)" font-family="sans-serif" font-size="11px" fill="#000" opacity="1">1945</text><text text-anchor="middle" transform="translate(165.81334627777466,16)" font-family="sans-serif" font-size="11px" fill="#000" opacity="0">1950</text><text text-anchor="middle" transform="translate(198.9725349686167,16)" font-family="sans-serif" font-size="11px" fill="#000" opacity="1">1955</text><text text-anchor="middle" transform="translate(232.13172365945874,16)" font-family="sans-serif" font-size="11px" fill="#000" opacity="0">1960</text><text text-anchor="middle" transform="translate(265.30907181836807,16)" font-family="sans-serif" font-size="11px" fill="#000" opacity="1">1965</text><text text-anchor="middle" transform="translate(298.4682605092101,16)" font-family="sans-serif" font-size="11px" fill="#000" opacity="0">1970</text><text text-anchor="middle" transform="translate(331.6274492000521,16)" font-family="sans-serif" font-size="11px" fill="#000" opacity="1">1975</text><text text-anchor="middle" transform="translate(364.7866378908942,16)" font-family="sans-serif" font-size="11px" fill="#000" opacity="0">1980</text><text text-anchor="middle" transform="translate(397.9639860498035,16)" font-family="sans-serif" font-size="11px" fill="#000" opacity="1">1985</text><text text-anchor="middle" transform="translate(431.12317474064554,16)" font-family="sans-serif" font-size="11px" fill="#000" opacity="0">1990</text><text text-anchor="middle" transform="translate(464.28236343148757,16)" font-family="sans-serif" font-size="11px" fill="#000" opacity="1">1995</text><text text-anchor="middle" transform="translate(497.44155212232965,16)" font-family="sans-serif" font-size="11px" fill="#000" opacity="0">2000</text><text text-anchor="middle" transform="translate(530.6189002812389,16)" font-family="sans-serif" font-size="11px" fill="#000" opacity="1">2005</text><text text-anchor="middle" transform="translate(563.778088972081,16)" font-family="sans-serif" font-size="11px" fill="#000" opacity="0">2010</text><text text-anchor="middle" transform="translate(596.937277662923,16)" font-family="sans-serif" font-size="11px" fill="#000" opacity="1">2015</text><text text-anchor="middle" transform="translate(630.0964663537651,16)" font-family="sans-serif" font-size="11px" fill="#000" opacity="0">2020</text></g><g class="mark-rule role-axis-domain" pointer-events="none"><line transform="translate(0,0)" x2="650" y2="0" stroke="#888" stroke-width="1" opacity="1"/></g><g class="mark-text role-axis-title" pointer-events="none"><text text-anchor="middle" transform="translate(325,31)" font-family="sans-serif" font-size="11px" font-weight="bold" fill="#000" opacity="1">Jaar</text></g></g><path class="foreground" aria-hidden="true" d="" pointer-events="none" display="none"/></g></g><g class="mark-group role-axis" role="graphics-symbol" aria-roledescription="axis" aria-label="Y-axis titled 'Aantal Pagina's' for a linear scale with values from 0 to 30"><g transform="translate(0.5,0.5)"><path class="background" aria-hidden="true" d="M0,0h0v0h0Z" pointer-events="none"/><g><g class="mark-rule role-axis-tick" pointer-events="none"><line transform="translate(0,350)" x2="-5" y2="0" stroke="#888" stroke-width="1" opacity="1"/><line transform="translate(0,292)" x2="-5" y2="0" stroke="#888" stroke-width="1" opacity="1"/><line transform="translate(0,233)" x2="-5" y2="0" stroke="#888" stroke-width="1" opacity="1"/><line transform="translate(0,175)" x2="-5" y2="0" stroke="#888" stroke-width="1" opacity="1"/><line transform="translate(0,117)" x2="-5" y2="0" stroke="#888" stroke-width="1" opacity="1"/><line transform="translate(0,58)" x2="-5" y2="0" stroke="#888" stroke-width="1" opacity="1"/><line transform="translate(0,0)" x2="-5" y2="0" stroke="#888" stroke-width="1" opacity="1"/></g><g class="mark-text role-axis-label" pointer-events="none"><text text-anchor="end" transform="translate(-7,353)" font-family="sans-serif" font-size="11px" fill="#000" opacity="1">0</text><text text-anchor="end" transform="translate(-7,294.6666666666667)" font-family="sans-serif" font-size="11px" fill="#000" opacity="1">5</text><text text-anchor="end" transform="translate(-7,236.33333333333337)" font-family="sans-serif" font-size="11px" fill="#000" opacity="1">10</text><text text-anchor="end" transform="translate(-7,178)" font-family="sans-serif" font-size="11px" fill="#000" opacity="1">15</text><text text-anchor="end" transform="translate(-7,119.66666666666669)" font-family="sans-serif" font-size="11px" fill="#000" opacity="1">20</text><text text-anchor="end" transform="translate(-7,61.33333333333332)" font-family="sans-serif" font-size="11px" fill="#000" opacity="1">25</text><text text-anchor="end" transform="translate(-7,3)" font-family="sans-serif" font-size="11px" fill="#000" opacity="1">30</text></g><g class="mark-rule role-axis-domain" pointer-events="none"><line transform="translate(0,350)" x2="0" y2="-350" stroke="#888" stroke-width="1" opacity="1"/></g><g class="mark-text role-axis-title" pointer-events="none"><text text-anchor="middle" transform="translate(-23.2353515625,175) rotate(-90) translate(0,-2)" font-family="sans-serif" font-size="11px" font-weight="bold" fill="#000" opacity="1">Aantal Pagina's</text></g></g><path class="foreground" aria-hidden="true" d="" pointer-events="none" display="none"/></g></g><g class="mark-area role-mark layer_0_marks" role="graphics-object" aria-roledescription="area mark container"><path aria-label="Jaar: Jan 01, 1925; ll: 10.2903141063; ul: 14.1675292539" role="graphics-symbol" aria-roledescription="area mark" d="M0,229.946L6.628,219.572L13.256,210.014L19.885,202.265L26.531,196.914L33.159,193.939L39.787,195.326L46.416,197.119L53.062,199.493L59.69,202.668L66.318,203.027L72.947,198.505L79.593,193.137L86.221,188.135L92.849,185.11L99.478,185.574L106.124,187.436L112.752,189.193L119.38,190.097L126.009,190.166L132.655,192.558L139.283,194.07L145.911,196.039L152.54,195.831L159.186,196.449L165.814,196.443L172.442,198.061L179.071,200.036L185.717,204.775L192.345,209.828L198.973,217.625L205.601,226.397L212.248,232.281L218.876,239.857L225.504,246.053L232.132,247.43L238.779,245.66L245.407,241.66L252.035,238.152L258.663,232.349L265.31,225.495L271.938,219.15L278.566,213.096L285.194,207.455L291.841,202.679L298.469,196.627L305.097,187.769L311.725,180.498L318.372,178.292L325,177.023L331.628,175.825L338.256,175.893L344.903,177.515L351.531,176.195L358.159,171.424L364.787,166.115L371.434,162.222L378.062,160.352L384.69,159.285L391.318,159.024L397.965,160.475L404.593,160.428L411.221,160.703L417.849,160.377L424.496,159.937L431.124,160.542L437.752,161.916L444.38,164.959L451.027,168.504L457.655,171.642L464.283,172.274L470.911,170.279L477.558,164.706L484.186,159.618L490.814,153.076L497.442,145.564L504.089,137.155L510.717,130.43L517.345,124.89L523.973,120.258L530.62,113.414L537.248,106.723L543.876,100.716L550.504,94.291L557.151,88.206L563.779,80.964L570.407,74.459L577.035,68.918L583.682,65.475L590.31,62.84L596.938,60.79L603.566,58.646L610.213,56.104L616.841,53.876L623.469,51.709L630.097,50.969L636.744,50.668L643.372,48.815L650,49.211L650,8.228L643.372,12.993L636.744,20.134L630.097,25.067L623.469,29.361L616.841,33.98L610.213,37.269L603.566,40.209L596.938,43.033L590.31,46.158L583.682,49.375L577.035,53.044L570.407,58.407L563.779,64.663L557.151,71.322L550.504,76.8L543.876,82.676L537.248,88.52L530.62,94.967L523.973,101.207L517.345,105.567L510.717,110.849L504.089,117.109L497.442,125.513L490.814,133.052L484.186,139.665L477.558,144.339L470.911,148.301L464.283,148.812L457.655,148.348L451.027,145.015L444.38,141.021L437.752,138.081L431.124,137.293L424.496,137.271L417.849,138.349L411.221,138.997L404.593,137.517L397.965,135.041L391.318,130.411L384.69,127.276L378.062,124.617L371.434,122.724L364.787,123.715L358.159,127.93L351.531,132.143L344.903,133.941L338.256,134.58L331.628,137.168L325,141.164L318.372,145.584L311.725,150.599L305.097,161.044L298.469,172.972L291.841,181.113L285.194,187.067L278.566,193.151L271.938,199.165L265.31,206.025L258.663,213.81L252.035,219.67L245.407,222.907L238.779,226.242L232.132,227.271L225.504,225.034L218.876,218.63L212.248,211.522L205.601,204.686L198.973,193.6L192.345,183.061L185.717,176.703L179.071,170.607L172.442,166.331L165.814,166.204L159.186,168.09L152.54,168.753L145.911,169.176L139.283,167.502L132.655,165.738L126.009,162.381L119.38,160.164L112.752,158.34L106.124,158.956L99.478,159.428L92.849,160.347L86.221,164.764L79.593,171.417L72.947,177.09L66.318,181.731L59.69,181.006L53.062,177.048L46.416,173.638L39.787,170.823L33.159,169.2L26.531,172.658L19.885,177.876L13.256,181.715L6.628,183.882L0,184.712Z" fill="#4c78a8" opacity="0.6"/></g><g class="mark-line role-mark layer_1_marks" role="graphics-object" aria-roledescription="line mark container"><path aria-label="Jaar: Jan 01, 1925; Aantal Pagina's: 12.2423993045" role="graphics-symbol" aria-roledescription="line mark" d="M0,207.172L6.628,201.354L13.256,195.612L19.885,190.13L26.531,184.526L33.159,181.596L39.787,182.771L46.416,185.181L53.062,188.275L59.69,192.124L66.318,192.069L72.947,187.972L79.593,182.327L86.221,176.284L92.849,172.863L99.478,172.659L106.124,173.082L112.752,174.147L119.38,174.905L126.009,176.439L132.655,178.856L139.283,180.447L145.911,182.001L152.54,182.598L159.186,182.235L165.814,181.352L172.442,182.192L179.071,185.856L185.717,190.717L192.345,196.68L198.973,205.765L205.601,215.535L212.248,222.313L218.876,229.763L225.504,235.68L232.132,236.895L238.779,235.77L245.407,232.483L252.035,228.844L258.663,223.169L265.31,215.592L271.938,209.302L278.566,203.145L285.194,197.252L291.841,192.021L298.469,184.738L305.097,174.631L311.725,166.161L318.372,161.777L325,159.087L331.628,156.907L338.256,155.792L344.903,155.868L351.531,154.43L358.159,150.546L364.787,145.467L371.434,142.292L378.062,141.927L384.69,142.811L391.318,144.628L397.965,147.301L404.593,149.311L411.221,149.73L417.849,149.077L424.496,148.211L431.124,148.43L437.752,149.842L444.38,152.776L451.027,156.579L457.655,159.777L464.283,160.75L470.911,158.865L477.558,154.802L484.186,149.991L490.814,143.246L497.442,135.012L504.089,126.963L510.717,120.527L517.345,115.414L523.973,110.454L530.62,104.299L537.248,97.629L543.876,91.387L550.504,85.586L557.151,79.572L563.779,72.9L570.407,66.286L577.035,61.091L583.682,57.311L590.31,54.391L596.938,51.694L603.566,49.174L610.213,46.576L616.841,43.671L623.469,40.672L630.097,37.698L636.744,34.777L643.372,31.848L650,28.924" stroke="#4c78a8" stroke-width="2"/></g></g><path class="foreground" aria-hidden="true" d="" display="none"/></g></g></g></svg>