<svg xmlns="http://www.w3.org/2000/svg" xmlns:xlink="http://www.w3.org/1999/xlink" version="1.1" class="marks" width="647" height="349" viewBox="0 0 647 349"><rect width="647" height="349" fill="white"/><g fill="none" stroke-miterlimit="10" transform="translate(40,11)"><g class="mark-group role-frame root" role="graphics-object" aria-roledescription="group mark container"><g transform="translate(0,0)"><path class="background" aria-hidden="true" d="M0.5,0.5h600v300h-600Z" stroke="#ddd"/><g><g class="mark-group role-axis" aria-hidden="true"><g transform="translate(0.5,300.5)"><path class="background" aria-hidden="true" d="M0,0h0v0h0Z" pointer-events="none"/><g><g class="mark-rule role-axis-grid" pointer-events="none"><line transform="translate(31,-300)" x2="0" y2="300" stroke="#ddd" stroke-width="1" opacity="1"/><line transform="translate(62,-300)" x2="0" y2="300" stroke="#ddd" stroke-width="1" opacity="1"/><line transform="translate(93,-300)" x2="0" y2="300" stroke="#ddd" stroke-width="1" opacity="1"/><line transform="translate(124,-300)" x2="0" y2="300" stroke="#ddd" stroke-width="1" opacity="1"/><line transform="translate(155,-300)" x2="0" y2="300" stroke="#ddd" stroke-width="1" opacity="1"/><line transform="translate(186,-300)" x2="0" y2="300" stroke="#ddd" stroke-width="1" opacity="1"/><line transform="translate(216,-300)" x2="0" y2="300" stroke="#ddd" stroke-width="1" opacity="1"/><line transform="translate(247,-300)" x2="0" y2="300" stroke="#ddd" stroke-width="1" opacity="1"/><line transform="translate(278,-300)" x2="0" y2="300" stroke="#ddd" stroke-width="1" opacity="1"/><line transform="translate(309,-300)" x2="0" y2="300" stroke="#ddd" stroke-width="1" opacity="1"/><line transform="translate(340,-300)" x2="0" y2="300" stroke="#ddd" stroke-width="1" opacity="1"/><line transform="translate(371,-300)" x2="0" y2="300" stroke="#ddd" stroke-width="1" opacity="1"/><line transform="translate(402,-300)" x2="0" y2="300" stroke="#ddd" stroke-width="1" opacity="1"/><line transform="translate(433,-300)" x2="0" y2="300" stroke="#ddd" stroke-width="1" opacity="1"/><line transform="translate(464,-300)" x2="0" y2="300" stroke="#ddd" stroke-width="1" opacity="1"/><line transform="translate(495,-300)" x2="0" y2="300" stroke="#ddd" stroke-width="1" opacity="1"/><line transform="translate(526,-300)" x2="0" y2="300" stroke="#ddd" stroke-width="1" opacity="1"/><line transform="translate(557,-300)" x2="0" y2="300" stroke="#ddd" stroke-width="1" opacity="1"/><line transform="translate(588,-300)" x2="0" y2="300" stroke="#ddd" stroke-width="1" opacity="1"/></g></g><path class="foreground" aria-hidden="true" d="" pointer-events="none" display="none"/></g></g><g class="mark-group role-axis" aria-hidden="true"><g transform="translate(0.5,0.5)"><path class="background" aria-hidden="true" d="M0,0h0v0h0Z" pointer-events="none"/><g><g class="mark-rule role-axis-grid" pointer-events="none"><line transform="translate(0,300)" x2="600" y2="0" stroke="#ddd" stroke-width="1" opacity="1"/><line transform="translate(0,250)" x2="600" y2="0" stroke="#ddd" stroke-width="1" opacity="1"/><line transform="translate(0,200)" x2="600" y2="0" stroke="#ddd" stroke-width="1" opacity="1"/><line transform="translate(0,150)" x2="600" y2="0" stroke="#ddd" stroke-width="1" opacity="1"/><line transform="translate(0,100)" x2="600" y2="0" stroke="#ddd" stroke-width="1" opacity="1"/><line transform="translate(0,50)" x2="600" y2="0" stroke="#ddd" stroke-width="1" opacity="1"/><line transform="translate(0,0)" x2="600" y2="0" stroke="#ddd" stroke-width="1" opacity="1"/></g></g><path class="foreground" aria-hidden="true" d="" pointer-events="none" display="none"/></g></g><g class="mark-group role-axis" role="graphics-symbol" aria-roledescription="axis" aria-label="X-axis titled 'Jaar' for a time scale with values from Thursday, 01 January 1925, 1:00:00 AM to Saturday, 01 January 2022, 1:00:00 AM"><g transform="translate(0.5,300.5)"><path class="background" aria-hidden="true" d="M0,0h0v0h0Z" pointer-events="none"/><g><g class="mark-rule role-axis-tick" pointer-events="none"><line transform="translate(31,0)" x2="0" y2="5" stroke="#888" stroke-width="1" opacity="1"/><line transform="translate(62,0)" x2="0" y2="5" stroke="#888" stroke-width="1" opacity="1"/><line transform="translate(93,0)" x2="0" y2="5" stroke="#888" stroke-width="1" opacity="1"/><line transform="translate(124,0)" x2="0" y2="5" stroke="#888" stroke-width="1" opacity="1"/><line transform="translate(155,0)" x2="0" y2="5" stroke="#888" stroke-width="1" opacity="1"/><line transform="translate(186,0)" x2="0" y2="5" stroke="#888" stroke-width="1" opacity="1"/><line transform="translate(216,0)" x2="0" y2="5" stroke="#888" stroke-width="1" opacity="1"/><line transform="translate(247,0)" x2="0" y2="5" stroke="#888" stroke-width="1" opacity="1"/><line transform="translate(278,0)" x2="0" y2="5" stroke="#888" stroke-width="1" opacity="1"/><line transform="translate(309,0)" x2="0" y2="5" stroke="#888" stroke-width="1" opacity="1"/><line transform="translate(340,0)" x2="0" y2="5" stroke="#888" stroke-width="1" opacity="1"/><line transform="translate(371,0)" x2="0" y2="5" stroke="#888" stroke-width="1" opacity="1"/><line transform="translate(402,0)" x2="0" y2="5" stroke="#888" stroke-width="1" opacity="1"/><line transform="translate(433,0)" x2="0" y2="5" stroke="#888" stroke-width="1" opacity="1"/><line transform="translate(464,0)" x2="0" y2="5" stroke="#888" stroke-width="1" opacity="1"/><line transform="translate(495,0)" x2="0" y2="5" stroke="#888" stroke-width="1" opacity="1"/><line transform="translate(526,0)" x2="0" y2="5" stroke="#888" stroke-width="1" opacity="1"/><line transform="translate(557,0)" x2="0" y2="5" stroke="#888" stroke-width="1" opacity="1"/><line transform="translate(588,0)" x2="0" y2="5" stroke="#888" stroke-width="1" opacity="1"/></g><g class="mark-text role-axis-label" pointer-events="none"><text text-anchor="middle" transform="translate(30.923113833300402,16)" font-family="sans-serif" font-size="11px" fill="#000" opacity="1">1930</text><text text-anchor="middle" transform="translate(61.846933303226166,16)" font-family="sans-serif" font-size="11px" fill="#000" opacity="1">1935</text><text text-anchor="middle" transform="translate(92.77075277315194,16)" font-family="sans-serif" font-size="11px" fill="#000" opacity="1">1940</text><text text-anchor="middle" transform="translate(123.71150752208642,16)" font-family="sans-serif" font-size="11px" fill="#000" opacity="1">1945</text><text text-anchor="middle" transform="translate(154.63532699201218,16)" font-family="sans-serif" font-size="11px" fill="#000" opacity="1">1950</text><text text-anchor="middle" transform="translate(185.55914646193796,16)" font-family="sans-serif" font-size="11px" fill="#000" opacity="1">1955</text><text text-anchor="middle" transform="translate(216.4829659318637,16)" font-family="sans-serif" font-size="11px" fill="#000" opacity="1">1960</text><text text-anchor="middle" transform="translate(247.42372068079823,16)" font-family="sans-serif" font-size="11px" fill="#000" opacity="1">1965</text><text text-anchor="middle" transform="translate(278.347540150724,16)" font-family="sans-serif" font-size="11px" fill="#000" opacity="1">1970</text><text text-anchor="middle" transform="translate(309.2713596206498,16)" font-family="sans-serif" font-size="11px" fill="#000" opacity="1">1975</text><text text-anchor="middle" transform="translate(340.1951790905755,16)" font-family="sans-serif" font-size="11px" fill="#000" opacity="1">1980</text><text text-anchor="middle" transform="translate(371.13593383950996,16)" font-family="sans-serif" font-size="11px" fill="#000" opacity="1">1985</text><text text-anchor="middle" transform="translate(402.0597533094358,16)" font-family="sans-serif" font-size="11px" fill="#000" opacity="1">1990</text><text text-anchor="middle" transform="translate(432.98357277936157,16)" font-family="sans-serif" font-size="11px" fill="#000" opacity="1">1995</text><text text-anchor="middle" transform="translate(463.9073922492873,16)" font-family="sans-serif" font-size="11px" fill="#000" opacity="1">2000</text><text text-anchor="middle" transform="translate(494.84814699822175,16)" font-family="sans-serif" font-size="11px" fill="#000" opacity="1">2005</text><text text-anchor="middle" transform="translate(525.7719664681475,16)" font-family="sans-serif" font-size="11px" fill="#000" opacity="1">2010</text><text text-anchor="middle" transform="translate(556.6957859380734,16)" font-family="sans-serif" font-size="11px" fill="#000" opacity="1">2015</text><text text-anchor="middle" transform="translate(587.6196054079991,16)" font-family="sans-serif" font-size="11px" fill="#000" opacity="1">2020</text></g><g class="mark-rule role-axis-domain" pointer-events="none"><line transform="translate(0,0)" x2="600" y2="0" stroke="#888" stroke-width="1" opacity="1"/></g><g class="mark-text role-axis-title" pointer-events="none"><text text-anchor="middle" transform="translate(300,31)" font-family="sans-serif" font-size="11px" font-weight="bold" fill="#000" opacity="1">Jaar</text></g></g><path class="foreground" aria-hidden="true" d="" pointer-events="none" display="none"/></g></g><g class="mark-group role-axis" role="graphics-symbol" aria-roledescription="axis" aria-label="Y-axis titled 'Aantal Pagina's' for a linear scale with values from 0 to 30"><g transform="translate(0.5,0.5)"><path class="background" aria-hidden="true" d="M0,0h0v0h0Z" pointer-events="none"/><g><g class="mark-rule role-axis-tick" pointer-events="none"><line transform="translate(0,300)" x2="-5" y2="0" stroke="#888" stroke-width="1" opacity="1"/><line transform="translate(0,250)" x2="-5" y2="0" stroke="#888" stroke-width="1" opacity="1"/><line transform="translate(0,200)" x2="-5" y2="0" stroke="#888" stroke-width="1" opacity="1"/><line transform="translate(0,150)" x2="-5" y2="0" stroke="#888" stroke-width="1" opacity="1"/><line transform="translate(0,100)" x2="-5" y2="0" stroke="#888" stroke-width="1" opacity="1"/><line transform="translate(0,50)" x2="-5" y2="0" stroke="#888" stroke-width="1" opacity="1"/><line transform="translate(0,0)" x2="-5" y2="0" stroke="#888" stroke-width="1" opacity="1"/></g><g class="mark-text role-axis-label" pointer-events="none"><text text-anchor="end" transform="translate(-7,303)" font-family="sans-serif" font-size="11px" fill="#000" opacity="1">0</text><text text-anchor="end" transform="translate(-7,253)" font-family="sans-serif" font-size="11px" fill="#000" opacity="1">5</text><text text-anchor="end" transform="translate(-7,203.00000000000003)" font-family="sans-serif" font-size="11px" fill="#000" opacity="1">10</text><text text-anchor="end" transform="translate(-7,153)" font-family="sans-serif" font-size="11px" fill="#000" opacity="1">15</text><text text-anchor="end" transform="translate(-7,103.00000000000001)" font-family="sans-serif" font-size="11px" fill="#000" opacity="1">20</text><text text-anchor="end" transform="translate(-7,52.999999999999986)" font-family="sans-serif" font-size="11px" fill="#000" opacity="1">25</text><text text-anchor="end" transform="translate(-7,3)" font-family="sans-serif" font-size="11px" fill="#000" opacity="1">30</text></g><g class="mark-rule role-axis-domain" pointer-events="none"><line transform="translate(0,300)" x2="0" y2="-300" stroke="#888" stroke-width="1" opacity="1"/></g><g class="mark-text role-axis-title" pointer-events="none"><text text-anchor="middle" transform="translate(-23.2353515625,150) rotate(-90) translate(0,-2)" font-family="sans-serif" font-size="11px" font-weight="bold" fill="#000" opacity="1">Aantal Pagina's</text></g></g><path class="foreground" aria-hidden="true" d="" pointer-events="none" display="none"/></g></g><g class="mark-area role-mark layer_0_marks" role="graphics-object" aria-roledescription="area mark container"><path aria-label="Jaar: Jan 01, 1925; ll: 10.4609360854; ul: 14.3348883181" role="graphics-symbol" aria-roledescription="area mark" d="M0,195.391L6.181,186.429L12.363,178.432L18.544,172.19L24.742,167.647L30.924,166.087L37.105,166.8L43.287,168.794L49.485,170.895L55.666,174.204L61.848,173.227L68.029,170.229L74.227,165.415L80.409,160.902L86.59,158.19L92.771,159.75L98.97,160.43L105.151,162.727L111.333,162.484L117.514,162.833L123.712,164.296L129.894,165.915L136.075,167.617L142.256,168.658L148.455,168.12L154.636,168.7L160.817,169.394L166.999,172.037L173.197,175.678L179.378,180.234L185.56,186.415L191.741,193.75L197.94,199.306L204.121,206.029L210.302,210.751L216.484,211.221L222.682,210.254L228.863,207.165L235.045,203.712L241.226,199.469L247.424,192.954L253.606,188.115L259.787,182.766L265.969,177.515L272.167,173.319L278.348,168.655L284.53,160.595L290.711,154.649L296.909,152.068L303.091,151.369L309.272,151.295L315.453,151.336L321.652,152.119L327.833,150.942L334.015,148.236L340.196,143.109L346.394,138.776L352.576,136.298L358.757,135.944L364.938,135.962L371.137,137.158L377.318,137.892L383.499,137.265L389.681,137.082L395.879,136.483L402.06,137.132L408.242,138.724L414.423,141.284L420.622,144.825L426.803,146.612L432.984,147.399L439.166,145.129L445.364,141.192L451.545,136.776L457.727,131.233L463.908,124.676L470.106,117.325L476.288,111.639L482.469,107.038L488.651,102.959L494.849,97.348L501.03,91.924L507.212,86.098L513.393,80.949L519.591,75.565L525.773,69.461L531.954,63.574L538.135,59.224L544.334,56.008L550.515,53.825L556.696,51.863L562.878,50.056L569.076,48.59L575.258,47.293L581.439,47.081L587.62,46.921L593.819,48.059L600,47.894L600,10.291L593.819,16.183L587.62,20.401L581.439,25.095L575.258,28.759L569.076,32.352L562.878,34.452L556.696,36.776L550.515,39.593L544.334,42.331L538.135,45.663L531.954,49.956L525.773,55.439L519.591,60.968L513.393,65.853L507.212,70.557L501.03,76.172L494.849,81.486L488.651,86.619L482.469,90.828L476.288,95.119L470.106,100.434L463.908,107.543L457.727,114.052L451.545,119.643L445.364,123.758L439.166,126.587L432.984,127.761L426.803,126.752L420.622,124.685L414.423,120.814L408.242,118.77L402.06,117.736L395.879,117.62L389.681,118.641L383.499,118.925L377.318,118.179L371.137,115.075L364.938,111.273L358.757,108.907L352.576,106.032L346.394,104.988L340.196,106.957L334.015,111.361L327.833,113.593L321.652,115.123L315.453,116.065L309.272,118.491L303.091,121.08L296.909,124.373L290.711,129.656L284.53,137.981L278.348,148.566L272.167,155.186L265.969,160.356L259.787,165.469L253.606,170.899L247.424,176.14L241.226,183.468L235.045,187.712L228.863,190.975L222.682,193.44L216.484,193.939L210.302,192.223L204.121,187.606L197.94,181.31L191.741,175.246L185.56,166.283L179.378,157.286L173.197,151.49L166.999,146.301L160.817,141.768L154.636,142.27L148.455,143.805L142.256,145.414L136.075,144.783L129.894,143.39L123.712,141.695L117.514,139.053L111.333,137.03L105.151,136.076L98.97,135.978L92.771,136.859L86.59,137.091L80.409,141.217L74.227,146.711L68.029,151.778L61.848,154.658L55.666,155.55L49.485,151.426L43.287,148.354L37.105,145.693L30.924,145.035L24.742,147.299L18.544,151.62L12.363,154.485L6.181,156.101L0,156.651Z" fill="#4c78a8" opacity="0.6"/></g><g class="mark-line role-mark layer_1_marks" role="graphics-object" aria-roledescription="line mark container"><path aria-label="Jaar: Jan 01, 1925; Aantal Pagina's: 12.3688902579" role="graphics-symbol" aria-roledescription="line mark" d="M0,176.311L6.181,171.494L12.363,166.772L18.544,162.246L24.742,157.689L30.924,155.486L37.105,156.643L43.287,158.686L49.485,161.329L55.666,164.615L61.848,164.544L68.029,161.064L74.227,156.248L80.409,151.075L86.59,148.097L92.771,147.845L98.97,148.164L105.151,149.05L111.333,149.709L117.514,151.089L123.712,153.191L129.894,154.61L136.075,155.965L142.256,156.478L148.455,156.191L154.636,155.448L160.817,156.181L166.999,159.29L173.197,163.443L179.378,168.516L185.56,176.284L191.741,184.652L197.94,190.459L204.121,196.852L210.302,201.92L216.484,202.929L222.682,201.954L228.863,199.173L235.045,196.109L241.226,191.322L247.424,184.847L253.606,179.48L259.787,174.192L265.969,169.131L272.167,164.625L278.348,158.326L284.53,149.573L290.711,142.296L296.909,138.518L303.091,136.235L309.272,134.378L315.453,133.453L321.652,133.516L327.833,132.265L334.015,128.902L340.196,124.536L346.394,121.809L352.576,121.521L358.757,122.286L364.938,123.856L371.137,126.16L377.318,127.895L383.499,128.259L389.681,127.726L395.879,127.024L402.06,127.201L408.242,128.407L414.423,130.916L420.622,134.165L426.803,136.869L432.984,137.671L439.166,136.038L445.364,132.561L451.545,128.455L457.727,122.693L463.908,115.646L470.106,108.768L476.288,103.277L482.469,98.912L488.651,94.672L494.849,89.391L501.03,83.671L507.212,78.332L513.393,73.397L519.591,68.247L525.773,62.548L531.954,56.894L538.135,52.466L544.334,49.226L550.515,46.723L556.696,44.411L562.878,42.302L569.076,40.231L575.258,38.036L581.439,35.83L587.62,33.66L593.819,31.548L600,29.451" stroke="#4c78a8" stroke-width="2"/></g></g><path class="foreground" aria-hidden="true" d="" display="none"/></g></g></g></svg>