<svg xmlns="http://www.w3.org/2000/svg" xmlns:xlink="http://www.w3.org/1999/xlink" version="1.1" class="marks" width="697" height="399" viewBox="0 0 697 399"><rect width="697" height="399" fill="white"/><g fill="none" stroke-miterlimit="10" transform="translate(40,11)"><g class="mark-group role-frame root" role="graphics-object" aria-roledescription="group mark container"><g transform="translate(0,0)"><path class="background" aria-hidden="true" d="M0.5,0.5h650v350h-650Z" stroke="#ddd"/><g><g class="mark-group role-axis" aria-hidden="true"><g transform="translate(0.5,350.5)"><path class="background" aria-hidden="true" d="M0,0h0v0h0Z" pointer-events="none"/><g><g class="mark-rule role-axis-grid" pointer-events="none"><line transform="translate(0,-350)" x2="0" y2="350" stroke="#ddd" stroke-width="1" opacity="1"/><line transform="translate(33,-350)" x2="0" y2="350" stroke="#ddd" stroke-width="1" opacity="1"/><line transform="translate(66,-350)" x2="0" y2="350" stroke="#ddd" stroke-width="1" opacity="1"/><line transform="translate(99,-350)" x2="0" y2="350" stroke="#ddd" stroke-width="1" opacity="1"/><line transform="translate(133,-350)" x2="0" y2="350" stroke="#ddd" stroke-width="1" opacity="1"/><line transform="translate(166,-350)" x2="0" y2="350" stroke="#ddd" stroke-width="1" opacity="1"/><line transform="translate(199,-350)" x2="0" y2="350" stroke="#ddd" stroke-width="1" opacity="1"/><line transform="translate(232,-350)" x2="0" y2="350" stroke="#ddd" stroke-width="1" opacity="1"/><line transform="translate(265,-350)" x2="0" y2="350" stroke="#ddd" stroke-width="1" opacity="1"/><line transform="translate(298,-350)" x2="0" y2="350" stroke="#ddd" stroke-width="1" opacity="1"/><line transform="translate(332,-350)" x2="0" y2="350" stroke="#ddd" stroke-width="1" opacity="1"/><line transform="translate(365,-350)" x2="0" y2="350" stroke="#ddd" stroke-width="1" opacity="1"/><line transform="translate(398,-350)" x2="0" y2="350" stroke="#ddd" stroke-width="1" opacity="1"/><line transform="translate(431,-350)" x2="0" y2="350" stroke="#ddd" stroke-width="1" opacity="1"/><line transform="translate(464,-350)" x2="0" y2="350" stroke="#ddd" stroke-width="1" opacity="1"/><line transform="translate(497,-350)" x2="0" y2="350" stroke="#ddd" stroke-width="1" opacity="1"/><line transform="translate(531,-350)" x2="0" y2="350" stroke="#ddd" stroke-width="1" opacity="1"/><line transform="translate(564,-350)" x2="0" y2="350" stroke="#ddd" stroke-width="1" opacity="1"/><line transform="translate(597,-350)" x2="0" y2="350" stroke="#ddd" stroke-width="1" opacity="1"/><line transform="translate(630,-350)" x2="0" y2="350" stroke="#ddd" stroke-width="1" opacity="1"/></g></g><path class="foreground" aria-hidden="true" d="" pointer-events="none" display="none"/></g></g><g class="mark-group role-axis" aria-hidden="true"><g transform="translate(0.5,0.5)"><path class="background" aria-hidden="true" d="M0,0h0v0h0Z" pointer-events="none"/><g><g class="mark-rule role-axis-grid" pointer-events="none"><line transform="translate(0,350)" x2="650" y2="0" stroke="#ddd" stroke-width="1" opacity="1"/><line transform="translate(0,292)" x2="650" y2="0" stroke="#ddd" stroke-width="1" opacity="1"/><line transform="translate(0,233)" x2="650" y2="0" stroke="#ddd" stroke-width="1" opacity="1"/><line transform="translate(0,175)" x2="650" y2="0" stroke="#ddd" stroke-width="1" opacity="1"/><line transform="translate(0,117)" x2="650" y2="0" stroke="#ddd" stroke-width="1" opacity="1"/><line transform="translate(0,58)" x2="650" y2="0" stroke="#ddd" stroke-width="1" opacity="1"/><line transform="translate(0,0)" x2="650" y2="0" stroke="#ddd" stroke-width="1" opacity="1"/></g></g><path class="foreground" aria-hidden="true" d="" pointer-events="none" display="none"/></g></g><g class="mark-group role-axis" role="graphics-symbol" aria-roledescription="axis" aria-label="X-axis titled 'Jaar' for a time scale with values from Thursday, 01 January 1925, 12:00:00 AM to Sunday, 01 January 2023, 12:00:00 AM"><g transform="translate(0.5,350.5)"><path class="background" aria-hidden="true" d="M0,0h0v0h0Z" pointer-events="none"/><g><g class="mark-rule role-axis-tick" pointer-events="none"><line transform="translate(0,0)" x2="0" y2="5" stroke="#888" stroke-width="1" opacity="1"/><line transform="translate(33,0)" x2="0" y2="5" stroke="#888" stroke-width="1" opacity="1"/><line transform="translate(66,0)" x2="0" y2="5" stroke="#888" stroke-width="1" opacity="1"/><line transform="translate(99,0)" x2="0" y2="5" stroke="#888" stroke-width="1" opacity="1"/><line transform="translate(133,0)" x2="0" y2="5" stroke="#888" stroke-width="1" opacity="1"/><line transform="translate(166,0)" x2="0" y2="5" stroke="#888" stroke-width="1" opacity="1"/><line transform="translate(199,0)" x2="0" y2="5" stroke="#888" stroke-width="1" opacity="1"/><line transform="translate(232,0)" x2="0" y2="5" stroke="#888" stroke-width="1" opacity="1"/><line transform="translate(265,0)" x2="0" y2="5" stroke="#888" stroke-width="1" opacity="1"/><line transform="translate(298,0)" x2="0" y2="5" stroke="#888" stroke-width="1" opacity="1"/><line transform="translate(332,0)" x2="0" y2="5" stroke="#888" stroke-width="1" opacity="1"/><line transform="translate(365,0)" x2="0" y2="5" stroke="#888" stroke-width="1" opacity="1"/><line transform="translate(398,0)" x2="0" y2="5" stroke="#888" stroke-width="1" opacity="1"/><line transform="translate(431,0)" x2="0" y2="5" stroke="#888" stroke-width="1" opacity="1"/><line transform="translate(464,0)" x2="0" y2="5" stroke="#888" stroke-width="1" opacity="1"/><line transform="translate(497,0)" x2="0" y2="5" stroke="#888" stroke-width="1" opacity="1"/><line transform="translate(531,0)" x2="0" y2="5" stroke="#888" stroke-width="1" opacity="1"/><line transform="translate(564,0)" x2="0" y2="5" stroke="#888" stroke-width="1" opacity="1"/><line transform="translate(597,0)" x2="0" y2="5" stroke="#888" stroke-width="1" opacity="1"/><line transform="translate(630,0)" x2="0" y2="5" stroke="#888" stroke-width="1" opacity="1"/></g><g class="mark-text role-axis-label" pointer-events="none"><text text-anchor="start" transform="translate(0,16)" font-family="sans-serif" font-size="11px" fill="#000" opacity="1">1925</text><text text-anchor="middle" transform="translate(33.15922729045288,16)" font-family="sans-serif" font-size="11px" fill="#000" opacity="0">1930</text><text text-anchor="middle" transform="translate(66.31845458090577,16)" font-family="sans-serif" font-size="11px" fill="#000" opacity="1">1935</text><text text-anchor="middle" transform="translate(99.47768187135864,16)" font-family="sans-serif" font-size="11px" fill="#000" opacity="0">1940</text><text text-anchor="middle" transform="translate(132.6543120056341,16)" font-family="sans-serif" font-size="11px" fill="#000" opacity="1">1945</text><text text-anchor="middle" transform="translate(165.813539296087,16)" font-family="sans-serif" font-size="11px" fill="#000" opacity="0">1950</text><text text-anchor="middle" transform="translate(198.97276658653988,16)" font-family="sans-serif" font-size="11px" fill="#000" opacity="1">1955</text><text text-anchor="middle" transform="translate(232.13199387699274,16)" font-family="sans-serif" font-size="11px" fill="#000" opacity="0">1960</text><text text-anchor="middle" transform="translate(265.3093806566518,16)" font-family="sans-serif" font-size="11px" fill="#000" opacity="1">1965</text><text text-anchor="middle" transform="translate(298.46860794710466,16)" font-family="sans-serif" font-size="11px" fill="#000" opacity="0">1970</text><text text-anchor="middle" transform="translate(331.6278352375576,16)" font-family="sans-serif" font-size="11px" fill="#000" opacity="1">1975</text><text text-anchor="middle" transform="translate(364.78706252801044,16)" font-family="sans-serif" font-size="11px" fill="#000" opacity="0">1980</text><text text-anchor="middle" transform="translate(397.9644493076695,16)" font-family="sans-serif" font-size="11px" fill="#000" opacity="1">1985</text><text text-anchor="middle" transform="translate(431.12367659812236,16)" font-family="sans-serif" font-size="11px" fill="#000" opacity="0">1990</text><text text-anchor="middle" transform="translate(464.2829038885752,16)" font-family="sans-serif" font-size="11px" fill="#000" opacity="1">1995</text><text text-anchor="middle" transform="translate(497.4421311790281,16)" font-family="sans-serif" font-size="11px" fill="#000" opacity="0">2000</text><text text-anchor="middle" transform="translate(530.6195179586872,16)" font-family="sans-serif" font-size="11px" fill="#000" opacity="1">2005</text><text text-anchor="middle" transform="translate(563.77874524914,16)" font-family="sans-serif" font-size="11px" fill="#000" opacity="0">2010</text><text text-anchor="middle" transform="translate(596.9379725395929,16)" font-family="sans-serif" font-size="11px" fill="#000" opacity="1">2015</text><text text-anchor="middle" transform="translate(630.0971998300458,16)" font-family="sans-serif" font-size="11px" fill="#000" opacity="0">2020</text></g><g class="mark-rule role-axis-domain" pointer-events="none"><line transform="translate(0,0)" x2="650" y2="0" stroke="#888" stroke-width="1" opacity="1"/></g><g class="mark-text role-axis-title" pointer-events="none"><text text-anchor="middle" transform="translate(325,31)" font-family="sans-serif" font-size="11px" font-weight="bold" fill="#000" opacity="1">Jaar</text></g></g><path class="foreground" aria-hidden="true" d="" pointer-events="none" display="none"/></g></g><g class="mark-group role-axis" role="graphics-symbol" aria-roledescription="axis" aria-label="Y-axis titled 'Aantal Pagina's' for a linear scale with values from 0 to 30"><g transform="translate(0.5,0.5)"><path class="background" aria-hidden="true" d="M0,0h0v0h0Z" pointer-events="none"/><g><g class="mark-rule role-axis-tick" pointer-events="none"><line transform="translate(0,350)" x2="-5" y2="0" stroke="#888" stroke-width="1" opacity="1"/><line transform="translate(0,292)" x2="-5" y2="0" stroke="#888" stroke-width="1" opacity="1"/><line transform="translate(0,233)" x2="-5" y2="0" stroke="#888" stroke-width="1" opacity="1"/><line transform="translate(0,175)" x2="-5" y2="0" stroke="#888" stroke-width="1" opacity="1"/><line transform="translate(0,117)" x2="-5" y2="0" stroke="#888" stroke-width="1" opacity="1"/><line transform="translate(0,58)" x2="-5" y2="0" stroke="#888" stroke-width="1" opacity="1"/><line transform="translate(0,0)" x2="-5" y2="0" stroke="#888" stroke-width="1" opacity="1"/></g><g class="mark-text role-axis-label" pointer-events="none"><text text-anchor="end" transform="translate(-7,353)" font-family="sans-serif" font-size="11px" fill="#000" opacity="1">0</text><text text-anchor="end" transform="translate(-7,294.6666666666667)" font-family="sans-serif" font-size="11px" fill="#000" opacity="1">5</text><text text-anchor="end" transform="translate(-7,236.33333333333337)" font-family="sans-serif" font-size="11px" fill="#000" opacity="1">10</text><text text-anchor="end" transform="translate(-7,178)" font-family="sans-serif" font-size="11px" fill="#000" opacity="1">15</text><text text-anchor="end" transform="translate(-7,119.66666666666669)" font-family="sans-serif" font-size="11px" fill="#000" opacity="1">20</text><text text-anchor="end" transform="translate(-7,61.33333333333332)" font-family="sans-serif" font-size="11px" fill="#000" opacity="1">25</text><text text-anchor="end" transform="translate(-7,3)" font-family="sans-serif" font-size="11px" fill="#000" opacity="1">30</text></g><g class="mark-rule role-axis-domain" pointer-events="none"><line transform="translate(0,350)" x2="0" y2="-350" stroke="#888" stroke-width="1" opacity="1"/></g><g class="mark-text role-axis-title" pointer-events="none"><text text-anchor="middle" transform="translate(-23.2353515625,175) rotate(-90) translate(0,-2)" font-family="sans-serif" font-size="11px" font-weight="bold" fill="#000" opacity="1">Aantal Pagina's</text></g></g><path class="foreground" aria-hidden="true" d="" pointer-events="none" display="none"/></g></g><g class="mark-area role-mark layer_0_marks" role="graphics-symbol" aria-roledescription="area mark container"><path d="M0,191.191L1.105,191.044C2.209,190.897,4.419,190.602,6.628,190.323C8.838,190.045,11.047,189.782,13.256,189.522C15.466,189.262,17.675,189.004,19.888,188.776C22.1,188.547,24.316,188.349,26.528,188.123C28.74,187.898,30.95,187.645,33.159,187.401C35.369,187.158,37.578,186.923,39.787,186.756C41.997,186.588,44.206,186.487,46.419,186.342C48.631,186.196,50.847,186.005,53.059,185.803C55.271,185.6,57.481,185.385,59.69,185.201C61.9,185.016,64.109,184.861,66.318,184.74C68.528,184.619,70.737,184.531,72.95,184.467C75.162,184.404,77.378,184.366,79.59,184.28C81.802,184.195,84.012,184.061,86.221,184.01C88.431,183.958,90.64,183.987,92.849,184.034C95.059,184.08,97.268,184.142,99.48,184.144C101.693,184.146,103.908,184.086,106.12,184.172C108.332,184.258,110.541,184.489,112.751,184.65C114.96,184.811,117.17,184.903,119.38,185.078C121.589,185.252,123.799,185.509,126.011,185.808C128.223,186.108,130.439,186.449,132.651,186.841C134.864,187.234,137.073,187.677,139.283,188.168C141.492,188.658,143.701,189.195,145.911,189.681C148.12,190.167,150.33,190.602,152.542,191.067C154.754,191.532,156.97,192.027,159.182,192.534C161.395,193.041,163.604,193.561,165.814,193.998C168.023,194.435,170.232,194.789,172.442,195.263C174.651,195.736,176.861,196.33,179.073,196.921C181.285,197.512,183.501,198.1,185.713,198.67C187.926,199.241,190.135,199.795,192.345,200.306C194.554,200.818,196.763,201.288,198.973,201.68C201.182,202.071,203.392,202.384,205.604,202.73C207.816,203.076,210.032,203.455,212.244,203.738C214.457,204.021,216.666,204.209,218.876,204.412C221.085,204.616,223.294,204.837,225.504,204.982C227.713,205.126,229.923,205.196,232.135,205.189C234.347,205.182,236.563,205.098,238.775,204.93C240.988,204.761,243.197,204.508,245.407,204.288C247.616,204.068,249.825,203.88,252.035,203.636C254.244,203.393,256.454,203.094,258.666,202.567C260.878,202.04,263.094,201.286,265.306,200.596C267.519,199.907,269.728,199.281,271.938,198.539C274.147,197.798,276.356,196.939,278.566,196.115C280.775,195.291,282.985,194.5,285.197,193.574C287.409,192.648,289.625,191.586,291.837,190.641C294.05,189.696,296.259,188.869,298.469,187.985C300.678,187.101,302.887,186.159,305.097,185.227C307.306,184.296,309.516,183.373,311.728,182.475C313.94,181.577,316.156,180.704,318.368,179.779C320.581,178.855,322.79,177.88,325,177.018C327.209,176.156,329.418,175.406,331.628,174.604C333.837,173.803,336.047,172.95,338.259,172.099C340.472,171.247,342.687,170.397,344.899,169.576C347.112,168.755,349.321,167.963,351.531,167.217C353.74,166.472,355.949,165.774,358.159,165.158C360.368,164.543,362.578,164.011,364.79,163.456C367.003,162.902,369.218,162.325,371.43,161.735C373.643,161.145,375.852,160.542,378.062,160.073C380.271,159.605,382.48,159.27,384.69,158.882C386.899,158.493,389.109,158.052,391.321,157.548C393.534,157.044,395.749,156.478,397.961,156.015C400.174,155.552,402.383,155.192,404.593,154.795C406.802,154.399,409.011,153.967,411.221,153.58C413.43,153.192,415.64,152.85,417.852,152.444C420.065,152.038,422.28,151.569,424.492,151.067C426.705,150.566,428.914,150.031,431.124,149.481C433.333,148.931,435.542,148.365,437.752,147.782C439.961,147.2,442.171,146.599,444.383,145.976C446.596,145.352,448.811,144.706,451.023,144.04C453.236,143.374,455.445,142.69,457.655,141.951C459.864,141.213,462.073,140.421,464.283,139.548C466.492,138.674,468.702,137.719,470.914,136.746C473.127,135.773,475.342,134.781,477.554,133.731C479.767,132.681,481.976,131.572,484.186,130.406C486.395,129.24,488.605,128.019,490.814,126.87C493.023,125.721,495.233,124.645,497.445,123.473C499.658,122.3,501.873,121.032,504.085,119.741C506.298,118.449,508.507,117.136,510.717,115.714C512.926,114.293,515.136,112.763,517.345,111.289C519.554,109.815,521.764,108.397,523.976,107.039C526.189,105.681,528.404,104.384,530.616,103.018C532.829,101.651,535.038,100.216,537.248,98.845C539.457,97.474,541.667,96.168,543.876,94.821C546.085,93.474,548.295,92.085,550.507,90.722C552.72,89.36,554.935,88.022,557.148,86.685C559.36,85.348,561.569,84.011,563.779,82.687C565.988,81.363,568.198,80.053,570.407,78.741C572.616,77.429,574.826,76.114,577.038,74.783C579.251,73.452,581.466,72.103,583.679,70.795C585.891,69.487,588.1,68.218,590.31,66.967C592.519,65.716,594.729,64.482,596.938,63.136C599.147,61.79,601.357,60.332,603.569,58.996C605.782,57.661,607.997,56.447,610.21,55.205C612.422,53.963,614.631,52.694,616.841,51.321C619.05,49.947,621.26,48.471,623.469,47.132C625.678,45.794,627.888,44.593,630.1,43.261C632.313,41.929,634.528,40.465,636.741,39.145C638.953,37.824,641.162,36.647,643.372,35.412C645.581,34.176,647.791,32.882,648.895,32.235L650,31.589L650,11.063L648.895,11.888C647.791,12.714,645.581,14.365,643.372,15.933C641.162,17.501,638.953,18.985,636.741,20.611C634.528,22.238,632.313,24.007,630.1,25.644C627.888,27.281,625.678,28.786,623.469,30.425C621.26,32.064,619.05,33.836,616.841,35.5C614.631,37.164,612.422,38.719,610.21,40.235C607.997,41.75,605.782,43.226,603.569,44.821C601.357,46.416,599.147,48.13,596.938,49.728C594.729,51.326,592.519,52.808,590.31,54.298C588.1,55.788,585.891,57.286,583.679,58.811C581.466,60.337,579.251,61.89,577.038,63.42C574.826,64.95,572.616,66.456,570.407,67.944C568.198,69.432,565.988,70.901,563.779,72.37C561.569,73.84,559.36,75.308,557.148,76.766C554.935,78.225,552.72,79.672,550.507,81.133C548.295,82.594,546.085,84.068,543.876,85.489C541.667,86.91,539.457,88.278,537.248,89.692C535.038,91.106,532.829,92.567,530.616,93.928C528.404,95.289,526.189,96.55,523.976,97.848C521.764,99.146,519.554,100.482,517.345,101.863C515.136,103.245,512.926,104.672,510.717,106.027C508.507,107.381,506.298,108.663,504.085,109.918C501.873,111.172,499.658,112.4,497.445,113.532C495.233,114.664,493.023,115.699,490.814,116.79C488.605,117.881,486.395,119.027,484.186,120.098C481.976,121.169,479.767,122.164,477.554,123.117C475.342,124.071,473.127,124.983,470.914,125.867C468.702,126.752,466.492,127.61,464.283,128.414C462.073,129.219,459.864,129.97,457.655,130.665C455.445,131.36,453.236,131.998,451.023,132.62C448.811,133.242,446.596,133.848,444.383,134.429C442.171,135.009,439.961,135.565,437.752,136.083C435.542,136.6,433.333,137.079,431.124,137.541C428.914,138.004,426.705,138.45,424.492,138.848C422.28,139.246,420.065,139.596,417.852,139.885C415.64,140.173,413.43,140.399,411.221,140.674C409.011,140.949,406.802,141.273,404.593,141.551C402.383,141.83,400.174,142.063,397.961,142.413C395.749,142.763,393.534,143.23,391.321,143.64C389.109,144.051,386.899,144.404,384.69,144.7C382.48,144.997,380.271,145.236,378.062,145.637C375.852,146.039,373.643,146.603,371.43,147.154C369.218,147.705,367.003,148.243,364.79,148.76C362.578,149.277,360.368,149.773,358.159,150.377C355.949,150.98,353.74,151.691,351.531,152.431C349.321,153.171,347.112,153.94,344.899,154.761C342.687,155.582,340.472,156.455,338.259,157.344C336.047,158.232,333.837,159.136,331.628,159.998C329.418,160.86,327.209,161.68,325,162.607C322.79,163.535,320.581,164.57,318.368,165.565C316.156,166.559,313.94,167.513,311.728,168.513C309.516,169.512,307.306,170.558,305.097,171.627C302.887,172.696,300.678,173.788,298.469,174.807C296.259,175.825,294.05,176.768,291.837,177.827C289.625,178.886,287.409,180.06,285.197,181.096C282.985,182.133,280.775,183.032,278.566,183.945C276.356,184.859,274.147,185.786,271.938,186.595C269.728,187.405,267.519,188.095,265.306,188.809C263.094,189.523,260.878,190.261,258.666,190.772C256.454,191.283,254.244,191.566,252.035,191.821C249.825,192.076,247.616,192.303,245.407,192.546C243.197,192.788,240.988,193.046,238.775,193.194C236.563,193.343,234.347,193.383,232.135,193.347C229.923,193.312,227.713,193.203,225.504,193.011C223.294,192.819,221.085,192.545,218.876,192.294C216.666,192.043,214.457,191.814,212.244,191.484C210.032,191.154,207.816,190.723,205.604,190.306C203.392,189.889,201.182,189.486,198.973,188.999C196.763,188.511,194.554,187.939,192.345,187.333C190.135,186.727,187.926,186.088,185.713,185.44C183.501,184.792,181.285,184.135,179.073,183.495C176.861,182.856,174.651,182.234,172.442,181.745C170.232,181.257,168.023,180.901,165.814,180.453C163.604,180.005,161.395,179.464,159.182,178.931C156.97,178.399,154.754,177.875,152.542,177.401C150.33,176.928,148.12,176.504,145.911,176.034C143.701,175.564,141.492,175.047,139.283,174.583C137.073,174.119,134.864,173.708,132.651,173.357C130.439,173.006,128.223,172.715,126.011,172.469C123.799,172.223,121.589,172.022,119.38,171.933C117.17,171.844,114.96,171.867,112.751,171.83C110.541,171.792,108.332,171.693,106.12,171.729C103.908,171.765,101.693,171.936,99.48,172.03C97.268,172.125,95.059,172.142,92.849,172.15C90.64,172.158,88.431,172.157,86.221,172.202C84.012,172.247,81.802,172.339,79.59,172.365C77.378,172.391,75.162,172.351,72.95,172.313C70.737,172.274,68.528,172.237,66.318,172.198C64.109,172.159,61.9,172.119,59.69,172.094C57.481,172.069,55.271,172.06,53.059,172.026C50.847,171.992,48.631,171.933,46.419,171.815C44.206,171.698,41.997,171.523,39.787,171.396C37.578,171.269,35.369,171.191,33.159,171.106C30.95,171.022,28.74,170.931,26.528,170.81C24.316,170.69,22.1,170.541,19.888,170.404C17.675,170.267,15.466,170.142,13.256,170.019C11.047,169.895,8.838,169.772,6.628,169.655C4.419,169.539,2.209,169.429,1.105,169.373L0,169.318Z" fill="#4c78a8" opacity="0.6"/></g><g class="mark-line role-mark layer_1_marks" role="graphics-symbol" aria-roledescription="line mark container"><path d="M0,180.658L1.105,180.609C2.209,180.561,4.419,180.464,6.628,180.37C8.838,180.275,11.047,180.183,13.256,180.093C15.466,180.003,17.675,179.914,19.888,179.828C22.1,179.742,24.316,179.658,26.528,179.576C28.74,179.494,30.95,179.413,33.159,179.335C35.369,179.257,37.578,179.181,39.787,179.107C41.997,179.033,44.206,178.961,46.419,178.892C48.631,178.823,50.847,178.757,53.059,178.695C55.271,178.632,57.481,178.573,59.69,178.518C61.9,178.463,64.109,178.412,66.318,178.366C68.528,178.32,70.737,178.278,72.95,178.242C75.162,178.206,77.378,178.175,79.59,178.15C81.802,178.125,84.012,178.105,86.221,178.092C88.431,178.078,90.64,178.07,92.849,178.068C95.059,178.066,97.268,178.07,99.48,178.08C101.693,178.091,103.908,178.107,106.12,178.131C108.332,178.156,110.541,178.188,112.751,178.253C114.96,178.319,117.17,178.417,119.38,178.591C121.589,178.765,123.799,179.015,126.011,179.301C128.223,179.588,130.439,179.912,132.651,180.262C134.864,180.612,137.073,180.988,139.283,181.388C141.492,181.788,143.701,182.211,145.911,182.654C148.12,183.096,150.33,183.558,152.542,184.038C154.754,184.519,156.97,185.019,159.182,185.532C161.395,186.045,163.604,186.571,165.814,187.097C168.023,187.623,170.232,188.148,172.442,188.696C174.651,189.243,176.861,189.812,179.073,190.385C181.285,190.958,183.501,191.536,185.713,192.097C187.926,192.659,190.135,193.204,192.345,193.721C194.554,194.239,196.763,194.728,198.973,195.18C201.182,195.631,203.392,196.044,205.604,196.427C207.816,196.811,210.032,197.164,212.244,197.482C214.457,197.801,216.666,198.084,218.876,198.314C221.085,198.544,223.294,198.72,225.504,198.836C227.713,198.952,229.923,199.007,232.135,199.009C234.347,199.01,236.563,198.958,238.775,198.846C240.988,198.734,243.197,198.561,245.407,198.346C247.616,198.132,249.825,197.875,252.035,197.573C254.244,197.27,256.454,196.923,258.666,196.455C260.878,195.986,263.094,195.398,265.306,194.736C267.519,194.074,269.728,193.339,271.938,192.549C274.147,191.76,276.356,190.916,278.566,190.03C280.775,189.144,282.985,188.215,285.197,187.259C287.409,186.302,289.625,185.318,291.837,184.325C294.05,183.333,296.259,182.332,298.469,181.328C300.678,180.324,302.887,179.317,305.097,178.318C307.306,177.319,309.516,176.328,311.728,175.361C313.94,174.394,316.156,173.45,318.368,172.525C320.581,171.601,322.79,170.695,325,169.799C327.209,168.903,329.418,168.016,331.628,167.138C333.837,166.26,336.047,165.391,338.259,164.55C340.472,163.71,342.687,162.899,344.899,162.121C347.112,161.343,349.321,160.598,351.531,159.882C353.74,159.166,355.949,158.479,358.159,157.831C360.368,157.183,362.578,156.573,364.79,155.993C367.003,155.414,369.218,154.864,371.43,154.343C373.643,153.823,375.852,153.332,378.062,152.878C380.271,152.424,382.48,152.007,384.69,151.598C386.899,151.189,389.109,150.788,391.321,150.399C393.534,150.011,395.749,149.635,397.961,149.268C400.174,148.902,402.383,148.544,404.593,148.19C406.802,147.837,409.011,147.487,411.221,147.134C413.43,146.781,415.64,146.426,417.852,146.052C420.065,145.678,422.28,145.286,424.492,144.868C426.705,144.451,428.914,144.008,431.124,143.54C433.333,143.071,435.542,142.577,437.752,142.044C439.961,141.511,442.171,140.94,444.383,140.331C446.596,139.723,448.811,139.077,451.023,138.396C453.236,137.716,455.445,137.001,457.655,136.249C459.864,135.497,462.073,134.707,464.283,133.876C466.492,133.045,468.702,132.173,470.914,131.245C473.127,130.318,475.342,129.335,477.554,128.314C479.767,127.293,481.976,126.234,484.186,125.153C486.395,124.073,488.605,122.97,490.814,121.858C493.023,120.746,495.233,119.624,497.445,118.448C499.658,117.272,501.873,116.041,504.085,114.752C506.298,113.463,508.507,112.117,510.717,110.753C512.926,109.389,515.136,108.008,517.345,106.63C519.554,105.251,521.764,103.875,523.976,102.5C526.189,101.124,528.404,99.749,530.616,98.373C532.829,96.997,535.038,95.619,537.248,94.239C539.457,92.859,541.667,91.476,543.876,90.09C546.085,88.704,548.295,87.315,550.507,85.921C552.72,84.528,554.935,83.131,557.148,81.729C559.36,80.327,561.569,78.922,563.779,77.512C565.988,76.102,568.198,74.688,570.407,73.27C572.616,71.852,574.826,70.43,577.038,69.004C579.251,67.579,581.466,66.149,583.679,64.717C585.891,63.285,588.1,61.849,590.31,60.411C592.519,58.972,594.729,57.531,596.938,56.088C599.147,54.644,601.357,53.198,603.569,51.75C605.782,50.302,607.997,48.853,610.21,47.402C612.422,45.95,614.631,44.497,616.841,43.044C619.05,41.59,621.26,40.135,623.469,38.679C625.678,37.223,627.888,35.766,630.1,34.309C632.313,32.852,634.528,31.395,636.741,29.937C638.953,28.48,641.162,27.022,643.372,25.577C645.581,24.133,647.791,22.702,648.895,21.986L650,21.271" stroke="#4c78a8" stroke-width="2"/></g></g><path class="foreground" aria-hidden="true" d="" display="none"/></g></g></g></svg>