<svg xmlns="http://www.w3.org/2000/svg" xmlns:xlink="http://www.w3.org/1999/xlink" version="1.1" class="marks" width="697" height="399" viewBox="0 0 697 399"><rect width="697" height="399" fill="white"/><g fill="none" stroke-miterlimit="10" transform="translate(40,11)"><g class="mark-group role-frame root" role="graphics-object" aria-roledescription="group mark container"><g transform="translate(0,0)"><path class="background" aria-hidden="true" d="M0.5,0.5h650v350h-650Z" stroke="#ddd"/><g><g class="mark-group role-axis" aria-hidden="true"><g transform="translate(0.5,350.5)"><path class="background" aria-hidden="true" d="M0,0h0v0h0Z" pointer-events="none"/><g><g class="mark-rule role-axis-grid" pointer-events="none"><line transform="translate(0,-350)" x2="0" y2="350" stroke="#ddd" stroke-width="1" opacity="1"/><line transform="translate(33,-350)" x2="0" y2="350" stroke="#ddd" stroke-width="1" opacity="1"/><line transform="translate(66,-350)" x2="0" y2="350" stroke="#ddd" stroke-width="1" opacity="1"/><line transform="translate(99,-350)" x2="0" y2="350" stroke="#ddd" stroke-width="1" opacity="1"/><line transform="translate(133,-350)" x2="0" y2="350" stroke="#ddd" stroke-width="1" opacity="1"/><line transform="translate(166,-350)" x2="0" y2="350" stroke="#ddd" stroke-width="1" opacity="1"/><line transform="translate(199,-350)" x2="0" y2="350" stroke="#ddd" stroke-width="1" opacity="1"/><line transform="translate(232,-350)" x2="0" y2="350" stroke="#ddd" stroke-width="1" opacity="1"/><line transform="translate(265,-350)" x2="0" y2="350" stroke="#ddd" stroke-width="1" opacity="1"/><line transform="translate(298,-350)" x2="0" y2="350" stroke="#ddd" stroke-width="1" opacity="1"/><line transform="translate(332,-350)" x2="0" y2="350" stroke="#ddd" stroke-width="1" opacity="1"/><line transform="translate(365,-350)" x2="0" y2="350" stroke="#ddd" stroke-width="1" opacity="1"/><line transform="translate(398,-350)" x2="0" y2="350" stroke="#ddd" stroke-width="1" opacity="1"/><line transform="translate(431,-350)" x2="0" y2="350" stroke="#ddd" stroke-width="1" opacity="1"/><line transform="translate(464,-350)" x2="0" y2="350" stroke="#ddd" stroke-width="1" opacity="1"/><line transform="translate(497,-350)" x2="0" y2="350" stroke="#ddd" stroke-width="1" opacity="1"/><line transform="translate(531,-350)" x2="0" y2="350" stroke="#ddd" stroke-width="1" opacity="1"/><line transform="translate(564,-350)" x2="0" y2="350" stroke="#ddd" stroke-width="1" opacity="1"/><line transform="translate(597,-350)" x2="0" y2="350" stroke="#ddd" stroke-width="1" opacity="1"/><line transform="translate(630,-350)" x2="0" y2="350" stroke="#ddd" stroke-width="1" opacity="1"/></g></g><path class="foreground" aria-hidden="true" d="" pointer-events="none" display="none"/></g></g><g class="mark-group role-axis" aria-hidden="true"><g transform="translate(0.5,0.5)"><path class="background" aria-hidden="true" d="M0,0h0v0h0Z" pointer-events="none"/><g><g class="mark-rule role-axis-grid" pointer-events="none"><line transform="translate(0,350)" x2="650" y2="0" stroke="#ddd" stroke-width="1" opacity="1"/><line transform="translate(0,292)" x2="650" y2="0" stroke="#ddd" stroke-width="1" opacity="1"/><line transform="translate(0,233)" x2="650" y2="0" stroke="#ddd" stroke-width="1" opacity="1"/><line transform="translate(0,175)" x2="650" y2="0" stroke="#ddd" stroke-width="1" opacity="1"/><line transform="translate(0,117)" x2="650" y2="0" stroke="#ddd" stroke-width="1" opacity="1"/><line transform="translate(0,58)" x2="650" y2="0" stroke="#ddd" stroke-width="1" opacity="1"/><line transform="translate(0,0)" x2="650" y2="0" stroke="#ddd" stroke-width="1" opacity="1"/></g></g><path class="foreground" aria-hidden="true" d="" pointer-events="none" display="none"/></g></g><g class="mark-group role-axis" role="graphics-symbol" aria-roledescription="axis" aria-label="X-axis titled 'Jaar' for a time scale with values from Thursday, 01 January 1925, 12:00:00 AM to Sunday, 01 January 2023, 12:00:00 AM"><g transform="translate(0.5,350.5)"><path class="background" aria-hidden="true" d="M0,0h0v0h0Z" pointer-events="none"/><g><g class="mark-rule role-axis-tick" pointer-events="none"><line transform="translate(0,0)" x2="0" y2="5" stroke="#888" stroke-width="1" opacity="1"/><line transform="translate(33,0)" x2="0" y2="5" stroke="#888" stroke-width="1" opacity="1"/><line transform="translate(66,0)" x2="0" y2="5" stroke="#888" stroke-width="1" opacity="1"/><line transform="translate(99,0)" x2="0" y2="5" stroke="#888" stroke-width="1" opacity="1"/><line transform="translate(133,0)" x2="0" y2="5" stroke="#888" stroke-width="1" opacity="1"/><line transform="translate(166,0)" x2="0" y2="5" stroke="#888" stroke-width="1" opacity="1"/><line transform="translate(199,0)" x2="0" y2="5" stroke="#888" stroke-width="1" opacity="1"/><line transform="translate(232,0)" x2="0" y2="5" stroke="#888" stroke-width="1" opacity="1"/><line transform="translate(265,0)" x2="0" y2="5" stroke="#888" stroke-width="1" opacity="1"/><line transform="translate(298,0)" x2="0" y2="5" stroke="#888" stroke-width="1" opacity="1"/><line transform="translate(332,0)" x2="0" y2="5" stroke="#888" stroke-width="1" opacity="1"/><line transform="translate(365,0)" x2="0" y2="5" stroke="#888" stroke-width="1" opacity="1"/><line transform="translate(398,0)" x2="0" y2="5" stroke="#888" stroke-width="1" opacity="1"/><line transform="translate(431,0)" x2="0" y2="5" stroke="#888" stroke-width="1" opacity="1"/><line transform="translate(464,0)" x2="0" y2="5" stroke="#888" stroke-width="1" opacity="1"/><line transform="translate(497,0)" x2="0" y2="5" stroke="#888" stroke-width="1" opacity="1"/><line transform="translate(531,0)" x2="0" y2="5" stroke="#888" stroke-width="1" opacity="1"/><line transform="translate(564,0)" x2="0" y2="5" stroke="#888" stroke-width="1" opacity="1"/><line transform="translate(597,0)" x2="0" y2="5" stroke="#888" stroke-width="1" opacity="1"/><line transform="translate(630,0)" x2="0" y2="5" stroke="#888" stroke-width="1" opacity="1"/></g><g class="mark-text role-axis-label" pointer-events="none"><text text-anchor="start" transform="translate(0,16)" font-family="sans-serif" font-size="11px" fill="#000" opacity="1">1925</text><text text-anchor="middle" transform="translate(33.15922729045288,16)" font-family="sans-serif" font-size="11px" fill="#000" opacity="0">1930</text><text text-anchor="middle" transform="translate(66.31845458090577,16)" font-family="sans-serif" font-size="11px" fill="#000" opacity="1">1935</text><text text-anchor="middle" transform="translate(99.47768187135864,16)" font-family="sans-serif" font-size="11px" fill="#000" opacity="0">1940</text><text text-anchor="middle" transform="translate(132.6543120056341,16)" font-family="sans-serif" font-size="11px" fill="#000" opacity="1">1945</text><text text-anchor="middle" transform="translate(165.813539296087,16)" font-family="sans-serif" font-size="11px" fill="#000" opacity="0">1950</text><text text-anchor="middle" transform="translate(198.97276658653988,16)" font-family="sans-serif" font-size="11px" fill="#000" opacity="1">1955</text><text text-anchor="middle" transform="translate(232.13199387699274,16)" font-family="sans-serif" font-size="11px" fill="#000" opacity="0">1960</text><text text-anchor="middle" transform="translate(265.3093806566518,16)" font-family="sans-serif" font-size="11px" fill="#000" opacity="1">1965</text><text text-anchor="middle" transform="translate(298.46860794710466,16)" font-family="sans-serif" font-size="11px" fill="#000" opacity="0">1970</text><text text-anchor="middle" transform="translate(331.6278352375576,16)" font-family="sans-serif" font-size="11px" fill="#000" opacity="1">1975</text><text text-anchor="middle" transform="translate(364.78706252801044,16)" font-family="sans-serif" font-size="11px" fill="#000" opacity="0">1980</text><text text-anchor="middle" transform="translate(397.9644493076695,16)" font-family="sans-serif" font-size="11px" fill="#000" opacity="1">1985</text><text text-anchor="middle" transform="translate(431.12367659812236,16)" font-family="sans-serif" font-size="11px" fill="#000" opacity="0">1990</text><text text-anchor="middle" transform="translate(464.2829038885752,16)" font-family="sans-serif" font-size="11px" fill="#000" opacity="1">1995</text><text text-anchor="middle" transform="translate(497.4421311790281,16)" font-family="sans-serif" font-size="11px" fill="#000" opacity="0">2000</text><text text-anchor="middle" transform="translate(530.6195179586872,16)" font-family="sans-serif" font-size="11px" fill="#000" opacity="1">2005</text><text text-anchor="middle" transform="translate(563.77874524914,16)" font-family="sans-serif" font-size="11px" fill="#000" opacity="0">2010</text><text text-anchor="middle" transform="translate(596.9379725395929,16)" font-family="sans-serif" font-size="11px" fill="#000" opacity="1">2015</text><text text-anchor="middle" transform="translate(630.0971998300458,16)" font-family="sans-serif" font-size="11px" fill="#000" opacity="0">2020</text></g><g class="mark-rule role-axis-domain" pointer-events="none"><line transform="translate(0,0)" x2="650" y2="0" stroke="#888" stroke-width="1" opacity="1"/></g><g class="mark-text role-axis-title" pointer-events="none"><text text-anchor="middle" transform="translate(325,31)" font-family="sans-serif" font-size="11px" font-weight="bold" fill="#000" opacity="1">Jaar</text></g></g><path class="foreground" aria-hidden="true" d="" pointer-events="none" display="none"/></g></g><g class="mark-group role-axis" role="graphics-symbol" aria-roledescription="axis" aria-label="Y-axis titled 'Aantal Pagina's' for a linear scale with values from 0 to 30"><g transform="translate(0.5,0.5)"><path class="background" aria-hidden="true" d="M0,0h0v0h0Z" pointer-events="none"/><g><g class="mark-rule role-axis-tick" pointer-events="none"><line transform="translate(0,350)" x2="-5" y2="0" stroke="#888" stroke-width="1" opacity="1"/><line transform="translate(0,292)" x2="-5" y2="0" stroke="#888" stroke-width="1" opacity="1"/><line transform="translate(0,233)" x2="-5" y2="0" stroke="#888" stroke-width="1" opacity="1"/><line transform="translate(0,175)" x2="-5" y2="0" stroke="#888" stroke-width="1" opacity="1"/><line transform="translate(0,117)" x2="-5" y2="0" stroke="#888" stroke-width="1" opacity="1"/><line transform="translate(0,58)" x2="-5" y2="0" stroke="#888" stroke-width="1" opacity="1"/><line transform="translate(0,0)" x2="-5" y2="0" stroke="#888" stroke-width="1" opacity="1"/></g><g class="mark-text role-axis-label" pointer-events="none"><text text-anchor="end" transform="translate(-7,353)" font-family="sans-serif" font-size="11px" fill="#000" opacity="1">0</text><text text-anchor="end" transform="translate(-7,294.6666666666667)" font-family="sans-serif" font-size="11px" fill="#000" opacity="1">5</text><text text-anchor="end" transform="translate(-7,236.33333333333337)" font-family="sans-serif" font-size="11px" fill="#000" opacity="1">10</text><text text-anchor="end" transform="translate(-7,178)" font-family="sans-serif" font-size="11px" fill="#000" opacity="1">15</text><text text-anchor="end" transform="translate(-7,119.66666666666669)" font-family="sans-serif" font-size="11px" fill="#000" opacity="1">20</text><text text-anchor="end" transform="translate(-7,61.33333333333332)" font-family="sans-serif" font-size="11px" fill="#000" opacity="1">25</text><text text-anchor="end" transform="translate(-7,3)" font-family="sans-serif" font-size="11px" fill="#000" opacity="1">30</text></g><g class="mark-rule role-axis-domain" pointer-events="none"><line transform="translate(0,350)" x2="0" y2="-350" stroke="#888" stroke-width="1" opacity="1"/></g><g class="mark-text role-axis-title" pointer-events="none"><text text-anchor="middle" transform="translate(-23.2353515625,175) rotate(-90) translate(0,-2)" font-family="sans-serif" font-size="11px" font-weight="bold" fill="#000" opacity="1">Aantal Pagina's</text></g></g><path class="foreground" aria-hidden="true" d="" pointer-events="none" display="none"/></g></g><g class="mark-area role-mark layer_0_marks" role="graphics-symbol" aria-roledescription="area mark container"><path d="M0,192.116L1.105,191.97C2.209,191.823,4.419,191.53,6.628,191.176C8.838,190.823,11.047,190.409,13.256,190.067C15.466,189.725,17.675,189.455,19.888,189.173C22.1,188.891,24.316,188.599,26.528,188.343C28.74,188.088,30.95,187.87,33.159,187.659C35.369,187.448,37.578,187.244,39.787,187.02C41.997,186.796,44.206,186.552,46.419,186.341C48.631,186.13,50.847,185.953,53.059,185.81C55.271,185.668,57.481,185.56,59.69,185.426C61.9,185.292,64.109,185.132,66.318,184.975C68.528,184.817,70.737,184.662,72.95,184.565C75.162,184.467,77.378,184.427,79.59,184.365C81.802,184.303,84.012,184.219,86.221,184.177C88.431,184.135,90.64,184.136,92.849,184.14C95.059,184.145,97.268,184.153,99.48,184.213C101.693,184.273,103.908,184.385,106.12,184.506C108.332,184.627,110.541,184.756,112.751,184.95C114.96,185.144,117.17,185.403,119.38,185.639C121.589,185.875,123.799,186.088,126.011,186.329C128.223,186.57,130.439,186.838,132.651,187.22C134.864,187.602,137.073,188.098,139.283,188.493C141.492,188.889,143.701,189.185,145.911,189.604C148.12,190.022,150.33,190.564,152.542,191.038C154.754,191.511,156.97,191.917,159.182,192.418C161.395,192.92,163.604,193.518,165.814,194.029C168.023,194.541,170.232,194.965,172.442,195.421C174.651,195.876,176.861,196.362,179.073,196.934C181.285,197.505,183.501,198.162,185.713,198.75C187.926,199.338,190.135,199.856,192.345,200.32C194.554,200.783,196.763,201.191,198.973,201.588C201.182,201.984,203.392,202.37,205.604,202.745C207.816,203.12,210.032,203.483,212.244,203.818C214.457,204.154,216.666,204.46,218.876,204.651C221.085,204.841,223.294,204.916,225.504,204.91C227.713,204.905,229.923,204.819,232.135,204.789C234.347,204.759,236.563,204.786,238.775,204.68C240.988,204.574,243.197,204.336,245.407,204.147C247.616,203.957,249.825,203.816,252.035,203.501C254.244,203.187,256.454,202.699,258.666,202.183C260.878,201.668,263.094,201.124,265.306,200.493C267.519,199.861,269.728,199.141,271.938,198.406C274.147,197.671,276.356,196.921,278.566,196.066C280.775,195.21,282.985,194.249,285.197,193.289C287.409,192.33,289.625,191.372,291.837,190.471C294.05,189.569,296.259,188.725,298.469,187.813C300.678,186.901,302.887,185.923,305.097,184.953C307.306,183.984,309.516,183.023,311.728,182.115C313.94,181.208,316.156,180.354,318.368,179.476C320.581,178.597,322.79,177.695,325,176.805C327.209,175.915,329.418,175.037,331.628,174.205C333.837,173.373,336.047,172.587,338.259,171.77C340.472,170.953,342.687,170.104,344.899,169.342C347.112,168.58,349.321,167.905,351.531,167.194C353.74,166.482,355.949,165.735,358.159,165.055C360.368,164.374,362.578,163.759,364.79,163.174C367.003,162.588,369.218,162.032,371.43,161.512C373.643,160.992,375.852,160.509,378.062,159.991C380.271,159.473,382.48,158.919,384.69,158.419C386.899,157.919,389.109,157.473,391.321,157.05C393.534,156.627,395.749,156.228,397.961,155.901C400.174,155.574,402.383,155.319,404.593,154.976C406.802,154.633,409.011,154.203,411.221,153.739C413.43,153.275,415.64,152.779,417.852,152.304C420.065,151.829,422.28,151.377,424.492,150.939C426.705,150.501,428.914,150.077,431.124,149.602C433.333,149.128,435.542,148.602,437.752,148.016C439.961,147.431,442.171,146.786,444.383,146.148C446.596,145.51,448.811,144.88,451.023,144.155C453.236,143.431,455.445,142.613,457.655,141.779C459.864,140.946,462.073,140.097,464.283,139.211C466.492,138.325,468.702,137.4,470.914,136.438C473.127,135.475,475.342,134.475,477.554,133.455C479.767,132.435,481.976,131.397,484.186,130.265C486.395,129.133,488.605,127.908,490.814,126.704C493.023,125.499,495.233,124.315,497.445,123.126C499.658,121.936,501.873,120.74,504.085,119.467C506.298,118.193,508.507,116.842,510.717,115.449C512.926,114.056,515.136,112.622,517.345,111.205C519.554,109.789,521.764,108.391,523.976,106.993C526.189,105.595,528.404,104.196,530.616,102.777C532.829,101.357,535.038,99.916,537.248,98.545C539.457,97.174,541.667,95.874,543.876,94.57C546.085,93.267,548.295,91.961,550.507,90.653C552.72,89.346,554.935,88.037,557.148,86.702C559.36,85.367,561.569,84.004,563.779,82.672C565.988,81.34,568.198,80.038,570.407,78.723C572.616,77.407,574.826,76.078,577.038,74.708C579.251,73.338,581.466,71.926,583.679,70.569C585.891,69.211,588.1,67.908,590.31,66.552C592.519,65.196,594.729,63.787,596.938,62.423C599.147,61.058,601.357,59.738,603.569,58.419C605.782,57.1,607.997,55.782,610.21,54.483C612.422,53.184,614.631,51.905,616.841,50.66C619.05,49.415,621.26,48.204,623.469,46.945C625.678,45.686,627.888,44.377,630.1,43.06C632.313,41.743,634.528,40.417,636.741,39.054C638.953,37.691,641.162,36.291,643.372,34.996C645.581,33.701,647.791,32.511,648.895,31.915L650,31.32L650,10.981L648.895,11.768C647.791,12.554,645.581,14.127,643.372,15.767C641.162,17.406,638.953,19.112,636.741,20.782C634.528,22.451,632.313,24.084,630.1,25.695C627.888,27.305,625.678,28.893,623.469,30.438C621.26,31.982,619.05,33.482,616.841,35.01C614.631,36.537,612.422,38.091,610.21,39.654C607.997,41.216,605.782,42.787,603.569,44.352C601.357,45.917,599.147,47.476,596.938,49.082C594.729,50.687,592.519,52.34,590.31,53.932C588.1,55.525,585.891,57.058,583.679,58.634C581.466,60.21,579.251,61.829,577.038,63.395C574.826,64.961,572.616,66.475,570.407,67.964C568.198,69.454,565.988,70.919,563.779,72.407C561.569,73.895,559.36,75.406,557.148,76.869C554.935,78.331,552.72,79.745,550.507,81.14C548.295,82.536,546.085,83.912,543.876,85.275C541.667,86.637,539.457,87.985,537.248,89.387C535.038,90.79,532.829,92.247,530.616,93.665C528.404,95.083,526.189,96.463,523.976,97.82C521.764,99.178,519.554,100.513,517.345,101.842C515.136,103.171,512.926,104.493,510.717,105.803C508.507,107.112,506.298,108.409,504.085,109.631C501.873,110.852,499.658,111.999,497.445,113.137C495.233,114.276,493.023,115.407,490.814,116.532C488.605,117.657,486.395,118.777,484.186,119.813C481.976,120.85,479.767,121.804,477.554,122.74C475.342,123.676,473.127,124.594,470.914,125.484C468.702,126.375,466.492,127.238,464.283,128.061C462.073,128.884,459.864,129.667,457.655,130.442C455.445,131.217,453.236,131.984,451.023,132.641C448.811,133.299,446.596,133.846,444.383,134.396C442.171,134.947,439.961,135.5,437.752,135.996C435.542,136.492,433.333,136.93,431.124,137.31C428.914,137.689,426.705,138.01,424.492,138.34C422.28,138.67,420.065,139.011,417.852,139.369C415.64,139.728,413.43,140.105,411.221,140.457C409.011,140.81,406.802,141.138,404.593,141.388C402.383,141.639,400.174,141.812,397.961,142.052C395.749,142.292,393.534,142.598,391.321,142.927C389.109,143.256,386.899,143.609,384.69,144.012C382.48,144.416,380.271,144.872,378.062,145.32C375.852,145.769,373.643,146.211,371.43,146.714C369.218,147.217,367.003,147.781,364.79,148.343C362.578,148.905,360.368,149.467,358.159,150.124C355.949,150.781,353.74,151.533,351.531,152.254C349.321,152.975,347.112,153.663,344.899,154.449C342.687,155.236,340.472,156.12,338.259,156.983C336.047,157.847,333.837,158.689,331.628,159.57C329.418,160.451,327.209,161.371,325,162.327C322.79,163.282,320.581,164.274,318.368,165.252C316.156,166.229,313.94,167.191,311.728,168.212C309.516,169.233,307.306,170.313,305.097,171.403C302.887,172.492,300.678,173.592,298.469,174.629C296.259,175.665,294.05,176.64,291.837,177.679C289.625,178.719,287.409,179.824,285.197,180.904C282.985,181.985,280.775,183.041,278.566,183.985C276.356,184.93,274.147,185.763,271.938,186.572C269.728,187.382,267.519,188.168,265.306,188.821C263.094,189.474,260.878,189.994,258.666,190.47C256.454,190.945,254.244,191.377,252.035,191.71C249.825,192.043,247.616,192.278,245.407,192.509C243.197,192.74,240.988,192.967,238.775,193.065C236.563,193.164,234.347,193.135,232.135,193.122C229.923,193.11,227.713,193.115,225.504,193.059C223.294,193.003,221.085,192.886,218.876,192.644C216.666,192.401,214.457,192.034,212.244,191.639C210.032,191.245,207.816,190.824,205.604,190.374C203.392,189.925,201.182,189.446,198.973,188.973C196.763,188.499,194.554,188.03,192.345,187.495C190.135,186.959,187.926,186.355,185.713,185.687C183.501,185.018,181.285,184.284,179.073,183.657C176.861,183.029,174.651,182.508,172.442,182.026C170.232,181.545,168.023,181.102,165.814,180.564C163.604,180.025,161.395,179.39,159.182,178.86C156.97,178.33,154.754,177.905,152.542,177.405C150.33,176.905,148.12,176.331,145.911,175.896C143.701,175.461,141.492,175.165,139.283,174.779C137.073,174.392,134.864,173.915,132.651,173.563C130.439,173.212,128.223,172.986,126.011,172.809C123.799,172.632,121.589,172.503,119.38,172.359C117.17,172.216,114.96,172.056,112.751,171.987C110.541,171.917,108.332,171.937,106.12,171.947C103.908,171.957,101.693,171.958,99.48,171.975C97.268,171.993,95.059,172.028,92.849,172.065C90.64,172.102,88.431,172.141,86.221,172.179C84.012,172.217,81.802,172.254,79.59,172.245C77.378,172.236,75.162,172.182,72.95,172.168C70.737,172.154,68.528,172.181,66.318,172.189C64.109,172.197,61.9,172.186,59.69,172.138C57.481,172.09,55.271,172.006,53.059,171.935C50.847,171.864,48.631,171.807,46.419,171.766C44.206,171.725,41.997,171.7,39.787,171.645C37.578,171.59,35.369,171.505,33.159,171.414C30.95,171.323,28.74,171.227,26.528,171.155C24.316,171.084,22.1,171.037,19.888,170.962C17.675,170.888,15.466,170.786,13.256,170.738C11.047,170.69,8.838,170.696,6.628,170.637C4.419,170.578,2.209,170.455,1.105,170.393L0,170.332Z" fill="#4c78a8" opacity="0.6"/></g><g class="mark-line role-mark layer_1_marks" role="graphics-symbol" aria-roledescription="line mark container"><path d="M0,180.823L1.105,180.774C2.209,180.725,4.419,180.627,6.628,180.531C8.838,180.436,11.047,180.342,13.256,180.25C15.466,180.159,17.675,180.069,19.888,179.982C22.1,179.894,24.316,179.809,26.528,179.725C28.74,179.642,30.95,179.56,33.159,179.481C35.369,179.401,37.578,179.324,39.787,179.248C41.997,179.173,44.206,179.1,46.419,179.03C48.631,178.959,50.847,178.892,53.059,178.828C55.271,178.764,57.481,178.703,59.69,178.647C61.9,178.59,64.109,178.537,66.318,178.49C68.528,178.442,70.737,178.399,72.95,178.361C75.162,178.323,77.378,178.291,79.59,178.264C81.802,178.237,84.012,178.216,86.221,178.201C88.431,178.186,90.64,178.176,92.849,178.172C95.059,178.169,97.268,178.171,99.48,178.18C101.693,178.189,103.908,178.204,106.12,178.227C108.332,178.25,110.541,178.281,112.751,178.345C114.96,178.409,117.17,178.505,119.38,178.678C121.589,178.85,123.799,179.099,126.011,179.382C128.223,179.665,130.439,179.983,132.651,180.331C134.864,180.678,137.073,181.055,139.283,181.454C141.492,181.853,143.701,182.275,145.911,182.715C148.12,183.156,150.33,183.615,152.542,184.092C154.754,184.57,156.97,185.066,159.182,185.576C161.395,186.086,163.604,186.61,165.814,187.133C168.023,187.656,170.232,188.179,172.442,188.724C174.651,189.268,176.861,189.833,179.073,190.403C181.285,190.973,183.501,191.548,185.713,192.107C187.926,192.666,190.135,193.209,192.345,193.726C194.554,194.242,196.763,194.731,198.973,195.181C201.182,195.631,203.392,196.042,205.604,196.424C207.816,196.805,210.032,197.157,212.244,197.474C214.457,197.792,216.666,198.075,218.876,198.304C221.085,198.532,223.294,198.705,225.504,198.82C227.713,198.935,229.923,198.992,232.135,198.992C234.347,198.993,236.563,198.937,238.775,198.822C240.988,198.707,243.197,198.532,245.407,198.317C247.616,198.102,249.825,197.847,252.035,197.543C254.244,197.239,256.454,196.887,258.666,196.413C260.878,195.94,263.094,195.345,265.306,194.678C267.519,194.01,269.728,193.269,271.938,192.475C274.147,191.682,276.356,190.835,278.566,189.945C280.775,189.054,282.985,188.121,285.197,187.16C287.409,186.199,289.625,185.21,291.837,184.214C294.05,183.218,296.259,182.215,298.469,181.207C300.678,180.2,302.887,179.189,305.097,178.186C307.306,177.183,309.516,176.189,311.728,175.218C313.94,174.247,316.156,173.3,318.368,172.372C320.581,171.443,322.79,170.533,325,169.634C327.209,168.735,329.418,167.847,331.628,166.968C333.837,166.089,336.047,165.218,338.259,164.376C340.472,163.534,342.687,162.721,344.899,161.942C347.112,161.163,349.321,160.419,351.531,159.703C353.74,158.987,355.949,158.299,358.159,157.65C360.368,157.001,362.578,156.39,364.79,155.809C367.003,155.229,369.218,154.679,371.43,154.159C373.643,153.639,375.852,153.149,378.062,152.698C380.271,152.246,382.48,151.833,384.69,151.426C386.899,151.018,389.109,150.616,391.321,150.23C393.534,149.843,395.749,149.471,397.961,149.108C400.174,148.744,402.383,148.39,404.593,148.039C406.802,147.688,409.011,147.341,411.221,146.991C413.43,146.642,415.64,146.289,417.852,145.918C420.065,145.547,422.28,145.158,424.492,144.744C426.705,144.329,428.914,143.889,431.124,143.423C433.333,142.956,435.542,142.462,437.752,141.932C439.961,141.401,442.171,140.833,444.383,140.228C446.596,139.622,448.811,138.98,451.023,138.302C453.236,137.624,455.445,136.909,457.655,136.159C459.864,135.408,462.073,134.622,464.283,133.794C466.492,132.967,468.702,132.099,470.914,131.174C473.127,130.249,475.342,129.267,477.554,128.247C479.767,127.228,481.976,126.171,484.186,125.092C486.395,124.013,488.605,122.912,490.814,121.801C493.023,120.689,495.233,119.566,497.445,118.391C499.658,117.216,501.873,115.988,504.085,114.702C506.298,113.415,508.507,112.07,510.717,110.708C512.926,109.345,515.136,107.965,517.345,106.588C519.554,105.21,521.764,103.834,523.976,102.459C526.189,101.084,528.404,99.709,530.616,98.333C532.829,96.957,535.038,95.58,537.248,94.2C539.457,92.82,541.667,91.438,543.876,90.052C546.085,88.666,548.295,87.277,550.507,85.884C552.72,84.49,554.935,83.093,557.148,81.692C559.36,80.291,561.569,78.885,563.779,77.475C565.988,76.065,568.198,74.651,570.407,73.233C572.616,71.815,574.826,70.394,577.038,68.968C579.251,67.543,581.466,66.113,583.679,64.681C585.891,63.249,588.1,61.813,590.31,60.375C592.519,58.937,594.729,57.495,596.938,56.052C599.147,54.608,601.357,53.162,603.569,51.715C605.782,50.267,607.997,48.817,610.21,47.366C612.422,45.914,614.631,44.462,616.841,43.008C619.05,41.554,621.26,40.099,623.469,38.643C625.678,37.187,627.888,35.73,630.1,34.273C632.313,32.816,634.528,31.358,636.741,29.9C638.953,28.443,641.162,26.984,643.372,25.54C645.581,24.096,647.791,22.666,648.895,21.95L650,21.235" stroke="#4c78a8" stroke-width="2"/></g></g><path class="foreground" aria-hidden="true" d="" display="none"/></g></g></g></svg>