<svg xmlns="http://www.w3.org/2000/svg" xmlns:xlink="http://www.w3.org/1999/xlink" version="1.1" class="marks" width="662" height="407" viewBox="0 0 662 407"><rect width="662" height="407" fill="white"/><g fill="none" stroke-miterlimit="10" transform="translate(56,11)"><g class="mark-group role-frame root" role="graphics-object" aria-roledescription="group mark container"><g transform="translate(0,0)"><path class="background" aria-hidden="true" d="M0.5,0.5h600v300h-600Z" stroke="#ddd"/><g><g class="mark-group role-axis" aria-hidden="true"><g transform="translate(0.5,300.5)"><path class="background" aria-hidden="true" d="M0,0h0v0h0Z" pointer-events="none"/><g><g class="mark-rule role-axis-grid" pointer-events="none"><line transform="translate(0,-300)" x2="0" y2="300" stroke="#ddd" stroke-width="1" opacity="1"/><line transform="translate(30,-300)" x2="0" y2="300" stroke="#ddd" stroke-width="1" opacity="1"/><line transform="translate(60,-300)" x2="0" y2="300" stroke="#ddd" stroke-width="1" opacity="1"/><line transform="translate(90,-300)" x2="0" y2="300" stroke="#ddd" stroke-width="1" opacity="1"/><line transform="translate(120,-300)" x2="0" y2="300" stroke="#ddd" stroke-width="1" opacity="1"/><line transform="translate(150,-300)" x2="0" y2="300" stroke="#ddd" stroke-width="1" opacity="1"/><line transform="translate(180,-300)" x2="0" y2="300" stroke="#ddd" stroke-width="1" opacity="1"/><line transform="translate(210,-300)" x2="0" y2="300" stroke="#ddd" stroke-width="1" opacity="1"/><line transform="translate(240,-300)" x2="0" y2="300" stroke="#ddd" stroke-width="1" opacity="1"/><line transform="translate(270,-300)" x2="0" y2="300" stroke="#ddd" stroke-width="1" opacity="1"/><line transform="translate(300,-300)" x2="0" y2="300" stroke="#ddd" stroke-width="1" opacity="1"/><line transform="translate(330,-300)" x2="0" y2="300" stroke="#ddd" stroke-width="1" opacity="1"/><line transform="translate(360,-300)" x2="0" y2="300" stroke="#ddd" stroke-width="1" opacity="1"/><line transform="translate(390,-300)" x2="0" y2="300" stroke="#ddd" stroke-width="1" opacity="1"/><line transform="translate(420,-300)" x2="0" y2="300" stroke="#ddd" stroke-width="1" opacity="1"/><line transform="translate(450,-300)" x2="0" y2="300" stroke="#ddd" stroke-width="1" opacity="1"/><line transform="translate(480,-300)" x2="0" y2="300" stroke="#ddd" stroke-width="1" opacity="1"/><line transform="translate(510,-300)" x2="0" y2="300" stroke="#ddd" stroke-width="1" opacity="1"/><line transform="translate(540,-300)" x2="0" y2="300" stroke="#ddd" stroke-width="1" opacity="1"/><line transform="translate(570,-300)" x2="0" y2="300" stroke="#ddd" stroke-width="1" opacity="1"/><line transform="translate(600,-300)" x2="0" y2="300" stroke="#ddd" stroke-width="1" opacity="1"/></g></g><path class="foreground" aria-hidden="true" d="" pointer-events="none" display="none"/></g></g><g class="mark-group role-axis" aria-hidden="true"><g transform="translate(0.5,0.5)"><path class="background" aria-hidden="true" d="M0,0h0v0h0Z" pointer-events="none"/><g><g class="mark-rule role-axis-grid" pointer-events="none"><line transform="translate(0,300)" x2="600" y2="0" stroke="#ddd" stroke-width="1" opacity="1"/><line transform="translate(0,270)" x2="600" y2="0" stroke="#ddd" stroke-width="1" opacity="1"/><line transform="translate(0,240)" x2="600" y2="0" stroke="#ddd" stroke-width="1" opacity="1"/><line transform="translate(0,210)" x2="600" y2="0" stroke="#ddd" stroke-width="1" opacity="1"/><line transform="translate(0,180)" x2="600" y2="0" stroke="#ddd" stroke-width="1" opacity="1"/><line transform="translate(0,150)" x2="600" y2="0" stroke="#ddd" stroke-width="1" opacity="1"/><line transform="translate(0,120)" x2="600" y2="0" stroke="#ddd" stroke-width="1" opacity="1"/><line transform="translate(0,90)" x2="600" y2="0" stroke="#ddd" stroke-width="1" opacity="1"/><line transform="translate(0,60)" x2="600" y2="0" stroke="#ddd" stroke-width="1" opacity="1"/><line transform="translate(0,30)" x2="600" y2="0" stroke="#ddd" stroke-width="1" opacity="1"/><line transform="translate(0,0)" x2="600" y2="0" stroke="#ddd" stroke-width="1" opacity="1"/></g></g><path class="foreground" aria-hidden="true" d="" pointer-events="none" display="none"/></g></g><g class="mark-group role-axis" role="graphics-symbol" aria-roledescription="axis" aria-label="X-axis titled 'Jaar' for a linear scale with values from 1925 to 2025"><g transform="translate(0.5,300.5)"><path class="background" aria-hidden="true" d="M0,0h0v0h0Z" pointer-events="none"/><g><g class="mark-rule role-axis-tick" pointer-events="none"><line transform="translate(0,0)" x2="0" y2="5" stroke="#888" stroke-width="1" opacity="1"/><line transform="translate(30,0)" x2="0" y2="5" stroke="#888" stroke-width="1" opacity="1"/><line transform="translate(60,0)" x2="0" y2="5" stroke="#888" stroke-width="1" opacity="1"/><line transform="translate(90,0)" x2="0" y2="5" stroke="#888" stroke-width="1" opacity="1"/><line transform="translate(120,0)" x2="0" y2="5" stroke="#888" stroke-width="1" opacity="1"/><line transform="translate(150,0)" x2="0" y2="5" stroke="#888" stroke-width="1" opacity="1"/><line transform="translate(180,0)" x2="0" y2="5" stroke="#888" stroke-width="1" opacity="1"/><line transform="translate(210,0)" x2="0" y2="5" stroke="#888" stroke-width="1" opacity="1"/><line transform="translate(240,0)" x2="0" y2="5" stroke="#888" stroke-width="1" opacity="1"/><line transform="translate(270,0)" x2="0" y2="5" stroke="#888" stroke-width="1" opacity="1"/><line transform="translate(300,0)" x2="0" y2="5" stroke="#888" stroke-width="1" opacity="1"/><line transform="translate(330,0)" x2="0" y2="5" stroke="#888" stroke-width="1" opacity="1"/><line transform="translate(360,0)" x2="0" y2="5" stroke="#888" stroke-width="1" opacity="1"/><line transform="translate(390,0)" x2="0" y2="5" stroke="#888" stroke-width="1" opacity="1"/><line transform="translate(420,0)" x2="0" y2="5" stroke="#888" stroke-width="1" opacity="1"/><line transform="translate(450,0)" x2="0" y2="5" stroke="#888" stroke-width="1" opacity="1"/><line transform="translate(480,0)" x2="0" y2="5" stroke="#888" stroke-width="1" opacity="1"/><line transform="translate(510,0)" x2="0" y2="5" stroke="#888" stroke-width="1" opacity="1"/><line transform="translate(540,0)" x2="0" y2="5" stroke="#888" stroke-width="1" opacity="1"/><line transform="translate(570,0)" x2="0" y2="5" stroke="#888" stroke-width="1" opacity="1"/><line transform="translate(600,0)" x2="0" y2="5" stroke="#888" stroke-width="1" opacity="1"/></g><g class="mark-text role-axis-label" pointer-events="none"><text text-anchor="start" transform="translate(0,16)" font-family="sans-serif" font-size="11px" fill="#000" opacity="1">1925</text><text text-anchor="middle" transform="translate(30,16)" font-family="sans-serif" font-size="11px" fill="#000" opacity="0">1930</text><text text-anchor="middle" transform="translate(60,16)" font-family="sans-serif" font-size="11px" fill="#000" opacity="1">1935</text><text text-anchor="middle" transform="translate(90,16)" font-family="sans-serif" font-size="11px" fill="#000" opacity="0">1940</text><text text-anchor="middle" transform="translate(120,16)" font-family="sans-serif" font-size="11px" fill="#000" opacity="1">1945</text><text text-anchor="middle" transform="translate(150,16)" font-family="sans-serif" font-size="11px" fill="#000" opacity="0">1950</text><text text-anchor="middle" transform="translate(180,16)" font-family="sans-serif" font-size="11px" fill="#000" opacity="1">1955</text><text text-anchor="middle" transform="translate(210,16)" font-family="sans-serif" font-size="11px" fill="#000" opacity="0">1960</text><text text-anchor="middle" transform="translate(240,16)" font-family="sans-serif" font-size="11px" fill="#000" opacity="1">1965</text><text text-anchor="middle" transform="translate(270,16)" font-family="sans-serif" font-size="11px" fill="#000" opacity="0">1970</text><text text-anchor="middle" transform="translate(300,16)" font-family="sans-serif" font-size="11px" fill="#000" opacity="1">1975</text><text text-anchor="middle" transform="translate(330,16)" font-family="sans-serif" font-size="11px" fill="#000" opacity="0">1980</text><text text-anchor="middle" transform="translate(360,16)" font-family="sans-serif" font-size="11px" fill="#000" opacity="1">1985</text><text text-anchor="middle" transform="translate(390,16)" font-family="sans-serif" font-size="11px" fill="#000" opacity="0">1990</text><text text-anchor="middle" transform="translate(420,16)" font-family="sans-serif" font-size="11px" fill="#000" opacity="1">1995</text><text text-anchor="middle" transform="translate(450,16)" font-family="sans-serif" font-size="11px" fill="#000" opacity="0">2000</text><text text-anchor="middle" transform="translate(480,16)" font-family="sans-serif" font-size="11px" fill="#000" opacity="1">2005</text><text text-anchor="middle" transform="translate(510,16)" font-family="sans-serif" font-size="11px" fill="#000" opacity="0">2010</text><text text-anchor="middle" transform="translate(540,16)" font-family="sans-serif" font-size="11px" fill="#000" opacity="1">2015</text><text text-anchor="middle" transform="translate(570,16)" font-family="sans-serif" font-size="11px" fill="#000" opacity="0">2020</text><text text-anchor="end" transform="translate(600,16)" font-family="sans-serif" font-size="11px" fill="#000" opacity="1">2025</text></g><g class="mark-rule role-axis-domain" pointer-events="none"><line transform="translate(0,0)" x2="600" y2="0" stroke="#888" stroke-width="1" opacity="1"/></g><g class="mark-text role-axis-title" pointer-events="none"><text text-anchor="middle" transform="translate(300,31)" font-family="sans-serif" font-size="11px" font-weight="bold" fill="#000" opacity="1">Jaar</text></g></g><path class="foreground" aria-hidden="true" d="" pointer-events="none" display="none"/></g></g><g class="mark-group role-axis" role="graphics-symbol" aria-roledescription="axis" aria-label="Y-axis titled 'Prevalentie' for a linear scale with values from 0% to 100%"><g transform="translate(0.5,0.5)"><path class="background" aria-hidden="true" d="M0,0h0v0h0Z" pointer-events="none"/><g><g class="mark-rule role-axis-tick" pointer-events="none"><line transform="translate(0,300)" x2="-5" y2="0" stroke="#888" stroke-width="1" opacity="1"/><line transform="translate(0,270)" x2="-5" y2="0" stroke="#888" stroke-width="1" opacity="1"/><line transform="translate(0,240)" x2="-5" y2="0" stroke="#888" stroke-width="1" opacity="1"/><line transform="translate(0,210)" x2="-5" y2="0" stroke="#888" stroke-width="1" opacity="1"/><line transform="translate(0,180)" x2="-5" y2="0" stroke="#888" stroke-width="1" opacity="1"/><line transform="translate(0,150)" x2="-5" y2="0" stroke="#888" stroke-width="1" opacity="1"/><line transform="translate(0,120)" x2="-5" y2="0" stroke="#888" stroke-width="1" opacity="1"/><line transform="translate(0,90)" x2="-5" y2="0" stroke="#888" stroke-width="1" opacity="1"/><line transform="translate(0,60)" x2="-5" y2="0" stroke="#888" stroke-width="1" opacity="1"/><line transform="translate(0,30)" x2="-5" y2="0" stroke="#888" stroke-width="1" opacity="1"/><line transform="translate(0,0)" x2="-5" y2="0" stroke="#888" stroke-width="1" opacity="1"/></g><g class="mark-text role-axis-label" pointer-events="none"><text text-anchor="end" transform="translate(-7,303)" font-family="sans-serif" font-size="11px" fill="#000" opacity="1">0%</text><text text-anchor="end" transform="translate(-7,273)" font-family="sans-serif" font-size="11px" fill="#000" opacity="1">10%</text><text text-anchor="end" transform="translate(-7,243)" font-family="sans-serif" font-size="11px" fill="#000" opacity="1">20%</text><text text-anchor="end" transform="translate(-7,213)" font-family="sans-serif" font-size="11px" fill="#000" opacity="1">30%</text><text text-anchor="end" transform="translate(-7,183)" font-family="sans-serif" font-size="11px" fill="#000" opacity="1">40%</text><text text-anchor="end" transform="translate(-7,153)" font-family="sans-serif" font-size="11px" fill="#000" opacity="1">50%</text><text text-anchor="end" transform="translate(-7,123)" font-family="sans-serif" font-size="11px" fill="#000" opacity="1">60%</text><text text-anchor="end" transform="translate(-7,93.00000000000001)" font-family="sans-serif" font-size="11px" fill="#000" opacity="1">70%</text><text text-anchor="end" transform="translate(-7,62.999999999999986)" font-family="sans-serif" font-size="11px" fill="#000" opacity="1">80%</text><text text-anchor="end" transform="translate(-7,32.99999999999999)" font-family="sans-serif" font-size="11px" fill="#000" opacity="1">90%</text><text text-anchor="end" transform="translate(-7,3)" font-family="sans-serif" font-size="11px" fill="#000" opacity="1">100%</text></g><g class="mark-rule role-axis-domain" pointer-events="none"><line transform="translate(0,300)" x2="0" y2="-300" stroke="#888" stroke-width="1" opacity="1"/></g><g class="mark-text role-axis-title" pointer-events="none"><text text-anchor="middle" transform="translate(-39.1337890625,150) rotate(-90) translate(0,-2)" font-family="sans-serif" font-size="11px" font-weight="bold" fill="#000" opacity="1">Prevalentie</text></g></g><path class="foreground" aria-hidden="true" d="" pointer-events="none" display="none"/></g></g><g class="mark-group role-scope pathgroup" role="graphics-object" aria-roledescription="group mark container"><g transform="translate(0,0)"><path class="background" aria-hidden="true" d="M0,0h600v300h-600Z"/><g><g class="mark-area role-mark marks" role="graphics-object" aria-roledescription="area mark container"><path aria-label="Jaar: 1925; Prevalentie: 80%; Onderwerpen: Overig" role="graphics-symbol" aria-roledescription="area mark" d="M0,47.771L3,51.085L6,54.406L9,57.686L12,60.885L15,63.967L18,66.908L21,69.697L24,72.335L27,74.832L30,77.208L33,79.49L36,81.705L39,83.884L42,86.053L45,88.237L48,90.455L51,92.722L54,95.046L57,97.429L60,99.866L63,102.346L66,104.851L69,107.361L72,109.848L75,112.281L78,114.628L81,116.855L84,118.931L87,120.826L90,122.514L93,123.976L96,125.199L99,126.177L102,126.911L105,127.41L108,127.687L111,127.762L114,127.66L117,127.405L120,127.027L123,126.553L126,126.014L129,125.435L132,124.844L135,124.265L138,123.72L141,123.227L144,122.804L147,122.464L150,122.218L153,122.073L156,122.032L159,122.097L162,122.266L165,122.533L168,122.891L171,123.331L174,123.842L177,124.412L180,125.03L183,125.686L186,126.368L189,127.071L192,127.787L195,128.515L198,129.254L201,130.006L204,130.777L207,131.573L210,132.403L213,133.276L216,134.202L219,135.189L222,136.246L225,137.376L228,138.584L231,139.868L234,141.224L237,142.648L240,144.13L243,145.658L246,147.221L249,148.805L252,150.398L255,151.986L258,153.558L261,155.104L264,156.616L267,158.087L270,159.511L273,160.887L276,162.212L279,163.485L282,164.706L285,165.875L288,166.993L291,168.059L294,169.072L297,170.03L300,170.932L303,171.775L306,172.556L309,173.271L312,173.916L315,174.49L318,174.99L321,175.416L324,175.767L327,176.047L330,176.26L333,176.412L336,176.513L339,176.573L342,176.605L345,176.624L348,176.644L351,176.683L354,176.755L357,176.875L360,177.055L363,177.306L366,177.633L369,178.04L372,178.525L375,179.085L378,179.714L381,180.404L384,181.146L387,181.931L390,182.749L393,183.594L396,184.458L399,185.334L402,186.218L405,187.102L408,187.983L411,188.853L414,189.707L417,190.536L420,191.334L423,192.091L426,192.799L429,193.452L432,194.042L435,194.563L438,195.011L441,195.386L444,195.686L447,195.914L450,196.074L453,196.173L456,196.22L459,196.222L462,196.192L465,196.14L468,196.078L471,196.019L474,195.974L477,195.952L480,195.964L483,196.017L486,196.117L489,196.267L492,196.467L495,196.717L498,197.011L501,197.343L504,197.704L507,198.083L510,198.469L513,198.85L516,199.215L519,199.555L522,199.86L525,200.126L528,200.348L531,200.525L534,200.661L537,200.759L540,200.825L543,200.869L546,200.898L549,200.923L552,200.951L555,200.99L558,201.045L561,201.118L564,201.209L567,201.316L570,201.434L573,201.555L576,201.669L579,201.768L582,201.84L585,201.876L588,201.868L591,201.809L594,201.695L597,201.524L600,201.298L600,229.685L597,230.028L594,230.264L591,230.392L588,230.417L585,230.344L582,230.182L579,229.94L576,229.629L573,229.26L570,228.845L567,228.395L564,227.92L561,227.43L558,226.932L555,226.432L552,225.933L549,225.436L546,224.942L543,224.449L540,223.954L537,223.455L534,222.948L531,222.431L528,221.904L525,221.369L522,220.827L519,220.283L516,219.745L513,219.222L510,218.722L507,218.258L504,217.84L501,217.481L498,217.191L495,216.978L492,216.849L489,216.81L486,216.863L483,217.005L480,217.235L477,217.545L474,217.928L471,218.372L468,218.864L465,219.392L462,219.941L459,220.495L456,221.039L453,221.559L450,222.041L447,222.473L444,222.843L441,223.143L438,223.365L435,223.504L432,223.558L429,223.524L426,223.405L423,223.2L420,222.916L417,222.555L414,222.123L411,221.627L408,221.072L405,220.465L402,219.814L399,219.126L396,218.407L393,217.668L390,216.917L387,216.165L384,215.421L381,214.697L378,214.004L375,213.352L372,212.751L369,212.209L366,211.73L363,211.317L360,210.968L357,210.68L354,210.444L351,210.251L348,210.089L345,209.945L342,209.805L339,209.657L336,209.488L333,209.287L330,209.044L327,208.752L324,208.406L321,208.001L318,207.538L315,207.014L312,206.433L309,205.797L306,205.111L303,204.378L300,203.604L297,202.794L294,201.953L291,201.085L288,200.193L285,199.28L282,198.347L279,197.397L276,196.43L273,195.446L270,194.444L267,193.427L264,192.393L261,191.345L258,190.284L255,189.213L252,188.136L249,187.057L246,185.979L243,184.908L240,183.847L237,182.8L234,181.768L231,180.752L228,179.75L225,178.759L222,177.773L219,176.785L216,175.785L213,174.764L210,173.71L207,172.614L204,171.464L201,170.252L198,168.972L195,167.618L192,166.188L189,164.684L186,163.109L183,161.473L180,159.784L177,158.058L174,156.31L171,154.56L168,152.828L165,151.137L162,149.51L159,147.97L156,146.542L153,145.248L150,144.111L147,143.154L144,142.397L141,141.862L138,141.567L135,141.533L132,141.777L129,142.317L126,143.17L123,144.353L120,145.878L117,147.759L114,150.004L111,152.619L108,155.602L105,158.948L102,162.644L99,166.67L96,170.997L93,175.591L90,180.409L87,185.405L84,190.527L81,195.723L78,200.942L75,206.134L72,211.253L69,216.261L66,221.124L63,225.816L60,230.319L57,234.621L54,238.717L51,242.609L48,246.301L45,249.803L42,253.129L39,256.292L36,259.308L33,262.192L30,264.957L27,267.617L24,270.178L21,272.647L18,275.024L15,277.305L12,279.486L9,281.556L6,283.505L3,285.325L0,287.008Z" fill="#A0A0A0" opacity="0.7"/></g></g><path class="foreground" aria-hidden="true" d="" display="none"/></g><g transform="translate(0,0)"><path class="background" aria-hidden="true" d="M0,0h600v300h-600Z"/><g><g class="mark-area role-mark marks" role="graphics-object" aria-roledescription="area mark container"><path aria-label="Jaar: 1925; Prevalentie: 0%; Onderwerpen: Migratie en Integratie" role="graphics-symbol" aria-roledescription="area mark" d="M0,47.771L3,51.085L6,54.406L9,57.686L12,60.885L15,63.967L18,66.908L21,69.697L24,72.335L27,74.832L30,77.208L33,79.49L36,81.705L39,83.883L42,86.052L45,88.236L48,90.455L51,92.722L54,95.045L57,97.427L60,99.863L63,102.341L66,104.845L69,107.352L72,109.834L75,112.261L78,114.599L81,116.814L84,118.873L87,120.746L90,122.404L93,123.827L96,124.998L99,125.91L102,126.56L105,126.954L108,127.101L111,127.017L114,126.721L117,126.235L120,125.583L123,124.791L126,123.882L129,122.883L132,121.818L135,120.71L138,119.582L141,118.456L144,117.352L147,116.29L150,115.286L153,114.358L156,113.518L159,112.78L162,112.153L165,111.644L168,111.258L171,110.998L174,110.865L177,110.858L180,110.974L183,111.211L186,111.564L189,112.032L192,112.611L195,113.3L198,114.1L201,115.009L204,116.031L207,117.168L210,118.421L213,119.794L216,121.287L219,122.899L222,124.627L225,126.465L228,128.404L231,130.431L234,132.532L237,134.689L240,136.881L243,139.089L246,141.29L249,143.463L252,145.589L255,147.648L258,149.626L261,151.506L264,153.28L267,154.938L270,156.474L273,157.885L276,159.171L279,160.331L282,161.368L285,162.286L288,163.09L291,163.785L294,164.376L297,164.871L300,165.275L303,165.594L306,165.836L309,166.006L312,166.111L315,166.158L318,166.152L321,166.101L324,166.013L327,165.894L330,165.753L333,165.598L336,165.44L339,165.287L342,165.151L345,165.041L348,164.969L351,164.944L354,164.976L357,165.071L360,165.234L363,165.469L366,165.774L369,166.146L372,166.579L375,167.064L378,167.591L381,168.15L384,168.727L387,169.313L390,169.896L393,170.466L396,171.014L399,171.531L402,172.008L405,172.435L408,172.802L411,173.098L414,173.311L417,173.428L420,173.436L423,173.321L426,173.069L429,172.669L432,172.11L435,171.386L438,170.491L441,169.424L444,168.189L447,166.792L450,165.244L453,163.561L456,161.761L459,159.866L462,157.899L465,155.887L468,153.857L471,151.834L474,149.844L477,147.911L480,146.055L483,144.292L486,142.633L489,141.087L492,139.653L495,138.328L498,137.102L501,135.961L504,134.888L507,133.862L510,132.863L513,131.872L516,130.869L519,129.843L522,128.784L525,127.689L528,126.562L531,125.416L534,124.267L537,123.139L540,122.062L543,121.067L546,120.188L549,119.46L552,118.911L555,118.569L558,118.453L561,118.575L564,118.939L567,119.54L570,120.366L573,121.399L576,122.614L579,123.985L582,125.484L585,127.083L588,128.758L591,130.488L594,132.257L597,134.055L600,135.878L600,201.298L597,201.524L594,201.695L591,201.809L588,201.868L585,201.876L582,201.84L579,201.768L576,201.669L573,201.555L570,201.434L567,201.316L564,201.209L561,201.118L558,201.045L555,200.99L552,200.951L549,200.923L546,200.898L543,200.869L540,200.825L537,200.759L534,200.661L531,200.525L528,200.348L525,200.126L522,199.86L519,199.555L516,199.215L513,198.85L510,198.469L507,198.083L504,197.704L501,197.343L498,197.011L495,196.717L492,196.467L489,196.267L486,196.117L483,196.017L480,195.964L477,195.952L474,195.974L471,196.019L468,196.078L465,196.14L462,196.192L459,196.222L456,196.22L453,196.173L450,196.074L447,195.914L444,195.686L441,195.386L438,195.011L435,194.563L432,194.042L429,193.452L426,192.799L423,192.091L420,191.334L417,190.536L414,189.707L411,188.853L408,187.983L405,187.102L402,186.218L399,185.334L396,184.458L393,183.594L390,182.749L387,181.931L384,181.146L381,180.404L378,179.714L375,179.085L372,178.525L369,178.04L366,177.633L363,177.306L360,177.055L357,176.875L354,176.755L351,176.683L348,176.644L345,176.624L342,176.605L339,176.573L336,176.513L333,176.412L330,176.26L327,176.047L324,175.767L321,175.416L318,174.99L315,174.49L312,173.916L309,173.271L306,172.556L303,171.775L300,170.932L297,170.03L294,169.072L291,168.059L288,166.993L285,165.875L282,164.706L279,163.485L276,162.212L273,160.887L270,159.511L267,158.087L264,156.616L261,155.104L258,153.558L255,151.986L252,150.398L249,148.805L246,147.221L243,145.658L240,144.13L237,142.648L234,141.224L231,139.868L228,138.584L225,137.376L222,136.246L219,135.189L216,134.202L213,133.276L210,132.403L207,131.573L204,130.777L201,130.006L198,129.254L195,128.515L192,127.787L189,127.071L186,126.368L183,125.686L180,125.03L177,124.412L174,123.842L171,123.331L168,122.891L165,122.533L162,122.266L159,122.097L156,122.032L153,122.073L150,122.218L147,122.464L144,122.804L141,123.227L138,123.72L135,124.265L132,124.844L129,125.435L126,126.014L123,126.553L120,127.027L117,127.405L114,127.66L111,127.762L108,127.687L105,127.41L102,126.911L99,126.177L96,125.199L93,123.976L90,122.514L87,120.826L84,118.931L81,116.855L78,114.628L75,112.281L72,109.848L69,107.361L66,104.851L63,102.346L60,99.866L57,97.429L54,95.046L51,92.722L48,90.455L45,88.237L42,86.053L39,83.884L36,81.705L33,79.49L30,77.208L27,74.832L24,72.335L21,69.697L18,66.908L15,63.967L12,60.885L9,57.686L6,54.406L3,51.085L0,47.771Z" fill="#333333" opacity="0.7"/></g></g><path class="foreground" aria-hidden="true" d="" display="none"/></g><g transform="translate(0,0)"><path class="background" aria-hidden="true" d="M0,0h600v300h-600Z"/><g><g class="mark-area role-mark marks" role="graphics-object" aria-roledescription="area mark container"><path aria-label="Jaar: 1925; Prevalentie: 0%; Onderwerpen: Familie" role="graphics-symbol" aria-roledescription="area mark" d="M0,47.771L3,51.085L6,54.406L9,57.686L12,60.885L15,63.967L18,66.908L21,69.697L24,72.335L27,74.832L30,77.208L33,79.49L36,81.705L39,83.883L42,86.052L45,88.236L48,90.455L51,92.722L54,95.045L57,97.427L60,99.863L63,102.341L66,104.845L69,107.351L72,109.833L75,112.26L78,114.597L81,116.812L84,118.87L87,120.74L90,122.395L93,123.813L96,124.979L99,125.881L102,126.519L105,126.894L108,127.016L111,126.898L114,126.555L117,126.008L120,125.274L123,124.376L126,123.33L129,122.157L132,120.873L135,119.493L138,118.032L141,116.502L144,114.915L147,113.282L150,111.614L153,109.92L156,108.211L159,106.497L162,104.788L165,103.096L168,101.428L171,99.798L174,98.212L177,96.682L180,95.215L183,93.818L186,92.497L189,91.255L192,90.096L195,89.02L198,88.026L201,87.113L204,86.278L207,85.514L210,84.817L213,84.182L216,83.602L219,83.072L222,82.587L225,82.142L228,81.734L231,81.363L234,81.027L237,80.727L240,80.465L243,80.244L246,80.067L249,79.937L252,79.859L255,79.835L258,79.866L261,79.956L264,80.103L267,80.306L270,80.563L273,80.871L276,81.224L279,81.617L282,82.044L285,82.497L288,82.97L291,83.456L294,83.948L297,84.441L300,84.93L303,85.411L306,85.881L309,86.337L312,86.779L315,87.204L318,87.614L321,88.006L324,88.381L327,88.736L330,89.07L333,89.38L336,89.661L339,89.909L342,90.117L345,90.278L348,90.385L351,90.43L354,90.406L357,90.308L360,90.132L363,89.877L366,89.543L369,89.136L372,88.661L375,88.127L378,87.547L381,86.933L384,86.296L387,85.651L390,85.009L393,84.382L396,83.78L399,83.212L402,82.687L405,82.212L408,81.793L411,81.437L414,81.15L417,80.938L420,80.805L423,80.757L426,80.797L429,80.93L432,81.157L435,81.478L438,81.892L441,82.397L444,82.987L447,83.654L450,84.39L453,85.183L456,86.021L459,86.889L462,87.772L465,88.655L468,89.521L471,90.356L474,91.145L477,91.874L480,92.533L483,93.111L486,93.603L489,94.005L492,94.314L495,94.535L498,94.671L501,94.73L504,94.723L507,94.66L510,94.555L513,94.421L516,94.27L519,94.115L522,93.966L525,93.832L528,93.719L531,93.631L534,93.571L537,93.538L540,93.532L543,93.55L546,93.591L549,93.653L552,93.735L555,93.839L558,93.968L561,94.13L564,94.335L567,94.593L570,94.922L573,95.34L576,95.865L579,96.519L582,97.324L585,98.304L588,99.479L591,100.871L594,102.5L597,104.385L600,106.539L600,135.878L597,134.055L594,132.256L591,130.487L588,128.758L585,127.083L582,125.483L579,123.984L576,122.612L573,121.396L570,120.362L567,119.533L564,118.929L561,118.561L558,118.433L555,118.541L552,118.872L549,119.406L546,120.115L543,120.967L540,121.928L537,122.962L534,124.034L531,125.113L528,126.172L525,127.19L522,128.152L519,129.05L516,129.884L513,130.658L510,131.383L507,132.072L504,132.743L501,133.416L498,134.108L495,134.838L492,135.621L489,136.468L486,137.387L483,138.38L480,139.446L477,140.578L474,141.763L471,142.986L468,144.228L465,145.467L462,146.679L459,147.838L456,148.92L453,149.9L450,150.754L447,151.462L444,152.007L441,152.375L438,152.554L435,152.538L432,152.326L429,151.917L426,151.317L423,150.531L420,149.569L417,148.442L414,147.158L411,145.73L408,144.167L405,142.479L402,140.675L399,138.762L396,136.749L393,134.645L390,132.46L387,130.206L384,127.897L381,125.551L378,123.187L375,120.827L372,118.492L369,116.207L366,113.993L363,111.87L360,109.855L357,107.96L354,106.195L351,104.565L348,103.071L345,101.711L342,100.481L339,99.373L336,98.38L333,97.492L330,96.699L327,95.991L324,95.356L321,94.782L318,94.257L315,93.769L312,93.305L309,92.854L306,92.404L303,91.946L300,91.473L297,90.979L294,90.463L291,89.926L288,89.373L285,88.811L282,88.252L279,87.708L276,87.194L273,86.724L270,86.313L267,85.974L264,85.718L261,85.553L258,85.485L255,85.517L252,85.647L249,85.872L246,86.185L243,86.579L240,87.045L237,87.571L234,88.148L231,88.764L228,89.409L225,90.076L222,90.756L219,91.442L216,92.132L213,92.82L210,93.507L207,94.192L204,94.877L201,95.565L198,96.26L195,96.969L192,97.697L189,98.451L186,99.239L183,100.068L180,100.944L177,101.873L174,102.86L171,103.908L168,105.018L165,106.19L162,107.42L159,108.706L156,110.039L153,111.411L150,112.813L147,114.233L144,115.657L141,117.073L138,118.465L135,119.816L132,121.11L129,122.329L126,123.453L123,124.461L120,125.333L117,126.048L114,126.582L111,126.915L108,127.027L105,126.901L102,126.523L99,125.884L96,124.98L93,123.814L90,122.396L87,120.74L84,118.87L81,116.812L78,114.597L75,112.26L72,109.833L69,107.351L66,104.845L63,102.341L60,99.863L57,97.427L54,95.045L51,92.722L48,90.455L45,88.236L42,86.052L39,83.883L36,81.705L33,79.49L30,77.208L27,74.832L24,72.335L21,69.697L18,66.908L15,63.967L12,60.885L9,57.686L6,54.406L3,51.085L0,47.771Z" fill="#222222" opacity="0.7"/></g></g><path class="foreground" aria-hidden="true" d="" display="none"/></g><g transform="translate(0,0)"><path class="background" aria-hidden="true" d="M0,0h600v300h-600Z"/><g><g class="mark-area role-mark marks" role="graphics-object" aria-roledescription="area mark container"><path aria-label="Jaar: 1925; Prevalentie: 15%; Onderwerpen: Cultuur" role="graphics-symbol" aria-roledescription="area mark" d="M0,1.562L3,1.779L6,2.016L9,2.273L12,2.548L15,2.841L18,3.151L21,3.478L24,3.82L27,4.18L30,4.557L33,4.953L36,5.369L39,5.809L42,6.274L45,6.766L48,7.289L51,7.843L54,8.432L57,9.057L60,9.717L63,10.414L66,11.145L69,11.91L72,12.703L75,13.522L78,14.361L81,15.213L84,16.071L87,16.928L90,17.775L93,18.605L96,19.41L99,20.184L102,20.92L105,21.614L108,22.261L111,22.858L114,23.405L117,23.9L120,24.343L123,24.735L126,25.077L129,25.371L132,25.618L135,25.82L138,25.981L141,26.103L144,26.188L147,26.239L150,26.26L153,26.253L156,26.223L159,26.173L162,26.106L165,26.028L168,25.942L171,25.852L174,25.763L177,25.679L180,25.603L183,25.539L186,25.49L189,25.459L192,25.447L195,25.457L198,25.489L201,25.543L204,25.62L207,25.718L210,25.837L213,25.974L216,26.129L219,26.299L222,26.482L225,26.676L228,26.879L231,27.089L234,27.305L237,27.525L240,27.749L243,27.975L246,28.204L249,28.433L252,28.662L255,28.891L258,29.119L261,29.342L264,29.561L267,29.772L270,29.973L273,30.161L276,30.332L279,30.483L282,30.611L285,30.712L288,30.784L291,30.823L294,30.828L297,30.797L300,30.729L303,30.624L306,30.482L309,30.306L312,30.095L315,29.853L318,29.582L321,29.283L324,28.961L327,28.616L330,28.252L333,27.87L336,27.473L339,27.061L342,26.637L345,26.203L348,25.758L351,25.305L354,24.846L357,24.383L360,23.917L363,23.453L366,22.994L369,22.544L372,22.107L375,21.689L378,21.292L381,20.923L384,20.585L387,20.282L390,20.018L393,19.795L396,19.615L399,19.48L402,19.392L405,19.352L408,19.361L411,19.419L414,19.526L417,19.685L420,19.894L423,20.155L426,20.468L429,20.833L432,21.25L435,21.719L438,22.238L441,22.806L444,23.422L447,24.081L450,24.781L453,25.517L456,26.283L459,27.073L462,27.88L465,28.697L468,29.515L471,30.325L474,31.121L477,31.892L480,32.633L483,33.335L486,33.994L489,34.603L492,35.161L495,35.665L498,36.115L501,36.513L504,36.86L507,37.162L510,37.424L513,37.649L516,37.846L519,38.018L522,38.173L525,38.314L528,38.446L531,38.573L534,38.697L537,38.819L540,38.941L543,39.063L546,39.187L549,39.311L552,39.439L555,39.571L558,39.709L561,39.858L564,40.023L567,40.208L570,40.422L573,40.672L576,40.968L579,41.317L582,41.73L585,42.217L588,42.786L591,43.446L594,44.206L597,45.073L600,46.052L600,88.366L597,86.156L594,84.202L591,82.488L588,80.996L585,79.709L582,78.606L579,77.668L576,76.875L573,76.208L570,75.649L567,75.18L564,74.786L561,74.453L558,74.171L555,73.928L552,73.719L549,73.539L546,73.384L543,73.252L540,73.143L537,73.054L534,72.984L531,72.932L528,72.893L525,72.863L522,72.836L519,72.801L516,72.75L513,72.672L510,72.553L507,72.381L504,72.143L501,71.828L498,71.426L495,70.928L492,70.328L489,69.623L486,68.814L483,67.902L480,66.893L477,65.797L474,64.622L471,63.381L468,62.088L465,60.757L462,59.402L459,58.039L456,56.682L453,55.343L450,54.036L447,52.77L444,51.555L441,50.398L438,49.306L435,48.281L432,47.328L429,46.447L426,45.639L423,44.904L420,44.24L417,43.648L414,43.124L411,42.669L408,42.28L405,41.957L402,41.697L399,41.501L396,41.366L393,41.291L390,41.273L387,41.31L384,41.398L381,41.534L378,41.713L375,41.931L372,42.182L369,42.461L366,42.765L363,43.09L360,43.431L357,43.788L354,44.157L351,44.539L348,44.933L345,45.337L342,45.754L339,46.181L336,46.618L333,47.065L330,47.519L327,47.978L324,48.44L321,48.901L318,49.356L315,49.803L312,50.236L309,50.652L306,51.046L303,51.416L300,51.757L297,52.07L294,52.352L291,52.603L288,52.826L285,53.021L282,53.193L279,53.344L276,53.48L273,53.605L270,53.724L267,53.841L264,53.961L261,54.089L258,54.227L255,54.378L252,54.546L249,54.731L246,54.936L243,55.163L240,55.412L237,55.685L234,55.984L231,56.312L228,56.672L225,57.068L222,57.504L219,57.988L216,58.524L213,59.119L210,59.781L207,60.517L204,61.333L201,62.237L198,63.234L195,64.329L192,65.528L189,66.832L186,68.244L183,69.763L180,71.389L177,73.119L174,74.948L171,76.871L168,78.882L165,80.973L162,83.134L159,85.356L156,87.627L153,89.938L150,92.274L147,94.625L144,96.976L141,99.313L138,101.621L135,103.883L132,106.082L129,108.198L126,110.209L123,112.095L120,113.831L117,115.393L114,116.756L111,117.894L108,118.786L105,119.409L102,119.747L99,119.787L96,119.524L93,118.957L90,118.095L87,116.953L84,115.551L81,113.919L78,112.087L75,110.092L72,107.97L69,105.756L66,103.484L63,101.184L60,98.883L57,96.6L54,94.349L51,92.138L48,89.966L45,87.829L42,85.714L39,83.603L36,81.473L33,79.299L30,77.052L27,74.705L24,72.232L21,69.615L18,66.842L15,63.914L12,60.844L9,57.654L6,54.381L3,51.066L0,47.756Z" fill="#111111" opacity="0.7"/></g></g><path class="foreground" aria-hidden="true" d="" display="none"/></g><g transform="translate(0,0)"><path class="background" aria-hidden="true" d="M0,0h600v300h-600Z"/><g><g class="mark-area role-mark marks" role="graphics-object" aria-roledescription="area mark container"><path aria-label="Jaar: 1925; Prevalentie: 0%; Onderwerpen: Methoden" role="graphics-symbol" aria-roledescription="area mark" d="M0,47.771L3,51.085L6,54.406L9,57.686L12,60.885L15,63.967L18,66.908L21,69.697L24,72.335L27,74.832L30,77.208L33,79.49L36,81.705L39,83.883L42,86.052L45,88.236L48,90.455L51,92.722L54,95.045L57,97.427L60,99.863L63,102.341L66,104.845L69,107.351L72,109.833L75,112.26L78,114.597L81,116.812L84,118.87L87,120.74L90,122.396L93,123.814L96,124.98L99,125.884L102,126.523L105,126.901L108,127.027L111,126.915L114,126.582L117,126.048L120,125.333L123,124.461L126,123.453L129,122.329L132,121.11L135,119.816L138,118.465L141,117.073L144,115.657L147,114.233L150,112.813L153,111.411L156,110.039L159,108.706L162,107.42L165,106.19L168,105.018L171,103.908L174,102.86L177,101.873L180,100.944L183,100.068L186,99.239L189,98.451L192,97.697L195,96.969L198,96.26L201,95.565L204,94.877L207,94.192L210,93.507L213,92.82L216,92.132L219,91.442L222,90.756L225,90.076L228,89.409L231,88.764L234,88.148L237,87.571L240,87.045L243,86.579L246,86.185L249,85.872L252,85.647L255,85.517L258,85.485L261,85.553L264,85.718L267,85.974L270,86.313L273,86.724L276,87.194L279,87.708L282,88.252L285,88.811L288,89.373L291,89.926L294,90.463L297,90.979L300,91.473L303,91.946L306,92.404L309,92.854L312,93.305L315,93.769L318,94.257L321,94.782L324,95.356L327,95.991L330,96.699L333,97.492L336,98.38L339,99.373L342,100.481L345,101.711L348,103.071L351,104.565L354,106.195L357,107.96L360,109.855L363,111.87L366,113.993L369,116.207L372,118.492L375,120.827L378,123.187L381,125.551L384,127.897L387,130.206L390,132.46L393,134.645L396,136.749L399,138.762L402,140.675L405,142.479L408,144.167L411,145.73L414,147.158L417,148.442L420,149.569L423,150.531L426,151.317L429,151.917L432,152.326L435,152.538L438,152.554L441,152.375L444,152.007L447,151.462L450,150.754L453,149.9L456,148.92L459,147.838L462,146.679L465,145.467L468,144.228L471,142.986L474,141.763L477,140.578L480,139.446L483,138.38L486,137.387L489,136.468L492,135.621L495,134.838L498,134.108L501,133.416L504,132.743L507,132.072L510,131.383L513,130.658L516,129.884L519,129.05L522,128.152L525,127.19L528,126.172L531,125.113L534,124.034L537,122.962L540,121.928L543,120.967L546,120.115L549,119.406L552,118.872L555,118.541L558,118.433L561,118.561L564,118.929L567,119.533L570,120.362L573,121.396L576,122.612L579,123.984L582,125.483L585,127.083L588,128.758L591,130.487L594,132.256L597,134.055L600,135.878L600,135.878L597,134.055L594,132.257L591,130.488L588,128.758L585,127.083L582,125.484L579,123.985L576,122.614L573,121.399L570,120.366L567,119.54L564,118.939L561,118.575L558,118.453L555,118.569L552,118.911L549,119.46L546,120.188L543,121.067L540,122.062L537,123.139L534,124.267L531,125.416L528,126.562L525,127.689L522,128.784L519,129.843L516,130.869L513,131.872L510,132.863L507,133.862L504,134.888L501,135.961L498,137.102L495,138.328L492,139.653L489,141.087L486,142.633L483,144.292L480,146.055L477,147.911L474,149.844L471,151.834L468,153.857L465,155.887L462,157.899L459,159.866L456,161.761L453,163.561L450,165.244L447,166.792L444,168.189L441,169.424L438,170.491L435,171.386L432,172.11L429,172.669L426,173.069L423,173.321L420,173.436L417,173.428L414,173.311L411,173.098L408,172.802L405,172.435L402,172.008L399,171.531L396,171.014L393,170.466L390,169.896L387,169.313L384,168.727L381,168.15L378,167.591L375,167.064L372,166.579L369,166.146L366,165.774L363,165.469L360,165.234L357,165.071L354,164.976L351,164.944L348,164.969L345,165.041L342,165.151L339,165.287L336,165.44L333,165.598L330,165.753L327,165.894L324,166.013L321,166.101L318,166.152L315,166.158L312,166.111L309,166.006L306,165.836L303,165.594L300,165.275L297,164.871L294,164.376L291,163.785L288,163.09L285,162.286L282,161.368L279,160.331L276,159.171L273,157.885L270,156.474L267,154.938L264,153.28L261,151.506L258,149.626L255,147.648L252,145.589L249,143.463L246,141.29L243,139.089L240,136.881L237,134.689L234,132.532L231,130.431L228,128.404L225,126.465L222,124.627L219,122.899L216,121.287L213,119.794L210,118.421L207,117.168L204,116.031L201,115.009L198,114.1L195,113.3L192,112.611L189,112.032L186,111.564L183,111.211L180,110.974L177,110.858L174,110.865L171,110.998L168,111.258L165,111.644L162,112.153L159,112.78L156,113.518L153,114.358L150,115.286L147,116.29L144,117.352L141,118.456L138,119.582L135,120.71L132,121.818L129,122.883L126,123.882L123,124.791L120,125.583L117,126.235L114,126.721L111,127.017L108,127.101L105,126.954L102,126.56L99,125.91L96,124.998L93,123.827L90,122.404L87,120.746L84,118.873L81,116.814L78,114.599L75,112.261L72,109.834L69,107.352L66,104.845L63,102.341L60,99.863L57,97.427L54,95.045L51,92.722L48,90.455L45,88.236L42,86.052L39,83.883L36,81.705L33,79.49L30,77.208L27,74.832L24,72.335L21,69.697L18,66.908L15,63.967L12,60.885L9,57.686L6,54.406L3,51.085L0,47.771Z" fill="#BBBBBB" opacity="0.7"/></g></g><path class="foreground" aria-hidden="true" d="" display="none"/></g><g transform="translate(0,0)"><path class="background" aria-hidden="true" d="M0,0h600v300h-600Z"/><g><g class="mark-area role-mark marks" role="graphics-object" aria-roledescription="area mark container"><path aria-label="Jaar: 1925; Prevalentie: 2%; Onderwerpen: Sociale Netwerken" role="graphics-symbol" aria-roledescription="area mark" d="M0,295.154L3,294.478L6,293.737L9,292.935L12,292.073L15,291.154L18,290.181L21,289.154L24,288.074L27,286.939L30,285.748L33,284.493L36,283.171L39,281.774L42,280.293L45,278.722L48,277.051L51,275.273L54,273.382L57,271.373L60,269.243L63,266.993L66,264.624L69,262.143L72,259.56L75,256.887L78,254.141L81,251.343L84,248.514L87,245.68L90,242.865L93,240.095L96,237.394L99,234.786L102,232.289L105,229.922L108,227.697L111,225.626L114,223.716L117,221.971L120,220.392L123,218.98L126,217.734L129,216.649L132,215.721L135,214.947L138,214.319L141,213.833L144,213.481L147,213.256L150,213.15L153,213.155L156,213.259L159,213.453L162,213.727L165,214.067L168,214.463L171,214.901L174,215.37L177,215.858L180,216.354L183,216.848L186,217.333L189,217.8L192,218.245L195,218.666L198,219.059L201,219.427L204,219.771L207,220.094L210,220.403L213,220.702L216,220.997L219,221.296L222,221.603L225,221.924L228,222.264L231,222.624L234,223.008L237,223.414L240,223.842L243,224.29L246,224.753L249,225.23L252,225.714L255,226.202L258,226.69L261,227.174L264,227.65L267,228.116L270,228.57L273,229.009L276,229.432L279,229.839L282,230.227L285,230.596L288,230.946L291,231.274L294,231.579L297,231.859L300,232.113L303,232.339L306,232.534L309,232.697L312,232.827L315,232.925L318,232.989L321,233.022L324,233.028L327,233.009L330,232.971L333,232.922L336,232.871L339,232.826L342,232.798L345,232.8L348,232.843L351,232.939L354,233.099L357,233.331L360,233.644L363,234.043L366,234.528L369,235.101L372,235.755L375,236.486L378,237.284L381,238.138L384,239.037L387,239.97L390,240.924L393,241.888L396,242.852L399,243.804L402,244.737L405,245.641L408,246.508L411,247.331L414,248.104L417,248.82L420,249.473L423,250.058L426,250.571L429,251.009L432,251.368L435,251.649L438,251.851L441,251.975L444,252.024L447,252.002L450,251.914L453,251.765L456,251.564L459,251.319L462,251.037L465,250.728L468,250.402L471,250.069L474,249.736L477,249.413L480,249.107L483,248.827L486,248.576L489,248.361L492,248.185L495,248.047L498,247.949L501,247.889L504,247.864L507,247.87L510,247.902L513,247.957L516,248.027L519,248.11L522,248.201L525,248.298L528,248.398L531,248.501L534,248.607L537,248.718L540,248.837L543,248.965L546,249.105L549,249.259L552,249.43L555,249.617L558,249.821L561,250.039L564,250.266L567,250.499L570,250.73L573,250.952L576,251.158L579,251.338L582,251.486L585,251.592L588,251.652L591,251.658L594,251.607L597,251.496L600,251.325L600,273.634L597,273.463L594,273.276L591,273.07L588,272.845L585,272.604L582,272.349L579,272.081L576,271.806L573,271.528L570,271.25L567,270.977L564,270.713L561,270.461L558,270.225L555,270.006L552,269.806L549,269.624L546,269.46L543,269.313L540,269.18L537,269.06L534,268.951L531,268.851L528,268.759L525,268.673L522,268.594L519,268.522L516,268.459L513,268.406L510,268.366L507,268.341L504,268.333L501,268.346L498,268.38L495,268.437L492,268.518L489,268.622L486,268.748L483,268.894L480,269.058L477,269.234L474,269.419L471,269.607L468,269.794L465,269.973L462,270.139L459,270.285L456,270.407L453,270.498L450,270.554L447,270.57L444,270.542L441,270.466L438,270.341L435,270.165L432,269.935L429,269.654L426,269.32L423,268.936L420,268.503L417,268.025L414,267.506L411,266.949L408,266.358L405,265.74L402,265.1L399,264.444L396,263.78L393,263.115L390,262.458L387,261.818L384,261.204L381,260.628L378,260.1L375,259.63L372,259.228L369,258.902L366,258.659L363,258.505L360,258.442L357,258.472L354,258.592L351,258.798L348,259.086L345,259.449L342,259.88L339,260.37L336,260.912L333,261.497L330,262.118L327,262.768L324,263.44L321,264.127L318,264.826L315,265.529L312,266.234L309,266.936L306,267.631L303,268.315L300,268.986L297,269.642L294,270.279L291,270.896L288,271.49L285,272.061L282,272.608L279,273.129L276,273.626L273,274.097L270,274.545L267,274.97L264,275.373L261,275.759L258,276.127L255,276.482L252,276.827L249,277.164L246,277.496L243,277.826L240,278.157L237,278.492L234,278.832L231,279.178L228,279.532L225,279.894L222,280.264L219,280.641L216,281.026L213,281.417L210,281.813L207,282.213L204,282.617L201,283.023L198,283.432L195,283.843L192,284.256L189,284.672L186,285.091L183,285.513L180,285.941L177,286.374L174,286.813L171,287.26L168,287.713L165,288.173L162,288.641L159,289.116L156,289.596L153,290.081L150,290.57L147,291.06L144,291.55L141,292.039L138,292.523L135,293.002L132,293.473L129,293.935L126,294.385L123,294.822L120,295.245L117,295.651L114,296.04L111,296.411L108,296.762L105,297.092L102,297.402L99,297.69L96,297.957L93,298.202L90,298.426L87,298.628L84,298.811L81,298.974L78,299.118L75,299.246L72,299.357L69,299.455L66,299.539L63,299.611L60,299.673L57,299.726L54,299.771L51,299.809L48,299.842L45,299.869L42,299.891L39,299.911L36,299.927L33,299.94L30,299.951L27,299.96L24,299.968L21,299.974L18,299.98L15,299.984L12,299.987L9,299.99L6,299.992L3,299.994L0,299.995Z" fill="#888888" opacity="0.7"/></g></g><path class="foreground" aria-hidden="true" d="" display="none"/></g><g transform="translate(0,0)"><path class="background" aria-hidden="true" d="M0,0h600v300h-600Z"/><g><g class="mark-area role-mark marks" role="graphics-object" aria-roledescription="area mark container"><path aria-label="Jaar: 1925; Prevalentie: 0%; Onderwerpen: Economie" role="graphics-symbol" aria-roledescription="area mark" d="M0,47.756L3,51.066L6,54.381L9,57.654L12,60.844L15,63.914L18,66.842L21,69.615L24,72.232L27,74.705L30,77.052L33,79.299L36,81.473L39,83.603L42,85.714L45,87.829L48,89.966L51,92.138L54,94.349L57,96.6L60,98.883L63,101.184L66,103.484L69,105.756L72,107.97L75,110.092L78,112.087L81,113.919L84,115.551L87,116.953L90,118.095L93,118.957L96,119.524L99,119.787L102,119.747L105,119.409L108,118.786L111,117.894L114,116.756L117,115.393L120,113.831L123,112.095L126,110.209L129,108.198L132,106.082L135,103.883L138,101.621L141,99.313L144,96.976L147,94.625L150,92.274L153,89.938L156,87.627L159,85.356L162,83.134L165,80.973L168,78.882L171,76.871L174,74.948L177,73.119L180,71.389L183,69.763L186,68.244L189,66.832L192,65.528L195,64.329L198,63.234L201,62.237L204,61.333L207,60.517L210,59.781L213,59.119L216,58.524L219,57.988L222,57.504L225,57.068L228,56.672L231,56.312L234,55.984L237,55.685L240,55.412L243,55.163L246,54.936L249,54.731L252,54.546L255,54.378L258,54.227L261,54.089L264,53.961L267,53.841L270,53.724L273,53.605L276,53.48L279,53.344L282,53.193L285,53.021L288,52.826L291,52.603L294,52.352L297,52.07L300,51.757L303,51.416L306,51.046L309,50.652L312,50.236L315,49.803L318,49.356L321,48.901L324,48.44L327,47.978L330,47.519L333,47.065L336,46.618L339,46.181L342,45.754L345,45.337L348,44.933L351,44.539L354,44.157L357,43.788L360,43.431L363,43.09L366,42.765L369,42.461L372,42.182L375,41.931L378,41.713L381,41.534L384,41.398L387,41.31L390,41.273L393,41.291L396,41.366L399,41.501L402,41.697L405,41.957L408,42.28L411,42.669L414,43.124L417,43.648L420,44.24L423,44.904L426,45.639L429,46.447L432,47.328L435,48.281L438,49.306L441,50.398L444,51.555L447,52.77L450,54.036L453,55.343L456,56.682L459,58.039L462,59.402L465,60.757L468,62.088L471,63.381L474,64.622L477,65.797L480,66.893L483,67.902L486,68.814L489,69.623L492,70.328L495,70.928L498,71.426L501,71.828L504,72.143L507,72.381L510,72.553L513,72.672L516,72.75L519,72.801L522,72.836L525,72.863L528,72.893L531,72.932L534,72.984L537,73.054L540,73.143L543,73.252L546,73.384L549,73.539L552,73.719L555,73.928L558,74.171L561,74.453L564,74.786L567,75.18L570,75.649L573,76.208L576,76.875L579,77.668L582,78.606L585,79.709L588,80.996L591,82.488L594,84.202L597,86.156L600,88.366L600,106.539L597,104.385L594,102.5L591,100.871L588,99.479L585,98.304L582,97.324L579,96.519L576,95.865L573,95.34L570,94.922L567,94.593L564,94.335L561,94.13L558,93.968L555,93.839L552,93.735L549,93.653L546,93.591L543,93.55L540,93.532L537,93.538L534,93.571L531,93.631L528,93.719L525,93.832L522,93.966L519,94.115L516,94.27L513,94.421L510,94.555L507,94.66L504,94.723L501,94.73L498,94.671L495,94.535L492,94.314L489,94.005L486,93.603L483,93.111L480,92.533L477,91.874L474,91.145L471,90.356L468,89.521L465,88.655L462,87.772L459,86.889L456,86.021L453,85.183L450,84.39L447,83.654L444,82.987L441,82.397L438,81.892L435,81.478L432,81.157L429,80.93L426,80.797L423,80.757L420,80.805L417,80.938L414,81.15L411,81.437L408,81.793L405,82.212L402,82.687L399,83.212L396,83.78L393,84.382L390,85.009L387,85.651L384,86.296L381,86.933L378,87.547L375,88.127L372,88.661L369,89.136L366,89.543L363,89.877L360,90.132L357,90.308L354,90.406L351,90.43L348,90.385L345,90.278L342,90.117L339,89.909L336,89.661L333,89.38L330,89.07L327,88.736L324,88.381L321,88.006L318,87.614L315,87.204L312,86.779L309,86.337L306,85.881L303,85.411L300,84.93L297,84.441L294,83.948L291,83.456L288,82.97L285,82.497L282,82.044L279,81.617L276,81.224L273,80.871L270,80.563L267,80.306L264,80.103L261,79.956L258,79.866L255,79.835L252,79.859L249,79.937L246,80.067L243,80.244L240,80.465L237,80.727L234,81.027L231,81.363L228,81.734L225,82.142L222,82.587L219,83.072L216,83.602L213,84.182L210,84.817L207,85.514L204,86.278L201,87.113L198,88.026L195,89.02L192,90.096L189,91.255L186,92.497L183,93.818L180,95.215L177,96.682L174,98.212L171,99.798L168,101.428L165,103.096L162,104.788L159,106.497L156,108.211L153,109.92L150,111.614L147,113.282L144,114.915L141,116.502L138,118.032L135,119.493L132,120.873L129,122.157L126,123.33L123,124.376L120,125.274L117,126.008L114,126.555L111,126.898L108,127.016L105,126.894L102,126.519L99,125.881L96,124.979L93,123.813L90,122.395L87,120.74L84,118.87L81,116.812L78,114.597L75,112.26L72,109.833L69,107.351L66,104.845L63,102.341L60,99.863L57,97.427L54,95.045L51,92.722L48,90.455L45,88.236L42,86.052L39,83.883L36,81.705L33,79.49L30,77.208L27,74.832L24,72.335L21,69.697L18,66.908L15,63.967L12,60.885L9,57.686L6,54.406L3,51.085L0,47.771Z" fill="#C8C8C8" opacity="0.7"/></g></g><path class="foreground" aria-hidden="true" d="" display="none"/></g><g transform="translate(0,0)"><path class="background" aria-hidden="true" d="M0,0h600v300h-600Z"/><g><g class="mark-area role-mark marks" role="graphics-object" aria-roledescription="area mark container"><path aria-label="Jaar: 1925; Prevalentie: 3%; Onderwerpen: Religie" role="graphics-symbol" aria-roledescription="area mark" d="M0,287.008L3,285.325L6,283.505L9,281.556L12,279.486L15,277.305L18,275.024L21,272.647L24,270.178L27,267.617L30,264.957L33,262.192L36,259.308L39,256.292L42,253.129L45,249.803L48,246.301L51,242.609L54,238.717L57,234.621L60,230.319L63,225.816L66,221.124L69,216.261L72,211.253L75,206.134L78,200.942L81,195.723L84,190.527L87,185.405L90,180.409L93,175.591L96,170.997L99,166.67L102,162.644L105,158.948L108,155.602L111,152.619L114,150.004L117,147.759L120,145.878L123,144.353L126,143.17L129,142.317L132,141.777L135,141.533L138,141.567L141,141.862L144,142.397L147,143.154L150,144.111L153,145.248L156,146.542L159,147.97L162,149.51L165,151.137L168,152.828L171,154.56L174,156.31L177,158.058L180,159.784L183,161.473L186,163.109L189,164.684L192,166.188L195,167.618L198,168.972L201,170.252L204,171.464L207,172.614L210,173.71L213,174.764L216,175.785L219,176.785L222,177.773L225,178.759L228,179.75L231,180.752L234,181.768L237,182.8L240,183.847L243,184.908L246,185.979L249,187.057L252,188.136L255,189.213L258,190.284L261,191.345L264,192.393L267,193.427L270,194.444L273,195.446L276,196.43L279,197.397L282,198.347L285,199.28L288,200.193L291,201.085L294,201.953L297,202.794L300,203.604L303,204.378L306,205.111L309,205.797L312,206.433L315,207.014L318,207.538L321,208.001L324,208.406L327,208.752L330,209.044L333,209.287L336,209.488L339,209.657L342,209.805L345,209.945L348,210.089L351,210.251L354,210.444L357,210.68L360,210.968L363,211.317L366,211.73L369,212.209L372,212.751L375,213.352L378,214.004L381,214.697L384,215.421L387,216.165L390,216.917L393,217.668L396,218.407L399,219.126L402,219.814L405,220.465L408,221.072L411,221.627L414,222.123L417,222.555L420,222.916L423,223.2L426,223.405L429,223.524L432,223.558L435,223.504L438,223.365L441,223.143L444,222.843L447,222.473L450,222.041L453,221.559L456,221.039L459,220.495L462,219.941L465,219.392L468,218.864L471,218.372L474,217.928L477,217.545L480,217.235L483,217.005L486,216.863L489,216.81L492,216.849L495,216.978L498,217.191L501,217.481L504,217.84L507,218.258L510,218.722L513,219.222L516,219.745L519,220.283L522,220.827L525,221.369L528,221.904L531,222.431L534,222.948L537,223.455L540,223.954L543,224.449L546,224.942L549,225.436L552,225.933L555,226.432L558,226.932L561,227.43L564,227.92L567,228.395L570,228.845L573,229.26L576,229.629L579,229.94L582,230.182L585,230.344L588,230.417L591,230.392L594,230.264L597,230.028L600,229.685L600,251.325L597,251.496L594,251.607L591,251.658L588,251.652L585,251.592L582,251.486L579,251.338L576,251.158L573,250.952L570,250.73L567,250.499L564,250.266L561,250.039L558,249.821L555,249.617L552,249.43L549,249.259L546,249.105L543,248.965L540,248.837L537,248.718L534,248.607L531,248.501L528,248.398L525,248.298L522,248.201L519,248.11L516,248.027L513,247.957L510,247.902L507,247.87L504,247.864L501,247.889L498,247.949L495,248.047L492,248.185L489,248.361L486,248.576L483,248.827L480,249.107L477,249.413L474,249.736L471,250.069L468,250.402L465,250.728L462,251.037L459,251.319L456,251.564L453,251.765L450,251.914L447,252.002L444,252.024L441,251.975L438,251.851L435,251.649L432,251.368L429,251.009L426,250.571L423,250.058L420,249.473L417,248.82L414,248.104L411,247.331L408,246.508L405,245.641L402,244.737L399,243.804L396,242.852L393,241.888L390,240.924L387,239.97L384,239.037L381,238.138L378,237.284L375,236.486L372,235.755L369,235.101L366,234.528L363,234.043L360,233.644L357,233.331L354,233.099L351,232.939L348,232.843L345,232.8L342,232.798L339,232.826L336,232.871L333,232.922L330,232.971L327,233.009L324,233.028L321,233.022L318,232.989L315,232.925L312,232.827L309,232.697L306,232.534L303,232.339L300,232.113L297,231.859L294,231.579L291,231.274L288,230.946L285,230.596L282,230.227L279,229.839L276,229.432L273,229.009L270,228.57L267,228.116L264,227.65L261,227.174L258,226.69L255,226.202L252,225.714L249,225.23L246,224.753L243,224.29L240,223.842L237,223.414L234,223.008L231,222.624L228,222.264L225,221.924L222,221.603L219,221.296L216,220.997L213,220.702L210,220.403L207,220.094L204,219.771L201,219.427L198,219.059L195,218.666L192,218.245L189,217.8L186,217.333L183,216.848L180,216.354L177,215.858L174,215.37L171,214.901L168,214.463L165,214.067L162,213.727L159,213.453L156,213.259L153,213.155L150,213.15L147,213.256L144,213.481L141,213.833L138,214.319L135,214.947L132,215.721L129,216.649L126,217.734L123,218.98L120,220.392L117,221.971L114,223.716L111,225.626L108,227.697L105,229.922L102,232.289L99,234.786L96,237.394L93,240.095L90,242.865L87,245.68L84,248.514L81,251.343L78,254.141L75,256.887L72,259.56L69,262.143L66,264.624L63,266.993L60,269.243L57,271.373L54,273.382L51,275.273L48,277.051L45,278.722L42,280.293L39,281.774L36,283.171L33,284.493L30,285.748L27,286.939L24,288.074L21,289.154L18,290.181L15,291.154L12,292.073L9,292.935L6,293.737L3,294.478L0,295.154Z" fill="#4D4D4D" opacity="0.7"/></g></g><path class="foreground" aria-hidden="true" d="" display="none"/></g><g transform="translate(0,0)"><path class="background" aria-hidden="true" d="M0,0h600v300h-600Z"/><g><g class="mark-area role-mark marks" role="graphics-object" aria-roledescription="area mark container"><path aria-label="Jaar: 1925; Prevalentie: 1%; Onderwerpen: Criminaliteit" role="graphics-symbol" aria-roledescription="area mark" d="M0,0L3,0L6,0L9,0L12,0L15,0L18,0L21,0L24,0L27,0L30,0L33,0L36,0L39,0L42,0L45,0L48,0L51,0L54,0L57,0L60,0L63,0L66,0L69,0L72,0L75,0L78,0L81,0L84,0L87,0L90,0L93,0L96,0L99,0L102,0L105,0L108,0L111,0L114,0L117,0L120,0L123,0L126,0L129,0L132,0L135,0L138,0L141,0L144,0L147,0L150,0L153,0L156,0L159,0L162,0L165,0L168,0L171,0L174,0L177,0L180,0L183,0L186,0L189,0L192,0L195,0L198,0L201,0L204,0L207,0L210,0L213,0L216,0L219,0L222,0L225,0L228,0L231,0L234,0L237,0L240,0L243,0L246,0L249,0L252,0L255,0L258,0L261,0L264,0L267,0L270,0L273,0L276,0L279,0L282,0L285,0L288,0L291,0L294,0L297,0L300,0L303,0L306,0L309,0L312,0L315,0L318,0L321,0L324,0L327,0L330,0L333,0L336,0L339,0L342,0L345,0L348,0L351,0L354,0L357,0L360,0L363,0L366,0L369,0L372,0L375,0L378,0L381,0L384,0L387,0L390,0L393,0L396,0L399,0L402,0L405,0L408,0L411,0L414,0L417,0L420,0L423,0L426,0L429,0L432,0L435,0L438,0L441,0L444,0L447,0L450,0L453,0L456,0L459,0L462,0L465,0L468,0L471,0L474,0L477,0L480,0L483,0L486,0L489,0L492,0L495,0L498,0L501,0L504,0L507,0L510,0L513,0L516,0L519,0L522,0L525,0L528,0L531,0L534,0L537,0L540,0L543,0L546,0L549,0L552,0L555,0L558,0L561,0L564,0L567,0L570,0L573,0L576,0L579,0L582,0L585,0L588,0L591,0L594,0L597,0L600,0L600,46.052L597,45.073L594,44.206L591,43.446L588,42.786L585,42.217L582,41.73L579,41.317L576,40.968L573,40.672L570,40.422L567,40.208L564,40.023L561,39.858L558,39.709L555,39.571L552,39.439L549,39.311L546,39.187L543,39.063L540,38.941L537,38.819L534,38.697L531,38.573L528,38.446L525,38.314L522,38.173L519,38.018L516,37.846L513,37.649L510,37.424L507,37.162L504,36.86L501,36.513L498,36.115L495,35.665L492,35.161L489,34.603L486,33.994L483,33.335L480,32.633L477,31.892L474,31.121L471,30.325L468,29.515L465,28.697L462,27.88L459,27.073L456,26.283L453,25.517L450,24.781L447,24.081L444,23.422L441,22.806L438,22.238L435,21.719L432,21.25L429,20.833L426,20.468L423,20.155L420,19.894L417,19.685L414,19.526L411,19.419L408,19.361L405,19.352L402,19.392L399,19.48L396,19.615L393,19.795L390,20.018L387,20.282L384,20.585L381,20.923L378,21.292L375,21.689L372,22.107L369,22.544L366,22.994L363,23.453L360,23.917L357,24.383L354,24.846L351,25.305L348,25.758L345,26.203L342,26.637L339,27.061L336,27.473L333,27.87L330,28.252L327,28.616L324,28.961L321,29.283L318,29.582L315,29.853L312,30.095L309,30.306L306,30.482L303,30.624L300,30.729L297,30.797L294,30.828L291,30.823L288,30.784L285,30.712L282,30.611L279,30.483L276,30.332L273,30.161L270,29.973L267,29.772L264,29.561L261,29.342L258,29.119L255,28.891L252,28.662L249,28.433L246,28.204L243,27.975L240,27.749L237,27.525L234,27.305L231,27.089L228,26.879L225,26.676L222,26.482L219,26.299L216,26.129L213,25.974L210,25.837L207,25.718L204,25.62L201,25.543L198,25.489L195,25.457L192,25.447L189,25.459L186,25.49L183,25.539L180,25.603L177,25.679L174,25.763L171,25.852L168,25.942L165,26.028L162,26.106L159,26.173L156,26.223L153,26.253L150,26.26L147,26.239L144,26.188L141,26.103L138,25.981L135,25.82L132,25.618L129,25.371L126,25.077L123,24.735L120,24.343L117,23.9L114,23.405L111,22.858L108,22.261L105,21.614L102,20.92L99,20.184L96,19.41L93,18.605L90,17.775L87,16.928L84,16.071L81,15.213L78,14.361L75,13.522L72,12.703L69,11.91L66,11.145L63,10.414L60,9.717L57,9.057L54,8.432L51,7.843L48,7.289L45,6.766L42,6.274L39,5.809L36,5.369L33,4.953L30,4.557L27,4.18L24,3.82L21,3.478L18,3.151L15,2.841L12,2.548L9,2.273L6,2.016L3,1.779L0,1.562Z" fill="#DDDDDD" opacity="0.7"/></g></g><path class="foreground" aria-hidden="true" d="" display="none"/></g><g transform="translate(0,0)"><path class="background" aria-hidden="true" d="M0,0h600v300h-600Z"/><g><g class="mark-area role-mark marks" role="graphics-object" aria-roledescription="area mark container"><path aria-label="Jaar: 1925; Prevalentie: 0%; Onderwerpen: Stratificatie" role="graphics-symbol" aria-roledescription="area mark" d="M0,299.995L3,299.994L6,299.992L9,299.99L12,299.987L15,299.984L18,299.98L21,299.974L24,299.968L27,299.96L30,299.951L33,299.94L36,299.927L39,299.911L42,299.891L45,299.869L48,299.842L51,299.809L54,299.771L57,299.726L60,299.673L63,299.611L66,299.539L69,299.455L72,299.357L75,299.246L78,299.118L81,298.974L84,298.811L87,298.628L90,298.426L93,298.202L96,297.957L99,297.69L102,297.402L105,297.092L108,296.762L111,296.411L114,296.04L117,295.651L120,295.245L123,294.822L126,294.385L129,293.935L132,293.473L135,293.002L138,292.523L141,292.039L144,291.55L147,291.06L150,290.57L153,290.081L156,289.596L159,289.116L162,288.641L165,288.173L168,287.713L171,287.26L174,286.813L177,286.374L180,285.941L183,285.513L186,285.091L189,284.672L192,284.256L195,283.843L198,283.432L201,283.023L204,282.617L207,282.213L210,281.813L213,281.417L216,281.026L219,280.641L222,280.264L225,279.894L228,279.532L231,279.178L234,278.832L237,278.492L240,278.157L243,277.826L246,277.496L249,277.164L252,276.827L255,276.482L258,276.127L261,275.759L264,275.373L267,274.97L270,274.545L273,274.097L276,273.626L279,273.129L282,272.608L285,272.061L288,271.49L291,270.896L294,270.279L297,269.642L300,268.986L303,268.315L306,267.631L309,266.936L312,266.234L315,265.529L318,264.826L321,264.127L324,263.44L327,262.768L330,262.118L333,261.497L336,260.912L339,260.37L342,259.88L345,259.449L348,259.086L351,258.798L354,258.592L357,258.472L360,258.442L363,258.505L366,258.659L369,258.902L372,259.228L375,259.63L378,260.1L381,260.628L384,261.204L387,261.818L390,262.458L393,263.115L396,263.78L399,264.444L402,265.1L405,265.74L408,266.358L411,266.949L414,267.506L417,268.025L420,268.503L423,268.936L426,269.32L429,269.654L432,269.935L435,270.165L438,270.341L441,270.466L444,270.542L447,270.57L450,270.554L453,270.498L456,270.407L459,270.285L462,270.139L465,269.973L468,269.794L471,269.607L474,269.419L477,269.234L480,269.058L483,268.894L486,268.748L489,268.622L492,268.518L495,268.437L498,268.38L501,268.346L504,268.333L507,268.341L510,268.366L513,268.406L516,268.459L519,268.522L522,268.594L525,268.673L528,268.759L531,268.851L534,268.951L537,269.06L540,269.18L543,269.313L546,269.46L549,269.624L552,269.806L555,270.006L558,270.225L561,270.461L564,270.713L567,270.977L570,271.25L573,271.528L576,271.806L579,272.081L582,272.349L585,272.604L588,272.845L591,273.07L594,273.276L597,273.463L600,273.634L600,300L597,300L594,300L591,300L588,300L585,300L582,300L579,300L576,300L573,300L570,300L567,300L564,300L561,300L558,300L555,300L552,300L549,300L546,300L543,300L540,300L537,300L534,300L531,300L528,300L525,300L522,300L519,300L516,300L513,300L510,300L507,300L504,300L501,300L498,300L495,300L492,300L489,300L486,300L483,300L480,300L477,300L474,300L471,300L468,300L465,300L462,300L459,300L456,300L453,300L450,300L447,300L444,300L441,300L438,300L435,300L432,300L429,300L426,300L423,300L420,300L417,300L414,300L411,300L408,300L405,300L402,300L399,300L396,300L393,300L390,300L387,300L384,300L381,300L378,300L375,300L372,300L369,300L366,300L363,300L360,300L357,300L354,300L351,300L348,300L345,300L342,300L339,300L336,300L333,300L330,300L327,300L324,300L321,300L318,300L315,300L312,300L309,300L306,300L303,300L300,300L297,300L294,300L291,300L288,300L285,300L282,300L279,300L276,300L273,300L270,300L267,300L264,300L261,300L258,300L255,300L252,300L249,300L246,300L243,300L240,300L237,300L234,300L231,300L228,300L225,300L222,300L219,300L216,300L213,300L210,300L207,300L204,300L201,300L198,300L195,300L192,300L189,300L186,300L183,300L180,300L177,300L174,300L171,300L168,300L165,300L162,300L159,300L156,300L153,300L150,300L147,300L144,300L141,300L138,300L135,300L132,300L129,300L126,300L123,300L120,300L117,300L114,300L111,300L108,300L105,300L102,300L99,300L96,300L93,300L90,300L87,300L84,300L81,300L78,300L75,300L72,300L69,300L66,300L63,300L60,300L57,300L54,300L51,300L48,300L45,300L42,300L39,300L36,300L33,300L30,300L27,300L24,300L21,300L18,300L15,300L12,300L9,300L6,300L3,300L0,300Z" fill="#707070" opacity="0.7"/></g></g><path class="foreground" aria-hidden="true" d="" display="none"/></g></g><g class="mark-group role-legend" role="graphics-symbol" aria-roledescription="legend" aria-label="Symbol legend titled 'Onderwerpen' for fill color with 10 values: Criminaliteit, Cultuur, Economie, Familie, Methoden, ending with Stratificatie"><g transform="translate(0,351)"><path class="background" aria-hidden="true" d="M0,0h456v40h-456Z" pointer-events="none"/><g><g class="mark-group role-legend-entry"><g transform="translate(0,16)"><path class="background" aria-hidden="true" d="M0,0h0v0h0Z" pointer-events="none"/><g><g class="mark-group role-scope" role="graphics-object" aria-roledescription="group mark container"><g transform="translate(0,0)"><path class="background" aria-hidden="true" d="M0,0h119.33447265625v11h-119.33447265625Z" pointer-events="none" opacity="1"/><g><g class="mark-symbol role-legend-symbol" pointer-events="none"><path transform="translate(6,6)" d="M5,0A5,5,0,1,1,-5,0A5,5,0,1,1,5,0" fill="#DDDDDD" stroke-width="1.5" opacity="0.7"/></g><g class="mark-text role-legend-label" pointer-events="none"><text text-anchor="start" transform="translate(16,9)" font-family="sans-serif" font-size="11px" fill="#000" opacity="1">Criminaliteit</text></g></g><path class="foreground" aria-hidden="true" d="" pointer-events="none" display="none"/></g><g transform="translate(130,0)"><path class="background" aria-hidden="true" d="M0,0h51.4599609375v11h-51.4599609375Z" pointer-events="none" opacity="1"/><g><g class="mark-symbol role-legend-symbol" pointer-events="none"><path transform="translate(6,6)" d="M5,0A5,5,0,1,1,-5,0A5,5,0,1,1,5,0" fill="#111111" stroke-width="1.5" opacity="0.7"/></g><g class="mark-text role-legend-label" pointer-events="none"><text text-anchor="start" transform="translate(16,9)" font-family="sans-serif" font-size="11px" fill="#000" opacity="1">Cultuur</text></g></g><path class="foreground" aria-hidden="true" d="" pointer-events="none" display="none"/></g><g transform="translate(192,0)"><path class="background" aria-hidden="true" d="M0,0h64.91455078125v11h-64.91455078125Z" pointer-events="none" opacity="1"/><g><g class="mark-symbol role-legend-symbol" pointer-events="none"><path transform="translate(6,6)" d="M5,0A5,5,0,1,1,-5,0A5,5,0,1,1,5,0" fill="#C8C8C8" stroke-width="1.5" opacity="0.7"/></g><g class="mark-text role-legend-label" pointer-events="none"><text text-anchor="start" transform="translate(16,9)" font-family="sans-serif" font-size="11px" fill="#000" opacity="1">Economie</text></g></g><path class="foreground" aria-hidden="true" d="" pointer-events="none" display="none"/></g><g transform="translate(267,0)"><path class="background" aria-hidden="true" d="M0,0h107.71142578125v11h-107.71142578125Z" pointer-events="none" opacity="1"/><g><g class="mark-symbol role-legend-symbol" pointer-events="none"><path transform="translate(6,6)" d="M5,0A5,5,0,1,1,-5,0A5,5,0,1,1,5,0" fill="#222222" stroke-width="1.5" opacity="0.7"/></g><g class="mark-text role-legend-label" pointer-events="none"><text text-anchor="start" transform="translate(16,9)" font-family="sans-serif" font-size="11px" fill="#000" opacity="1">Familie</text></g></g><path class="foreground" aria-hidden="true" d="" pointer-events="none" display="none"/></g><g transform="translate(385,0)"><path class="background" aria-hidden="true" d="M0,0h70.4091796875v11h-70.4091796875Z" pointer-events="none" opacity="1"/><g><g class="mark-symbol role-legend-symbol" pointer-events="none"><path transform="translate(6,6)" d="M5,0A5,5,0,1,1,-5,0A5,5,0,1,1,5,0" fill="#BBBBBB" stroke-width="1.5" opacity="0.7"/></g><g class="mark-text role-legend-label" pointer-events="none"><text text-anchor="start" transform="translate(16,9)" font-family="sans-serif" font-size="11px" fill="#000" opacity="1">Methoden</text></g></g><path class="foreground" aria-hidden="true" d="" pointer-events="none" display="none"/></g><g transform="translate(0,13)"><path class="background" aria-hidden="true" d="M0,0h119.33447265625v11h-119.33447265625Z" pointer-events="none" opacity="1"/><g><g class="mark-symbol role-legend-symbol" pointer-events="none"><path transform="translate(6,6)" d="M5,0A5,5,0,1,1,-5,0A5,5,0,1,1,5,0" fill="#333333" stroke-width="1.5" opacity="0.7"/></g><g class="mark-text role-legend-label" pointer-events="none"><text text-anchor="start" transform="translate(16,9)" font-family="sans-serif" font-size="11px" fill="#000" opacity="1">Migratie en Integratie</text></g></g><path class="foreground" aria-hidden="true" d="" pointer-events="none" display="none"/></g><g transform="translate(130,13)"><path class="background" aria-hidden="true" d="M0,0h51.4599609375v11h-51.4599609375Z" pointer-events="none" opacity="1"/><g><g class="mark-symbol role-legend-symbol" pointer-events="none"><path transform="translate(6,6)" d="M5,0A5,5,0,1,1,-5,0A5,5,0,1,1,5,0" fill="#A0A0A0" stroke-width="1.5" opacity="0.7"/></g><g class="mark-text role-legend-label" pointer-events="none"><text text-anchor="start" transform="translate(16,9)" font-family="sans-serif" font-size="11px" fill="#000" opacity="1">Overig</text></g></g><path class="foreground" aria-hidden="true" d="" pointer-events="none" display="none"/></g><g transform="translate(192,13)"><path class="background" aria-hidden="true" d="M0,0h64.91455078125v11h-64.91455078125Z" pointer-events="none" opacity="1"/><g><g class="mark-symbol role-legend-symbol" pointer-events="none"><path transform="translate(6,6)" d="M5,0A5,5,0,1,1,-5,0A5,5,0,1,1,5,0" fill="#4D4D4D" stroke-width="1.5" opacity="0.7"/></g><g class="mark-text role-legend-label" pointer-events="none"><text text-anchor="start" transform="translate(16,9)" font-family="sans-serif" font-size="11px" fill="#000" opacity="1">Religie</text></g></g><path class="foreground" aria-hidden="true" d="" pointer-events="none" display="none"/></g><g transform="translate(267,13)"><path class="background" aria-hidden="true" d="M0,0h107.71142578125v11h-107.71142578125Z" pointer-events="none" opacity="1"/><g><g class="mark-symbol role-legend-symbol" pointer-events="none"><path transform="translate(6,6)" d="M5,0A5,5,0,1,1,-5,0A5,5,0,1,1,5,0" fill="#888888" stroke-width="1.5" opacity="0.7"/></g><g class="mark-text role-legend-label" pointer-events="none"><text text-anchor="start" transform="translate(16,9)" font-family="sans-serif" font-size="11px" fill="#000" opacity="1">Sociale Netwerken</text></g></g><path class="foreground" aria-hidden="true" d="" pointer-events="none" display="none"/></g><g transform="translate(385,13)"><path class="background" aria-hidden="true" d="M0,0h70.4091796875v11h-70.4091796875Z" pointer-events="none" opacity="1"/><g><g class="mark-symbol role-legend-symbol" pointer-events="none"><path transform="translate(6,6)" d="M5,0A5,5,0,1,1,-5,0A5,5,0,1,1,5,0" fill="#707070" stroke-width="1.5" opacity="0.7"/></g><g class="mark-text role-legend-label" pointer-events="none"><text text-anchor="start" transform="translate(16,9)" font-family="sans-serif" font-size="11px" fill="#000" opacity="1">Stratificatie</text></g></g><path class="foreground" aria-hidden="true" d="" pointer-events="none" display="none"/></g></g></g><path class="foreground" aria-hidden="true" d="" pointer-events="none" display="none"/></g></g><g class="mark-text role-legend-title" pointer-events="none"><text text-anchor="start" transform="translate(0,9)" font-family="sans-serif" font-size="11px" font-weight="bold" fill="#000" opacity="1">Onderwerpen</text></g></g><path class="foreground" aria-hidden="true" d="" pointer-events="none" display="none"/></g></g></g><path class="foreground" aria-hidden="true" d="" display="none"/></g></g></g></svg>