<svg xmlns="http://www.w3.org/2000/svg" xmlns:xlink="http://www.w3.org/1999/xlink" version="1.1" class="marks" width="662" height="407" viewBox="0 0 662 407"><rect width="662" height="407" fill="white"/><g fill="none" stroke-miterlimit="10" transform="translate(56,11)"><g class="mark-group role-frame root" role="graphics-object" aria-roledescription="group mark container"><g transform="translate(0,0)"><path class="background" aria-hidden="true" d="M0.5,0.5h600v300h-600Z" stroke="#ddd"/><g><g class="mark-group role-axis" aria-hidden="true"><g transform="translate(0.5,300.5)"><path class="background" aria-hidden="true" d="M0,0h0v0h0Z" pointer-events="none"/><g><g class="mark-rule role-axis-grid" pointer-events="none"><line transform="translate(0,-300)" x2="0" y2="300" stroke="#ddd" stroke-width="1" opacity="1"/><line transform="translate(30,-300)" x2="0" y2="300" stroke="#ddd" stroke-width="1" opacity="1"/><line transform="translate(60,-300)" x2="0" y2="300" stroke="#ddd" stroke-width="1" opacity="1"/><line transform="translate(90,-300)" x2="0" y2="300" stroke="#ddd" stroke-width="1" opacity="1"/><line transform="translate(120,-300)" x2="0" y2="300" stroke="#ddd" stroke-width="1" opacity="1"/><line transform="translate(150,-300)" x2="0" y2="300" stroke="#ddd" stroke-width="1" opacity="1"/><line transform="translate(180,-300)" x2="0" y2="300" stroke="#ddd" stroke-width="1" opacity="1"/><line transform="translate(210,-300)" x2="0" y2="300" stroke="#ddd" stroke-width="1" opacity="1"/><line transform="translate(240,-300)" x2="0" y2="300" stroke="#ddd" stroke-width="1" opacity="1"/><line transform="translate(270,-300)" x2="0" y2="300" stroke="#ddd" stroke-width="1" opacity="1"/><line transform="translate(300,-300)" x2="0" y2="300" stroke="#ddd" stroke-width="1" opacity="1"/><line transform="translate(330,-300)" x2="0" y2="300" stroke="#ddd" stroke-width="1" opacity="1"/><line transform="translate(360,-300)" x2="0" y2="300" stroke="#ddd" stroke-width="1" opacity="1"/><line transform="translate(390,-300)" x2="0" y2="300" stroke="#ddd" stroke-width="1" opacity="1"/><line transform="translate(420,-300)" x2="0" y2="300" stroke="#ddd" stroke-width="1" opacity="1"/><line transform="translate(450,-300)" x2="0" y2="300" stroke="#ddd" stroke-width="1" opacity="1"/><line transform="translate(480,-300)" x2="0" y2="300" stroke="#ddd" stroke-width="1" opacity="1"/><line transform="translate(510,-300)" x2="0" y2="300" stroke="#ddd" stroke-width="1" opacity="1"/><line transform="translate(540,-300)" x2="0" y2="300" stroke="#ddd" stroke-width="1" opacity="1"/><line transform="translate(570,-300)" x2="0" y2="300" stroke="#ddd" stroke-width="1" opacity="1"/><line transform="translate(600,-300)" x2="0" y2="300" stroke="#ddd" stroke-width="1" opacity="1"/></g></g><path class="foreground" aria-hidden="true" d="" pointer-events="none" display="none"/></g></g><g class="mark-group role-axis" aria-hidden="true"><g transform="translate(0.5,0.5)"><path class="background" aria-hidden="true" d="M0,0h0v0h0Z" pointer-events="none"/><g><g class="mark-rule role-axis-grid" pointer-events="none"><line transform="translate(0,300)" x2="600" y2="0" stroke="#ddd" stroke-width="1" opacity="1"/><line transform="translate(0,270)" x2="600" y2="0" stroke="#ddd" stroke-width="1" opacity="1"/><line transform="translate(0,240)" x2="600" y2="0" stroke="#ddd" stroke-width="1" opacity="1"/><line transform="translate(0,210)" x2="600" y2="0" stroke="#ddd" stroke-width="1" opacity="1"/><line transform="translate(0,180)" x2="600" y2="0" stroke="#ddd" stroke-width="1" opacity="1"/><line transform="translate(0,150)" x2="600" y2="0" stroke="#ddd" stroke-width="1" opacity="1"/><line transform="translate(0,120)" x2="600" y2="0" stroke="#ddd" stroke-width="1" opacity="1"/><line transform="translate(0,90)" x2="600" y2="0" stroke="#ddd" stroke-width="1" opacity="1"/><line transform="translate(0,60)" x2="600" y2="0" stroke="#ddd" stroke-width="1" opacity="1"/><line transform="translate(0,30)" x2="600" y2="0" stroke="#ddd" stroke-width="1" opacity="1"/><line transform="translate(0,0)" x2="600" y2="0" stroke="#ddd" stroke-width="1" opacity="1"/></g></g><path class="foreground" aria-hidden="true" d="" pointer-events="none" display="none"/></g></g><g class="mark-group role-axis" role="graphics-symbol" aria-roledescription="axis" aria-label="X-axis titled 'Jaar' for a linear scale with values from 1925 to 2025"><g transform="translate(0.5,300.5)"><path class="background" aria-hidden="true" d="M0,0h0v0h0Z" pointer-events="none"/><g><g class="mark-rule role-axis-tick" pointer-events="none"><line transform="translate(0,0)" x2="0" y2="5" stroke="#888" stroke-width="1" opacity="1"/><line transform="translate(30,0)" x2="0" y2="5" stroke="#888" stroke-width="1" opacity="1"/><line transform="translate(60,0)" x2="0" y2="5" stroke="#888" stroke-width="1" opacity="1"/><line transform="translate(90,0)" x2="0" y2="5" stroke="#888" stroke-width="1" opacity="1"/><line transform="translate(120,0)" x2="0" y2="5" stroke="#888" stroke-width="1" opacity="1"/><line transform="translate(150,0)" x2="0" y2="5" stroke="#888" stroke-width="1" opacity="1"/><line transform="translate(180,0)" x2="0" y2="5" stroke="#888" stroke-width="1" opacity="1"/><line transform="translate(210,0)" x2="0" y2="5" stroke="#888" stroke-width="1" opacity="1"/><line transform="translate(240,0)" x2="0" y2="5" stroke="#888" stroke-width="1" opacity="1"/><line transform="translate(270,0)" x2="0" y2="5" stroke="#888" stroke-width="1" opacity="1"/><line transform="translate(300,0)" x2="0" y2="5" stroke="#888" stroke-width="1" opacity="1"/><line transform="translate(330,0)" x2="0" y2="5" stroke="#888" stroke-width="1" opacity="1"/><line transform="translate(360,0)" x2="0" y2="5" stroke="#888" stroke-width="1" opacity="1"/><line transform="translate(390,0)" x2="0" y2="5" stroke="#888" stroke-width="1" opacity="1"/><line transform="translate(420,0)" x2="0" y2="5" stroke="#888" stroke-width="1" opacity="1"/><line transform="translate(450,0)" x2="0" y2="5" stroke="#888" stroke-width="1" opacity="1"/><line transform="translate(480,0)" x2="0" y2="5" stroke="#888" stroke-width="1" opacity="1"/><line transform="translate(510,0)" x2="0" y2="5" stroke="#888" stroke-width="1" opacity="1"/><line transform="translate(540,0)" x2="0" y2="5" stroke="#888" stroke-width="1" opacity="1"/><line transform="translate(570,0)" x2="0" y2="5" stroke="#888" stroke-width="1" opacity="1"/><line transform="translate(600,0)" x2="0" y2="5" stroke="#888" stroke-width="1" opacity="1"/></g><g class="mark-text role-axis-label" pointer-events="none"><text text-anchor="start" transform="translate(0,16)" font-family="sans-serif" font-size="11px" fill="#000" opacity="1">1925</text><text text-anchor="middle" transform="translate(30,16)" font-family="sans-serif" font-size="11px" fill="#000" opacity="0">1930</text><text text-anchor="middle" transform="translate(60,16)" font-family="sans-serif" font-size="11px" fill="#000" opacity="1">1935</text><text text-anchor="middle" transform="translate(90,16)" font-family="sans-serif" font-size="11px" fill="#000" opacity="0">1940</text><text text-anchor="middle" transform="translate(120,16)" font-family="sans-serif" font-size="11px" fill="#000" opacity="1">1945</text><text text-anchor="middle" transform="translate(150,16)" font-family="sans-serif" font-size="11px" fill="#000" opacity="0">1950</text><text text-anchor="middle" transform="translate(180,16)" font-family="sans-serif" font-size="11px" fill="#000" opacity="1">1955</text><text text-anchor="middle" transform="translate(210,16)" font-family="sans-serif" font-size="11px" fill="#000" opacity="0">1960</text><text text-anchor="middle" transform="translate(240,16)" font-family="sans-serif" font-size="11px" fill="#000" opacity="1">1965</text><text text-anchor="middle" transform="translate(270,16)" font-family="sans-serif" font-size="11px" fill="#000" opacity="0">1970</text><text text-anchor="middle" transform="translate(300,16)" font-family="sans-serif" font-size="11px" fill="#000" opacity="1">1975</text><text text-anchor="middle" transform="translate(330,16)" font-family="sans-serif" font-size="11px" fill="#000" opacity="0">1980</text><text text-anchor="middle" transform="translate(360,16)" font-family="sans-serif" font-size="11px" fill="#000" opacity="1">1985</text><text text-anchor="middle" transform="translate(390,16)" font-family="sans-serif" font-size="11px" fill="#000" opacity="0">1990</text><text text-anchor="middle" transform="translate(420,16)" font-family="sans-serif" font-size="11px" fill="#000" opacity="1">1995</text><text text-anchor="middle" transform="translate(450,16)" font-family="sans-serif" font-size="11px" fill="#000" opacity="0">2000</text><text text-anchor="middle" transform="translate(480,16)" font-family="sans-serif" font-size="11px" fill="#000" opacity="1">2005</text><text text-anchor="middle" transform="translate(510,16)" font-family="sans-serif" font-size="11px" fill="#000" opacity="0">2010</text><text text-anchor="middle" transform="translate(540,16)" font-family="sans-serif" font-size="11px" fill="#000" opacity="1">2015</text><text text-anchor="middle" transform="translate(570,16)" font-family="sans-serif" font-size="11px" fill="#000" opacity="0">2020</text><text text-anchor="end" transform="translate(600,16)" font-family="sans-serif" font-size="11px" fill="#000" opacity="1">2025</text></g><g class="mark-rule role-axis-domain" pointer-events="none"><line transform="translate(0,0)" x2="600" y2="0" stroke="#888" stroke-width="1" opacity="1"/></g><g class="mark-text role-axis-title" pointer-events="none"><text text-anchor="middle" transform="translate(300,31)" font-family="sans-serif" font-size="11px" font-weight="bold" fill="#000" opacity="1">Jaar</text></g></g><path class="foreground" aria-hidden="true" d="" pointer-events="none" display="none"/></g></g><g class="mark-group role-axis" role="graphics-symbol" aria-roledescription="axis" aria-label="Y-axis titled 'Prevalentie' for a linear scale with values from 0% to 100%"><g transform="translate(0.5,0.5)"><path class="background" aria-hidden="true" d="M0,0h0v0h0Z" pointer-events="none"/><g><g class="mark-rule role-axis-tick" pointer-events="none"><line transform="translate(0,300)" x2="-5" y2="0" stroke="#888" stroke-width="1" opacity="1"/><line transform="translate(0,270)" x2="-5" y2="0" stroke="#888" stroke-width="1" opacity="1"/><line transform="translate(0,240)" x2="-5" y2="0" stroke="#888" stroke-width="1" opacity="1"/><line transform="translate(0,210)" x2="-5" y2="0" stroke="#888" stroke-width="1" opacity="1"/><line transform="translate(0,180)" x2="-5" y2="0" stroke="#888" stroke-width="1" opacity="1"/><line transform="translate(0,150)" x2="-5" y2="0" stroke="#888" stroke-width="1" opacity="1"/><line transform="translate(0,120)" x2="-5" y2="0" stroke="#888" stroke-width="1" opacity="1"/><line transform="translate(0,90)" x2="-5" y2="0" stroke="#888" stroke-width="1" opacity="1"/><line transform="translate(0,60)" x2="-5" y2="0" stroke="#888" stroke-width="1" opacity="1"/><line transform="translate(0,30)" x2="-5" y2="0" stroke="#888" stroke-width="1" opacity="1"/><line transform="translate(0,0)" x2="-5" y2="0" stroke="#888" stroke-width="1" opacity="1"/></g><g class="mark-text role-axis-label" pointer-events="none"><text text-anchor="end" transform="translate(-7,303)" font-family="sans-serif" font-size="11px" fill="#000" opacity="1">0%</text><text text-anchor="end" transform="translate(-7,273)" font-family="sans-serif" font-size="11px" fill="#000" opacity="1">10%</text><text text-anchor="end" transform="translate(-7,243)" font-family="sans-serif" font-size="11px" fill="#000" opacity="1">20%</text><text text-anchor="end" transform="translate(-7,213)" font-family="sans-serif" font-size="11px" fill="#000" opacity="1">30%</text><text text-anchor="end" transform="translate(-7,183)" font-family="sans-serif" font-size="11px" fill="#000" opacity="1">40%</text><text text-anchor="end" transform="translate(-7,153)" font-family="sans-serif" font-size="11px" fill="#000" opacity="1">50%</text><text text-anchor="end" transform="translate(-7,123)" font-family="sans-serif" font-size="11px" fill="#000" opacity="1">60%</text><text text-anchor="end" transform="translate(-7,93.00000000000001)" font-family="sans-serif" font-size="11px" fill="#000" opacity="1">70%</text><text text-anchor="end" transform="translate(-7,62.999999999999986)" font-family="sans-serif" font-size="11px" fill="#000" opacity="1">80%</text><text text-anchor="end" transform="translate(-7,32.99999999999999)" font-family="sans-serif" font-size="11px" fill="#000" opacity="1">90%</text><text text-anchor="end" transform="translate(-7,3)" font-family="sans-serif" font-size="11px" fill="#000" opacity="1">100%</text></g><g class="mark-rule role-axis-domain" pointer-events="none"><line transform="translate(0,300)" x2="0" y2="-300" stroke="#888" stroke-width="1" opacity="1"/></g><g class="mark-text role-axis-title" pointer-events="none"><text text-anchor="middle" transform="translate(-39.1337890625,150) rotate(-90) translate(0,-2)" font-family="sans-serif" font-size="11px" font-weight="bold" fill="#000" opacity="1">Prevalentie</text></g></g><path class="foreground" aria-hidden="true" d="" pointer-events="none" display="none"/></g></g><g class="mark-group role-scope pathgroup" role="graphics-object" aria-roledescription="group mark container"><g transform="translate(0,0)"><path class="background" aria-hidden="true" d="M0,0h600v300h-600Z"/><g><g class="mark-area role-mark marks" role="graphics-object" aria-roledescription="area mark container"><path aria-label="Jaar: 1925; Prevalentie: 82%; Onderwerpen: Overig" role="graphics-symbol" aria-roledescription="area mark" d="M0,45.44L3,48.939L6,52.494L9,56.055L12,59.574L15,63.009L18,66.332L21,69.526L24,72.587L27,75.527L30,78.367L33,81.139L36,83.877L39,86.618L42,89.4L45,92.257L48,95.218L51,98.308L54,101.543L57,104.935L60,108.486L63,112.189L66,116.031L69,119.988L72,124.03L75,128.118L78,132.207L81,136.248L84,140.189L87,143.976L90,147.56L93,150.896L96,153.944L99,156.675L102,159.069L105,161.116L108,162.816L111,164.18L114,165.223L117,165.97L120,166.448L123,166.688L126,166.721L129,166.58L132,166.297L135,165.903L138,165.425L141,164.89L144,164.324L147,163.747L150,163.18L153,162.639L156,162.138L159,161.687L162,161.295L165,160.966L168,160.7L171,160.497L174,160.35L177,160.255L180,160.201L183,160.179L186,160.179L189,160.192L192,160.209L195,160.224L198,160.234L201,160.238L204,160.239L207,160.242L210,160.257L213,160.295L216,160.371L219,160.501L222,160.7L225,160.983L228,161.364L231,161.854L234,162.459L237,163.182L240,164.021L243,164.971L246,166.021L249,167.158L252,168.367L255,169.631L258,170.934L261,172.26L264,173.593L267,174.919L270,176.226L273,177.501L276,178.733L279,179.91L282,181.02L285,182.049L288,182.986L291,183.814L294,184.52L297,185.09L300,185.512L303,185.775L306,185.871L309,185.795L312,185.546L315,185.127L318,184.543L321,183.803L324,182.919L327,181.907L330,180.784L333,179.569L336,178.283L339,176.948L342,175.588L345,174.227L348,172.89L351,171.604L354,170.393L357,169.284L360,168.3L363,167.464L366,166.797L369,166.315L372,166.031L375,165.952L378,166.08L381,166.41L384,166.932L387,167.631L390,168.485L393,169.47L396,170.558L399,171.721L402,172.929L405,174.153L408,175.369L411,176.552L414,177.681L417,178.741L420,179.718L423,180.601L426,181.386L429,182.067L432,182.645L435,183.122L438,183.501L441,183.788L444,183.989L447,184.114L450,184.171L453,184.169L456,184.12L459,184.033L462,183.921L465,183.794L468,183.664L471,183.54L474,183.433L477,183.354L480,183.309L483,183.306L486,183.35L489,183.444L492,183.588L495,183.781L498,184.019L501,184.297L504,184.607L507,184.94L510,185.287L513,185.641L516,185.994L519,186.338L522,186.67L525,186.987L528,187.291L531,187.582L534,187.868L537,188.153L540,188.447L543,188.76L546,189.099L549,189.475L552,189.895L555,190.365L558,190.889L561,191.468L564,192.101L567,192.783L570,193.51L573,194.273L576,195.063L579,195.87L582,196.687L585,197.504L588,198.315L591,199.114L594,199.899L597,200.669L600,201.426L600,226.634L597,226.102L594,225.5L591,224.831L588,224.093L585,223.293L582,222.436L579,221.53L576,220.583L573,219.608L570,218.614L567,217.613L564,216.616L561,215.632L558,214.67L555,213.737L552,212.837L549,211.972L546,211.143L543,210.35L540,209.588L537,208.856L534,208.149L531,207.464L528,206.799L525,206.153L522,205.526L519,204.922L516,204.343L513,203.797L510,203.291L507,202.835L504,202.438L501,202.109L498,201.858L495,201.692L492,201.619L489,201.641L486,201.759L483,201.973L480,202.278L477,202.667L474,203.13L471,203.657L468,204.234L465,204.846L462,205.478L459,206.115L456,206.739L453,207.335L450,207.886L447,208.378L444,208.796L441,209.128L438,209.361L435,209.485L432,209.494L429,209.38L426,209.14L423,208.774L420,208.283L417,207.674L414,206.954L411,206.136L408,205.236L405,204.272L402,203.268L399,202.247L396,201.239L393,200.271L390,199.372L387,198.57L384,197.893L381,197.361L378,196.996L375,196.809L372,196.812L369,197.005L366,197.389L363,197.955L360,198.693L357,199.588L354,200.622L351,201.777L348,203.031L345,204.364L342,205.754L339,207.179L336,208.62L333,210.057L330,211.47L327,212.842L324,214.157L321,215.402L318,216.564L315,217.632L312,218.6L309,219.463L306,220.218L303,220.865L300,221.407L297,221.847L294,222.191L291,222.447L288,222.621L285,222.719L282,222.75L279,222.717L276,222.627L273,222.485L270,222.293L267,222.057L264,221.779L261,221.465L258,221.119L255,220.747L252,220.356L249,219.951L246,219.539L243,219.125L240,218.714L237,218.307L234,217.906L231,217.506L228,217.105L225,216.695L222,216.267L219,215.81L216,215.314L213,214.766L210,214.156L207,213.472L204,212.706L201,211.852L198,210.904L195,209.861L192,208.722L189,207.493L186,206.179L183,204.789L180,203.335L177,201.831L174,200.292L171,198.737L168,197.183L165,195.649L162,194.156L159,192.722L156,191.368L153,190.112L150,188.972L147,187.968L144,187.117L141,186.437L138,185.946L135,185.662L132,185.603L129,185.786L126,186.23L123,186.95L120,187.962L117,189.278L114,190.909L111,192.858L108,195.126L105,197.707L102,200.586L99,203.742L96,207.146L93,210.765L90,214.555L87,218.474L84,222.474L81,226.508L78,230.532L75,234.503L72,238.386L69,242.151L66,245.774L63,249.239L60,252.533L57,255.653L54,258.599L51,261.375L48,263.989L45,266.452L42,268.777L39,270.977L36,273.066L33,275.056L30,276.959L27,278.784L24,280.538L21,282.225L18,283.845L15,285.395L12,286.871L9,288.264L6,289.569L3,290.778L0,291.887Z" fill="#A0A0A0" opacity="0.7"/></g></g><path class="foreground" aria-hidden="true" d="" display="none"/></g><g transform="translate(0,0)"><path class="background" aria-hidden="true" d="M0,0h600v300h-600Z"/><g><g class="mark-area role-mark marks" role="graphics-object" aria-roledescription="area mark container"><path aria-label="Jaar: 1925; Prevalentie: 0%; Onderwerpen: Migratie en Integratie" role="graphics-symbol" aria-roledescription="area mark" d="M0,45.44L3,48.939L6,52.494L9,56.055L12,59.573L15,63.009L18,66.332L21,69.525L24,72.585L27,75.525L30,78.364L33,81.135L36,83.871L39,86.61L42,89.389L45,92.241L48,95.196L51,98.277L54,101.502L57,104.88L60,108.412L63,112.091L66,115.9L69,119.817L72,123.806L75,127.827L78,131.832L81,135.768L84,139.579L87,143.209L90,146.601L93,149.707L96,152.483L99,154.896L102,156.92L105,158.542L108,159.76L111,160.581L114,161.02L117,161.1L120,160.849L123,160.3L126,159.487L129,158.448L132,157.22L135,155.841L138,154.347L141,152.774L144,151.158L147,149.532L150,147.927L153,146.371L156,144.891L159,143.508L162,142.24L165,141.102L168,140.103L171,139.246L174,138.533L177,137.959L180,137.517L183,137.198L186,136.99L189,136.883L192,136.865L195,136.928L198,137.063L201,137.269L204,137.543L207,137.888L210,138.312L213,138.822L216,139.431L219,140.149L222,140.989L225,141.962L228,143.077L231,144.337L234,145.743L237,147.29L240,148.968L243,150.763L246,152.655L249,154.624L252,156.645L255,158.694L258,160.748L261,162.782L264,164.777L267,166.714L270,168.575L273,170.347L276,172.014L279,173.564L282,174.985L285,176.264L288,177.39L291,178.35L294,179.134L297,179.73L300,180.131L303,180.33L306,180.324L309,180.113L312,179.7L315,179.091L318,178.298L321,177.332L324,176.211L327,174.952L330,173.575L333,172.102L336,170.557L339,168.963L342,167.345L345,165.729L348,164.139L351,162.603L354,161.145L357,159.79L360,158.563L363,157.485L366,156.576L369,155.85L372,155.32L375,154.99L378,154.861L381,154.926L384,155.173L387,155.583L390,156.132L393,156.791L396,157.53L399,158.314L402,159.11L405,159.885L408,160.608L411,161.25L414,161.786L417,162.193L420,162.454L423,162.554L426,162.483L429,162.234L432,161.804L435,161.193L438,160.403L441,159.439L444,158.311L447,157.028L450,155.605L453,154.055L456,152.397L459,150.648L462,148.828L465,146.959L468,145.063L471,143.161L474,141.276L477,139.427L480,137.633L483,135.912L486,134.276L489,132.736L492,131.296L495,129.958L498,128.72L501,127.574L504,126.511L507,125.52L510,124.587L513,123.699L516,122.845L519,122.015L522,121.204L525,120.41L528,119.636L531,118.889L534,118.181L537,117.528L540,116.948L543,116.463L546,116.092L549,115.858L552,115.779L555,115.87L558,116.141L561,116.598L564,117.242L567,118.067L570,119.063L573,120.216L576,121.511L579,122.927L582,124.448L585,126.056L588,127.736L591,129.475L594,131.266L597,133.104L600,134.991L600,201.426L597,200.669L594,199.899L591,199.114L588,198.315L585,197.504L582,196.687L579,195.87L576,195.063L573,194.273L570,193.51L567,192.783L564,192.101L561,191.468L558,190.889L555,190.365L552,189.895L549,189.475L546,189.099L543,188.76L540,188.447L537,188.153L534,187.868L531,187.582L528,187.291L525,186.987L522,186.67L519,186.338L516,185.994L513,185.641L510,185.287L507,184.94L504,184.607L501,184.297L498,184.019L495,183.781L492,183.588L489,183.444L486,183.35L483,183.306L480,183.309L477,183.354L474,183.433L471,183.54L468,183.664L465,183.794L462,183.921L459,184.033L456,184.12L453,184.169L450,184.171L447,184.114L444,183.989L441,183.788L438,183.501L435,183.122L432,182.645L429,182.067L426,181.386L423,180.601L420,179.718L417,178.741L414,177.681L411,176.552L408,175.369L405,174.153L402,172.929L399,171.721L396,170.558L393,169.47L390,168.485L387,167.631L384,166.932L381,166.41L378,166.08L375,165.952L372,166.031L369,166.315L366,166.797L363,167.464L360,168.3L357,169.284L354,170.393L351,171.604L348,172.89L345,174.227L342,175.588L339,176.948L336,178.283L333,179.569L330,180.784L327,181.907L324,182.919L321,183.803L318,184.543L315,185.127L312,185.546L309,185.795L306,185.871L303,185.775L300,185.512L297,185.09L294,184.52L291,183.814L288,182.986L285,182.049L282,181.02L279,179.91L276,178.733L273,177.501L270,176.226L267,174.919L264,173.593L261,172.26L258,170.934L255,169.631L252,168.367L249,167.158L246,166.021L243,164.971L240,164.021L237,163.182L234,162.459L231,161.854L228,161.364L225,160.983L222,160.7L219,160.501L216,160.371L213,160.295L210,160.257L207,160.242L204,160.239L201,160.238L198,160.234L195,160.224L192,160.209L189,160.192L186,160.179L183,160.179L180,160.201L177,160.255L174,160.35L171,160.497L168,160.7L165,160.966L162,161.295L159,161.687L156,162.138L153,162.639L150,163.18L147,163.747L144,164.324L141,164.89L138,165.425L135,165.903L132,166.297L129,166.58L126,166.721L123,166.688L120,166.448L117,165.97L114,165.223L111,164.18L108,162.816L105,161.116L102,159.069L99,156.675L96,153.944L93,150.896L90,147.56L87,143.976L84,140.189L81,136.248L78,132.207L75,128.118L72,124.03L69,119.988L66,116.031L63,112.189L60,108.486L57,104.935L54,101.543L51,98.308L48,95.218L45,92.257L42,89.4L39,86.618L36,83.877L33,81.139L30,78.367L27,75.527L24,72.587L21,69.526L18,66.332L15,63.009L12,59.574L9,56.055L6,52.494L3,48.939L0,45.44Z" fill="#333333" opacity="0.7"/></g></g><path class="foreground" aria-hidden="true" d="" display="none"/></g><g transform="translate(0,0)"><path class="background" aria-hidden="true" d="M0,0h600v300h-600Z"/><g><g class="mark-area role-mark marks" role="graphics-object" aria-roledescription="area mark container"><path aria-label="Jaar: 1925; Prevalentie: 0%; Onderwerpen: Familie" role="graphics-symbol" aria-roledescription="area mark" d="M0,45.44L3,48.939L6,52.494L9,56.055L12,59.573L15,63.009L18,66.332L21,69.525L24,72.585L27,75.525L30,78.364L33,81.135L36,83.871L39,86.61L42,89.389L45,92.241L48,95.196L51,98.277L54,101.502L57,104.88L60,108.412L63,112.091L66,115.9L69,119.817L72,123.806L75,127.827L78,131.832L81,135.768L84,139.578L87,143.206L90,146.598L93,149.701L96,152.474L99,154.881L102,156.896L105,158.507L108,159.707L111,160.501L114,160.903L117,160.93L120,160.607L123,159.96L126,159.016L129,157.804L132,156.352L135,154.685L138,152.829L141,150.807L144,148.641L147,146.353L150,143.963L153,141.491L156,138.957L159,136.381L162,133.783L165,131.185L168,128.606L171,126.069L174,123.593L177,121.198L180,118.903L183,116.725L186,114.678L189,112.774L192,111.024L195,109.432L198,108.002L201,106.735L204,105.626L207,104.67L210,103.858L213,103.179L216,102.619L219,102.163L222,101.795L225,101.501L228,101.263L231,101.067L234,100.9L237,100.749L240,100.606L243,100.46L246,100.307L249,100.14L252,99.954L255,99.745L258,99.507L261,99.235L264,98.923L267,98.562L270,98.147L273,97.67L276,97.125L279,96.51L282,95.822L285,95.066L288,94.245L291,93.371L294,92.453L297,91.508L300,90.55L303,89.596L306,88.659L309,87.753L312,86.891L315,86.082L318,85.332L321,84.645L324,84.026L327,83.472L330,82.984L333,82.557L336,82.189L339,81.872L342,81.602L345,81.37L348,81.169L351,80.99L354,80.823L357,80.66L360,80.49L363,80.305L366,80.095L369,79.855L372,79.578L375,79.262L378,78.905L381,78.509L384,78.08L387,77.624L390,77.151L393,76.673L396,76.202L399,75.752L402,75.337L405,74.971L408,74.664L411,74.429L414,74.275L417,74.209L420,74.236L423,74.36L426,74.582L429,74.9L432,75.313L435,75.815L438,76.4L441,77.061L444,77.788L447,78.571L450,79.399L453,80.258L456,81.137L459,82.023L462,82.902L465,83.761L468,84.589L471,85.372L474,86.101L477,86.767L480,87.363L483,87.881L486,88.321L489,88.681L492,88.962L495,89.17L498,89.31L501,89.392L504,89.425L507,89.421L510,89.392L513,89.348L516,89.301L519,89.262L522,89.237L525,89.235L528,89.26L531,89.314L534,89.401L537,89.518L540,89.667L543,89.844L546,90.05L549,90.282L552,90.541L555,90.83L558,91.152L561,91.512L564,91.921L567,92.389L570,92.929L573,93.557L576,94.289L579,95.144L582,96.14L585,97.297L588,98.633L591,100.168L594,101.919L597,103.902L600,106.132L600,134.991L597,133.104L594,131.266L591,129.475L588,127.736L585,126.056L582,124.448L579,122.927L576,121.51L573,120.216L570,119.062L567,118.066L564,117.24L561,116.595L558,116.136L555,115.862L552,115.768L549,115.841L546,116.067L543,116.424L540,116.891L537,117.446L534,118.063L531,118.722L528,119.403L525,120.09L522,120.77L519,121.434L516,122.078L513,122.702L510,123.308L507,123.902L504,124.491L501,125.086L498,125.698L495,126.335L492,127.01L489,127.73L486,128.502L483,129.331L480,130.218L477,131.162L474,132.157L471,133.195L468,134.262L465,135.342L462,136.417L459,137.465L456,138.463L453,139.386L450,140.213L447,140.921L444,141.49L441,141.903L438,142.147L435,142.211L432,142.088L429,141.773L426,141.266L423,140.566L420,139.676L417,138.597L414,137.333L411,135.889L408,134.269L405,132.478L402,130.525L399,128.42L396,126.175L393,123.809L390,121.341L387,118.799L384,116.21L381,113.607L378,111.024L375,108.494L372,106.052L369,103.726L366,101.544L363,99.526L360,97.69L357,96.047L354,94.604L351,93.362L348,92.322L345,91.478L342,90.827L339,90.362L336,90.076L333,89.962L330,90.014L327,90.223L324,90.584L321,91.089L318,91.728L315,92.491L312,93.365L309,94.337L306,95.389L303,96.502L300,97.654L297,98.823L294,99.987L291,101.124L288,102.214L285,103.241L282,104.192L279,105.062L276,105.847L273,106.551L270,107.181L267,107.746L264,108.259L261,108.733L258,109.181L255,109.614L252,110.043L249,110.476L246,110.918L243,111.375L240,111.85L237,112.342L234,112.855L231,113.388L228,113.943L225,114.52L222,115.123L219,115.752L216,116.413L213,117.109L210,117.844L207,118.624L204,119.454L201,120.339L198,121.286L195,122.3L192,123.385L189,124.546L186,125.788L183,127.111L180,128.519L177,130.012L174,131.588L171,133.244L168,134.975L165,136.775L162,138.634L159,140.54L156,142.481L153,144.441L150,146.402L147,148.345L144,150.246L141,152.084L138,153.832L135,155.463L132,156.947L129,158.253L126,159.35L123,160.205L120,160.785L117,161.057L114,160.992L111,160.563L108,159.749L105,158.535L102,156.915L99,154.893L96,152.482L93,149.706L90,146.601L87,143.208L84,139.579L81,135.768L78,131.832L75,127.827L72,123.806L69,119.817L66,115.9L63,112.091L60,108.412L57,104.88L54,101.502L51,98.277L48,95.196L45,92.241L42,89.389L39,86.61L36,83.871L33,81.135L30,78.364L27,75.525L24,72.585L21,69.525L18,66.332L15,63.009L12,59.573L9,56.055L6,52.494L3,48.939L0,45.44Z" fill="#222222" opacity="0.7"/></g></g><path class="foreground" aria-hidden="true" d="" display="none"/></g><g transform="translate(0,0)"><path class="background" aria-hidden="true" d="M0,0h600v300h-600Z"/><g><g class="mark-area role-mark marks" role="graphics-object" aria-roledescription="area mark container"><path aria-label="Jaar: 1925; Prevalentie: 15%; Onderwerpen: Cultuur" role="graphics-symbol" aria-roledescription="area mark" d="M0,1.417L3,1.628L6,1.862L9,2.117L12,2.394L15,2.691L18,3.008L21,3.343L24,3.698L27,4.072L30,4.467L33,4.883L36,5.325L39,5.794L42,6.294L45,6.828L48,7.4L51,8.013L54,8.671L57,9.376L60,10.13L63,10.936L66,11.793L69,12.699L72,13.653L75,14.65L78,15.685L81,16.75L84,17.836L87,18.933L90,20.03L93,21.117L96,22.181L99,23.212L102,24.201L105,25.138L108,26.017L111,26.832L114,27.58L117,28.258L120,28.865L123,29.403L126,29.87L129,30.271L132,30.607L135,30.88L138,31.094L141,31.252L144,31.358L147,31.415L150,31.426L153,31.397L156,31.331L159,31.233L162,31.108L165,30.962L168,30.801L171,30.629L174,30.454L177,30.281L180,30.117L183,29.967L186,29.836L189,29.73L192,29.653L195,29.607L198,29.596L201,29.621L204,29.683L207,29.782L210,29.916L213,30.084L216,30.283L219,30.508L222,30.757L225,31.023L228,31.304L231,31.593L234,31.886L237,32.178L240,32.467L243,32.747L246,33.016L249,33.27L252,33.507L255,33.723L258,33.915L261,34.08L264,34.214L267,34.314L270,34.374L273,34.391L276,34.361L279,34.284L282,34.156L285,33.978L288,33.751L291,33.479L294,33.165L297,32.814L300,32.434L303,32.029L306,31.605L309,31.169L312,30.724L315,30.276L318,29.827L321,29.381L324,28.938L327,28.5L330,28.067L333,27.64L336,27.218L339,26.801L342,26.388L345,25.98L348,25.575L351,25.172L354,24.772L357,24.374L360,23.978L363,23.583L366,23.191L369,22.802L372,22.419L375,22.042L378,21.675L381,21.32L384,20.982L387,20.664L390,20.37L393,20.105L396,19.872L399,19.677L402,19.522L405,19.412L408,19.349L411,19.336L414,19.375L417,19.468L420,19.616L423,19.819L426,20.077L429,20.389L432,20.756L435,21.174L438,21.643L441,22.158L444,22.717L447,23.315L450,23.948L453,24.611L456,25.297L459,26.002L462,26.717L465,27.437L468,28.155L471,28.862L474,29.553L477,30.222L480,30.861L483,31.466L486,32.032L489,32.557L492,33.039L495,33.476L498,33.869L501,34.219L504,34.53L507,34.805L510,35.048L513,35.264L516,35.456L519,35.629L522,35.788L525,35.935L528,36.074L531,36.206L534,36.333L537,36.457L540,36.578L543,36.696L546,36.812L549,36.927L552,37.041L555,37.157L558,37.276L561,37.403L564,37.542L567,37.697L570,37.875L573,38.083L576,38.327L579,38.615L582,38.956L585,39.357L588,39.825L591,40.367L594,40.991L597,41.701L600,42.504L600,84.147L597,82.245L594,80.562L591,79.083L588,77.794L585,76.679L582,75.722L579,74.907L576,74.216L573,73.634L570,73.145L567,72.734L564,72.388L561,72.095L558,71.843L555,71.626L552,71.435L549,71.267L546,71.117L543,70.983L540,70.865L537,70.76L534,70.667L531,70.586L528,70.514L525,70.447L522,70.381L519,70.31L516,70.226L513,70.12L510,69.983L507,69.804L504,69.574L501,69.281L498,68.917L495,68.473L492,67.943L489,67.323L486,66.611L483,65.807L480,64.915L477,63.94L474,62.888L471,61.769L468,60.594L465,59.373L462,58.119L459,56.844L456,55.562L453,54.283L450,53.021L447,51.787L444,50.591L441,49.443L438,48.351L435,47.323L432,46.364L429,45.48L426,44.673L423,43.946L420,43.3L417,42.734L414,42.248L411,41.84L408,41.505L405,41.239L402,41.038L399,40.896L396,40.807L393,40.765L390,40.764L387,40.799L384,40.863L381,40.953L378,41.065L375,41.196L372,41.345L369,41.512L366,41.695L363,41.897L360,42.119L357,42.363L354,42.632L351,42.927L348,43.253L345,43.61L342,44.001L339,44.429L336,44.895L333,45.401L330,45.947L327,46.535L324,47.165L321,47.836L318,48.546L315,49.294L312,50.076L309,50.887L306,51.721L303,52.569L300,53.423L297,54.273L294,55.109L291,55.921L288,56.7L285,57.437L282,58.126L279,58.764L276,59.349L273,59.882L270,60.364L267,60.8L264,61.194L261,61.552L258,61.879L255,62.18L252,62.46L249,62.724L246,62.975L243,63.22L240,63.461L237,63.706L234,63.961L231,64.234L228,64.534L225,64.872L222,65.258L219,65.705L216,66.225L213,66.83L210,67.531L207,68.341L204,69.268L201,70.321L198,71.508L195,72.833L192,74.3L189,75.91L186,77.662L183,79.552L180,81.577L177,83.729L174,86L171,88.379L168,90.856L165,93.416L162,96.048L159,98.737L156,101.468L153,104.226L150,106.995L147,109.759L144,112.5L141,115.2L138,117.838L135,120.392L132,122.838L129,125.151L126,127.301L123,129.258L120,130.99L117,132.465L114,133.65L111,134.515L108,135.033L105,135.181L102,134.943L99,134.313L96,133.293L93,131.894L90,130.14L87,128.063L84,125.701L81,123.102L78,120.313L75,117.388L72,114.374L69,111.318L66,108.261L63,105.239L60,102.278L57,99.398L54,96.611L51,93.92L48,91.319L45,88.798L42,86.336L39,83.909L36,81.487L33,79.037L30,76.525L27,73.919L24,71.189L21,68.317L18,65.294L15,62.122L12,58.82L9,55.419L6,51.962L3,48.496L0,45.073Z" fill="#111111" opacity="0.7"/></g></g><path class="foreground" aria-hidden="true" d="" display="none"/></g><g transform="translate(0,0)"><path class="background" aria-hidden="true" d="M0,0h600v300h-600Z"/><g><g class="mark-area role-mark marks" role="graphics-object" aria-roledescription="area mark container"><path aria-label="Jaar: 1925; Prevalentie: 0%; Onderwerpen: Methoden" role="graphics-symbol" aria-roledescription="area mark" d="M0,45.44L3,48.939L6,52.494L9,56.055L12,59.573L15,63.009L18,66.332L21,69.525L24,72.585L27,75.525L30,78.364L33,81.135L36,83.871L39,86.61L42,89.389L45,92.241L48,95.196L51,98.277L54,101.502L57,104.88L60,108.412L63,112.091L66,115.9L69,119.817L72,123.806L75,127.827L78,131.832L81,135.768L84,139.579L87,143.208L90,146.601L93,149.706L96,152.482L99,154.893L102,156.915L105,158.535L108,159.749L111,160.563L114,160.992L117,161.057L120,160.785L123,160.205L126,159.35L129,158.253L132,156.947L135,155.463L138,153.832L141,152.084L144,150.246L147,148.345L150,146.402L153,144.441L156,142.481L159,140.54L162,138.634L165,136.775L168,134.975L171,133.244L174,131.588L177,130.012L180,128.519L183,127.111L186,125.788L189,124.546L192,123.385L195,122.3L198,121.286L201,120.339L204,119.454L207,118.624L210,117.844L213,117.109L216,116.413L219,115.752L222,115.123L225,114.52L228,113.943L231,113.388L234,112.855L237,112.342L240,111.85L243,111.375L246,110.918L249,110.476L252,110.043L255,109.614L258,109.181L261,108.733L264,108.259L267,107.746L270,107.181L273,106.551L276,105.847L279,105.062L282,104.192L285,103.241L288,102.214L291,101.124L294,99.987L297,98.823L300,97.654L303,96.502L306,95.389L309,94.337L312,93.365L315,92.491L318,91.728L321,91.089L324,90.584L327,90.223L330,90.014L333,89.962L336,90.076L339,90.362L342,90.827L345,91.478L348,92.322L351,93.362L354,94.604L357,96.047L360,97.69L363,99.526L366,101.544L369,103.726L372,106.052L375,108.494L378,111.024L381,113.607L384,116.21L387,118.799L390,121.341L393,123.809L396,126.175L399,128.42L402,130.525L405,132.478L408,134.269L411,135.889L414,137.333L417,138.597L420,139.676L423,140.566L426,141.266L429,141.773L432,142.088L435,142.211L438,142.147L441,141.903L444,141.49L447,140.921L450,140.213L453,139.386L456,138.463L459,137.465L462,136.417L465,135.342L468,134.262L471,133.195L474,132.157L477,131.162L480,130.218L483,129.331L486,128.502L489,127.73L492,127.01L495,126.335L498,125.698L501,125.086L504,124.491L507,123.902L510,123.308L513,122.702L516,122.078L519,121.434L522,120.77L525,120.09L528,119.403L531,118.722L534,118.063L537,117.446L540,116.891L543,116.424L546,116.067L549,115.841L552,115.768L555,115.862L558,116.136L561,116.595L564,117.24L567,118.066L570,119.062L573,120.216L576,121.51L579,122.927L582,124.448L585,126.056L588,127.736L591,129.475L594,131.266L597,133.104L600,134.991L600,134.991L597,133.104L594,131.266L591,129.475L588,127.736L585,126.056L582,124.448L579,122.927L576,121.511L573,120.216L570,119.063L567,118.067L564,117.242L561,116.598L558,116.141L555,115.87L552,115.779L549,115.858L546,116.092L543,116.463L540,116.948L537,117.528L534,118.181L531,118.889L528,119.636L525,120.41L522,121.204L519,122.015L516,122.845L513,123.699L510,124.587L507,125.52L504,126.511L501,127.574L498,128.72L495,129.958L492,131.296L489,132.736L486,134.276L483,135.912L480,137.633L477,139.427L474,141.276L471,143.161L468,145.063L465,146.959L462,148.828L459,150.648L456,152.397L453,154.055L450,155.605L447,157.028L444,158.311L441,159.439L438,160.403L435,161.193L432,161.804L429,162.234L426,162.483L423,162.554L420,162.454L417,162.193L414,161.786L411,161.25L408,160.608L405,159.885L402,159.11L399,158.314L396,157.53L393,156.791L390,156.132L387,155.583L384,155.173L381,154.926L378,154.861L375,154.99L372,155.32L369,155.85L366,156.576L363,157.485L360,158.563L357,159.79L354,161.145L351,162.603L348,164.139L345,165.729L342,167.345L339,168.963L336,170.557L333,172.102L330,173.575L327,174.952L324,176.211L321,177.332L318,178.298L315,179.091L312,179.7L309,180.113L306,180.324L303,180.33L300,180.131L297,179.73L294,179.134L291,178.35L288,177.39L285,176.264L282,174.985L279,173.564L276,172.014L273,170.347L270,168.575L267,166.714L264,164.777L261,162.782L258,160.748L255,158.694L252,156.645L249,154.624L246,152.655L243,150.763L240,148.968L237,147.29L234,145.743L231,144.337L228,143.077L225,141.962L222,140.989L219,140.149L216,139.431L213,138.822L210,138.312L207,137.888L204,137.543L201,137.269L198,137.063L195,136.928L192,136.865L189,136.883L186,136.99L183,137.198L180,137.517L177,137.959L174,138.533L171,139.246L168,140.103L165,141.102L162,142.24L159,143.508L156,144.891L153,146.371L150,147.927L147,149.532L144,151.158L141,152.774L138,154.347L135,155.841L132,157.22L129,158.448L126,159.487L123,160.3L120,160.849L117,161.1L114,161.02L111,160.581L108,159.76L105,158.542L102,156.92L99,154.896L96,152.483L93,149.707L90,146.601L87,143.209L84,139.579L81,135.768L78,131.832L75,127.827L72,123.806L69,119.817L66,115.9L63,112.091L60,108.412L57,104.88L54,101.502L51,98.277L48,95.196L45,92.241L42,89.389L39,86.61L36,83.871L33,81.135L30,78.364L27,75.525L24,72.585L21,69.525L18,66.332L15,63.009L12,59.573L9,56.055L6,52.494L3,48.939L0,45.44Z" fill="#BBBBBB" opacity="0.7"/></g></g><path class="foreground" aria-hidden="true" d="" display="none"/></g><g transform="translate(0,0)"><path class="background" aria-hidden="true" d="M0,0h600v300h-600Z"/><g><g class="mark-area role-mark marks" role="graphics-object" aria-roledescription="area mark container"><path aria-label="Jaar: 1925; Prevalentie: 0%; Onderwerpen: Sociale Netwerken" role="graphics-symbol" aria-roledescription="area mark" d="M0,299.183L3,299.041L6,298.88L9,298.7L12,298.501L15,298.283L18,298.045L21,297.788L24,297.51L27,297.212L30,296.892L33,296.549L36,296.18L39,295.783L42,295.355L45,294.893L48,294.394L51,293.854L54,293.271L57,292.641L60,291.962L63,291.233L66,290.453L69,289.621L72,288.74L75,287.813L78,286.845L81,285.84L84,284.807L87,283.755L90,282.693L93,281.63L96,280.577L99,279.544L102,278.54L105,277.572L108,276.648L111,275.771L114,274.947L117,274.177L120,273.462L123,272.803L126,272.198L129,271.647L132,271.148L135,270.698L138,270.295L141,269.937L144,269.621L147,269.346L150,269.109L153,268.906L156,268.736L159,268.594L162,268.478L165,268.385L168,268.309L171,268.248L174,268.195L177,268.148L180,268.1L183,268.048L186,267.986L189,267.912L192,267.822L195,267.713L198,267.583L201,267.431L204,267.256L207,267.059L210,266.842L213,266.606L216,266.354L219,266.089L222,265.813L225,265.53L228,265.241L231,264.948L234,264.652L237,264.352L240,264.046L243,263.73L246,263.401L249,263.053L252,262.679L255,262.273L258,261.828L261,261.338L264,260.797L267,260.199L270,259.54L273,258.817L276,258.026L279,257.167L282,256.237L285,255.237L288,254.167L291,253.025L294,251.812L297,250.528L300,249.175L303,247.752L306,246.263L309,244.71L312,243.097L315,241.43L318,239.717L321,237.966L324,236.189L327,234.398L330,232.607L333,230.831L336,229.088L339,227.394L342,225.769L345,224.231L348,222.799L351,221.493L354,220.332L357,219.332L360,218.511L363,217.882L366,217.455L369,217.239L372,217.236L375,217.445L378,217.859L381,218.466L384,219.251L387,220.191L390,221.264L393,222.442L396,223.699L399,225.005L402,226.333L405,227.658L408,228.955L411,230.205L414,231.389L417,232.493L420,233.505L423,234.417L426,235.222L429,235.918L432,236.504L435,236.98L438,237.349L441,237.615L444,237.783L447,237.861L450,237.856L453,237.775L456,237.63L459,237.428L462,237.181L465,236.899L468,236.592L471,236.273L474,235.95L477,235.633L480,235.333L483,235.058L486,234.813L489,234.606L492,234.439L495,234.316L498,234.236L501,234.199L504,234.203L507,234.246L510,234.323L513,234.43L516,234.565L519,234.725L522,234.907L525,235.11L528,235.336L531,235.584L534,235.858L537,236.16L540,236.494L543,236.864L546,237.273L549,237.724L552,238.218L555,238.757L558,239.338L561,239.958L564,240.615L567,241.3L570,242.009L573,242.732L576,243.463L579,244.193L582,244.914L585,245.62L588,246.306L591,246.968L594,247.602L597,248.209L600,248.789L600,276.137L597,275.804L594,275.462L591,275.111L588,274.751L585,274.384L582,274.01L579,273.632L576,273.253L573,272.876L570,272.505L567,272.142L564,271.792L561,271.458L558,271.142L555,270.845L552,270.57L549,270.316L546,270.083L543,269.87L540,269.676L537,269.499L534,269.337L531,269.189L528,269.054L525,268.93L522,268.816L519,268.714L516,268.624L513,268.548L510,268.486L507,268.443L504,268.418L501,268.416L498,268.438L495,268.485L492,268.557L489,268.656L486,268.78L483,268.927L480,269.094L477,269.278L474,269.475L471,269.679L468,269.885L465,270.088L462,270.281L459,270.458L456,270.614L453,270.742L450,270.837L447,270.893L444,270.905L441,270.868L438,270.779L435,270.634L432,270.428L429,270.161L426,269.83L423,269.436L420,268.977L417,268.456L414,267.876L411,267.24L408,266.556L405,265.83L402,265.072L399,264.292L396,263.503L393,262.719L390,261.952L387,261.219L384,260.533L381,259.909L378,259.357L375,258.891L372,258.517L369,258.242L366,258.071L363,258.005L360,258.044L357,258.184L354,258.421L351,258.749L348,259.161L345,259.649L342,260.204L339,260.816L336,261.477L333,262.176L330,262.904L327,263.652L324,264.41L321,265.171L318,265.928L315,266.672L312,267.4L309,268.105L306,268.785L303,269.437L300,270.059L297,270.651L294,271.211L291,271.741L288,272.242L285,272.714L282,273.159L279,273.578L276,273.974L273,274.347L270,274.702L267,275.039L264,275.364L261,275.678L258,275.986L255,276.292L252,276.6L249,276.915L246,277.241L243,277.581L240,277.937L237,278.313L234,278.709L231,279.125L228,279.56L225,280.014L222,280.484L219,280.968L216,281.464L213,281.968L210,282.479L207,282.995L204,283.514L201,284.034L198,284.556L195,285.079L192,285.602L189,286.127L186,286.653L183,287.182L180,287.713L177,288.246L174,288.782L171,289.321L168,289.861L165,290.401L162,290.941L159,291.478L156,292.01L153,292.536L150,293.053L147,293.559L144,294.051L141,294.528L138,294.988L135,295.429L132,295.85L129,296.25L126,296.627L123,296.981L120,297.312L117,297.619L114,297.902L111,298.162L108,298.399L105,298.614L102,298.807L99,298.98L96,299.133L93,299.267L90,299.385L87,299.486L84,299.574L81,299.648L78,299.711L75,299.764L72,299.808L69,299.844L66,299.875L63,299.899L60,299.919L57,299.936L54,299.949L51,299.959L48,299.968L45,299.975L42,299.98L39,299.984L36,299.988L33,299.991L30,299.993L27,299.994L24,299.996L21,299.997L18,299.998L15,299.998L12,299.999L9,299.999L6,299.999L3,299.999L0,300Z" fill="#888888" opacity="0.7"/></g></g><path class="foreground" aria-hidden="true" d="" display="none"/></g><g transform="translate(0,0)"><path class="background" aria-hidden="true" d="M0,0h600v300h-600Z"/><g><g class="mark-area role-mark marks" role="graphics-object" aria-roledescription="area mark container"><path aria-label="Jaar: 1925; Prevalentie: 0%; Onderwerpen: Economie" role="graphics-symbol" aria-roledescription="area mark" d="M0,45.073L3,48.496L6,51.962L9,55.419L12,58.82L15,62.122L18,65.294L21,68.317L24,71.189L27,73.919L30,76.525L33,79.037L36,81.487L39,83.909L42,86.336L45,88.798L48,91.319L51,93.92L54,96.611L57,99.398L60,102.278L63,105.239L66,108.261L69,111.318L72,114.374L75,117.388L78,120.313L81,123.102L84,125.701L87,128.063L90,130.14L93,131.894L96,133.293L99,134.313L102,134.943L105,135.181L108,135.033L111,134.515L114,133.65L117,132.465L120,130.99L123,129.258L126,127.301L129,125.151L132,122.838L135,120.392L138,117.838L141,115.2L144,112.5L147,109.759L150,106.995L153,104.226L156,101.468L159,98.737L162,96.048L165,93.416L168,90.856L171,88.379L174,86L177,83.729L180,81.577L183,79.552L186,77.662L189,75.91L192,74.3L195,72.833L198,71.508L201,70.321L204,69.268L207,68.341L210,67.531L213,66.83L216,66.225L219,65.705L222,65.258L225,64.872L228,64.534L231,64.234L234,63.961L237,63.706L240,63.461L243,63.22L246,62.975L249,62.724L252,62.46L255,62.18L258,61.879L261,61.552L264,61.194L267,60.8L270,60.364L273,59.882L276,59.349L279,58.764L282,58.126L285,57.437L288,56.7L291,55.921L294,55.109L297,54.273L300,53.423L303,52.569L306,51.721L309,50.887L312,50.076L315,49.294L318,48.546L321,47.836L324,47.165L327,46.535L330,45.947L333,45.401L336,44.895L339,44.429L342,44.001L345,43.61L348,43.253L351,42.927L354,42.632L357,42.363L360,42.119L363,41.897L366,41.695L369,41.512L372,41.345L375,41.196L378,41.065L381,40.953L384,40.863L387,40.799L390,40.764L393,40.765L396,40.807L399,40.896L402,41.038L405,41.239L408,41.505L411,41.84L414,42.248L417,42.734L420,43.3L423,43.946L426,44.673L429,45.48L432,46.364L435,47.323L438,48.351L441,49.443L444,50.591L447,51.787L450,53.021L453,54.283L456,55.562L459,56.844L462,58.119L465,59.373L468,60.594L471,61.769L474,62.888L477,63.94L480,64.915L483,65.807L486,66.611L489,67.323L492,67.943L495,68.473L498,68.917L501,69.281L504,69.574L507,69.804L510,69.983L513,70.12L516,70.226L519,70.31L522,70.381L525,70.447L528,70.514L531,70.586L534,70.667L537,70.76L540,70.865L543,70.983L546,71.117L549,71.267L552,71.435L555,71.626L558,71.843L561,72.095L564,72.388L567,72.734L570,73.145L573,73.634L576,74.216L579,74.907L582,75.722L585,76.679L588,77.794L591,79.083L594,80.562L597,82.245L600,84.147L600,106.132L597,103.902L594,101.919L591,100.168L588,98.633L585,97.297L582,96.14L579,95.144L576,94.289L573,93.557L570,92.929L567,92.389L564,91.921L561,91.512L558,91.152L555,90.83L552,90.541L549,90.282L546,90.05L543,89.844L540,89.667L537,89.518L534,89.401L531,89.314L528,89.26L525,89.235L522,89.237L519,89.262L516,89.301L513,89.348L510,89.392L507,89.421L504,89.425L501,89.392L498,89.31L495,89.17L492,88.962L489,88.681L486,88.321L483,87.881L480,87.363L477,86.767L474,86.101L471,85.372L468,84.589L465,83.761L462,82.902L459,82.023L456,81.137L453,80.258L450,79.399L447,78.571L444,77.788L441,77.061L438,76.4L435,75.815L432,75.313L429,74.9L426,74.582L423,74.36L420,74.236L417,74.209L414,74.275L411,74.429L408,74.664L405,74.971L402,75.337L399,75.752L396,76.202L393,76.673L390,77.151L387,77.624L384,78.08L381,78.509L378,78.905L375,79.262L372,79.578L369,79.855L366,80.095L363,80.305L360,80.49L357,80.66L354,80.823L351,80.99L348,81.169L345,81.37L342,81.602L339,81.872L336,82.189L333,82.557L330,82.984L327,83.472L324,84.026L321,84.645L318,85.332L315,86.082L312,86.891L309,87.753L306,88.659L303,89.596L300,90.55L297,91.508L294,92.453L291,93.371L288,94.245L285,95.066L282,95.822L279,96.51L276,97.125L273,97.67L270,98.147L267,98.562L264,98.923L261,99.235L258,99.507L255,99.745L252,99.954L249,100.14L246,100.307L243,100.46L240,100.606L237,100.749L234,100.9L231,101.067L228,101.263L225,101.501L222,101.795L219,102.163L216,102.619L213,103.179L210,103.858L207,104.67L204,105.626L201,106.735L198,108.002L195,109.432L192,111.024L189,112.774L186,114.678L183,116.725L180,118.903L177,121.198L174,123.593L171,126.069L168,128.606L165,131.185L162,133.783L159,136.381L156,138.957L153,141.491L150,143.963L147,146.353L144,148.641L141,150.807L138,152.829L135,154.685L132,156.352L129,157.804L126,159.016L123,159.96L120,160.607L117,160.93L114,160.903L111,160.501L108,159.707L105,158.507L102,156.896L99,154.881L96,152.474L93,149.701L90,146.598L87,143.206L84,139.578L81,135.768L78,131.832L75,127.827L72,123.806L69,119.817L66,115.9L63,112.091L60,108.412L57,104.88L54,101.502L51,98.277L48,95.196L45,92.241L42,89.389L39,86.61L36,83.871L33,81.135L30,78.364L27,75.525L24,72.585L21,69.525L18,66.332L15,63.009L12,59.573L9,56.055L6,52.494L3,48.939L0,45.44Z" fill="#C8C8C8" opacity="0.7"/></g></g><path class="foreground" aria-hidden="true" d="" display="none"/></g><g transform="translate(0,0)"><path class="background" aria-hidden="true" d="M0,0h600v300h-600Z"/><g><g class="mark-area role-mark marks" role="graphics-object" aria-roledescription="area mark container"><path aria-label="Jaar: 1925; Prevalentie: 2%; Onderwerpen: Religie" role="graphics-symbol" aria-roledescription="area mark" d="M0,291.887L3,290.778L6,289.569L9,288.264L12,286.871L15,285.395L18,283.845L21,282.225L24,280.538L27,278.784L30,276.959L33,275.056L36,273.066L39,270.977L42,268.777L45,266.452L48,263.989L51,261.375L54,258.599L57,255.653L60,252.533L63,249.239L66,245.774L69,242.151L72,238.386L75,234.503L78,230.532L81,226.508L84,222.474L87,218.474L90,214.555L93,210.765L96,207.146L99,203.742L102,200.586L105,197.707L108,195.126L111,192.858L114,190.909L117,189.278L120,187.962L123,186.95L126,186.23L129,185.786L132,185.603L135,185.662L138,185.946L141,186.437L144,187.117L147,187.968L150,188.972L153,190.112L156,191.368L159,192.722L162,194.156L165,195.649L168,197.183L171,198.737L174,200.292L177,201.831L180,203.335L183,204.789L186,206.179L189,207.493L192,208.722L195,209.861L198,210.904L201,211.852L204,212.706L207,213.472L210,214.156L213,214.766L216,215.314L219,215.81L222,216.267L225,216.695L228,217.105L231,217.506L234,217.906L237,218.307L240,218.714L243,219.125L246,219.539L249,219.951L252,220.356L255,220.747L258,221.119L261,221.465L264,221.779L267,222.057L270,222.293L273,222.485L276,222.627L279,222.717L282,222.75L285,222.719L288,222.621L291,222.447L294,222.191L297,221.847L300,221.407L303,220.865L306,220.218L309,219.463L312,218.6L315,217.632L318,216.564L321,215.402L324,214.157L327,212.842L330,211.47L333,210.057L336,208.62L339,207.179L342,205.754L345,204.364L348,203.031L351,201.777L354,200.622L357,199.588L360,198.693L363,197.955L366,197.389L369,197.005L372,196.812L375,196.809L378,196.996L381,197.361L384,197.893L387,198.57L390,199.372L393,200.271L396,201.239L399,202.247L402,203.268L405,204.272L408,205.236L411,206.136L414,206.954L417,207.674L420,208.283L423,208.774L426,209.14L429,209.38L432,209.494L435,209.485L438,209.361L441,209.128L444,208.796L447,208.378L450,207.886L453,207.335L456,206.739L459,206.115L462,205.478L465,204.846L468,204.234L471,203.657L474,203.13L477,202.667L480,202.278L483,201.973L486,201.759L489,201.641L492,201.619L495,201.692L498,201.858L501,202.109L504,202.438L507,202.835L510,203.291L513,203.797L516,204.343L519,204.922L522,205.526L525,206.153L528,206.799L531,207.464L534,208.149L537,208.856L540,209.588L543,210.35L546,211.143L549,211.972L552,212.837L555,213.737L558,214.67L561,215.632L564,216.616L567,217.613L570,218.614L573,219.608L576,220.583L579,221.53L582,222.436L585,223.293L588,224.093L591,224.831L594,225.5L597,226.102L600,226.634L600,248.789L597,248.209L594,247.602L591,246.968L588,246.306L585,245.62L582,244.914L579,244.193L576,243.463L573,242.732L570,242.009L567,241.3L564,240.615L561,239.958L558,239.338L555,238.757L552,238.218L549,237.724L546,237.273L543,236.864L540,236.494L537,236.16L534,235.858L531,235.584L528,235.336L525,235.11L522,234.907L519,234.725L516,234.565L513,234.43L510,234.323L507,234.246L504,234.203L501,234.199L498,234.236L495,234.316L492,234.439L489,234.606L486,234.813L483,235.058L480,235.333L477,235.633L474,235.95L471,236.273L468,236.592L465,236.899L462,237.181L459,237.428L456,237.63L453,237.775L450,237.856L447,237.861L444,237.783L441,237.615L438,237.349L435,236.98L432,236.504L429,235.918L426,235.222L423,234.417L420,233.505L417,232.493L414,231.389L411,230.205L408,228.955L405,227.658L402,226.333L399,225.005L396,223.699L393,222.442L390,221.264L387,220.191L384,219.251L381,218.466L378,217.859L375,217.445L372,217.236L369,217.239L366,217.455L363,217.882L360,218.511L357,219.332L354,220.332L351,221.493L348,222.799L345,224.231L342,225.769L339,227.394L336,229.088L333,230.831L330,232.607L327,234.398L324,236.189L321,237.966L318,239.717L315,241.43L312,243.097L309,244.71L306,246.263L303,247.752L300,249.175L297,250.528L294,251.812L291,253.025L288,254.167L285,255.237L282,256.237L279,257.167L276,258.026L273,258.817L270,259.54L267,260.199L264,260.797L261,261.338L258,261.828L255,262.273L252,262.679L249,263.053L246,263.401L243,263.73L240,264.046L237,264.352L234,264.652L231,264.948L228,265.241L225,265.53L222,265.813L219,266.089L216,266.354L213,266.606L210,266.842L207,267.059L204,267.256L201,267.431L198,267.583L195,267.713L192,267.822L189,267.912L186,267.986L183,268.048L180,268.1L177,268.148L174,268.195L171,268.248L168,268.309L165,268.385L162,268.478L159,268.594L156,268.736L153,268.906L150,269.109L147,269.346L144,269.621L141,269.937L138,270.295L135,270.698L132,271.148L129,271.647L126,272.198L123,272.803L120,273.462L117,274.177L114,274.947L111,275.771L108,276.648L105,277.572L102,278.54L99,279.544L96,280.577L93,281.63L90,282.693L87,283.755L84,284.807L81,285.84L78,286.845L75,287.813L72,288.74L69,289.621L66,290.453L63,291.233L60,291.962L57,292.641L54,293.271L51,293.854L48,294.394L45,294.893L42,295.355L39,295.783L36,296.18L33,296.549L30,296.892L27,297.212L24,297.51L21,297.788L18,298.045L15,298.283L12,298.501L9,298.7L6,298.88L3,299.041L0,299.183Z" fill="#4D4D4D" opacity="0.7"/></g></g><path class="foreground" aria-hidden="true" d="" display="none"/></g><g transform="translate(0,0)"><path class="background" aria-hidden="true" d="M0,0h600v300h-600Z"/><g><g class="mark-area role-mark marks" role="graphics-object" aria-roledescription="area mark container"><path aria-label="Jaar: 1925; Prevalentie: 0%; Onderwerpen: Criminaliteit" role="graphics-symbol" aria-roledescription="area mark" d="M0,0L3,0L6,0L9,0L12,0L15,0L18,0L21,0L24,0L27,0L30,0L33,0L36,0L39,0L42,0L45,0L48,0L51,0L54,0L57,0L60,0L63,0L66,0L69,0L72,0L75,0L78,0L81,0L84,0L87,0L90,0L93,0L96,0L99,0L102,0L105,0L108,0L111,0L114,0L117,0L120,0L123,0L126,0L129,0L132,0L135,0L138,0L141,0L144,0L147,0L150,0L153,0L156,0L159,0L162,0L165,0L168,0L171,0L174,0L177,0L180,0L183,0L186,0L189,0L192,0L195,0L198,0L201,0L204,0L207,0L210,0L213,0L216,0L219,0L222,0L225,0L228,0L231,0L234,0L237,0L240,0L243,0L246,0L249,0L252,0L255,0L258,0L261,0L264,0L267,0L270,0L273,0L276,0L279,0L282,0L285,0L288,0L291,0L294,0L297,0L300,0L303,0L306,0L309,0L312,0L315,0L318,0L321,0L324,0L327,0L330,0L333,0L336,0L339,0L342,0L345,0L348,0L351,0L354,0L357,0L360,0L363,0L366,0L369,0L372,0L375,0L378,0L381,0L384,0L387,0L390,0L393,0L396,0L399,0L402,0L405,0L408,0L411,0L414,0L417,0L420,0L423,0L426,0L429,0L432,0L435,0L438,0L441,0L444,0L447,0L450,0L453,0L456,0L459,0L462,0L465,0L468,0L471,0L474,0L477,0L480,0L483,0L486,0L489,0L492,0L495,0L498,0L501,0L504,0L507,0L510,0L513,0L516,0L519,0L522,0L525,0L528,0L531,0L534,0L537,0L540,0L543,0L546,0L549,0L552,0L555,0L558,0L561,0L564,0L567,0L570,0L573,0L576,0L579,0L582,0L585,0L588,0L591,0L594,0L597,0L600,0L600,42.504L597,41.701L594,40.991L591,40.367L588,39.825L585,39.357L582,38.956L579,38.615L576,38.327L573,38.083L570,37.875L567,37.697L564,37.542L561,37.403L558,37.276L555,37.157L552,37.041L549,36.927L546,36.812L543,36.696L540,36.578L537,36.457L534,36.333L531,36.206L528,36.074L525,35.935L522,35.788L519,35.629L516,35.456L513,35.264L510,35.048L507,34.805L504,34.53L501,34.219L498,33.869L495,33.476L492,33.039L489,32.557L486,32.032L483,31.466L480,30.861L477,30.222L474,29.553L471,28.862L468,28.155L465,27.437L462,26.717L459,26.002L456,25.297L453,24.611L450,23.948L447,23.315L444,22.717L441,22.158L438,21.643L435,21.174L432,20.756L429,20.389L426,20.077L423,19.819L420,19.616L417,19.468L414,19.375L411,19.336L408,19.349L405,19.412L402,19.522L399,19.677L396,19.872L393,20.105L390,20.37L387,20.664L384,20.982L381,21.32L378,21.675L375,22.042L372,22.419L369,22.802L366,23.191L363,23.583L360,23.978L357,24.374L354,24.772L351,25.172L348,25.575L345,25.98L342,26.388L339,26.801L336,27.218L333,27.64L330,28.067L327,28.5L324,28.938L321,29.381L318,29.827L315,30.276L312,30.724L309,31.169L306,31.605L303,32.029L300,32.434L297,32.814L294,33.165L291,33.479L288,33.751L285,33.978L282,34.156L279,34.284L276,34.361L273,34.391L270,34.374L267,34.314L264,34.214L261,34.08L258,33.915L255,33.723L252,33.507L249,33.27L246,33.016L243,32.747L240,32.467L237,32.178L234,31.886L231,31.593L228,31.304L225,31.023L222,30.757L219,30.508L216,30.283L213,30.084L210,29.916L207,29.782L204,29.683L201,29.621L198,29.596L195,29.607L192,29.653L189,29.73L186,29.836L183,29.967L180,30.117L177,30.281L174,30.454L171,30.629L168,30.801L165,30.962L162,31.108L159,31.233L156,31.331L153,31.397L150,31.426L147,31.415L144,31.358L141,31.252L138,31.094L135,30.88L132,30.607L129,30.271L126,29.87L123,29.403L120,28.865L117,28.258L114,27.58L111,26.832L108,26.017L105,25.138L102,24.201L99,23.212L96,22.181L93,21.117L90,20.03L87,18.933L84,17.836L81,16.75L78,15.685L75,14.65L72,13.653L69,12.699L66,11.793L63,10.936L60,10.13L57,9.376L54,8.671L51,8.013L48,7.4L45,6.828L42,6.294L39,5.794L36,5.325L33,4.883L30,4.467L27,4.072L24,3.698L21,3.343L18,3.008L15,2.691L12,2.394L9,2.117L6,1.862L3,1.628L0,1.417Z" fill="#DDDDDD" opacity="0.7"/></g></g><path class="foreground" aria-hidden="true" d="" display="none"/></g><g transform="translate(0,0)"><path class="background" aria-hidden="true" d="M0,0h600v300h-600Z"/><g><g class="mark-area role-mark marks" role="graphics-object" aria-roledescription="area mark container"><path aria-label="Jaar: 1925; Prevalentie: 0%; Onderwerpen: Stratificatie" role="graphics-symbol" aria-roledescription="area mark" d="M0,300L3,299.999L6,299.999L9,299.999L12,299.999L15,299.998L18,299.998L21,299.997L24,299.996L27,299.994L30,299.993L33,299.991L36,299.988L39,299.984L42,299.98L45,299.975L48,299.968L51,299.959L54,299.949L57,299.936L60,299.919L63,299.899L66,299.875L69,299.844L72,299.808L75,299.764L78,299.711L81,299.648L84,299.574L87,299.486L90,299.385L93,299.267L96,299.133L99,298.98L102,298.807L105,298.614L108,298.399L111,298.162L114,297.902L117,297.619L120,297.312L123,296.981L126,296.627L129,296.25L132,295.85L135,295.429L138,294.988L141,294.528L144,294.051L147,293.559L150,293.053L153,292.536L156,292.01L159,291.478L162,290.941L165,290.401L168,289.861L171,289.321L174,288.782L177,288.246L180,287.713L183,287.182L186,286.653L189,286.127L192,285.602L195,285.079L198,284.556L201,284.034L204,283.514L207,282.995L210,282.479L213,281.968L216,281.464L219,280.968L222,280.484L225,280.014L228,279.56L231,279.125L234,278.709L237,278.313L240,277.937L243,277.581L246,277.241L249,276.915L252,276.6L255,276.292L258,275.986L261,275.678L264,275.364L267,275.039L270,274.702L273,274.347L276,273.974L279,273.578L282,273.159L285,272.714L288,272.242L291,271.741L294,271.211L297,270.651L300,270.059L303,269.437L306,268.785L309,268.105L312,267.4L315,266.672L318,265.928L321,265.171L324,264.41L327,263.652L330,262.904L333,262.176L336,261.477L339,260.816L342,260.204L345,259.649L348,259.161L351,258.749L354,258.421L357,258.184L360,258.044L363,258.005L366,258.071L369,258.242L372,258.517L375,258.891L378,259.357L381,259.909L384,260.533L387,261.219L390,261.952L393,262.719L396,263.503L399,264.292L402,265.072L405,265.83L408,266.556L411,267.24L414,267.876L417,268.456L420,268.977L423,269.436L426,269.83L429,270.161L432,270.428L435,270.634L438,270.779L441,270.868L444,270.905L447,270.893L450,270.837L453,270.742L456,270.614L459,270.458L462,270.281L465,270.088L468,269.885L471,269.679L474,269.475L477,269.278L480,269.094L483,268.927L486,268.78L489,268.656L492,268.557L495,268.485L498,268.438L501,268.416L504,268.418L507,268.443L510,268.486L513,268.548L516,268.624L519,268.714L522,268.816L525,268.93L528,269.054L531,269.189L534,269.337L537,269.499L540,269.676L543,269.87L546,270.083L549,270.316L552,270.57L555,270.845L558,271.142L561,271.458L564,271.792L567,272.142L570,272.505L573,272.876L576,273.253L579,273.632L582,274.01L585,274.384L588,274.751L591,275.111L594,275.462L597,275.804L600,276.137L600,300L597,300L594,300L591,300L588,300L585,300L582,300L579,300L576,300L573,300L570,300L567,300L564,300L561,300L558,300L555,300L552,300L549,300L546,300L543,300L540,300L537,300L534,300L531,300L528,300L525,300L522,300L519,300L516,300L513,300L510,300L507,300L504,300L501,300L498,300L495,300L492,300L489,300L486,300L483,300L480,300L477,300L474,300L471,300L468,300L465,300L462,300L459,300L456,300L453,300L450,300L447,300L444,300L441,300L438,300L435,300L432,300L429,300L426,300L423,300L420,300L417,300L414,300L411,300L408,300L405,300L402,300L399,300L396,300L393,300L390,300L387,300L384,300L381,300L378,300L375,300L372,300L369,300L366,300L363,300L360,300L357,300L354,300L351,300L348,300L345,300L342,300L339,300L336,300L333,300L330,300L327,300L324,300L321,300L318,300L315,300L312,300L309,300L306,300L303,300L300,300L297,300L294,300L291,300L288,300L285,300L282,300L279,300L276,300L273,300L270,300L267,300L264,300L261,300L258,300L255,300L252,300L249,300L246,300L243,300L240,300L237,300L234,300L231,300L228,300L225,300L222,300L219,300L216,300L213,300L210,300L207,300L204,300L201,300L198,300L195,300L192,300L189,300L186,300L183,300L180,300L177,300L174,300L171,300L168,300L165,300L162,300L159,300L156,300L153,300L150,300L147,300L144,300L141,300L138,300L135,300L132,300L129,300L126,300L123,300L120,300L117,300L114,300L111,300L108,300L105,300L102,300L99,300L96,300L93,300L90,300L87,300L84,300L81,300L78,300L75,300L72,300L69,300L66,300L63,300L60,300L57,300L54,300L51,300L48,300L45,300L42,300L39,300L36,300L33,300L30,300L27,300L24,300L21,300L18,300L15,300L12,300L9,300L6,300L3,300L0,300Z" fill="#707070" opacity="0.7"/></g></g><path class="foreground" aria-hidden="true" d="" display="none"/></g></g><g class="mark-group role-legend" role="graphics-symbol" aria-roledescription="legend" aria-label="Symbol legend titled 'Onderwerpen' for fill color with 10 values: Criminaliteit, Cultuur, Economie, Familie, Methoden, ending with Stratificatie"><g transform="translate(0,351)"><path class="background" aria-hidden="true" d="M0,0h456v40h-456Z" pointer-events="none"/><g><g class="mark-group role-legend-entry"><g transform="translate(0,16)"><path class="background" aria-hidden="true" d="M0,0h0v0h0Z" pointer-events="none"/><g><g class="mark-group role-scope" role="graphics-object" aria-roledescription="group mark container"><g transform="translate(0,0)"><path class="background" aria-hidden="true" d="M0,0h119.33447265625v11h-119.33447265625Z" pointer-events="none" opacity="1"/><g><g class="mark-symbol role-legend-symbol" pointer-events="none"><path transform="translate(6,6)" d="M5,0A5,5,0,1,1,-5,0A5,5,0,1,1,5,0" fill="#DDDDDD" stroke-width="1.5" opacity="0.7"/></g><g class="mark-text role-legend-label" pointer-events="none"><text text-anchor="start" transform="translate(16,9)" font-family="sans-serif" font-size="11px" fill="#000" opacity="1">Criminaliteit</text></g></g><path class="foreground" aria-hidden="true" d="" pointer-events="none" display="none"/></g><g transform="translate(130,0)"><path class="background" aria-hidden="true" d="M0,0h51.4599609375v11h-51.4599609375Z" pointer-events="none" opacity="1"/><g><g class="mark-symbol role-legend-symbol" pointer-events="none"><path transform="translate(6,6)" d="M5,0A5,5,0,1,1,-5,0A5,5,0,1,1,5,0" fill="#111111" stroke-width="1.5" opacity="0.7"/></g><g class="mark-text role-legend-label" pointer-events="none"><text text-anchor="start" transform="translate(16,9)" font-family="sans-serif" font-size="11px" fill="#000" opacity="1">Cultuur</text></g></g><path class="foreground" aria-hidden="true" d="" pointer-events="none" display="none"/></g><g transform="translate(192,0)"><path class="background" aria-hidden="true" d="M0,0h64.91455078125v11h-64.91455078125Z" pointer-events="none" opacity="1"/><g><g class="mark-symbol role-legend-symbol" pointer-events="none"><path transform="translate(6,6)" d="M5,0A5,5,0,1,1,-5,0A5,5,0,1,1,5,0" fill="#C8C8C8" stroke-width="1.5" opacity="0.7"/></g><g class="mark-text role-legend-label" pointer-events="none"><text text-anchor="start" transform="translate(16,9)" font-family="sans-serif" font-size="11px" fill="#000" opacity="1">Economie</text></g></g><path class="foreground" aria-hidden="true" d="" pointer-events="none" display="none"/></g><g transform="translate(267,0)"><path class="background" aria-hidden="true" d="M0,0h107.71142578125v11h-107.71142578125Z" pointer-events="none" opacity="1"/><g><g class="mark-symbol role-legend-symbol" pointer-events="none"><path transform="translate(6,6)" d="M5,0A5,5,0,1,1,-5,0A5,5,0,1,1,5,0" fill="#222222" stroke-width="1.5" opacity="0.7"/></g><g class="mark-text role-legend-label" pointer-events="none"><text text-anchor="start" transform="translate(16,9)" font-family="sans-serif" font-size="11px" fill="#000" opacity="1">Familie</text></g></g><path class="foreground" aria-hidden="true" d="" pointer-events="none" display="none"/></g><g transform="translate(385,0)"><path class="background" aria-hidden="true" d="M0,0h70.4091796875v11h-70.4091796875Z" pointer-events="none" opacity="1"/><g><g class="mark-symbol role-legend-symbol" pointer-events="none"><path transform="translate(6,6)" d="M5,0A5,5,0,1,1,-5,0A5,5,0,1,1,5,0" fill="#BBBBBB" stroke-width="1.5" opacity="0.7"/></g><g class="mark-text role-legend-label" pointer-events="none"><text text-anchor="start" transform="translate(16,9)" font-family="sans-serif" font-size="11px" fill="#000" opacity="1">Methoden</text></g></g><path class="foreground" aria-hidden="true" d="" pointer-events="none" display="none"/></g><g transform="translate(0,13)"><path class="background" aria-hidden="true" d="M0,0h119.33447265625v11h-119.33447265625Z" pointer-events="none" opacity="1"/><g><g class="mark-symbol role-legend-symbol" pointer-events="none"><path transform="translate(6,6)" d="M5,0A5,5,0,1,1,-5,0A5,5,0,1,1,5,0" fill="#333333" stroke-width="1.5" opacity="0.7"/></g><g class="mark-text role-legend-label" pointer-events="none"><text text-anchor="start" transform="translate(16,9)" font-family="sans-serif" font-size="11px" fill="#000" opacity="1">Migratie en Integratie</text></g></g><path class="foreground" aria-hidden="true" d="" pointer-events="none" display="none"/></g><g transform="translate(130,13)"><path class="background" aria-hidden="true" d="M0,0h51.4599609375v11h-51.4599609375Z" pointer-events="none" opacity="1"/><g><g class="mark-symbol role-legend-symbol" pointer-events="none"><path transform="translate(6,6)" d="M5,0A5,5,0,1,1,-5,0A5,5,0,1,1,5,0" fill="#A0A0A0" stroke-width="1.5" opacity="0.7"/></g><g class="mark-text role-legend-label" pointer-events="none"><text text-anchor="start" transform="translate(16,9)" font-family="sans-serif" font-size="11px" fill="#000" opacity="1">Overig</text></g></g><path class="foreground" aria-hidden="true" d="" pointer-events="none" display="none"/></g><g transform="translate(192,13)"><path class="background" aria-hidden="true" d="M0,0h64.91455078125v11h-64.91455078125Z" pointer-events="none" opacity="1"/><g><g class="mark-symbol role-legend-symbol" pointer-events="none"><path transform="translate(6,6)" d="M5,0A5,5,0,1,1,-5,0A5,5,0,1,1,5,0" fill="#4D4D4D" stroke-width="1.5" opacity="0.7"/></g><g class="mark-text role-legend-label" pointer-events="none"><text text-anchor="start" transform="translate(16,9)" font-family="sans-serif" font-size="11px" fill="#000" opacity="1">Religie</text></g></g><path class="foreground" aria-hidden="true" d="" pointer-events="none" display="none"/></g><g transform="translate(267,13)"><path class="background" aria-hidden="true" d="M0,0h107.71142578125v11h-107.71142578125Z" pointer-events="none" opacity="1"/><g><g class="mark-symbol role-legend-symbol" pointer-events="none"><path transform="translate(6,6)" d="M5,0A5,5,0,1,1,-5,0A5,5,0,1,1,5,0" fill="#888888" stroke-width="1.5" opacity="0.7"/></g><g class="mark-text role-legend-label" pointer-events="none"><text text-anchor="start" transform="translate(16,9)" font-family="sans-serif" font-size="11px" fill="#000" opacity="1">Sociale Netwerken</text></g></g><path class="foreground" aria-hidden="true" d="" pointer-events="none" display="none"/></g><g transform="translate(385,13)"><path class="background" aria-hidden="true" d="M0,0h70.4091796875v11h-70.4091796875Z" pointer-events="none" opacity="1"/><g><g class="mark-symbol role-legend-symbol" pointer-events="none"><path transform="translate(6,6)" d="M5,0A5,5,0,1,1,-5,0A5,5,0,1,1,5,0" fill="#707070" stroke-width="1.5" opacity="0.7"/></g><g class="mark-text role-legend-label" pointer-events="none"><text text-anchor="start" transform="translate(16,9)" font-family="sans-serif" font-size="11px" fill="#000" opacity="1">Stratificatie</text></g></g><path class="foreground" aria-hidden="true" d="" pointer-events="none" display="none"/></g></g></g><path class="foreground" aria-hidden="true" d="" pointer-events="none" display="none"/></g></g><g class="mark-text role-legend-title" pointer-events="none"><text text-anchor="start" transform="translate(0,9)" font-family="sans-serif" font-size="11px" font-weight="bold" fill="#000" opacity="1">Onderwerpen</text></g></g><path class="foreground" aria-hidden="true" d="" pointer-events="none" display="none"/></g></g></g><path class="foreground" aria-hidden="true" d="" display="none"/></g></g></g></svg>