<svg xmlns="http://www.w3.org/2000/svg" xmlns:xlink="http://www.w3.org/1999/xlink" version="1.1" class="marks" width="662" height="394" viewBox="0 0 662 394"><rect width="662" height="394" fill="white"/><g fill="none" stroke-miterlimit="10" transform="translate(56,11)"><g class="mark-group role-frame root" role="graphics-object" aria-roledescription="group mark container"><g transform="translate(0,0)"><path class="background" aria-hidden="true" d="M0.5,0.5h600v300h-600Z" stroke="#ddd"/><g><g class="mark-group role-axis" aria-hidden="true"><g transform="translate(0.5,300.5)"><path class="background" aria-hidden="true" d="M0,0h0v0h0Z" pointer-events="none"/><g><g class="mark-rule role-axis-grid" pointer-events="none"><line transform="translate(0,-300)" x2="0" y2="300" stroke="#ddd" stroke-width="1" opacity="1"/><line transform="translate(30,-300)" x2="0" y2="300" stroke="#ddd" stroke-width="1" opacity="1"/><line transform="translate(60,-300)" x2="0" y2="300" stroke="#ddd" stroke-width="1" opacity="1"/><line transform="translate(90,-300)" x2="0" y2="300" stroke="#ddd" stroke-width="1" opacity="1"/><line transform="translate(120,-300)" x2="0" y2="300" stroke="#ddd" stroke-width="1" opacity="1"/><line transform="translate(150,-300)" x2="0" y2="300" stroke="#ddd" stroke-width="1" opacity="1"/><line transform="translate(180,-300)" x2="0" y2="300" stroke="#ddd" stroke-width="1" opacity="1"/><line transform="translate(210,-300)" x2="0" y2="300" stroke="#ddd" stroke-width="1" opacity="1"/><line transform="translate(240,-300)" x2="0" y2="300" stroke="#ddd" stroke-width="1" opacity="1"/><line transform="translate(270,-300)" x2="0" y2="300" stroke="#ddd" stroke-width="1" opacity="1"/><line transform="translate(300,-300)" x2="0" y2="300" stroke="#ddd" stroke-width="1" opacity="1"/><line transform="translate(330,-300)" x2="0" y2="300" stroke="#ddd" stroke-width="1" opacity="1"/><line transform="translate(360,-300)" x2="0" y2="300" stroke="#ddd" stroke-width="1" opacity="1"/><line transform="translate(390,-300)" x2="0" y2="300" stroke="#ddd" stroke-width="1" opacity="1"/><line transform="translate(420,-300)" x2="0" y2="300" stroke="#ddd" stroke-width="1" opacity="1"/><line transform="translate(450,-300)" x2="0" y2="300" stroke="#ddd" stroke-width="1" opacity="1"/><line transform="translate(480,-300)" x2="0" y2="300" stroke="#ddd" stroke-width="1" opacity="1"/><line transform="translate(510,-300)" x2="0" y2="300" stroke="#ddd" stroke-width="1" opacity="1"/><line transform="translate(540,-300)" x2="0" y2="300" stroke="#ddd" stroke-width="1" opacity="1"/><line transform="translate(570,-300)" x2="0" y2="300" stroke="#ddd" stroke-width="1" opacity="1"/><line transform="translate(600,-300)" x2="0" y2="300" stroke="#ddd" stroke-width="1" opacity="1"/></g></g><path class="foreground" aria-hidden="true" d="" pointer-events="none" display="none"/></g></g><g class="mark-group role-axis" aria-hidden="true"><g transform="translate(0.5,0.5)"><path class="background" aria-hidden="true" d="M0,0h0v0h0Z" pointer-events="none"/><g><g class="mark-rule role-axis-grid" pointer-events="none"><line transform="translate(0,300)" x2="600" y2="0" stroke="#ddd" stroke-width="1" opacity="1"/><line transform="translate(0,270)" x2="600" y2="0" stroke="#ddd" stroke-width="1" opacity="1"/><line transform="translate(0,240)" x2="600" y2="0" stroke="#ddd" stroke-width="1" opacity="1"/><line transform="translate(0,210)" x2="600" y2="0" stroke="#ddd" stroke-width="1" opacity="1"/><line transform="translate(0,180)" x2="600" y2="0" stroke="#ddd" stroke-width="1" opacity="1"/><line transform="translate(0,150)" x2="600" y2="0" stroke="#ddd" stroke-width="1" opacity="1"/><line transform="translate(0,120)" x2="600" y2="0" stroke="#ddd" stroke-width="1" opacity="1"/><line transform="translate(0,90)" x2="600" y2="0" stroke="#ddd" stroke-width="1" opacity="1"/><line transform="translate(0,60)" x2="600" y2="0" stroke="#ddd" stroke-width="1" opacity="1"/><line transform="translate(0,30)" x2="600" y2="0" stroke="#ddd" stroke-width="1" opacity="1"/><line transform="translate(0,0)" x2="600" y2="0" stroke="#ddd" stroke-width="1" opacity="1"/></g></g><path class="foreground" aria-hidden="true" d="" pointer-events="none" display="none"/></g></g><g class="mark-group role-axis" role="graphics-symbol" aria-roledescription="axis" aria-label="X-axis titled 'Jaar' for a linear scale with values from 1925 to 2025"><g transform="translate(0.5,300.5)"><path class="background" aria-hidden="true" d="M0,0h0v0h0Z" pointer-events="none"/><g><g class="mark-rule role-axis-tick" pointer-events="none"><line transform="translate(0,0)" x2="0" y2="5" stroke="#888" stroke-width="1" opacity="1"/><line transform="translate(30,0)" x2="0" y2="5" stroke="#888" stroke-width="1" opacity="1"/><line transform="translate(60,0)" x2="0" y2="5" stroke="#888" stroke-width="1" opacity="1"/><line transform="translate(90,0)" x2="0" y2="5" stroke="#888" stroke-width="1" opacity="1"/><line transform="translate(120,0)" x2="0" y2="5" stroke="#888" stroke-width="1" opacity="1"/><line transform="translate(150,0)" x2="0" y2="5" stroke="#888" stroke-width="1" opacity="1"/><line transform="translate(180,0)" x2="0" y2="5" stroke="#888" stroke-width="1" opacity="1"/><line transform="translate(210,0)" x2="0" y2="5" stroke="#888" stroke-width="1" opacity="1"/><line transform="translate(240,0)" x2="0" y2="5" stroke="#888" stroke-width="1" opacity="1"/><line transform="translate(270,0)" x2="0" y2="5" stroke="#888" stroke-width="1" opacity="1"/><line transform="translate(300,0)" x2="0" y2="5" stroke="#888" stroke-width="1" opacity="1"/><line transform="translate(330,0)" x2="0" y2="5" stroke="#888" stroke-width="1" opacity="1"/><line transform="translate(360,0)" x2="0" y2="5" stroke="#888" stroke-width="1" opacity="1"/><line transform="translate(390,0)" x2="0" y2="5" stroke="#888" stroke-width="1" opacity="1"/><line transform="translate(420,0)" x2="0" y2="5" stroke="#888" stroke-width="1" opacity="1"/><line transform="translate(450,0)" x2="0" y2="5" stroke="#888" stroke-width="1" opacity="1"/><line transform="translate(480,0)" x2="0" y2="5" stroke="#888" stroke-width="1" opacity="1"/><line transform="translate(510,0)" x2="0" y2="5" stroke="#888" stroke-width="1" opacity="1"/><line transform="translate(540,0)" x2="0" y2="5" stroke="#888" stroke-width="1" opacity="1"/><line transform="translate(570,0)" x2="0" y2="5" stroke="#888" stroke-width="1" opacity="1"/><line transform="translate(600,0)" x2="0" y2="5" stroke="#888" stroke-width="1" opacity="1"/></g><g class="mark-text role-axis-label" pointer-events="none"><text text-anchor="start" transform="translate(0,16)" font-family="sans-serif" font-size="11px" fill="#000" opacity="1">1925</text><text text-anchor="middle" transform="translate(30,16)" font-family="sans-serif" font-size="11px" fill="#000" opacity="0">1930</text><text text-anchor="middle" transform="translate(60,16)" font-family="sans-serif" font-size="11px" fill="#000" opacity="1">1935</text><text text-anchor="middle" transform="translate(90,16)" font-family="sans-serif" font-size="11px" fill="#000" opacity="0">1940</text><text text-anchor="middle" transform="translate(120,16)" font-family="sans-serif" font-size="11px" fill="#000" opacity="1">1945</text><text text-anchor="middle" transform="translate(150,16)" font-family="sans-serif" font-size="11px" fill="#000" opacity="0">1950</text><text text-anchor="middle" transform="translate(180,16)" font-family="sans-serif" font-size="11px" fill="#000" opacity="1">1955</text><text text-anchor="middle" transform="translate(210,16)" font-family="sans-serif" font-size="11px" fill="#000" opacity="0">1960</text><text text-anchor="middle" transform="translate(240,16)" font-family="sans-serif" font-size="11px" fill="#000" opacity="1">1965</text><text text-anchor="middle" transform="translate(270,16)" font-family="sans-serif" font-size="11px" fill="#000" opacity="0">1970</text><text text-anchor="middle" transform="translate(300,16)" font-family="sans-serif" font-size="11px" fill="#000" opacity="1">1975</text><text text-anchor="middle" transform="translate(330,16)" font-family="sans-serif" font-size="11px" fill="#000" opacity="0">1980</text><text text-anchor="middle" transform="translate(360,16)" font-family="sans-serif" font-size="11px" fill="#000" opacity="1">1985</text><text text-anchor="middle" transform="translate(390,16)" font-family="sans-serif" font-size="11px" fill="#000" opacity="0">1990</text><text text-anchor="middle" transform="translate(420,16)" font-family="sans-serif" font-size="11px" fill="#000" opacity="1">1995</text><text text-anchor="middle" transform="translate(450,16)" font-family="sans-serif" font-size="11px" fill="#000" opacity="0">2000</text><text text-anchor="middle" transform="translate(480,16)" font-family="sans-serif" font-size="11px" fill="#000" opacity="1">2005</text><text text-anchor="middle" transform="translate(510,16)" font-family="sans-serif" font-size="11px" fill="#000" opacity="0">2010</text><text text-anchor="middle" transform="translate(540,16)" font-family="sans-serif" font-size="11px" fill="#000" opacity="1">2015</text><text text-anchor="middle" transform="translate(570,16)" font-family="sans-serif" font-size="11px" fill="#000" opacity="0">2020</text><text text-anchor="end" transform="translate(600,16)" font-family="sans-serif" font-size="11px" fill="#000" opacity="1">2025</text></g><g class="mark-rule role-axis-domain" pointer-events="none"><line transform="translate(0,0)" x2="600" y2="0" stroke="#888" stroke-width="1" opacity="1"/></g><g class="mark-text role-axis-title" pointer-events="none"><text text-anchor="middle" transform="translate(300,31)" font-family="sans-serif" font-size="11px" font-weight="bold" fill="#000" opacity="1">Jaar</text></g></g><path class="foreground" aria-hidden="true" d="" pointer-events="none" display="none"/></g></g><g class="mark-group role-axis" role="graphics-symbol" aria-roledescription="axis" aria-label="Y-axis titled 'Prevalentie' for a linear scale with values from 0% to 100%"><g transform="translate(0.5,0.5)"><path class="background" aria-hidden="true" d="M0,0h0v0h0Z" pointer-events="none"/><g><g class="mark-rule role-axis-tick" pointer-events="none"><line transform="translate(0,300)" x2="-5" y2="0" stroke="#888" stroke-width="1" opacity="1"/><line transform="translate(0,270)" x2="-5" y2="0" stroke="#888" stroke-width="1" opacity="1"/><line transform="translate(0,240)" x2="-5" y2="0" stroke="#888" stroke-width="1" opacity="1"/><line transform="translate(0,210)" x2="-5" y2="0" stroke="#888" stroke-width="1" opacity="1"/><line transform="translate(0,180)" x2="-5" y2="0" stroke="#888" stroke-width="1" opacity="1"/><line transform="translate(0,150)" x2="-5" y2="0" stroke="#888" stroke-width="1" opacity="1"/><line transform="translate(0,120)" x2="-5" y2="0" stroke="#888" stroke-width="1" opacity="1"/><line transform="translate(0,90)" x2="-5" y2="0" stroke="#888" stroke-width="1" opacity="1"/><line transform="translate(0,60)" x2="-5" y2="0" stroke="#888" stroke-width="1" opacity="1"/><line transform="translate(0,30)" x2="-5" y2="0" stroke="#888" stroke-width="1" opacity="1"/><line transform="translate(0,0)" x2="-5" y2="0" stroke="#888" stroke-width="1" opacity="1"/></g><g class="mark-text role-axis-label" pointer-events="none"><text text-anchor="end" transform="translate(-7,303)" font-family="sans-serif" font-size="11px" fill="#000" opacity="1">0%</text><text text-anchor="end" transform="translate(-7,273)" font-family="sans-serif" font-size="11px" fill="#000" opacity="1">10%</text><text text-anchor="end" transform="translate(-7,243)" font-family="sans-serif" font-size="11px" fill="#000" opacity="1">20%</text><text text-anchor="end" transform="translate(-7,213)" font-family="sans-serif" font-size="11px" fill="#000" opacity="1">30%</text><text text-anchor="end" transform="translate(-7,183)" font-family="sans-serif" font-size="11px" fill="#000" opacity="1">40%</text><text text-anchor="end" transform="translate(-7,153)" font-family="sans-serif" font-size="11px" fill="#000" opacity="1">50%</text><text text-anchor="end" transform="translate(-7,123)" font-family="sans-serif" font-size="11px" fill="#000" opacity="1">60%</text><text text-anchor="end" transform="translate(-7,93.00000000000001)" font-family="sans-serif" font-size="11px" fill="#000" opacity="1">70%</text><text text-anchor="end" transform="translate(-7,62.999999999999986)" font-family="sans-serif" font-size="11px" fill="#000" opacity="1">80%</text><text text-anchor="end" transform="translate(-7,32.99999999999999)" font-family="sans-serif" font-size="11px" fill="#000" opacity="1">90%</text><text text-anchor="end" transform="translate(-7,3)" font-family="sans-serif" font-size="11px" fill="#000" opacity="1">100%</text></g><g class="mark-rule role-axis-domain" pointer-events="none"><line transform="translate(0,300)" x2="0" y2="-300" stroke="#888" stroke-width="1" opacity="1"/></g><g class="mark-text role-axis-title" pointer-events="none"><text text-anchor="middle" transform="translate(-39.1337890625,150) rotate(-90) translate(0,-2)" font-family="sans-serif" font-size="11px" font-weight="bold" fill="#000" opacity="1">Prevalentie</text></g></g><path class="foreground" aria-hidden="true" d="" pointer-events="none" display="none"/></g></g><g class="mark-group role-scope pathgroup" role="graphics-object" aria-roledescription="group mark container"><g transform="translate(0,0)"><path class="background" aria-hidden="true" d="M0,0h600v300h-600Z"/><g><g class="mark-area role-mark marks" role="graphics-object" aria-roledescription="area mark container"><path aria-label="Jaar: 1925; Prevalentie: 100%; Onderwerpen: Overig" role="graphics-symbol" aria-roledescription="area mark" d="M0,1.334L3,1.642L6,2.013L9,2.454L12,2.968L15,3.557L18,4.222L21,4.958L24,5.763L27,6.633L30,7.57L33,8.577L36,9.665L39,10.849L42,12.151L45,13.597L48,15.221L51,17.061L54,19.164L57,21.584L60,24.384L63,27.636L66,31.425L69,35.844L72,41.001L75,47.01L78,53.993L81,62.069L84,71.347L87,81.906L90,93.781L93,106.936L96,121.239L99,136.451L102,152.214L105,168.07L108,183.496L111,197.957L114,210.97L117,222.157L120,231.281L123,238.254L126,243.123L129,246.037L132,247.214L135,246.905L138,245.369L141,242.849L144,239.57L147,235.727L150,231.486L153,226.989L156,222.35L159,217.664L162,213.006L165,208.434L168,203.994L171,199.719L174,195.632L177,191.748L180,188.077L183,184.621L186,181.379L189,178.348L192,175.52L195,172.888L198,170.443L201,168.176L204,166.076L207,164.135L210,162.345L213,160.699L216,159.189L219,157.812L222,156.563L225,155.439L228,154.44L231,153.564L234,152.813L237,152.189L240,151.693L243,151.329L246,151.098L249,151.003L252,151.046L255,151.226L258,151.543L261,151.993L264,152.572L267,153.273L270,154.087L273,155.002L276,156.005L279,157.084L282,158.223L285,159.408L288,160.623L291,161.856L294,163.094L297,164.326L300,165.543L303,166.737L306,167.902L309,169.032L312,170.124L315,171.174L318,172.178L321,173.135L324,174.042L327,174.896L330,175.695L333,176.437L336,177.119L339,177.74L342,178.299L345,178.793L348,179.222L351,179.586L354,179.885L357,180.119L360,180.29L363,180.399L366,180.45L369,180.445L372,180.39L375,180.29L378,180.153L381,179.986L384,179.802L387,179.611L390,179.429L393,179.269L396,179.15L399,179.089L402,179.106L405,179.219L408,179.45L411,179.816L414,180.336L417,181.025L420,181.898L423,182.965L426,184.233L429,185.704L432,187.376L435,189.243L438,191.29L441,193.5L444,195.851L447,198.315L450,200.862L453,203.46L456,206.075L459,208.675L462,211.227L465,213.702L468,216.077L471,218.33L474,220.446L477,222.414L480,224.23L483,225.89L486,227.399L489,228.763L492,229.991L495,231.093L498,232.081L501,232.967L504,233.763L507,234.481L510,235.13L513,235.719L516,236.255L519,236.741L522,237.182L525,237.578L528,237.93L531,238.236L534,238.494L537,238.701L540,238.856L543,238.956L546,239.001L549,238.99L552,238.925L555,238.809L558,238.647L561,238.445L564,238.212L567,237.957L570,237.692L573,237.429L576,237.182L579,236.965L582,236.794L585,236.684L588,236.649L591,236.705L594,236.865L597,237.144L600,237.554L600,300L597,300L594,300L591,300L588,300L585,300L582,300L579,300L576,300L573,300L570,300L567,300L564,300L561,300L558,300L555,300L552,300L549,300L546,300L543,300L540,300L537,300L534,300L531,300L528,300L525,300L522,300L519,300L516,300L513,300L510,300L507,300L504,300L501,300L498,300L495,300L492,300L489,300L486,300L483,300L480,300L477,300L474,300L471,300L468,300L465,300L462,300L459,300L456,300L453,300L450,300L447,300L444,300L441,300L438,300L435,300L432,300L429,300L426,300L423,300L420,300L417,300L414,300L411,300L408,300L405,300L402,300L399,300L396,300L393,300L390,300L387,300L384,300L381,300L378,300L375,300L372,300L369,300L366,300L363,300L360,300L357,300L354,300L351,300L348,300L345,300L342,300L339,300L336,300L333,300L330,300L327,300L324,300L321,300L318,300L315,300L312,300L309,300L306,300L303,300L300,300L297,300L294,300L291,300L288,300L285,300L282,300L279,300L276,300L273,300L270,300L267,300L264,300L261,300L258,300L255,300L252,300L249,300L246,300L243,300L240,300L237,300L234,300L231,300L228,300L225,300L222,300L219,300L216,300L213,300L210,300L207,300L204,300L201,300L198,300L195,300L192,300L189,300L186,300L183,300L180,300L177,300L174,300L171,300L168,300L165,300L162,300L159,300L156,300L153,300L150,300L147,300L144,300L141,300L138,300L135,300L132,300L129,300L126,300L123,300L120,300L117,300L114,300L111,300L108,300L105,300L102,300L99,300L96,300L93,300L90,300L87,300L84,300L81,300L78,300L75,300L72,300L69,300L66,300L63,300L60,300L57,300L54,300L51,300L48,300L45,300L42,300L39,300L36,300L33,300L30,300L27,300L24,300L21,300L18,300L15,300L12,300L9,300L6,300L3,300L0,300Z" fill="#C8C8C8" opacity="0.7"/></g></g><path class="foreground" aria-hidden="true" d="" display="none"/></g><g transform="translate(0,0)"><path class="background" aria-hidden="true" d="M0,0h600v300h-600Z"/><g><g class="mark-area role-mark marks" role="graphics-object" aria-roledescription="area mark container"><path aria-label="Jaar: 1925; Prevalentie: 0%; Onderwerpen: Migratie en Integratie" role="graphics-symbol" aria-roledescription="area mark" d="M0,1.334L3,1.642L6,2.013L9,2.454L12,2.968L15,3.557L18,4.222L21,4.958L24,5.763L27,6.633L30,7.57L33,8.577L36,9.665L39,10.849L42,12.151L45,13.597L48,15.22L51,17.06L54,19.162L57,21.581L60,24.38L63,27.63L66,31.414L69,35.828L72,40.977L75,46.973L78,53.936L81,61.983L84,71.217L87,81.712L90,93.495L93,106.516L96,120.634L99,135.589L102,151.006L105,166.406L108,181.246L111,194.971L114,207.083L117,217.193L120,225.058L123,230.591L126,233.842L129,234.974L132,234.216L135,231.839L138,228.12L141,223.328L144,217.713L147,211.496L150,204.872L153,198.009L156,191.049L159,184.113L162,177.297L165,170.682L168,164.331L171,158.292L174,152.601L177,147.282L180,142.353L183,137.82L186,133.687L189,129.951L192,126.606L195,123.643L198,121.054L201,118.825L204,116.945L207,115.402L210,114.184L213,113.278L216,112.672L219,112.355L222,112.316L225,112.542L228,113.023L231,113.745L234,114.697L237,115.864L240,117.231L243,118.78L246,120.493L249,122.348L252,124.322L255,126.386L258,128.512L261,130.669L264,132.822L267,134.937L270,136.979L273,138.914L276,140.711L279,142.341L282,143.781L285,145.015L288,146.03L291,146.823L294,147.398L297,147.764L300,147.935L303,147.933L306,147.78L309,147.5L312,147.119L315,146.663L318,146.154L321,145.613L324,145.058L327,144.504L330,143.96L333,143.434L336,142.927L339,142.44L342,141.968L345,141.503L348,141.035L351,140.551L354,140.039L357,139.484L360,138.871L363,138.187L366,137.421L369,136.564L372,135.609L375,134.555L378,133.401L381,132.154L384,130.821L387,129.413L390,127.942L393,126.422L396,124.867L399,123.291L402,121.705L405,120.121L408,118.545L411,116.983L414,115.436L417,113.904L420,112.381L423,110.863L426,109.341L429,107.803L432,106.241L435,104.642L438,102.996L441,101.294L444,99.528L447,97.693L450,95.787L453,93.813L456,91.772L459,89.675L462,87.53L465,85.35L468,83.149L471,80.943L474,78.745L477,76.572L480,74.438L483,72.354L486,70.332L489,68.38L492,66.507L495,64.718L498,63.016L501,61.405L504,59.885L507,58.457L510,57.122L513,55.877L516,54.723L519,53.659L522,52.684L525,51.798L528,51.001L531,50.293L534,49.675L537,49.148L540,48.715L543,48.376L546,48.135L549,47.995L552,47.958L555,48.029L558,48.211L561,48.509L564,48.929L567,49.476L570,50.156L573,50.979L576,51.951L579,53.082L582,54.383L585,55.867L588,57.546L591,59.435L594,61.553L597,63.916L600,66.546L600,237.554L597,237.144L594,236.865L591,236.705L588,236.649L585,236.684L582,236.794L579,236.965L576,237.182L573,237.429L570,237.692L567,237.957L564,238.212L561,238.445L558,238.647L555,238.809L552,238.925L549,238.99L546,239.001L543,238.956L540,238.856L537,238.701L534,238.494L531,238.236L528,237.93L525,237.578L522,237.182L519,236.741L516,236.255L513,235.719L510,235.13L507,234.481L504,233.763L501,232.967L498,232.081L495,231.093L492,229.991L489,228.763L486,227.399L483,225.89L480,224.23L477,222.414L474,220.446L471,218.33L468,216.077L465,213.702L462,211.227L459,208.675L456,206.075L453,203.46L450,200.862L447,198.315L444,195.851L441,193.5L438,191.29L435,189.243L432,187.376L429,185.704L426,184.233L423,182.965L420,181.898L417,181.025L414,180.336L411,179.816L408,179.45L405,179.219L402,179.106L399,179.089L396,179.15L393,179.269L390,179.429L387,179.611L384,179.802L381,179.986L378,180.153L375,180.29L372,180.39L369,180.445L366,180.45L363,180.399L360,180.29L357,180.119L354,179.885L351,179.586L348,179.222L345,178.793L342,178.299L339,177.74L336,177.119L333,176.437L330,175.695L327,174.896L324,174.042L321,173.135L318,172.178L315,171.174L312,170.124L309,169.032L306,167.902L303,166.737L300,165.543L297,164.326L294,163.094L291,161.856L288,160.623L285,159.408L282,158.223L279,157.084L276,156.005L273,155.002L270,154.087L267,153.273L264,152.572L261,151.993L258,151.543L255,151.226L252,151.046L249,151.003L246,151.098L243,151.329L240,151.693L237,152.189L234,152.813L231,153.564L228,154.44L225,155.439L222,156.563L219,157.812L216,159.189L213,160.699L210,162.345L207,164.135L204,166.076L201,168.176L198,170.443L195,172.888L192,175.52L189,178.348L186,181.379L183,184.621L180,188.077L177,191.748L174,195.632L171,199.719L168,203.994L165,208.434L162,213.006L159,217.664L156,222.35L153,226.989L150,231.486L147,235.727L144,239.57L141,242.849L138,245.369L135,246.905L132,247.214L129,246.037L126,243.123L123,238.254L120,231.281L117,222.157L114,210.97L111,197.957L108,183.496L105,168.07L102,152.214L99,136.451L96,121.239L93,106.936L90,93.781L87,81.906L84,71.347L81,62.069L78,53.993L75,47.01L72,41.001L69,35.844L66,31.425L63,27.636L60,24.384L57,21.584L54,19.164L51,17.061L48,15.221L45,13.597L42,12.151L39,10.849L36,9.665L33,8.577L30,7.57L27,6.633L24,5.763L21,4.958L18,4.222L15,3.557L12,2.968L9,2.454L6,2.013L3,1.642L0,1.334Z" fill="#111111" opacity="0.7"/></g></g><path class="foreground" aria-hidden="true" d="" display="none"/></g><g transform="translate(0,0)"><path class="background" aria-hidden="true" d="M0,0h600v300h-600Z"/><g><g class="mark-area role-mark marks" role="graphics-object" aria-roledescription="area mark container"><path aria-label="Jaar: 1925; Prevalentie: 0%; Onderwerpen: Economie" role="graphics-symbol" aria-roledescription="area mark" d="M0,0L3,0L6,0L9,0L12,0L15,0L18,0L21,0L24,0L27,0L30,0L33,0L36,0L39,0L42,0L45,0L48,0L51,0L54,0L57,0L60,0L63,0L66,0L69,0L72,0L75,0L78,0L81,0L84,0L87,0L90,0L93,0L96,0L99,0L102,0L105,0L108,0L111,0L114,0L117,0L120,0L123,0L126,0L129,0L132,0L135,0L138,0L141,0L144,0L147,0L150,0L153,0L156,0L159,0L162,0L165,0L168,0L171,0L174,0L177,0L180,0L183,0L186,0L189,0L192,0L195,0L198,0L201,0L204,0L207,0L210,0L213,0L216,0L219,0L222,0L225,0L228,0L231,0L234,0L237,0L240,0L243,0L246,0L249,0L252,0L255,0L258,0L261,0L264,0L267,0L270,0L273,0L276,0L279,0L282,0L285,0L288,0L291,0L294,0L297,0L300,0L303,0L306,0L309,0L312,0L315,0L318,0L321,0L324,0L327,0L330,0L333,0L336,0L339,0L342,0L345,0L348,0L351,0L354,0L357,0L360,0L363,0L366,0L369,0L372,0L375,0L378,0L381,0L384,0L387,0L390,0L393,0L396,0L399,0L402,0L405,0L408,0L411,0L414,0L417,0L420,0L423,0L426,0L429,0L432,0L435,0L438,0L441,0L444,0L447,0L450,0L453,0L456,0L459,0L462,0L465,0L468,0L471,0L474,0L477,0L480,0L483,0L486,0L489,0L492,0L495,0L498,0L501,0L504,0L507,0L510,0L513,0L516,0L519,0L522,0L525,0L528,0L531,0L534,0L537,0L540,0L543,0L546,0L549,0L552,0L555,0L558,0L561,0L564,0L567,0L570,0L573,0L576,0L579,0L582,0L585,0L588,0L591,0L594,0L597,0L600,0L600,66.546L597,63.916L594,61.553L591,59.435L588,57.546L585,55.867L582,54.383L579,53.082L576,51.951L573,50.979L570,50.156L567,49.476L564,48.929L561,48.509L558,48.211L555,48.029L552,47.958L549,47.995L546,48.135L543,48.376L540,48.715L537,49.148L534,49.675L531,50.293L528,51.001L525,51.798L522,52.684L519,53.659L516,54.723L513,55.877L510,57.122L507,58.457L504,59.885L501,61.405L498,63.016L495,64.718L492,66.507L489,68.38L486,70.332L483,72.354L480,74.438L477,76.572L474,78.745L471,80.943L468,83.149L465,85.35L462,87.53L459,89.675L456,91.772L453,93.813L450,95.787L447,97.693L444,99.528L441,101.294L438,102.996L435,104.642L432,106.241L429,107.803L426,109.341L423,110.863L420,112.381L417,113.904L414,115.436L411,116.983L408,118.545L405,120.121L402,121.705L399,123.291L396,124.867L393,126.422L390,127.942L387,129.413L384,130.821L381,132.154L378,133.401L375,134.555L372,135.609L369,136.564L366,137.421L363,138.187L360,138.871L357,139.484L354,140.039L351,140.551L348,141.035L345,141.503L342,141.968L339,142.44L336,142.927L333,143.434L330,143.96L327,144.504L324,145.058L321,145.613L318,146.154L315,146.663L312,147.119L309,147.5L306,147.78L303,147.933L300,147.935L297,147.764L294,147.398L291,146.823L288,146.03L285,145.015L282,143.781L279,142.341L276,140.711L273,138.914L270,136.979L267,134.937L264,132.822L261,130.669L258,128.512L255,126.386L252,124.322L249,122.348L246,120.493L243,118.78L240,117.231L237,115.864L234,114.697L231,113.745L228,113.023L225,112.542L222,112.316L219,112.355L216,112.672L213,113.278L210,114.184L207,115.402L204,116.945L201,118.825L198,121.054L195,123.643L192,126.606L189,129.951L186,133.687L183,137.82L180,142.353L177,147.282L174,152.601L171,158.292L168,164.331L165,170.682L162,177.297L159,184.113L156,191.049L153,198.009L150,204.872L147,211.496L144,217.713L141,223.328L138,228.12L135,231.839L132,234.216L129,234.974L126,233.842L123,230.591L120,225.058L117,217.193L114,207.083L111,194.971L108,181.246L105,166.406L102,151.006L99,135.589L96,120.634L93,106.516L90,93.495L87,81.712L84,71.217L81,61.983L78,53.936L75,46.973L72,40.977L69,35.828L66,31.414L63,27.63L60,24.38L57,21.581L54,19.162L51,17.06L48,15.22L45,13.597L42,12.151L39,10.849L36,9.665L33,8.577L30,7.57L27,6.633L24,5.763L21,4.958L18,4.222L15,3.557L12,2.968L9,2.454L6,2.013L3,1.642L0,1.334Z" fill="#DDDDDD" opacity="0.7"/></g></g><path class="foreground" aria-hidden="true" d="" display="none"/></g></g><g class="mark-group role-legend" role="graphics-symbol" aria-roledescription="legend" aria-label="Symbol legend titled 'Onderwerpen' for fill color with 3 values: Economie, Migratie en Integratie, Overig"><g transform="translate(0,351)"><path class="background" aria-hidden="true" d="M0,0h254v27h-254Z" pointer-events="none"/><g><g class="mark-group role-legend-entry"><g transform="translate(0,16)"><path class="background" aria-hidden="true" d="M0,0h0v0h0Z" pointer-events="none"/><g><g class="mark-group role-scope" role="graphics-object" aria-roledescription="group mark container"><g transform="translate(0,0)"><path class="background" aria-hidden="true" d="M0,0h64.91455078125v11h-64.91455078125Z" pointer-events="none" opacity="1"/><g><g class="mark-symbol role-legend-symbol" pointer-events="none"><path transform="translate(6,6)" d="M5,0A5,5,0,1,1,-5,0A5,5,0,1,1,5,0" fill="#DDDDDD" stroke-width="1.5" opacity="0.7"/></g><g class="mark-text role-legend-label" pointer-events="none"><text text-anchor="start" transform="translate(16,9)" font-family="sans-serif" font-size="11px" fill="#000" opacity="1">Economie</text></g></g><path class="foreground" aria-hidden="true" d="" pointer-events="none" display="none"/></g><g transform="translate(75,0)"><path class="background" aria-hidden="true" d="M0,0h119.33447265625v11h-119.33447265625Z" pointer-events="none" opacity="1"/><g><g class="mark-symbol role-legend-symbol" pointer-events="none"><path transform="translate(6,6)" d="M5,0A5,5,0,1,1,-5,0A5,5,0,1,1,5,0" fill="#111111" stroke-width="1.5" opacity="0.7"/></g><g class="mark-text role-legend-label" pointer-events="none"><text text-anchor="start" transform="translate(16,9)" font-family="sans-serif" font-size="11px" fill="#000" opacity="1">Migratie en Integratie</text></g></g><path class="foreground" aria-hidden="true" d="" pointer-events="none" display="none"/></g><g transform="translate(205,0)"><path class="background" aria-hidden="true" d="M0,0h48.3984375v11h-48.3984375Z" pointer-events="none" opacity="1"/><g><g class="mark-symbol role-legend-symbol" pointer-events="none"><path transform="translate(6,6)" d="M5,0A5,5,0,1,1,-5,0A5,5,0,1,1,5,0" fill="#C8C8C8" stroke-width="1.5" opacity="0.7"/></g><g class="mark-text role-legend-label" pointer-events="none"><text text-anchor="start" transform="translate(16,9)" font-family="sans-serif" font-size="11px" fill="#000" opacity="1">Overig</text></g></g><path class="foreground" aria-hidden="true" d="" pointer-events="none" display="none"/></g></g></g><path class="foreground" aria-hidden="true" d="" pointer-events="none" display="none"/></g></g><g class="mark-text role-legend-title" pointer-events="none"><text text-anchor="start" transform="translate(0,9)" font-family="sans-serif" font-size="11px" font-weight="bold" fill="#000" opacity="1">Onderwerpen</text></g></g><path class="foreground" aria-hidden="true" d="" pointer-events="none" display="none"/></g></g></g><path class="foreground" aria-hidden="true" d="" display="none"/></g></g></g></svg>